<?xml version="1.0" encoding="utf-8" standalone="no"?>
<!DOCTYPE svg PUBLIC "-//W3C//DTD SVG 1.1//EN"
  "http://www.w3.org/Graphics/SVG/1.1/DTD/svg11.dtd">
<!-- Created with matplotlib (http://matplotlib.sourceforge.net/) -->
<svg height="576pt" version="1.1" viewBox="0 0 720 576" width="720pt" xmlns="http://www.w3.org/2000/svg" xmlns:xlink="http://www.w3.org/1999/xlink">
 <defs>
  <style type="text/css">
*{stroke-linecap:square;stroke-linejoin:round;}
  </style>
 </defs>
 <g id="figure_1">
  <g id="patch_1">
   <path d="
M0 576
L720 576
L720 0
L0 0
z
" style="fill:#ffffff;"/>
  </g>
  <g id="axes_1">
   <g id="patch_2">
    <path d="
M90 504
L648 504
L648 57.6
L90 57.6
z
" style="fill:#e5e5e5;"/>
   </g>
   <g id="matplotlib.axis_1">
    <g id="xtick_1">
     <g id="line2d_1">
      <path clip-path="url(#p337f83845a)" d="
M90 504
L90 57.6" style="fill:none;stroke:#ffffff;stroke-width:0.5;"/>
     </g>
     <g id="line2d_2">
      <defs>
       <path d="
M0 0
L0 4" id="m33224d4886" style="stroke:#555555;stroke-linecap:butt;stroke-width:0.5;"/>
      </defs>
      <g>
       <use style="fill:#555555;stroke:#555555;stroke-linecap:butt;stroke-width:0.5;" x="90.0" xlink:href="#m33224d4886" y="504.0"/>
      </g>
     </g>
     <g id="line2d_3">
      <defs>
       <path d="
M0 0
L0 -4" id="m5ed645569d" style="stroke:#555555;stroke-linecap:butt;stroke-width:0.5;"/>
      </defs>
      <g>
       <use style="fill:#555555;stroke:#555555;stroke-linecap:butt;stroke-width:0.5;" x="90.0" xlink:href="#m5ed645569d" y="57.6"/>
      </g>
     </g>
     <g id="text_1">
      <!-- 0 -->
      <defs>
       <path d="
M31.7812 66.4062
Q24.1719 66.4062 20.3281 58.9062
Q16.5 51.4219 16.5 36.375
Q16.5 21.3906 20.3281 13.8906
Q24.1719 6.39062 31.7812 6.39062
Q39.4531 6.39062 43.2812 13.8906
Q47.125 21.3906 47.125 36.375
Q47.125 51.4219 43.2812 58.9062
Q39.4531 66.4062 31.7812 66.4062
M31.7812 74.2188
Q44.0469 74.2188 50.5156 64.5156
Q56.9844 54.8281 56.9844 36.375
Q56.9844 17.9688 50.5156 8.26562
Q44.0469 -1.42188 31.7812 -1.42188
Q19.5312 -1.42188 13.0625 8.26562
Q6.59375 17.9688 6.59375 36.375
Q6.59375 54.8281 13.0625 64.5156
Q19.5312 74.2188 31.7812 74.2188" id="DejaVuSans-30"/>
      </defs>
      <g style="fill:#555555;" transform="translate(87.48046875 519.421875)scale(0.1 -0.1)">
       <use xlink:href="#DejaVuSans-30"/>
      </g>
     </g>
    </g>
    <g id="xtick_2">
     <g id="line2d_4">
      <path clip-path="url(#p337f83845a)" d="
M119.368 504
L119.368 57.6" style="fill:none;stroke:#ffffff;stroke-width:0.5;"/>
     </g>
     <g id="line2d_5">
      <g>
       <use style="fill:#555555;stroke:#555555;stroke-linecap:butt;stroke-width:0.5;" x="119.368421053" xlink:href="#m33224d4886" y="504.0"/>
      </g>
     </g>
     <g id="line2d_6">
      <g>
       <use style="fill:#555555;stroke:#555555;stroke-linecap:butt;stroke-width:0.5;" x="119.368421053" xlink:href="#m5ed645569d" y="57.6"/>
      </g>
     </g>
     <g id="text_2">
      <!-- 1 -->
      <defs>
       <path d="
M12.4062 8.29688
L28.5156 8.29688
L28.5156 63.9219
L10.9844 60.4062
L10.9844 69.3906
L28.4219 72.9062
L38.2812 72.9062
L38.2812 8.29688
L54.3906 8.29688
L54.3906 0
L12.4062 0
z
" id="DejaVuSans-31"/>
      </defs>
      <g style="fill:#555555;" transform="translate(117.198108553 519.290625)scale(0.1 -0.1)">
       <use xlink:href="#DejaVuSans-31"/>
      </g>
     </g>
    </g>
    <g id="xtick_3">
     <g id="line2d_7">
      <path clip-path="url(#p337f83845a)" d="
M148.737 504
L148.737 57.6" style="fill:none;stroke:#ffffff;stroke-width:0.5;"/>
     </g>
     <g id="line2d_8">
      <g>
       <use style="fill:#555555;stroke:#555555;stroke-linecap:butt;stroke-width:0.5;" x="148.736842105" xlink:href="#m33224d4886" y="504.0"/>
      </g>
     </g>
     <g id="line2d_9">
      <g>
       <use style="fill:#555555;stroke:#555555;stroke-linecap:butt;stroke-width:0.5;" x="148.736842105" xlink:href="#m5ed645569d" y="57.6"/>
      </g>
     </g>
     <g id="text_3">
      <!-- 2 -->
      <defs>
       <path d="
M19.1875 8.29688
L53.6094 8.29688
L53.6094 0
L7.32812 0
L7.32812 8.29688
Q12.9375 14.1094 22.625 23.8906
Q32.3281 33.6875 34.8125 36.5312
Q39.5469 41.8438 41.4219 45.5312
Q43.3125 49.2188 43.3125 52.7812
Q43.3125 58.5938 39.2344 62.25
Q35.1562 65.9219 28.6094 65.9219
Q23.9688 65.9219 18.8125 64.3125
Q13.6719 62.7031 7.8125 59.4219
L7.8125 69.3906
Q13.7656 71.7812 18.9375 73
Q24.125 74.2188 28.4219 74.2188
Q39.75 74.2188 46.4844 68.5469
Q53.2188 62.8906 53.2188 53.4219
Q53.2188 48.9219 51.5312 44.8906
Q49.8594 40.875 45.4062 35.4062
Q44.1875 33.9844 37.6406 27.2188
Q31.1094 20.4531 19.1875 8.29688" id="DejaVuSans-32"/>
      </defs>
      <g style="fill:#555555;" transform="translate(146.422779605 519.421875)scale(0.1 -0.1)">
       <use xlink:href="#DejaVuSans-32"/>
      </g>
     </g>
    </g>
    <g id="xtick_4">
     <g id="line2d_10">
      <path clip-path="url(#p337f83845a)" d="
M178.105 504
L178.105 57.6" style="fill:none;stroke:#ffffff;stroke-width:0.5;"/>
     </g>
     <g id="line2d_11">
      <g>
       <use style="fill:#555555;stroke:#555555;stroke-linecap:butt;stroke-width:0.5;" x="178.105263158" xlink:href="#m33224d4886" y="504.0"/>
      </g>
     </g>
     <g id="line2d_12">
      <g>
       <use style="fill:#555555;stroke:#555555;stroke-linecap:butt;stroke-width:0.5;" x="178.105263158" xlink:href="#m5ed645569d" y="57.6"/>
      </g>
     </g>
     <g id="text_4">
      <!-- 3 -->
      <defs>
       <path d="
M40.5781 39.3125
Q47.6562 37.7969 51.625 33
Q55.6094 28.2188 55.6094 21.1875
Q55.6094 10.4062 48.1875 4.48438
Q40.7656 -1.42188 27.0938 -1.42188
Q22.5156 -1.42188 17.6562 -0.515625
Q12.7969 0.390625 7.625 2.20312
L7.625 11.7188
Q11.7188 9.32812 16.5938 8.10938
Q21.4844 6.89062 26.8125 6.89062
Q36.0781 6.89062 40.9375 10.5469
Q45.7969 14.2031 45.7969 21.1875
Q45.7969 27.6406 41.2812 31.2656
Q36.7656 34.9062 28.7188 34.9062
L20.2188 34.9062
L20.2188 43.0156
L29.1094 43.0156
Q36.375 43.0156 40.2344 45.9219
Q44.0938 48.8281 44.0938 54.2969
Q44.0938 59.9062 40.1094 62.9062
Q36.1406 65.9219 28.7188 65.9219
Q24.6562 65.9219 20.0156 65.0312
Q15.375 64.1562 9.8125 62.3125
L9.8125 71.0938
Q15.4375 72.6562 20.3438 73.4375
Q25.25 74.2188 29.5938 74.2188
Q40.8281 74.2188 47.3594 69.1094
Q53.9062 64.0156 53.9062 55.3281
Q53.9062 49.2656 50.4375 45.0938
Q46.9688 40.9219 40.5781 39.3125" id="DejaVuSans-33"/>
      </defs>
      <g style="fill:#555555;" transform="translate(175.706044408 519.421875)scale(0.1 -0.1)">
       <use xlink:href="#DejaVuSans-33"/>
      </g>
     </g>
    </g>
    <g id="xtick_5">
     <g id="line2d_13">
      <path clip-path="url(#p337f83845a)" d="
M207.474 504
L207.474 57.6" style="fill:none;stroke:#ffffff;stroke-width:0.5;"/>
     </g>
     <g id="line2d_14">
      <g>
       <use style="fill:#555555;stroke:#555555;stroke-linecap:butt;stroke-width:0.5;" x="207.473684211" xlink:href="#m33224d4886" y="504.0"/>
      </g>
     </g>
     <g id="line2d_15">
      <g>
       <use style="fill:#555555;stroke:#555555;stroke-linecap:butt;stroke-width:0.5;" x="207.473684211" xlink:href="#m5ed645569d" y="57.6"/>
      </g>
     </g>
     <g id="text_5">
      <!-- 4 -->
      <defs>
       <path d="
M37.7969 64.3125
L12.8906 25.3906
L37.7969 25.3906
z

M35.2031 72.9062
L47.6094 72.9062
L47.6094 25.3906
L58.0156 25.3906
L58.0156 17.1875
L47.6094 17.1875
L47.6094 0
L37.7969 0
L37.7969 17.1875
L4.89062 17.1875
L4.89062 26.7031
z
" id="DejaVuSans-34"/>
      </defs>
      <g style="fill:#555555;" transform="translate(204.817434211 519.290625)scale(0.1 -0.1)">
       <use xlink:href="#DejaVuSans-34"/>
      </g>
     </g>
    </g>
    <g id="xtick_6">
     <g id="line2d_16">
      <path clip-path="url(#p337f83845a)" d="
M236.842 504
L236.842 57.6" style="fill:none;stroke:#ffffff;stroke-width:0.5;"/>
     </g>
     <g id="line2d_17">
      <g>
       <use style="fill:#555555;stroke:#555555;stroke-linecap:butt;stroke-width:0.5;" x="236.842105263" xlink:href="#m33224d4886" y="504.0"/>
      </g>
     </g>
     <g id="line2d_18">
      <g>
       <use style="fill:#555555;stroke:#555555;stroke-linecap:butt;stroke-width:0.5;" x="236.842105263" xlink:href="#m5ed645569d" y="57.6"/>
      </g>
     </g>
     <g id="text_6">
      <!-- 5 -->
      <defs>
       <path d="
M10.7969 72.9062
L49.5156 72.9062
L49.5156 64.5938
L19.8281 64.5938
L19.8281 46.7344
Q21.9688 47.4688 24.1094 47.8281
Q26.2656 48.1875 28.4219 48.1875
Q40.625 48.1875 47.75 41.5
Q54.8906 34.8125 54.8906 23.3906
Q54.8906 11.625 47.5625 5.09375
Q40.2344 -1.42188 26.9062 -1.42188
Q22.3125 -1.42188 17.5469 -0.640625
Q12.7969 0.140625 7.71875 1.70312
L7.71875 11.625
Q12.1094 9.23438 16.7969 8.0625
Q21.4844 6.89062 26.7031 6.89062
Q35.1562 6.89062 40.0781 11.3281
Q45.0156 15.7656 45.0156 23.3906
Q45.0156 31 40.0781 35.4375
Q35.1562 39.8906 26.7031 39.8906
Q22.75 39.8906 18.8125 39.0156
Q14.8906 38.1406 10.7969 36.2812
z
" id="DejaVuSans-35"/>
      </defs>
      <g style="fill:#555555;" transform="translate(234.483511513 519.290625)scale(0.1 -0.1)">
       <use xlink:href="#DejaVuSans-35"/>
      </g>
     </g>
    </g>
    <g id="xtick_7">
     <g id="line2d_19">
      <path clip-path="url(#p337f83845a)" d="
M266.211 504
L266.211 57.6" style="fill:none;stroke:#ffffff;stroke-width:0.5;"/>
     </g>
     <g id="line2d_20">
      <g>
       <use style="fill:#555555;stroke:#555555;stroke-linecap:butt;stroke-width:0.5;" x="266.210526316" xlink:href="#m33224d4886" y="504.0"/>
      </g>
     </g>
     <g id="line2d_21">
      <g>
       <use style="fill:#555555;stroke:#555555;stroke-linecap:butt;stroke-width:0.5;" x="266.210526316" xlink:href="#m5ed645569d" y="57.6"/>
      </g>
     </g>
     <g id="text_7">
      <!-- 6 -->
      <defs>
       <path d="
M33.0156 40.375
Q26.375 40.375 22.4844 35.8281
Q18.6094 31.2969 18.6094 23.3906
Q18.6094 15.5312 22.4844 10.9531
Q26.375 6.39062 33.0156 6.39062
Q39.6562 6.39062 43.5312 10.9531
Q47.4062 15.5312 47.4062 23.3906
Q47.4062 31.2969 43.5312 35.8281
Q39.6562 40.375 33.0156 40.375
M52.5938 71.2969
L52.5938 62.3125
Q48.875 64.0625 45.0938 64.9844
Q41.3125 65.9219 37.5938 65.9219
Q27.8281 65.9219 22.6719 59.3281
Q17.5312 52.7344 16.7969 39.4062
Q19.6719 43.6562 24.0156 45.9219
Q28.375 48.1875 33.5938 48.1875
Q44.5781 48.1875 50.9531 41.5156
Q57.3281 34.8594 57.3281 23.3906
Q57.3281 12.1562 50.6875 5.35938
Q44.0469 -1.42188 33.0156 -1.42188
Q20.3594 -1.42188 13.6719 8.26562
Q6.98438 17.9688 6.98438 36.375
Q6.98438 53.6562 15.1875 63.9375
Q23.3906 74.2188 37.2031 74.2188
Q40.9219 74.2188 44.7031 73.4844
Q48.4844 72.75 52.5938 71.2969" id="DejaVuSans-36"/>
      </defs>
      <g style="fill:#555555;" transform="translate(263.693338816 519.421875)scale(0.1 -0.1)">
       <use xlink:href="#DejaVuSans-36"/>
      </g>
     </g>
    </g>
    <g id="xtick_8">
     <g id="line2d_22">
      <path clip-path="url(#p337f83845a)" d="
M295.579 504
L295.579 57.6" style="fill:none;stroke:#ffffff;stroke-width:0.5;"/>
     </g>
     <g id="line2d_23">
      <g>
       <use style="fill:#555555;stroke:#555555;stroke-linecap:butt;stroke-width:0.5;" x="295.578947368" xlink:href="#m33224d4886" y="504.0"/>
      </g>
     </g>
     <g id="line2d_24">
      <g>
       <use style="fill:#555555;stroke:#555555;stroke-linecap:butt;stroke-width:0.5;" x="295.578947368" xlink:href="#m5ed645569d" y="57.6"/>
      </g>
     </g>
     <g id="text_8">
      <!-- 7 -->
      <defs>
       <path d="
M8.20312 72.9062
L55.0781 72.9062
L55.0781 68.7031
L28.6094 0
L18.3125 0
L43.2188 64.5938
L8.20312 64.5938
z
" id="DejaVuSans-37"/>
      </defs>
      <g style="fill:#555555;" transform="translate(293.235197368 519.290625)scale(0.1 -0.1)">
       <use xlink:href="#DejaVuSans-37"/>
      </g>
     </g>
    </g>
    <g id="xtick_9">
     <g id="line2d_25">
      <path clip-path="url(#p337f83845a)" d="
M324.947 504
L324.947 57.6" style="fill:none;stroke:#ffffff;stroke-width:0.5;"/>
     </g>
     <g id="line2d_26">
      <g>
       <use style="fill:#555555;stroke:#555555;stroke-linecap:butt;stroke-width:0.5;" x="324.947368421" xlink:href="#m33224d4886" y="504.0"/>
      </g>
     </g>
     <g id="line2d_27">
      <g>
       <use style="fill:#555555;stroke:#555555;stroke-linecap:butt;stroke-width:0.5;" x="324.947368421" xlink:href="#m5ed645569d" y="57.6"/>
      </g>
     </g>
     <g id="text_9">
      <!-- 8 -->
      <defs>
       <path d="
M31.7812 34.625
Q24.75 34.625 20.7188 30.8594
Q16.7031 27.0938 16.7031 20.5156
Q16.7031 13.9219 20.7188 10.1562
Q24.75 6.39062 31.7812 6.39062
Q38.8125 6.39062 42.8594 10.1719
Q46.9219 13.9688 46.9219 20.5156
Q46.9219 27.0938 42.8906 30.8594
Q38.875 34.625 31.7812 34.625
M21.9219 38.8125
Q15.5781 40.375 12.0312 44.7188
Q8.5 49.0781 8.5 55.3281
Q8.5 64.0625 14.7188 69.1406
Q20.9531 74.2188 31.7812 74.2188
Q42.6719 74.2188 48.875 69.1406
Q55.0781 64.0625 55.0781 55.3281
Q55.0781 49.0781 51.5312 44.7188
Q48 40.375 41.7031 38.8125
Q48.8281 37.1562 52.7969 32.3125
Q56.7812 27.4844 56.7812 20.5156
Q56.7812 9.90625 50.3125 4.23438
Q43.8438 -1.42188 31.7812 -1.42188
Q19.7344 -1.42188 13.25 4.23438
Q6.78125 9.90625 6.78125 20.5156
Q6.78125 27.4844 10.7812 32.3125
Q14.7969 37.1562 21.9219 38.8125
M18.3125 54.3906
Q18.3125 48.7344 21.8438 45.5625
Q25.3906 42.3906 31.7812 42.3906
Q38.1406 42.3906 41.7188 45.5625
Q45.3125 48.7344 45.3125 54.3906
Q45.3125 60.0625 41.7188 63.2344
Q38.1406 66.4062 31.7812 66.4062
Q25.3906 66.4062 21.8438 63.2344
Q18.3125 60.0625 18.3125 54.3906" id="DejaVuSans-38"/>
      </defs>
      <g style="fill:#555555;" transform="translate(322.447368421 519.421875)scale(0.1 -0.1)">
       <use xlink:href="#DejaVuSans-38"/>
      </g>
     </g>
    </g>
    <g id="xtick_10">
     <g id="line2d_28">
      <path clip-path="url(#p337f83845a)" d="
M354.316 504
L354.316 57.6" style="fill:none;stroke:#ffffff;stroke-width:0.5;"/>
     </g>
     <g id="line2d_29">
      <g>
       <use style="fill:#555555;stroke:#555555;stroke-linecap:butt;stroke-width:0.5;" x="354.315789474" xlink:href="#m33224d4886" y="504.0"/>
      </g>
     </g>
     <g id="line2d_30">
      <g>
       <use style="fill:#555555;stroke:#555555;stroke-linecap:butt;stroke-width:0.5;" x="354.315789474" xlink:href="#m5ed645569d" y="57.6"/>
      </g>
     </g>
     <g id="text_10">
      <!-- 9 -->
      <defs>
       <path d="
M10.9844 1.51562
L10.9844 10.5
Q14.7031 8.73438 18.5 7.8125
Q22.3125 6.89062 25.9844 6.89062
Q35.75 6.89062 40.8906 13.4531
Q46.0469 20.0156 46.7812 33.4062
Q43.9531 29.2031 39.5938 26.9531
Q35.25 24.7031 29.9844 24.7031
Q19.0469 24.7031 12.6719 31.3125
Q6.29688 37.9375 6.29688 49.4219
Q6.29688 60.6406 12.9375 67.4219
Q19.5781 74.2188 30.6094 74.2188
Q43.2656 74.2188 49.9219 64.5156
Q56.5938 54.8281 56.5938 36.375
Q56.5938 19.1406 48.4062 8.85938
Q40.2344 -1.42188 26.4219 -1.42188
Q22.7031 -1.42188 18.8906 -0.6875
Q15.0938 0.046875 10.9844 1.51562
M30.6094 32.4219
Q37.25 32.4219 41.125 36.9531
Q45.0156 41.5 45.0156 49.4219
Q45.0156 57.2812 41.125 61.8438
Q37.25 66.4062 30.6094 66.4062
Q23.9688 66.4062 20.0938 61.8438
Q16.2188 57.2812 16.2188 49.4219
Q16.2188 41.5 20.0938 36.9531
Q23.9688 32.4219 30.6094 32.4219" id="DejaVuSans-39"/>
      </defs>
      <g style="fill:#555555;" transform="translate(351.800945724 519.421875)scale(0.1 -0.1)">
       <use xlink:href="#DejaVuSans-39"/>
      </g>
     </g>
    </g>
    <g id="xtick_11">
     <g id="line2d_31">
      <path clip-path="url(#p337f83845a)" d="
M383.684 504
L383.684 57.6" style="fill:none;stroke:#ffffff;stroke-width:0.5;"/>
     </g>
     <g id="line2d_32">
      <g>
       <use style="fill:#555555;stroke:#555555;stroke-linecap:butt;stroke-width:0.5;" x="383.684210526" xlink:href="#m33224d4886" y="504.0"/>
      </g>
     </g>
     <g id="line2d_33">
      <g>
       <use style="fill:#555555;stroke:#555555;stroke-linecap:butt;stroke-width:0.5;" x="383.684210526" xlink:href="#m5ed645569d" y="57.6"/>
      </g>
     </g>
     <g id="text_11">
      <!-- 10 -->
      <g style="fill:#555555;" transform="translate(378.202960526 519.421875)scale(0.1 -0.1)">
       <use xlink:href="#DejaVuSans-31"/>
       <use x="63.623046875" xlink:href="#DejaVuSans-30"/>
      </g>
     </g>
    </g>
    <g id="xtick_12">
     <g id="line2d_34">
      <path clip-path="url(#p337f83845a)" d="
M413.053 504
L413.053 57.6" style="fill:none;stroke:#ffffff;stroke-width:0.5;"/>
     </g>
     <g id="line2d_35">
      <g>
       <use style="fill:#555555;stroke:#555555;stroke-linecap:butt;stroke-width:0.5;" x="413.052631579" xlink:href="#m33224d4886" y="504.0"/>
      </g>
     </g>
     <g id="line2d_36">
      <g>
       <use style="fill:#555555;stroke:#555555;stroke-linecap:butt;stroke-width:0.5;" x="413.052631579" xlink:href="#m5ed645569d" y="57.6"/>
      </g>
     </g>
     <g id="text_12">
      <!-- 11 -->
      <g style="fill:#555555;" transform="translate(407.701069079 519.290625)scale(0.1 -0.1)">
       <use xlink:href="#DejaVuSans-31"/>
       <use x="63.623046875" xlink:href="#DejaVuSans-31"/>
      </g>
     </g>
    </g>
    <g id="xtick_13">
     <g id="line2d_37">
      <path clip-path="url(#p337f83845a)" d="
M442.421 504
L442.421 57.6" style="fill:none;stroke:#ffffff;stroke-width:0.5;"/>
     </g>
     <g id="line2d_38">
      <g>
       <use style="fill:#555555;stroke:#555555;stroke-linecap:butt;stroke-width:0.5;" x="442.421052632" xlink:href="#m33224d4886" y="504.0"/>
      </g>
     </g>
     <g id="line2d_39">
      <g>
       <use style="fill:#555555;stroke:#555555;stroke-linecap:butt;stroke-width:0.5;" x="442.421052632" xlink:href="#m5ed645569d" y="57.6"/>
      </g>
     </g>
     <g id="text_13">
      <!-- 12 -->
      <g style="fill:#555555;" transform="translate(437.108552632 519.421875)scale(0.1 -0.1)">
       <use xlink:href="#DejaVuSans-31"/>
       <use x="63.623046875" xlink:href="#DejaVuSans-32"/>
      </g>
     </g>
    </g>
    <g id="xtick_14">
     <g id="line2d_40">
      <path clip-path="url(#p337f83845a)" d="
M471.789 504
L471.789 57.6" style="fill:none;stroke:#ffffff;stroke-width:0.5;"/>
     </g>
     <g id="line2d_41">
      <g>
       <use style="fill:#555555;stroke:#555555;stroke-linecap:butt;stroke-width:0.5;" x="471.789473684" xlink:href="#m33224d4886" y="504.0"/>
      </g>
     </g>
     <g id="line2d_42">
      <g>
       <use style="fill:#555555;stroke:#555555;stroke-linecap:butt;stroke-width:0.5;" x="471.789473684" xlink:href="#m5ed645569d" y="57.6"/>
      </g>
     </g>
     <g id="text_14">
      <!-- 13 -->
      <g style="fill:#555555;" transform="translate(466.376973684 519.421875)scale(0.1 -0.1)">
       <use xlink:href="#DejaVuSans-31"/>
       <use x="63.623046875" xlink:href="#DejaVuSans-33"/>
      </g>
     </g>
    </g>
    <g id="xtick_15">
     <g id="line2d_43">
      <path clip-path="url(#p337f83845a)" d="
M501.158 504
L501.158 57.6" style="fill:none;stroke:#ffffff;stroke-width:0.5;"/>
     </g>
     <g id="line2d_44">
      <g>
       <use style="fill:#555555;stroke:#555555;stroke-linecap:butt;stroke-width:0.5;" x="501.157894737" xlink:href="#m33224d4886" y="504.0"/>
      </g>
     </g>
     <g id="line2d_45">
      <g>
       <use style="fill:#555555;stroke:#555555;stroke-linecap:butt;stroke-width:0.5;" x="501.157894737" xlink:href="#m5ed645569d" y="57.6"/>
      </g>
     </g>
     <g id="text_15">
      <!-- 14 -->
      <g style="fill:#555555;" transform="translate(495.625082237 519.290625)scale(0.1 -0.1)">
       <use xlink:href="#DejaVuSans-31"/>
       <use x="63.623046875" xlink:href="#DejaVuSans-34"/>
      </g>
     </g>
    </g>
    <g id="xtick_16">
     <g id="line2d_46">
      <path clip-path="url(#p337f83845a)" d="
M530.526 504
L530.526 57.6" style="fill:none;stroke:#ffffff;stroke-width:0.5;"/>
     </g>
     <g id="line2d_47">
      <g>
       <use style="fill:#555555;stroke:#555555;stroke-linecap:butt;stroke-width:0.5;" x="530.526315789" xlink:href="#m33224d4886" y="504.0"/>
      </g>
     </g>
     <g id="line2d_48">
      <g>
       <use style="fill:#555555;stroke:#555555;stroke-linecap:butt;stroke-width:0.5;" x="530.526315789" xlink:href="#m5ed645569d" y="57.6"/>
      </g>
     </g>
     <g id="text_16">
      <!-- 15 -->
      <g style="fill:#555555;" transform="translate(525.149753289 519.290625)scale(0.1 -0.1)">
       <use xlink:href="#DejaVuSans-31"/>
       <use x="63.623046875" xlink:href="#DejaVuSans-35"/>
      </g>
     </g>
    </g>
    <g id="xtick_17">
     <g id="line2d_49">
      <path clip-path="url(#p337f83845a)" d="
M559.895 504
L559.895 57.6" style="fill:none;stroke:#ffffff;stroke-width:0.5;"/>
     </g>
     <g id="line2d_50">
      <g>
       <use style="fill:#555555;stroke:#555555;stroke-linecap:butt;stroke-width:0.5;" x="559.894736842" xlink:href="#m33224d4886" y="504.0"/>
      </g>
     </g>
     <g id="line2d_51">
      <g>
       <use style="fill:#555555;stroke:#555555;stroke-linecap:butt;stroke-width:0.5;" x="559.894736842" xlink:href="#m5ed645569d" y="57.6"/>
      </g>
     </g>
     <g id="text_17">
      <!-- 16 -->
      <g style="fill:#555555;" transform="translate(554.396299342 519.421875)scale(0.1 -0.1)">
       <use xlink:href="#DejaVuSans-31"/>
       <use x="63.623046875" xlink:href="#DejaVuSans-36"/>
      </g>
     </g>
    </g>
    <g id="xtick_18">
     <g id="line2d_52">
      <path clip-path="url(#p337f83845a)" d="
M589.263 504
L589.263 57.6" style="fill:none;stroke:#ffffff;stroke-width:0.5;"/>
     </g>
     <g id="line2d_53">
      <g>
       <use style="fill:#555555;stroke:#555555;stroke-linecap:butt;stroke-width:0.5;" x="589.263157895" xlink:href="#m33224d4886" y="504.0"/>
      </g>
     </g>
     <g id="line2d_54">
      <g>
       <use style="fill:#555555;stroke:#555555;stroke-linecap:butt;stroke-width:0.5;" x="589.263157895" xlink:href="#m5ed645569d" y="57.6"/>
      </g>
     </g>
     <g id="text_18">
      <!-- 17 -->
      <g style="fill:#555555;" transform="translate(583.877220395 519.290625)scale(0.1 -0.1)">
       <use xlink:href="#DejaVuSans-31"/>
       <use x="63.623046875" xlink:href="#DejaVuSans-37"/>
      </g>
     </g>
    </g>
    <g id="xtick_19">
     <g id="line2d_55">
      <path clip-path="url(#p337f83845a)" d="
M618.632 504
L618.632 57.6" style="fill:none;stroke:#ffffff;stroke-width:0.5;"/>
     </g>
     <g id="line2d_56">
      <g>
       <use style="fill:#555555;stroke:#555555;stroke-linecap:butt;stroke-width:0.5;" x="618.631578947" xlink:href="#m33224d4886" y="504.0"/>
      </g>
     </g>
     <g id="line2d_57">
      <g>
       <use style="fill:#555555;stroke:#555555;stroke-linecap:butt;stroke-width:0.5;" x="618.631578947" xlink:href="#m5ed645569d" y="57.6"/>
      </g>
     </g>
     <g id="text_19">
      <!-- 18 -->
      <g style="fill:#555555;" transform="translate(613.160485197 519.421875)scale(0.1 -0.1)">
       <use xlink:href="#DejaVuSans-31"/>
       <use x="63.623046875" xlink:href="#DejaVuSans-38"/>
      </g>
     </g>
    </g>
    <g id="xtick_20">
     <g id="line2d_58">
      <path clip-path="url(#p337f83845a)" d="
M648 504
L648 57.6" style="fill:none;stroke:#ffffff;stroke-width:0.5;"/>
     </g>
     <g id="line2d_59">
      <g>
       <use style="fill:#555555;stroke:#555555;stroke-linecap:butt;stroke-width:0.5;" x="648.0" xlink:href="#m33224d4886" y="504.0"/>
      </g>
     </g>
     <g id="line2d_60">
      <g>
       <use style="fill:#555555;stroke:#555555;stroke-linecap:butt;stroke-width:0.5;" x="648.0" xlink:href="#m5ed645569d" y="57.6"/>
      </g>
     </g>
     <g id="text_20">
      <!-- 19 -->
      <g style="fill:#555555;" transform="translate(642.53828125 519.421875)scale(0.1 -0.1)">
       <use xlink:href="#DejaVuSans-31"/>
       <use x="63.623046875" xlink:href="#DejaVuSans-39"/>
      </g>
     </g>
    </g>
    <g id="text_21">
     <!-- App Size (MB) -->
     <defs>
      <path d="
M9.8125 72.9062
L24.5156 72.9062
L43.1094 23.2969
L61.8125 72.9062
L76.5156 72.9062
L76.5156 0
L66.8906 0
L66.8906 64.0156
L48.0938 14.0156
L38.1875 14.0156
L19.3906 64.0156
L19.3906 0
L9.8125 0
z
" id="DejaVuSans-4d"/>
      <path d="
M8.01562 75.875
L15.8281 75.875
Q23.1406 64.3594 26.7812 53.3125
Q30.4219 42.2812 30.4219 31.3906
Q30.4219 20.4531 26.7812 9.375
Q23.1406 -1.70312 15.8281 -13.1875
L8.01562 -13.1875
Q14.5 -2 17.7031 9.0625
Q20.9062 20.125 20.9062 31.3906
Q20.9062 42.6719 17.7031 53.6562
Q14.5 64.6562 8.01562 75.875" id="DejaVuSans-29"/>
      <path d="
M5.51562 54.6875
L48.1875 54.6875
L48.1875 46.4844
L14.4062 7.17188
L48.1875 7.17188
L48.1875 0
L4.29688 0
L4.29688 8.20312
L38.0938 47.5156
L5.51562 47.5156
z
" id="DejaVuSans-7a"/>
      <path id="DejaVuSans-20"/>
      <path d="
M34.1875 63.1875
L20.7969 26.9062
L47.6094 26.9062
z

M28.6094 72.9062
L39.7969 72.9062
L67.5781 0
L57.3281 0
L50.6875 18.7031
L17.8281 18.7031
L11.1875 0
L0.78125 0
z
" id="DejaVuSans-41"/>
      <path d="
M19.6719 34.8125
L19.6719 8.10938
L35.5 8.10938
Q43.4531 8.10938 47.2812 11.4062
Q51.125 14.7031 51.125 21.4844
Q51.125 28.3281 47.2812 31.5625
Q43.4531 34.8125 35.5 34.8125
z

M19.6719 64.7969
L19.6719 42.8281
L34.2812 42.8281
Q41.5 42.8281 45.0312 45.5312
Q48.5781 48.25 48.5781 53.8125
Q48.5781 59.3281 45.0312 62.0625
Q41.5 64.7969 34.2812 64.7969
z

M9.8125 72.9062
L35.0156 72.9062
Q46.2969 72.9062 52.3906 68.2188
Q58.5 63.5312 58.5 54.8906
Q58.5 48.1875 55.375 44.2344
Q52.25 40.2812 46.1875 39.3125
Q53.4688 37.75 57.5 32.7812
Q61.5312 27.8281 61.5312 20.4062
Q61.5312 10.6406 54.8906 5.3125
Q48.25 0 35.9844 0
L9.8125 0
z
" id="DejaVuSans-42"/>
      <path d="
M9.42188 54.6875
L18.4062 54.6875
L18.4062 0
L9.42188 0
z

M9.42188 75.9844
L18.4062 75.9844
L18.4062 64.5938
L9.42188 64.5938
z
" id="DejaVuSans-69"/>
      <path d="
M53.5156 70.5156
L53.5156 60.8906
Q47.9062 63.5781 42.9219 64.8906
Q37.9375 66.2188 33.2969 66.2188
Q25.25 66.2188 20.875 63.0938
Q16.5 59.9688 16.5 54.2031
Q16.5 49.3594 19.4062 46.8906
Q22.3125 44.4375 30.4219 42.9219
L36.375 41.7031
Q47.4062 39.5938 52.6562 34.2969
Q57.9062 29 57.9062 20.125
Q57.9062 9.51562 50.7969 4.04688
Q43.7031 -1.42188 29.9844 -1.42188
Q24.8125 -1.42188 18.9688 -0.25
Q13.1406 0.921875 6.89062 3.21875
L6.89062 13.375
Q12.8906 10.0156 18.6562 8.29688
Q24.4219 6.59375 29.9844 6.59375
Q38.4219 6.59375 43.0156 9.90625
Q47.6094 13.2344 47.6094 19.3906
Q47.6094 24.75 44.3125 27.7812
Q41.0156 30.8125 33.5 32.3281
L27.4844 33.5
Q16.4531 35.6875 11.5156 40.375
Q6.59375 45.0625 6.59375 53.4219
Q6.59375 63.0938 13.4062 68.6562
Q20.2188 74.2188 32.1719 74.2188
Q37.3125 74.2188 42.625 73.2812
Q47.9531 72.3594 53.5156 70.5156" id="DejaVuSans-53"/>
      <path d="
M31 75.875
Q24.4688 64.6562 21.2812 53.6562
Q18.1094 42.6719 18.1094 31.3906
Q18.1094 20.125 21.3125 9.0625
Q24.5156 -2 31 -13.1875
L23.1875 -13.1875
Q15.875 -1.70312 12.2344 9.375
Q8.59375 20.4531 8.59375 31.3906
Q8.59375 42.2812 12.2031 53.3125
Q15.8281 64.3594 23.1875 75.875
z
" id="DejaVuSans-28"/>
      <path d="
M56.2031 29.5938
L56.2031 25.2031
L14.8906 25.2031
Q15.4844 15.9219 20.4844 11.0625
Q25.4844 6.20312 34.4219 6.20312
Q39.5938 6.20312 44.4531 7.46875
Q49.3125 8.73438 54.1094 11.2812
L54.1094 2.78125
Q49.2656 0.734375 44.1875 -0.34375
Q39.1094 -1.42188 33.8906 -1.42188
Q20.7969 -1.42188 13.1562 6.1875
Q5.51562 13.8125 5.51562 26.8125
Q5.51562 40.2344 12.7656 48.1094
Q20.0156 56 32.3281 56
Q43.3594 56 49.7812 48.8906
Q56.2031 41.7969 56.2031 29.5938
M47.2188 32.2344
Q47.125 39.5938 43.0938 43.9844
Q39.0625 48.3906 32.4219 48.3906
Q24.9062 48.3906 20.3906 44.1406
Q15.875 39.8906 15.1875 32.1719
z
" id="DejaVuSans-65"/>
      <path d="
M18.1094 8.20312
L18.1094 -20.7969
L9.07812 -20.7969
L9.07812 54.6875
L18.1094 54.6875
L18.1094 46.3906
Q20.9531 51.2656 25.2656 53.625
Q29.5938 56 35.5938 56
Q45.5625 56 51.7812 48.0938
Q58.0156 40.1875 58.0156 27.2969
Q58.0156 14.4062 51.7812 6.48438
Q45.5625 -1.42188 35.5938 -1.42188
Q29.5938 -1.42188 25.2656 0.953125
Q20.9531 3.32812 18.1094 8.20312
M48.6875 27.2969
Q48.6875 37.2031 44.6094 42.8438
Q40.5312 48.4844 33.4062 48.4844
Q26.2656 48.4844 22.1875 42.8438
Q18.1094 37.2031 18.1094 27.2969
Q18.1094 17.3906 22.1875 11.75
Q26.2656 6.10938 33.4062 6.10938
Q40.5312 6.10938 44.6094 11.75
Q48.6875 17.3906 48.6875 27.2969" id="DejaVuSans-70"/>
     </defs>
     <g style="fill:#555555;" transform="translate(327.6871875 533.6821875)scale(0.12 -0.12)">
      <use xlink:href="#DejaVuSans-41"/>
      <use x="68.408203125" xlink:href="#DejaVuSans-70"/>
      <use x="131.884765625" xlink:href="#DejaVuSans-70"/>
      <use x="195.361328125" xlink:href="#DejaVuSans-20"/>
      <use x="227.1484375" xlink:href="#DejaVuSans-53"/>
      <use x="290.625" xlink:href="#DejaVuSans-69"/>
      <use x="318.408203125" xlink:href="#DejaVuSans-7a"/>
      <use x="370.8984375" xlink:href="#DejaVuSans-65"/>
      <use x="432.421875" xlink:href="#DejaVuSans-20"/>
      <use x="464.208984375" xlink:href="#DejaVuSans-28"/>
      <use x="503.22265625" xlink:href="#DejaVuSans-4d"/>
      <use x="589.501953125" xlink:href="#DejaVuSans-42"/>
      <use x="658.10546875" xlink:href="#DejaVuSans-29"/>
     </g>
    </g>
   </g>
   <g id="matplotlib.axis_2">
    <g id="ytick_1">
     <g id="line2d_61">
      <path clip-path="url(#p337f83845a)" d="
M90 504
L648 504" style="fill:none;stroke:#ffffff;stroke-width:0.5;"/>
     </g>
     <g id="line2d_62">
      <defs>
       <path d="
M0 0
L-4 0" id="m937c4c2fa6" style="stroke:#555555;stroke-linecap:butt;stroke-width:0.5;"/>
      </defs>
      <g>
       <use style="fill:#555555;stroke:#555555;stroke-linecap:butt;stroke-width:0.5;" x="90.0" xlink:href="#m937c4c2fa6" y="504.0"/>
      </g>
     </g>
     <g id="line2d_63">
      <defs>
       <path d="
M0 0
L4 0" id="m51d9097589" style="stroke:#555555;stroke-linecap:butt;stroke-width:0.5;"/>
      </defs>
      <g>
       <use style="fill:#555555;stroke:#555555;stroke-linecap:butt;stroke-width:0.5;" x="648.0" xlink:href="#m51d9097589" y="504.0"/>
      </g>
     </g>
     <g id="text_22">
      <!-- 0 -->
      <g style="fill:#555555;" transform="translate(76.9609375 507.63984375)scale(0.1 -0.1)">
       <use xlink:href="#DejaVuSans-30"/>
      </g>
     </g>
    </g>
    <g id="ytick_2">
     <g id="line2d_64">
      <path clip-path="url(#p337f83845a)" d="
M90 448.2
L648 448.2" style="fill:none;stroke:#ffffff;stroke-width:0.5;"/>
     </g>
     <g id="line2d_65">
      <g>
       <use style="fill:#555555;stroke:#555555;stroke-linecap:butt;stroke-width:0.5;" x="90.0" xlink:href="#m937c4c2fa6" y="448.2"/>
      </g>
     </g>
     <g id="line2d_66">
      <g>
       <use style="fill:#555555;stroke:#555555;stroke-linecap:butt;stroke-width:0.5;" x="648.0" xlink:href="#m51d9097589" y="448.2"/>
      </g>
     </g>
     <g id="text_23">
      <!-- 5000 -->
      <g style="fill:#555555;" transform="translate(57.9859375 451.83984375)scale(0.1 -0.1)">
       <use xlink:href="#DejaVuSans-35"/>
       <use x="63.623046875" xlink:href="#DejaVuSans-30"/>
       <use x="127.24609375" xlink:href="#DejaVuSans-30"/>
       <use x="190.869140625" xlink:href="#DejaVuSans-30"/>
      </g>
     </g>
    </g>
    <g id="ytick_3">
     <g id="line2d_67">
      <path clip-path="url(#p337f83845a)" d="
M90 392.4
L648 392.4" style="fill:none;stroke:#ffffff;stroke-width:0.5;"/>
     </g>
     <g id="line2d_68">
      <g>
       <use style="fill:#555555;stroke:#555555;stroke-linecap:butt;stroke-width:0.5;" x="90.0" xlink:href="#m937c4c2fa6" y="392.4"/>
      </g>
     </g>
     <g id="line2d_69">
      <g>
       <use style="fill:#555555;stroke:#555555;stroke-linecap:butt;stroke-width:0.5;" x="648.0" xlink:href="#m51d9097589" y="392.4"/>
      </g>
     </g>
     <g id="text_24">
      <!-- 10000 -->
      <g style="fill:#555555;" transform="translate(51.95 396.03984375)scale(0.1 -0.1)">
       <use xlink:href="#DejaVuSans-31"/>
       <use x="63.623046875" xlink:href="#DejaVuSans-30"/>
       <use x="127.24609375" xlink:href="#DejaVuSans-30"/>
       <use x="190.869140625" xlink:href="#DejaVuSans-30"/>
       <use x="254.4921875" xlink:href="#DejaVuSans-30"/>
      </g>
     </g>
    </g>
    <g id="ytick_4">
     <g id="line2d_70">
      <path clip-path="url(#p337f83845a)" d="
M90 336.6
L648 336.6" style="fill:none;stroke:#ffffff;stroke-width:0.5;"/>
     </g>
     <g id="line2d_71">
      <g>
       <use style="fill:#555555;stroke:#555555;stroke-linecap:butt;stroke-width:0.5;" x="90.0" xlink:href="#m937c4c2fa6" y="336.6"/>
      </g>
     </g>
     <g id="line2d_72">
      <g>
       <use style="fill:#555555;stroke:#555555;stroke-linecap:butt;stroke-width:0.5;" x="648.0" xlink:href="#m51d9097589" y="336.6"/>
      </g>
     </g>
     <g id="text_25">
      <!-- 15000 -->
      <g style="fill:#555555;" transform="translate(51.95 340.23984375)scale(0.1 -0.1)">
       <use xlink:href="#DejaVuSans-31"/>
       <use x="63.623046875" xlink:href="#DejaVuSans-35"/>
       <use x="127.24609375" xlink:href="#DejaVuSans-30"/>
       <use x="190.869140625" xlink:href="#DejaVuSans-30"/>
       <use x="254.4921875" xlink:href="#DejaVuSans-30"/>
      </g>
     </g>
    </g>
    <g id="ytick_5">
     <g id="line2d_73">
      <path clip-path="url(#p337f83845a)" d="
M90 280.8
L648 280.8" style="fill:none;stroke:#ffffff;stroke-width:0.5;"/>
     </g>
     <g id="line2d_74">
      <g>
       <use style="fill:#555555;stroke:#555555;stroke-linecap:butt;stroke-width:0.5;" x="90.0" xlink:href="#m937c4c2fa6" y="280.8"/>
      </g>
     </g>
     <g id="line2d_75">
      <g>
       <use style="fill:#555555;stroke:#555555;stroke-linecap:butt;stroke-width:0.5;" x="648.0" xlink:href="#m51d9097589" y="280.8"/>
      </g>
     </g>
     <g id="text_26">
      <!-- 20000 -->
      <g style="fill:#555555;" transform="translate(51.584375 284.43984375)scale(0.1 -0.1)">
       <use xlink:href="#DejaVuSans-32"/>
       <use x="63.623046875" xlink:href="#DejaVuSans-30"/>
       <use x="127.24609375" xlink:href="#DejaVuSans-30"/>
       <use x="190.869140625" xlink:href="#DejaVuSans-30"/>
       <use x="254.4921875" xlink:href="#DejaVuSans-30"/>
      </g>
     </g>
    </g>
    <g id="ytick_6">
     <g id="line2d_76">
      <path clip-path="url(#p337f83845a)" d="
M90 225
L648 225" style="fill:none;stroke:#ffffff;stroke-width:0.5;"/>
     </g>
     <g id="line2d_77">
      <g>
       <use style="fill:#555555;stroke:#555555;stroke-linecap:butt;stroke-width:0.5;" x="90.0" xlink:href="#m937c4c2fa6" y="225.0"/>
      </g>
     </g>
     <g id="line2d_78">
      <g>
       <use style="fill:#555555;stroke:#555555;stroke-linecap:butt;stroke-width:0.5;" x="648.0" xlink:href="#m51d9097589" y="225.0"/>
      </g>
     </g>
     <g id="text_27">
      <!-- 25000 -->
      <g style="fill:#555555;" transform="translate(51.584375 228.63984375)scale(0.1 -0.1)">
       <use xlink:href="#DejaVuSans-32"/>
       <use x="63.623046875" xlink:href="#DejaVuSans-35"/>
       <use x="127.24609375" xlink:href="#DejaVuSans-30"/>
       <use x="190.869140625" xlink:href="#DejaVuSans-30"/>
       <use x="254.4921875" xlink:href="#DejaVuSans-30"/>
      </g>
     </g>
    </g>
    <g id="ytick_7">
     <g id="line2d_79">
      <path clip-path="url(#p337f83845a)" d="
M90 169.2
L648 169.2" style="fill:none;stroke:#ffffff;stroke-width:0.5;"/>
     </g>
     <g id="line2d_80">
      <g>
       <use style="fill:#555555;stroke:#555555;stroke-linecap:butt;stroke-width:0.5;" x="90.0" xlink:href="#m937c4c2fa6" y="169.2"/>
      </g>
     </g>
     <g id="line2d_81">
      <g>
       <use style="fill:#555555;stroke:#555555;stroke-linecap:butt;stroke-width:0.5;" x="648.0" xlink:href="#m51d9097589" y="169.2"/>
      </g>
     </g>
     <g id="text_28">
      <!-- 30000 -->
      <g style="fill:#555555;" transform="translate(51.6140625 172.83984375)scale(0.1 -0.1)">
       <use xlink:href="#DejaVuSans-33"/>
       <use x="63.623046875" xlink:href="#DejaVuSans-30"/>
       <use x="127.24609375" xlink:href="#DejaVuSans-30"/>
       <use x="190.869140625" xlink:href="#DejaVuSans-30"/>
       <use x="254.4921875" xlink:href="#DejaVuSans-30"/>
      </g>
     </g>
    </g>
    <g id="ytick_8">
     <g id="line2d_82">
      <path clip-path="url(#p337f83845a)" d="
M90 113.4
L648 113.4" style="fill:none;stroke:#ffffff;stroke-width:0.5;"/>
     </g>
     <g id="line2d_83">
      <g>
       <use style="fill:#555555;stroke:#555555;stroke-linecap:butt;stroke-width:0.5;" x="90.0" xlink:href="#m937c4c2fa6" y="113.4"/>
      </g>
     </g>
     <g id="line2d_84">
      <g>
       <use style="fill:#555555;stroke:#555555;stroke-linecap:butt;stroke-width:0.5;" x="648.0" xlink:href="#m51d9097589" y="113.4"/>
      </g>
     </g>
     <g id="text_29">
      <!-- 35000 -->
      <g style="fill:#555555;" transform="translate(51.6140625 117.03984375)scale(0.1 -0.1)">
       <use xlink:href="#DejaVuSans-33"/>
       <use x="63.623046875" xlink:href="#DejaVuSans-35"/>
       <use x="127.24609375" xlink:href="#DejaVuSans-30"/>
       <use x="190.869140625" xlink:href="#DejaVuSans-30"/>
       <use x="254.4921875" xlink:href="#DejaVuSans-30"/>
      </g>
     </g>
    </g>
    <g id="ytick_9">
     <g id="line2d_85">
      <path clip-path="url(#p337f83845a)" d="
M90 57.6
L648 57.6" style="fill:none;stroke:#ffffff;stroke-width:0.5;"/>
     </g>
     <g id="line2d_86">
      <g>
       <use style="fill:#555555;stroke:#555555;stroke-linecap:butt;stroke-width:0.5;" x="90.0" xlink:href="#m937c4c2fa6" y="57.6"/>
      </g>
     </g>
     <g id="line2d_87">
      <g>
       <use style="fill:#555555;stroke:#555555;stroke-linecap:butt;stroke-width:0.5;" x="648.0" xlink:href="#m51d9097589" y="57.6"/>
      </g>
     </g>
     <g id="text_30">
      <!-- 40000 -->
      <g style="fill:#555555;" transform="translate(51.340625 61.23984375)scale(0.1 -0.1)">
       <use xlink:href="#DejaVuSans-34"/>
       <use x="63.623046875" xlink:href="#DejaVuSans-30"/>
       <use x="127.24609375" xlink:href="#DejaVuSans-30"/>
       <use x="190.869140625" xlink:href="#DejaVuSans-30"/>
       <use x="254.4921875" xlink:href="#DejaVuSans-30"/>
      </g>
     </g>
    </g>
    <g id="text_31">
     <!-- Number of Apps -->
     <defs>
      <path d="
M9.8125 72.9062
L23.0938 72.9062
L55.4219 11.9219
L55.4219 72.9062
L64.9844 72.9062
L64.9844 0
L51.7031 0
L19.3906 60.9844
L19.3906 0
L9.8125 0
z
" id="DejaVuSans-4e"/>
      <path d="
M30.6094 48.3906
Q23.3906 48.3906 19.1875 42.75
Q14.9844 37.1094 14.9844 27.2969
Q14.9844 17.4844 19.1562 11.8438
Q23.3438 6.20312 30.6094 6.20312
Q37.7969 6.20312 41.9844 11.8594
Q46.1875 17.5312 46.1875 27.2969
Q46.1875 37.0156 41.9844 42.7031
Q37.7969 48.3906 30.6094 48.3906
M30.6094 56
Q42.3281 56 49.0156 48.375
Q55.7188 40.7656 55.7188 27.2969
Q55.7188 13.875 49.0156 6.21875
Q42.3281 -1.42188 30.6094 -1.42188
Q18.8438 -1.42188 12.1719 6.21875
Q5.51562 13.875 5.51562 27.2969
Q5.51562 40.7656 12.1719 48.375
Q18.8438 56 30.6094 56" id="DejaVuSans-6f"/>
      <path d="
M52 44.1875
Q55.375 50.25 60.0625 53.125
Q64.75 56 71.0938 56
Q79.6406 56 84.2812 50.0156
Q88.9219 44.0469 88.9219 33.0156
L88.9219 0
L79.8906 0
L79.8906 32.7188
Q79.8906 40.5781 77.0938 44.375
Q74.3125 48.1875 68.6094 48.1875
Q61.625 48.1875 57.5625 43.5469
Q53.5156 38.9219 53.5156 30.9062
L53.5156 0
L44.4844 0
L44.4844 32.7188
Q44.4844 40.625 41.7031 44.4062
Q38.9219 48.1875 33.1094 48.1875
Q26.2188 48.1875 22.1562 43.5312
Q18.1094 38.875 18.1094 30.9062
L18.1094 0
L9.07812 0
L9.07812 54.6875
L18.1094 54.6875
L18.1094 46.1875
Q21.1875 51.2188 25.4844 53.6094
Q29.7812 56 35.6875 56
Q41.6562 56 45.8281 52.9688
Q50 49.9531 52 44.1875" id="DejaVuSans-6d"/>
      <path d="
M37.1094 75.9844
L37.1094 68.5
L28.5156 68.5
Q23.6875 68.5 21.7969 66.5469
Q19.9219 64.5938 19.9219 59.5156
L19.9219 54.6875
L34.7188 54.6875
L34.7188 47.7031
L19.9219 47.7031
L19.9219 0
L10.8906 0
L10.8906 47.7031
L2.29688 47.7031
L2.29688 54.6875
L10.8906 54.6875
L10.8906 58.5
Q10.8906 67.625 15.1406 71.7969
Q19.3906 75.9844 28.6094 75.9844
z
" id="DejaVuSans-66"/>
      <path d="
M8.5 21.5781
L8.5 54.6875
L17.4844 54.6875
L17.4844 21.9219
Q17.4844 14.1562 20.5 10.2656
Q23.5312 6.39062 29.5938 6.39062
Q36.8594 6.39062 41.0781 11.0312
Q45.3125 15.6719 45.3125 23.6875
L45.3125 54.6875
L54.2969 54.6875
L54.2969 0
L45.3125 0
L45.3125 8.40625
Q42.0469 3.42188 37.7188 1
Q33.4062 -1.42188 27.6875 -1.42188
Q18.2656 -1.42188 13.375 4.4375
Q8.5 10.2969 8.5 21.5781
M31.1094 56
z
" id="DejaVuSans-75"/>
      <path d="
M48.6875 27.2969
Q48.6875 37.2031 44.6094 42.8438
Q40.5312 48.4844 33.4062 48.4844
Q26.2656 48.4844 22.1875 42.8438
Q18.1094 37.2031 18.1094 27.2969
Q18.1094 17.3906 22.1875 11.75
Q26.2656 6.10938 33.4062 6.10938
Q40.5312 6.10938 44.6094 11.75
Q48.6875 17.3906 48.6875 27.2969
M18.1094 46.3906
Q20.9531 51.2656 25.2656 53.625
Q29.5938 56 35.5938 56
Q45.5625 56 51.7812 48.0938
Q58.0156 40.1875 58.0156 27.2969
Q58.0156 14.4062 51.7812 6.48438
Q45.5625 -1.42188 35.5938 -1.42188
Q29.5938 -1.42188 25.2656 0.953125
Q20.9531 3.32812 18.1094 8.20312
L18.1094 0
L9.07812 0
L9.07812 75.9844
L18.1094 75.9844
z
" id="DejaVuSans-62"/>
      <path d="
M44.2812 53.0781
L44.2812 44.5781
Q40.4844 46.5312 36.375 47.5
Q32.2812 48.4844 27.875 48.4844
Q21.1875 48.4844 17.8438 46.4375
Q14.5 44.3906 14.5 40.2812
Q14.5 37.1562 16.8906 35.375
Q19.2812 33.5938 26.5156 31.9844
L29.5938 31.2969
Q39.1562 29.25 43.1875 25.5156
Q47.2188 21.7812 47.2188 15.0938
Q47.2188 7.46875 41.1875 3.01562
Q35.1562 -1.42188 24.6094 -1.42188
Q20.2188 -1.42188 15.4531 -0.5625
Q10.6875 0.296875 5.42188 2
L5.42188 11.2812
Q10.4062 8.6875 15.2344 7.39062
Q20.0625 6.10938 24.8125 6.10938
Q31.1562 6.10938 34.5625 8.28125
Q37.9844 10.4531 37.9844 14.4062
Q37.9844 18.0625 35.5156 20.0156
Q33.0625 21.9688 24.7031 23.7812
L21.5781 24.5156
Q13.2344 26.2656 9.51562 29.9062
Q5.8125 33.5469 5.8125 39.8906
Q5.8125 47.6094 11.2812 51.7969
Q16.75 56 26.8125 56
Q31.7812 56 36.1719 55.2656
Q40.5781 54.5469 44.2812 53.0781" id="DejaVuSans-73"/>
      <path d="
M41.1094 46.2969
Q39.5938 47.1719 37.8125 47.5781
Q36.0312 48 33.8906 48
Q26.2656 48 22.1875 43.0469
Q18.1094 38.0938 18.1094 28.8125
L18.1094 0
L9.07812 0
L9.07812 54.6875
L18.1094 54.6875
L18.1094 46.1875
Q20.9531 51.1719 25.4844 53.5781
Q30.0312 56 36.5312 56
Q37.4531 56 38.5781 55.875
Q39.7031 55.7656 41.0625 55.5156
z
" id="DejaVuSans-72"/>
     </defs>
     <g style="fill:#555555;" transform="translate(46.340625 326.5603125)rotate(-90.0)scale(0.12 -0.12)">
      <use xlink:href="#DejaVuSans-4e"/>
      <use x="74.8046875" xlink:href="#DejaVuSans-75"/>
      <use x="138.18359375" xlink:href="#DejaVuSans-6d"/>
      <use x="235.595703125" xlink:href="#DejaVuSans-62"/>
      <use x="299.072265625" xlink:href="#DejaVuSans-65"/>
      <use x="360.595703125" xlink:href="#DejaVuSans-72"/>
      <use x="401.708984375" xlink:href="#DejaVuSans-20"/>
      <use x="433.49609375" xlink:href="#DejaVuSans-6f"/>
      <use x="494.677734375" xlink:href="#DejaVuSans-66"/>
      <use x="529.8828125" xlink:href="#DejaVuSans-20"/>
      <use x="561.669921875" xlink:href="#DejaVuSans-41"/>
      <use x="630.078125" xlink:href="#DejaVuSans-70"/>
      <use x="693.5546875" xlink:href="#DejaVuSans-70"/>
      <use x="757.03125" xlink:href="#DejaVuSans-73"/>
     </g>
    </g>
   </g>
   <g id="patch_3">
    <path clip-path="url(#p337f83845a)" d="
M90.1007 504
L92.7879 504
L92.7879 80.199
L90.1007 80.199
z
" style="fill:#20b2aa;stroke:#eeeeee;stroke-width:0.5;"/>
   </g>
   <g id="patch_4">
    <path clip-path="url(#p337f83845a)" d="
M92.7879 504
L95.4752 504
L95.4752 148.23
L92.7879 148.23
z
" style="fill:#20b2aa;stroke:#eeeeee;stroke-width:0.5;"/>
   </g>
   <g id="patch_5">
    <path clip-path="url(#p337f83845a)" d="
M95.4752 504
L98.1624 504
L98.1624 60.2003
L95.4752 60.2003
z
" style="fill:#20b2aa;stroke:#eeeeee;stroke-width:0.5;"/>
   </g>
   <g id="patch_6">
    <path clip-path="url(#p337f83845a)" d="
M98.1624 504
L100.85 504
L100.85 186.252
L98.1624 186.252
z
" style="fill:#20b2aa;stroke:#eeeeee;stroke-width:0.5;"/>
   </g>
   <g id="patch_7">
    <path clip-path="url(#p337f83845a)" d="
M100.85 504
L103.537 504
L103.537 234.732
L100.85 234.732
z
" style="fill:#20b2aa;stroke:#eeeeee;stroke-width:0.5;"/>
   </g>
   <g id="patch_8">
    <path clip-path="url(#p337f83845a)" d="
M103.537 504
L106.224 504
L106.224 263.915
L103.537 263.915
z
" style="fill:#20b2aa;stroke:#eeeeee;stroke-width:0.5;"/>
   </g>
   <g id="patch_9">
    <path clip-path="url(#p337f83845a)" d="
M106.224 504
L108.911 504
L108.911 281.749
L106.224 281.749
z
" style="fill:#20b2aa;stroke:#eeeeee;stroke-width:0.5;"/>
   </g>
   <g id="patch_10">
    <path clip-path="url(#p337f83845a)" d="
M108.911 504
L111.598 504
L111.598 292.73
L108.911 292.73
z
" style="fill:#20b2aa;stroke:#eeeeee;stroke-width:0.5;"/>
   </g>
   <g id="patch_11">
    <path clip-path="url(#p337f83845a)" d="
M111.598 504
L114.286 504
L114.286 301.39
L111.598 301.39
z
" style="fill:#20b2aa;stroke:#eeeeee;stroke-width:0.5;"/>
   </g>
   <g id="patch_12">
    <path clip-path="url(#p337f83845a)" d="
M114.286 504
L116.973 504
L116.973 318.264
L114.286 318.264
z
" style="fill:#20b2aa;stroke:#eeeeee;stroke-width:0.5;"/>
   </g>
   <g id="patch_13">
    <path clip-path="url(#p337f83845a)" d="
M116.973 504
L119.66 504
L119.66 331.031
L116.973 331.031
z
" style="fill:#20b2aa;stroke:#eeeeee;stroke-width:0.5;"/>
   </g>
   <g id="patch_14">
    <path clip-path="url(#p337f83845a)" d="
M119.66 504
L122.347 504
L122.347 342.057
L119.66 342.057
z
" style="fill:#20b2aa;stroke:#eeeeee;stroke-width:0.5;"/>
   </g>
   <g id="patch_15">
    <path clip-path="url(#p337f83845a)" d="
M122.347 504
L125.035 504
L125.035 345.986
L122.347 345.986
z
" style="fill:#20b2aa;stroke:#eeeeee;stroke-width:0.5;"/>
   </g>
   <g id="patch_16">
    <path clip-path="url(#p337f83845a)" d="
M125.035 504
L127.722 504
L127.722 354.735
L125.035 354.735
z
" style="fill:#20b2aa;stroke:#eeeeee;stroke-width:0.5;"/>
   </g>
   <g id="patch_17">
    <path clip-path="url(#p337f83845a)" d="
M127.722 504
L130.409 504
L130.409 351.354
L127.722 351.354
z
" style="fill:#20b2aa;stroke:#eeeeee;stroke-width:0.5;"/>
   </g>
   <g id="patch_18">
    <path clip-path="url(#p337f83845a)" d="
M130.409 504
L133.096 504
L133.096 369.042
L130.409 369.042
z
" style="fill:#20b2aa;stroke:#eeeeee;stroke-width:0.5;"/>
   </g>
   <g id="patch_19">
    <path clip-path="url(#p337f83845a)" d="
M133.096 504
L135.783 504
L135.783 380.637
L133.096 380.637
z
" style="fill:#20b2aa;stroke:#eeeeee;stroke-width:0.5;"/>
   </g>
   <g id="patch_20">
    <path clip-path="url(#p337f83845a)" d="
M135.783 504
L138.471 504
L138.471 384.633
L135.783 384.633
z
" style="fill:#20b2aa;stroke:#eeeeee;stroke-width:0.5;"/>
   </g>
   <g id="patch_21">
    <path clip-path="url(#p337f83845a)" d="
M138.471 504
L141.158 504
L141.158 391.251
L138.471 391.251
z
" style="fill:#20b2aa;stroke:#eeeeee;stroke-width:0.5;"/>
   </g>
   <g id="patch_22">
    <path clip-path="url(#p337f83845a)" d="
M141.158 504
L143.845 504
L143.845 400.781
L141.158 400.781
z
" style="fill:#20b2aa;stroke:#eeeeee;stroke-width:0.5;"/>
   </g>
   <g id="patch_23">
    <path clip-path="url(#p337f83845a)" d="
M143.845 504
L146.532 504
L146.532 408.336
L143.845 408.336
z
" style="fill:#20b2aa;stroke:#eeeeee;stroke-width:0.5;"/>
   </g>
   <g id="patch_24">
    <path clip-path="url(#p337f83845a)" d="
M146.532 504
L149.219 504
L149.219 414.876
L146.532 414.876
z
" style="fill:#20b2aa;stroke:#eeeeee;stroke-width:0.5;"/>
   </g>
   <g id="patch_25">
    <path clip-path="url(#p337f83845a)" d="
M149.219 504
L151.907 504
L151.907 413.091
L149.219 413.091
z
" style="fill:#20b2aa;stroke:#eeeeee;stroke-width:0.5;"/>
   </g>
   <g id="patch_26">
    <path clip-path="url(#p337f83845a)" d="
M151.907 504
L154.594 504
L154.594 418.782
L151.907 418.782
z
" style="fill:#20b2aa;stroke:#eeeeee;stroke-width:0.5;"/>
   </g>
   <g id="patch_27">
    <path clip-path="url(#p337f83845a)" d="
M154.594 504
L157.281 504
L157.281 415.646
L154.594 415.646
z
" style="fill:#20b2aa;stroke:#eeeeee;stroke-width:0.5;"/>
   </g>
   <g id="patch_28">
    <path clip-path="url(#p337f83845a)" d="
M157.281 504
L159.968 504
L159.968 426.605
L157.281 426.605
z
" style="fill:#20b2aa;stroke:#eeeeee;stroke-width:0.5;"/>
   </g>
   <g id="patch_29">
    <path clip-path="url(#p337f83845a)" d="
M159.968 504
L162.656 504
L162.656 422.766
L159.968 422.766
z
" style="fill:#20b2aa;stroke:#eeeeee;stroke-width:0.5;"/>
   </g>
   <g id="patch_30">
    <path clip-path="url(#p337f83845a)" d="
M162.656 504
L165.343 504
L165.343 427.041
L162.656 427.041
z
" style="fill:#20b2aa;stroke:#eeeeee;stroke-width:0.5;"/>
   </g>
   <g id="patch_31">
    <path clip-path="url(#p337f83845a)" d="
M165.343 504
L168.03 504
L168.03 437.542
L165.343 437.542
z
" style="fill:#20b2aa;stroke:#eeeeee;stroke-width:0.5;"/>
   </g>
   <g id="patch_32">
    <path clip-path="url(#p337f83845a)" d="
M168.03 504
L170.717 504
L170.717 433.938
L168.03 433.938
z
" style="fill:#20b2aa;stroke:#eeeeee;stroke-width:0.5;"/>
   </g>
   <g id="patch_33">
    <path clip-path="url(#p337f83845a)" d="
M170.717 504
L173.404 504
L173.404 440.611
L170.717 440.611
z
" style="fill:#20b2aa;stroke:#eeeeee;stroke-width:0.5;"/>
   </g>
   <g id="patch_34">
    <path clip-path="url(#p337f83845a)" d="
M173.404 504
L176.092 504
L176.092 442.575
L173.404 442.575
z
" style="fill:#20b2aa;stroke:#eeeeee;stroke-width:0.5;"/>
   </g>
   <g id="patch_35">
    <path clip-path="url(#p337f83845a)" d="
M176.092 504
L178.779 504
L178.779 447.452
L176.092 447.452
z
" style="fill:#20b2aa;stroke:#eeeeee;stroke-width:0.5;"/>
   </g>
   <g id="patch_36">
    <path clip-path="url(#p337f83845a)" d="
M178.779 504
L181.466 504
L181.466 447.229
L178.779 447.229
z
" style="fill:#20b2aa;stroke:#eeeeee;stroke-width:0.5;"/>
   </g>
   <g id="patch_37">
    <path clip-path="url(#p337f83845a)" d="
M181.466 504
L184.153 504
L184.153 448.959
L181.466 448.959
z
" style="fill:#20b2aa;stroke:#eeeeee;stroke-width:0.5;"/>
   </g>
   <g id="patch_38">
    <path clip-path="url(#p337f83845a)" d="
M184.153 504
L186.84 504
L186.84 450.51
L184.153 450.51
z
" style="fill:#20b2aa;stroke:#eeeeee;stroke-width:0.5;"/>
   </g>
   <g id="patch_39">
    <path clip-path="url(#p337f83845a)" d="
M186.84 504
L189.528 504
L189.528 453.579
L186.84 453.579
z
" style="fill:#20b2aa;stroke:#eeeeee;stroke-width:0.5;"/>
   </g>
   <g id="patch_40">
    <path clip-path="url(#p337f83845a)" d="
M189.528 504
L192.215 504
L192.215 453.512
L189.528 453.512
z
" style="fill:#20b2aa;stroke:#eeeeee;stroke-width:0.5;"/>
   </g>
   <g id="patch_41">
    <path clip-path="url(#p337f83845a)" d="
M192.215 504
L194.902 504
L194.902 454.929
L192.215 454.929
z
" style="fill:#20b2aa;stroke:#eeeeee;stroke-width:0.5;"/>
   </g>
   <g id="patch_42">
    <path clip-path="url(#p337f83845a)" d="
M194.902 504
L197.589 504
L197.589 454.974
L194.902 454.974
z
" style="fill:#20b2aa;stroke:#eeeeee;stroke-width:0.5;"/>
   </g>
   <g id="patch_43">
    <path clip-path="url(#p337f83845a)" d="
M197.589 504
L200.277 504
L200.277 456.603
L197.589 456.603
z
" style="fill:#20b2aa;stroke:#eeeeee;stroke-width:0.5;"/>
   </g>
   <g id="patch_44">
    <path clip-path="url(#p337f83845a)" d="
M200.277 504
L202.964 504
L202.964 460.844
L200.277 460.844
z
" style="fill:#20b2aa;stroke:#eeeeee;stroke-width:0.5;"/>
   </g>
   <g id="patch_45">
    <path clip-path="url(#p337f83845a)" d="
M202.964 504
L205.651 504
L205.651 464.605
L202.964 464.605
z
" style="fill:#20b2aa;stroke:#eeeeee;stroke-width:0.5;"/>
   </g>
   <g id="patch_46">
    <path clip-path="url(#p337f83845a)" d="
M205.651 504
L208.338 504
L208.338 463.433
L205.651 463.433
z
" style="fill:#20b2aa;stroke:#eeeeee;stroke-width:0.5;"/>
   </g>
   <g id="patch_47">
    <path clip-path="url(#p337f83845a)" d="
M208.338 504
L211.025 504
L211.025 465.174
L208.338 465.174
z
" style="fill:#20b2aa;stroke:#eeeeee;stroke-width:0.5;"/>
   </g>
   <g id="patch_48">
    <path clip-path="url(#p337f83845a)" d="
M211.025 504
L213.713 504
L213.713 466.491
L211.025 466.491
z
" style="fill:#20b2aa;stroke:#eeeeee;stroke-width:0.5;"/>
   </g>
   <g id="patch_49">
    <path clip-path="url(#p337f83845a)" d="
M213.713 504
L216.4 504
L216.4 466.101
L213.713 466.101
z
" style="fill:#20b2aa;stroke:#eeeeee;stroke-width:0.5;"/>
   </g>
   <g id="patch_50">
    <path clip-path="url(#p337f83845a)" d="
M216.4 504
L219.087 504
L219.087 468.165
L216.4 468.165
z
" style="fill:#20b2aa;stroke:#eeeeee;stroke-width:0.5;"/>
   </g>
   <g id="patch_51">
    <path clip-path="url(#p337f83845a)" d="
M219.087 504
L221.774 504
L221.774 469.382
L219.087 469.382
z
" style="fill:#20b2aa;stroke:#eeeeee;stroke-width:0.5;"/>
   </g>
   <g id="patch_52">
    <path clip-path="url(#p337f83845a)" d="
M221.774 504
L224.461 504
L224.461 463.143
L221.774 463.143
z
" style="fill:#20b2aa;stroke:#eeeeee;stroke-width:0.5;"/>
   </g>
   <g id="patch_53">
    <path clip-path="url(#p337f83845a)" d="
M224.461 504
L227.149 504
L227.149 458.713
L224.461 458.713
z
" style="fill:#20b2aa;stroke:#eeeeee;stroke-width:0.5;"/>
   </g>
   <g id="patch_54">
    <path clip-path="url(#p337f83845a)" d="
M227.149 504
L229.836 504
L229.836 460.855
L227.149 460.855
z
" style="fill:#20b2aa;stroke:#eeeeee;stroke-width:0.5;"/>
   </g>
   <g id="patch_55">
    <path clip-path="url(#p337f83845a)" d="
M229.836 504
L232.523 504
L232.523 462.686
L229.836 462.686
z
" style="fill:#20b2aa;stroke:#eeeeee;stroke-width:0.5;"/>
   </g>
   <g id="patch_56">
    <path clip-path="url(#p337f83845a)" d="
M232.523 504
L235.21 504
L235.21 464.46
L232.523 464.46
z
" style="fill:#20b2aa;stroke:#eeeeee;stroke-width:0.5;"/>
   </g>
   <g id="patch_57">
    <path clip-path="url(#p337f83845a)" d="
M235.21 504
L237.898 504
L237.898 467.351
L235.21 467.351
z
" style="fill:#20b2aa;stroke:#eeeeee;stroke-width:0.5;"/>
   </g>
   <g id="patch_58">
    <path clip-path="url(#p337f83845a)" d="
M237.898 504
L240.585 504
L240.585 470.654
L237.898 470.654
z
" style="fill:#20b2aa;stroke:#eeeeee;stroke-width:0.5;"/>
   </g>
   <g id="patch_59">
    <path clip-path="url(#p337f83845a)" d="
M240.585 504
L243.272 504
L243.272 471.714
L240.585 471.714
z
" style="fill:#20b2aa;stroke:#eeeeee;stroke-width:0.5;"/>
   </g>
   <g id="patch_60">
    <path clip-path="url(#p337f83845a)" d="
M243.272 504
L245.959 504
L245.959 472.707
L243.272 472.707
z
" style="fill:#20b2aa;stroke:#eeeeee;stroke-width:0.5;"/>
   </g>
   <g id="patch_61">
    <path clip-path="url(#p337f83845a)" d="
M245.959 504
L248.646 504
L248.646 472.451
L245.959 472.451
z
" style="fill:#20b2aa;stroke:#eeeeee;stroke-width:0.5;"/>
   </g>
   <g id="patch_62">
    <path clip-path="url(#p337f83845a)" d="
M248.646 504
L251.334 504
L251.334 472.83
L248.646 472.83
z
" style="fill:#20b2aa;stroke:#eeeeee;stroke-width:0.5;"/>
   </g>
   <g id="patch_63">
    <path clip-path="url(#p337f83845a)" d="
M251.334 504
L254.021 504
L254.021 474.805
L251.334 474.805
z
" style="fill:#20b2aa;stroke:#eeeeee;stroke-width:0.5;"/>
   </g>
   <g id="patch_64">
    <path clip-path="url(#p337f83845a)" d="
M254.021 504
L256.708 504
L256.708 475.799
L254.021 475.799
z
" style="fill:#20b2aa;stroke:#eeeeee;stroke-width:0.5;"/>
   </g>
   <g id="patch_65">
    <path clip-path="url(#p337f83845a)" d="
M256.708 504
L259.395 504
L259.395 475.006
L256.708 475.006
z
" style="fill:#20b2aa;stroke:#eeeeee;stroke-width:0.5;"/>
   </g>
   <g id="patch_66">
    <path clip-path="url(#p337f83845a)" d="
M259.395 504
L262.082 504
L262.082 475.788
L259.395 475.788
z
" style="fill:#20b2aa;stroke:#eeeeee;stroke-width:0.5;"/>
   </g>
   <g id="patch_67">
    <path clip-path="url(#p337f83845a)" d="
M262.082 504
L264.77 504
L264.77 476.334
L262.082 476.334
z
" style="fill:#20b2aa;stroke:#eeeeee;stroke-width:0.5;"/>
   </g>
   <g id="patch_68">
    <path clip-path="url(#p337f83845a)" d="
M264.77 504
L267.457 504
L267.457 476.178
L264.77 476.178
z
" style="fill:#20b2aa;stroke:#eeeeee;stroke-width:0.5;"/>
   </g>
   <g id="patch_69">
    <path clip-path="url(#p337f83845a)" d="
M267.457 504
L270.144 504
L270.144 476.424
L267.457 476.424
z
" style="fill:#20b2aa;stroke:#eeeeee;stroke-width:0.5;"/>
   </g>
   <g id="patch_70">
    <path clip-path="url(#p337f83845a)" d="
M270.144 504
L272.831 504
L272.831 477.774
L270.144 477.774
z
" style="fill:#20b2aa;stroke:#eeeeee;stroke-width:0.5;"/>
   </g>
   <g id="patch_71">
    <path clip-path="url(#p337f83845a)" d="
M272.831 504
L275.519 504
L275.519 477.328
L272.831 477.328
z
" style="fill:#20b2aa;stroke:#eeeeee;stroke-width:0.5;"/>
   </g>
   <g id="patch_72">
    <path clip-path="url(#p337f83845a)" d="
M275.519 504
L278.206 504
L278.206 476.111
L275.519 476.111
z
" style="fill:#20b2aa;stroke:#eeeeee;stroke-width:0.5;"/>
   </g>
   <g id="patch_73">
    <path clip-path="url(#p337f83845a)" d="
M278.206 504
L280.893 504
L280.893 472.908
L278.206 472.908
z
" style="fill:#20b2aa;stroke:#eeeeee;stroke-width:0.5;"/>
   </g>
   <g id="patch_74">
    <path clip-path="url(#p337f83845a)" d="
M280.893 504
L283.58 504
L283.58 479.136
L280.893 479.136
z
" style="fill:#20b2aa;stroke:#eeeeee;stroke-width:0.5;"/>
   </g>
   <g id="patch_75">
    <path clip-path="url(#p337f83845a)" d="
M283.58 504
L286.267 504
L286.267 480.687
L283.58 480.687
z
" style="fill:#20b2aa;stroke:#eeeeee;stroke-width:0.5;"/>
   </g>
   <g id="patch_76">
    <path clip-path="url(#p337f83845a)" d="
M286.267 504
L288.955 504
L288.955 482.383
L286.267 482.383
z
" style="fill:#20b2aa;stroke:#eeeeee;stroke-width:0.5;"/>
   </g>
   <g id="patch_77">
    <path clip-path="url(#p337f83845a)" d="
M288.955 504
L291.642 504
L291.642 481.725
L288.955 481.725
z
" style="fill:#20b2aa;stroke:#eeeeee;stroke-width:0.5;"/>
   </g>
   <g id="patch_78">
    <path clip-path="url(#p337f83845a)" d="
M291.642 504
L294.329 504
L294.329 483.187
L291.642 483.187
z
" style="fill:#20b2aa;stroke:#eeeeee;stroke-width:0.5;"/>
   </g>
   <g id="patch_79">
    <path clip-path="url(#p337f83845a)" d="
M294.329 504
L297.016 504
L297.016 484.012
L294.329 484.012
z
" style="fill:#20b2aa;stroke:#eeeeee;stroke-width:0.5;"/>
   </g>
   <g id="patch_80">
    <path clip-path="url(#p337f83845a)" d="
M297.016 504
L299.703 504
L299.703 483.745
L297.016 483.745
z
" style="fill:#20b2aa;stroke:#eeeeee;stroke-width:0.5;"/>
   </g>
   <g id="patch_81">
    <path clip-path="url(#p337f83845a)" d="
M299.703 504
L302.391 504
L302.391 483.577
L299.703 483.577
z
" style="fill:#20b2aa;stroke:#eeeeee;stroke-width:0.5;"/>
   </g>
   <g id="patch_82">
    <path clip-path="url(#p337f83845a)" d="
M302.391 504
L305.078 504
L305.078 484.916
L302.391 484.916
z
" style="fill:#20b2aa;stroke:#eeeeee;stroke-width:0.5;"/>
   </g>
   <g id="patch_83">
    <path clip-path="url(#p337f83845a)" d="
M305.078 504
L307.765 504
L307.765 485.329
L305.078 485.329
z
" style="fill:#20b2aa;stroke:#eeeeee;stroke-width:0.5;"/>
   </g>
   <g id="patch_84">
    <path clip-path="url(#p337f83845a)" d="
M307.765 504
L310.452 504
L310.452 485.865
L307.765 485.865
z
" style="fill:#20b2aa;stroke:#eeeeee;stroke-width:0.5;"/>
   </g>
   <g id="patch_85">
    <path clip-path="url(#p337f83845a)" d="
M310.452 504
L313.139 504
L313.139 485.642
L310.452 485.642
z
" style="fill:#20b2aa;stroke:#eeeeee;stroke-width:0.5;"/>
   </g>
   <g id="patch_86">
    <path clip-path="url(#p337f83845a)" d="
M313.139 504
L315.827 504
L315.827 483.164
L313.139 483.164
z
" style="fill:#20b2aa;stroke:#eeeeee;stroke-width:0.5;"/>
   </g>
   <g id="patch_87">
    <path clip-path="url(#p337f83845a)" d="
M315.827 504
L318.514 504
L318.514 484.548
L315.827 484.548
z
" style="fill:#20b2aa;stroke:#eeeeee;stroke-width:0.5;"/>
   </g>
   <g id="patch_88">
    <path clip-path="url(#p337f83845a)" d="
M318.514 504
L321.201 504
L321.201 485.91
L318.514 485.91
z
" style="fill:#20b2aa;stroke:#eeeeee;stroke-width:0.5;"/>
   </g>
   <g id="patch_89">
    <path clip-path="url(#p337f83845a)" d="
M321.201 504
L323.888 504
L323.888 486.456
L321.201 486.456
z
" style="fill:#20b2aa;stroke:#eeeeee;stroke-width:0.5;"/>
   </g>
   <g id="patch_90">
    <path clip-path="url(#p337f83845a)" d="
M323.888 504
L326.576 504
L326.576 486.836
L323.888 486.836
z
" style="fill:#20b2aa;stroke:#eeeeee;stroke-width:0.5;"/>
   </g>
   <g id="patch_91">
    <path clip-path="url(#p337f83845a)" d="
M326.576 504
L329.263 504
L329.263 485.843
L326.576 485.843
z
" style="fill:#20b2aa;stroke:#eeeeee;stroke-width:0.5;"/>
   </g>
   <g id="patch_92">
    <path clip-path="url(#p337f83845a)" d="
M329.263 504
L331.95 504
L331.95 483.867
L329.263 483.867
z
" style="fill:#20b2aa;stroke:#eeeeee;stroke-width:0.5;"/>
   </g>
   <g id="patch_93">
    <path clip-path="url(#p337f83845a)" d="
M331.95 504
L334.637 504
L334.637 486.791
L331.95 486.791
z
" style="fill:#20b2aa;stroke:#eeeeee;stroke-width:0.5;"/>
   </g>
   <g id="patch_94">
    <path clip-path="url(#p337f83845a)" d="
M334.637 504
L337.324 504
L337.324 487.662
L334.637 487.662
z
" style="fill:#20b2aa;stroke:#eeeeee;stroke-width:0.5;"/>
   </g>
   <g id="patch_95">
    <path clip-path="url(#p337f83845a)" d="
M337.324 504
L340.012 504
L340.012 488.209
L337.324 488.209
z
" style="fill:#20b2aa;stroke:#eeeeee;stroke-width:0.5;"/>
   </g>
   <g id="patch_96">
    <path clip-path="url(#p337f83845a)" d="
M340.012 504
L342.699 504
L342.699 488.967
L340.012 488.967
z
" style="fill:#20b2aa;stroke:#eeeeee;stroke-width:0.5;"/>
   </g>
   <g id="patch_97">
    <path clip-path="url(#p337f83845a)" d="
M342.699 504
L345.386 504
L345.386 489.604
L342.699 489.604
z
" style="fill:#20b2aa;stroke:#eeeeee;stroke-width:0.5;"/>
   </g>
   <g id="patch_98">
    <path clip-path="url(#p337f83845a)" d="
M345.386 504
L348.073 504
L348.073 490.329
L345.386 490.329
z
" style="fill:#20b2aa;stroke:#eeeeee;stroke-width:0.5;"/>
   </g>
   <g id="patch_99">
    <path clip-path="url(#p337f83845a)" d="
M348.073 504
L350.76 504
L350.76 488.409
L348.073 488.409
z
" style="fill:#20b2aa;stroke:#eeeeee;stroke-width:0.5;"/>
   </g>
   <g id="patch_100">
    <path clip-path="url(#p337f83845a)" d="
M350.76 504
L353.448 504
L353.448 489.436
L350.76 489.436
z
" style="fill:#20b2aa;stroke:#eeeeee;stroke-width:0.5;"/>
   </g>
   <g id="patch_101">
    <path clip-path="url(#p337f83845a)" d="
M353.448 504
L356.135 504
L356.135 489.682
L353.448 489.682
z
" style="fill:#20b2aa;stroke:#eeeeee;stroke-width:0.5;"/>
   </g>
   <g id="patch_102">
    <path clip-path="url(#p337f83845a)" d="
M356.135 504
L358.822 504
L358.822 488.767
L356.135 488.767
z
" style="fill:#20b2aa;stroke:#eeeeee;stroke-width:0.5;"/>
   </g>
   <g id="patch_103">
    <path clip-path="url(#p337f83845a)" d="
M358.822 504
L361.509 504
L361.509 489.235
L358.822 489.235
z
" style="fill:#20b2aa;stroke:#eeeeee;stroke-width:0.5;"/>
   </g>
   <g id="patch_104">
    <path clip-path="url(#p337f83845a)" d="
M361.509 504
L364.197 504
L364.197 489.76
L361.509 489.76
z
" style="fill:#20b2aa;stroke:#eeeeee;stroke-width:0.5;"/>
   </g>
   <g id="patch_105">
    <path clip-path="url(#p337f83845a)" d="
M364.197 504
L366.884 504
L366.884 489.291
L364.197 489.291
z
" style="fill:#20b2aa;stroke:#eeeeee;stroke-width:0.5;"/>
   </g>
   <g id="patch_106">
    <path clip-path="url(#p337f83845a)" d="
M366.884 504
L369.571 504
L369.571 488.878
L366.884 488.878
z
" style="fill:#20b2aa;stroke:#eeeeee;stroke-width:0.5;"/>
   </g>
   <g id="patch_107">
    <path clip-path="url(#p337f83845a)" d="
M369.571 504
L372.258 504
L372.258 489.715
L369.571 489.715
z
" style="fill:#20b2aa;stroke:#eeeeee;stroke-width:0.5;"/>
   </g>
   <g id="patch_108">
    <path clip-path="url(#p337f83845a)" d="
M372.258 504
L374.945 504
L374.945 488.923
L372.258 488.923
z
" style="fill:#20b2aa;stroke:#eeeeee;stroke-width:0.5;"/>
   </g>
   <g id="patch_109">
    <path clip-path="url(#p337f83845a)" d="
M374.945 504
L377.633 504
L377.633 490.597
L374.945 490.597
z
" style="fill:#20b2aa;stroke:#eeeeee;stroke-width:0.5;"/>
   </g>
   <g id="patch_110">
    <path clip-path="url(#p337f83845a)" d="
M377.633 504
L380.32 504
L380.32 490.474
L377.633 490.474
z
" style="fill:#20b2aa;stroke:#eeeeee;stroke-width:0.5;"/>
   </g>
   <g id="patch_111">
    <path clip-path="url(#p337f83845a)" d="
M380.32 504
L383.007 504
L383.007 490.854
L380.32 490.854
z
" style="fill:#20b2aa;stroke:#eeeeee;stroke-width:0.5;"/>
   </g>
   <g id="patch_112">
    <path clip-path="url(#p337f83845a)" d="
M383.007 504
L385.694 504
L385.694 491.668
L383.007 491.668
z
" style="fill:#20b2aa;stroke:#eeeeee;stroke-width:0.5;"/>
   </g>
   <g id="patch_113">
    <path clip-path="url(#p337f83845a)" d="
M385.694 504
L388.381 504
L388.381 490.653
L385.694 490.653
z
" style="fill:#20b2aa;stroke:#eeeeee;stroke-width:0.5;"/>
   </g>
   <g id="patch_114">
    <path clip-path="url(#p337f83845a)" d="
M388.381 504
L391.069 504
L391.069 491.869
L388.381 491.869
z
" style="fill:#20b2aa;stroke:#eeeeee;stroke-width:0.5;"/>
   </g>
   <g id="patch_115">
    <path clip-path="url(#p337f83845a)" d="
M391.069 504
L393.756 504
L393.756 491.545
L391.069 491.545
z
" style="fill:#20b2aa;stroke:#eeeeee;stroke-width:0.5;"/>
   </g>
   <g id="patch_116">
    <path clip-path="url(#p337f83845a)" d="
M393.756 504
L396.443 504
L396.443 492.394
L393.756 492.394
z
" style="fill:#20b2aa;stroke:#eeeeee;stroke-width:0.5;"/>
   </g>
   <g id="patch_117">
    <path clip-path="url(#p337f83845a)" d="
M396.443 504
L399.13 504
L399.13 492.215
L396.443 492.215
z
" style="fill:#20b2aa;stroke:#eeeeee;stroke-width:0.5;"/>
   </g>
   <g id="patch_118">
    <path clip-path="url(#p337f83845a)" d="
M399.13 504
L401.818 504
L401.818 492.896
L399.13 492.896
z
" style="fill:#20b2aa;stroke:#eeeeee;stroke-width:0.5;"/>
   </g>
   <g id="patch_119">
    <path clip-path="url(#p337f83845a)" d="
M401.818 504
L404.505 504
L404.505 490.831
L401.818 490.831
z
" style="fill:#20b2aa;stroke:#eeeeee;stroke-width:0.5;"/>
   </g>
   <g id="patch_120">
    <path clip-path="url(#p337f83845a)" d="
M404.505 504
L407.192 504
L407.192 491.791
L404.505 491.791
z
" style="fill:#20b2aa;stroke:#eeeeee;stroke-width:0.5;"/>
   </g>
   <g id="patch_121">
    <path clip-path="url(#p337f83845a)" d="
M407.192 504
L409.879 504
L409.879 492.405
L407.192 492.405
z
" style="fill:#20b2aa;stroke:#eeeeee;stroke-width:0.5;"/>
   </g>
   <g id="patch_122">
    <path clip-path="url(#p337f83845a)" d="
M409.879 504
L412.566 504
L412.566 493.231
L409.879 493.231
z
" style="fill:#20b2aa;stroke:#eeeeee;stroke-width:0.5;"/>
   </g>
   <g id="patch_123">
    <path clip-path="url(#p337f83845a)" d="
M412.566 504
L415.254 504
L415.254 493.186
L412.566 493.186
z
" style="fill:#20b2aa;stroke:#eeeeee;stroke-width:0.5;"/>
   </g>
   <g id="patch_124">
    <path clip-path="url(#p337f83845a)" d="
M415.254 504
L417.941 504
L417.941 494.146
L415.254 494.146
z
" style="fill:#20b2aa;stroke:#eeeeee;stroke-width:0.5;"/>
   </g>
   <g id="patch_125">
    <path clip-path="url(#p337f83845a)" d="
M417.941 504
L420.628 504
L420.628 492.449
L417.941 492.449
z
" style="fill:#20b2aa;stroke:#eeeeee;stroke-width:0.5;"/>
   </g>
   <g id="patch_126">
    <path clip-path="url(#p337f83845a)" d="
M420.628 504
L423.315 504
L423.315 493.521
L420.628 493.521
z
" style="fill:#20b2aa;stroke:#eeeeee;stroke-width:0.5;"/>
   </g>
   <g id="patch_127">
    <path clip-path="url(#p337f83845a)" d="
M423.315 504
L426.002 504
L426.002 493.331
L423.315 493.331
z
" style="fill:#20b2aa;stroke:#eeeeee;stroke-width:0.5;"/>
   </g>
   <g id="patch_128">
    <path clip-path="url(#p337f83845a)" d="
M426.002 504
L428.69 504
L428.69 493.61
L426.002 493.61
z
" style="fill:#20b2aa;stroke:#eeeeee;stroke-width:0.5;"/>
   </g>
   <g id="patch_129">
    <path clip-path="url(#p337f83845a)" d="
M428.69 504
L431.377 504
L431.377 494.056
L428.69 494.056
z
" style="fill:#20b2aa;stroke:#eeeeee;stroke-width:0.5;"/>
   </g>
   <g id="patch_130">
    <path clip-path="url(#p337f83845a)" d="
M431.377 504
L434.064 504
L434.064 494.67
L431.377 494.67
z
" style="fill:#20b2aa;stroke:#eeeeee;stroke-width:0.5;"/>
   </g>
   <g id="patch_131">
    <path clip-path="url(#p337f83845a)" d="
M434.064 504
L436.751 504
L436.751 493.71
L434.064 493.71
z
" style="fill:#20b2aa;stroke:#eeeeee;stroke-width:0.5;"/>
   </g>
   <g id="patch_132">
    <path clip-path="url(#p337f83845a)" d="
M436.751 504
L439.439 504
L439.439 493.945
L436.751 493.945
z
" style="fill:#20b2aa;stroke:#eeeeee;stroke-width:0.5;"/>
   </g>
   <g id="patch_133">
    <path clip-path="url(#p337f83845a)" d="
M439.439 504
L442.126 504
L442.126 494.469
L439.439 494.469
z
" style="fill:#20b2aa;stroke:#eeeeee;stroke-width:0.5;"/>
   </g>
   <g id="patch_134">
    <path clip-path="url(#p337f83845a)" d="
M442.126 504
L444.813 504
L444.813 494.492
L442.126 494.492
z
" style="fill:#20b2aa;stroke:#eeeeee;stroke-width:0.5;"/>
   </g>
   <g id="patch_135">
    <path clip-path="url(#p337f83845a)" d="
M444.813 504
L447.5 504
L447.5 495.15
L444.813 495.15
z
" style="fill:#20b2aa;stroke:#eeeeee;stroke-width:0.5;"/>
   </g>
   <g id="patch_136">
    <path clip-path="url(#p337f83845a)" d="
M447.5 504
L450.187 504
L450.187 494.492
L447.5 494.492
z
" style="fill:#20b2aa;stroke:#eeeeee;stroke-width:0.5;"/>
   </g>
   <g id="patch_137">
    <path clip-path="url(#p337f83845a)" d="
M450.187 504
L452.875 504
L452.875 494.994
L450.187 494.994
z
" style="fill:#20b2aa;stroke:#eeeeee;stroke-width:0.5;"/>
   </g>
   <g id="patch_138">
    <path clip-path="url(#p337f83845a)" d="
M452.875 504
L455.562 504
L455.562 495.005
L452.875 495.005
z
" style="fill:#20b2aa;stroke:#eeeeee;stroke-width:0.5;"/>
   </g>
   <g id="patch_139">
    <path clip-path="url(#p337f83845a)" d="
M455.562 504
L458.249 504
L458.249 495.373
L455.562 495.373
z
" style="fill:#20b2aa;stroke:#eeeeee;stroke-width:0.5;"/>
   </g>
   <g id="patch_140">
    <path clip-path="url(#p337f83845a)" d="
M458.249 504
L460.936 504
L460.936 495.463
L458.249 495.463
z
" style="fill:#20b2aa;stroke:#eeeeee;stroke-width:0.5;"/>
   </g>
   <g id="patch_141">
    <path clip-path="url(#p337f83845a)" d="
M460.936 504
L463.623 504
L463.623 495.585
L460.936 495.585
z
" style="fill:#20b2aa;stroke:#eeeeee;stroke-width:0.5;"/>
   </g>
   <g id="patch_142">
    <path clip-path="url(#p337f83845a)" d="
M463.623 504
L466.311 504
L466.311 495.117
L463.623 495.117
z
" style="fill:#20b2aa;stroke:#eeeeee;stroke-width:0.5;"/>
   </g>
   <g id="patch_143">
    <path clip-path="url(#p337f83845a)" d="
M466.311 504
L468.998 504
L468.998 495.675
L466.311 495.675
z
" style="fill:#20b2aa;stroke:#eeeeee;stroke-width:0.5;"/>
   </g>
   <g id="patch_144">
    <path clip-path="url(#p337f83845a)" d="
M468.998 504
L471.685 504
L471.685 495.987
L468.998 495.987
z
" style="fill:#20b2aa;stroke:#eeeeee;stroke-width:0.5;"/>
   </g>
   <g id="patch_145">
    <path clip-path="url(#p337f83845a)" d="
M471.685 504
L474.372 504
L474.372 495.976
L471.685 495.976
z
" style="fill:#20b2aa;stroke:#eeeeee;stroke-width:0.5;"/>
   </g>
   <g id="patch_146">
    <path clip-path="url(#p337f83845a)" d="
M474.372 504
L477.06 504
L477.06 495.931
L474.372 495.931
z
" style="fill:#20b2aa;stroke:#eeeeee;stroke-width:0.5;"/>
   </g>
   <g id="patch_147">
    <path clip-path="url(#p337f83845a)" d="
M477.06 504
L479.747 504
L479.747 495.898
L477.06 495.898
z
" style="fill:#20b2aa;stroke:#eeeeee;stroke-width:0.5;"/>
   </g>
   <g id="patch_148">
    <path clip-path="url(#p337f83845a)" d="
M479.747 504
L482.434 504
L482.434 496.088
L479.747 496.088
z
" style="fill:#20b2aa;stroke:#eeeeee;stroke-width:0.5;"/>
   </g>
   <g id="patch_149">
    <path clip-path="url(#p337f83845a)" d="
M482.434 504
L485.121 504
L485.121 495.853
L482.434 495.853
z
" style="fill:#20b2aa;stroke:#eeeeee;stroke-width:0.5;"/>
   </g>
   <g id="patch_150">
    <path clip-path="url(#p337f83845a)" d="
M485.121 504
L487.808 504
L487.808 496.713
L485.121 496.713
z
" style="fill:#20b2aa;stroke:#eeeeee;stroke-width:0.5;"/>
   </g>
   <g id="patch_151">
    <path clip-path="url(#p337f83845a)" d="
M487.808 504
L490.496 504
L490.496 496.735
L487.808 496.735
z
" style="fill:#20b2aa;stroke:#eeeeee;stroke-width:0.5;"/>
   </g>
   <g id="patch_152">
    <path clip-path="url(#p337f83845a)" d="
M490.496 504
L493.183 504
L493.183 496.121
L490.496 496.121
z
" style="fill:#20b2aa;stroke:#eeeeee;stroke-width:0.5;"/>
   </g>
   <g id="patch_153">
    <path clip-path="url(#p337f83845a)" d="
M493.183 504
L495.87 504
L495.87 496.545
L493.183 496.545
z
" style="fill:#20b2aa;stroke:#eeeeee;stroke-width:0.5;"/>
   </g>
   <g id="patch_154">
    <path clip-path="url(#p337f83845a)" d="
M495.87 504
L498.557 504
L498.557 496.456
L495.87 496.456
z
" style="fill:#20b2aa;stroke:#eeeeee;stroke-width:0.5;"/>
   </g>
   <g id="patch_155">
    <path clip-path="url(#p337f83845a)" d="
M498.557 504
L501.244 504
L501.244 496.791
L498.557 496.791
z
" style="fill:#20b2aa;stroke:#eeeeee;stroke-width:0.5;"/>
   </g>
   <g id="patch_156">
    <path clip-path="url(#p337f83845a)" d="
M501.244 504
L503.932 504
L503.932 496.902
L501.244 496.902
z
" style="fill:#20b2aa;stroke:#eeeeee;stroke-width:0.5;"/>
   </g>
   <g id="patch_157">
    <path clip-path="url(#p337f83845a)" d="
M503.932 504
L506.619 504
L506.619 496.992
L503.932 496.992
z
" style="fill:#20b2aa;stroke:#eeeeee;stroke-width:0.5;"/>
   </g>
   <g id="patch_158">
    <path clip-path="url(#p337f83845a)" d="
M506.619 504
L509.306 504
L509.306 497.315
L506.619 497.315
z
" style="fill:#20b2aa;stroke:#eeeeee;stroke-width:0.5;"/>
   </g>
   <g id="patch_159">
    <path clip-path="url(#p337f83845a)" d="
M509.306 504
L511.993 504
L511.993 497.315
L509.306 497.315
z
" style="fill:#20b2aa;stroke:#eeeeee;stroke-width:0.5;"/>
   </g>
   <g id="patch_160">
    <path clip-path="url(#p337f83845a)" d="
M511.993 504
L514.681 504
L514.681 497.014
L511.993 497.014
z
" style="fill:#20b2aa;stroke:#eeeeee;stroke-width:0.5;"/>
   </g>
   <g id="patch_161">
    <path clip-path="url(#p337f83845a)" d="
M514.681 504
L517.368 504
L517.368 496.891
L514.681 496.891
z
" style="fill:#20b2aa;stroke:#eeeeee;stroke-width:0.5;"/>
   </g>
   <g id="patch_162">
    <path clip-path="url(#p337f83845a)" d="
M517.368 504
L520.055 504
L520.055 497.494
L517.368 497.494
z
" style="fill:#20b2aa;stroke:#eeeeee;stroke-width:0.5;"/>
   </g>
   <g id="patch_163">
    <path clip-path="url(#p337f83845a)" d="
M520.055 504
L522.742 504
L522.742 497.65
L520.055 497.65
z
" style="fill:#20b2aa;stroke:#eeeeee;stroke-width:0.5;"/>
   </g>
   <g id="patch_164">
    <path clip-path="url(#p337f83845a)" d="
M522.742 504
L525.429 504
L525.429 497.873
L522.742 497.873
z
" style="fill:#20b2aa;stroke:#eeeeee;stroke-width:0.5;"/>
   </g>
   <g id="patch_165">
    <path clip-path="url(#p337f83845a)" d="
M525.429 504
L528.117 504
L528.117 497.929
L525.429 497.929
z
" style="fill:#20b2aa;stroke:#eeeeee;stroke-width:0.5;"/>
   </g>
   <g id="patch_166">
    <path clip-path="url(#p337f83845a)" d="
M528.117 504
L530.804 504
L530.804 497.996
L528.117 497.996
z
" style="fill:#20b2aa;stroke:#eeeeee;stroke-width:0.5;"/>
   </g>
   <g id="patch_167">
    <path clip-path="url(#p337f83845a)" d="
M530.804 504
L533.491 504
L533.491 497.918
L530.804 497.918
z
" style="fill:#20b2aa;stroke:#eeeeee;stroke-width:0.5;"/>
   </g>
   <g id="patch_168">
    <path clip-path="url(#p337f83845a)" d="
M533.491 504
L536.178 504
L536.178 498.085
L533.491 498.085
z
" style="fill:#20b2aa;stroke:#eeeeee;stroke-width:0.5;"/>
   </g>
   <g id="patch_169">
    <path clip-path="url(#p337f83845a)" d="
M536.178 504
L538.865 504
L538.865 497.962
L536.178 497.962
z
" style="fill:#20b2aa;stroke:#eeeeee;stroke-width:0.5;"/>
   </g>
   <g id="patch_170">
    <path clip-path="url(#p337f83845a)" d="
M538.865 504
L541.553 504
L541.553 498.018
L538.865 498.018
z
" style="fill:#20b2aa;stroke:#eeeeee;stroke-width:0.5;"/>
   </g>
   <g id="patch_171">
    <path clip-path="url(#p337f83845a)" d="
M541.553 504
L544.24 504
L544.24 498.186
L541.553 498.186
z
" style="fill:#20b2aa;stroke:#eeeeee;stroke-width:0.5;"/>
   </g>
   <g id="patch_172">
    <path clip-path="url(#p337f83845a)" d="
M544.24 504
L546.927 504
L546.927 498.453
L544.24 498.453
z
" style="fill:#20b2aa;stroke:#eeeeee;stroke-width:0.5;"/>
   </g>
   <g id="patch_173">
    <path clip-path="url(#p337f83845a)" d="
M546.927 504
L549.614 504
L549.614 498.543
L546.927 498.543
z
" style="fill:#20b2aa;stroke:#eeeeee;stroke-width:0.5;"/>
   </g>
   <g id="patch_174">
    <path clip-path="url(#p337f83845a)" d="
M549.614 504
L552.302 504
L552.302 498.643
L549.614 498.643
z
" style="fill:#20b2aa;stroke:#eeeeee;stroke-width:0.5;"/>
   </g>
   <g id="patch_175">
    <path clip-path="url(#p337f83845a)" d="
M552.302 504
L554.989 504
L554.989 498.643
L552.302 498.643
z
" style="fill:#20b2aa;stroke:#eeeeee;stroke-width:0.5;"/>
   </g>
   <g id="patch_176">
    <path clip-path="url(#p337f83845a)" d="
M554.989 504
L557.676 504
L557.676 498.654
L554.989 498.654
z
" style="fill:#20b2aa;stroke:#eeeeee;stroke-width:0.5;"/>
   </g>
   <g id="patch_177">
    <path clip-path="url(#p337f83845a)" d="
M557.676 504
L560.363 504
L560.363 498.532
L557.676 498.532
z
" style="fill:#20b2aa;stroke:#eeeeee;stroke-width:0.5;"/>
   </g>
   <g id="patch_178">
    <path clip-path="url(#p337f83845a)" d="
M560.363 504
L563.05 504
L563.05 498.297
L560.363 498.297
z
" style="fill:#20b2aa;stroke:#eeeeee;stroke-width:0.5;"/>
   </g>
   <g id="patch_179">
    <path clip-path="url(#p337f83845a)" d="
M563.05 504
L565.738 504
L565.738 498.967
L563.05 498.967
z
" style="fill:#20b2aa;stroke:#eeeeee;stroke-width:0.5;"/>
   </g>
   <g id="patch_180">
    <path clip-path="url(#p337f83845a)" d="
M565.738 504
L568.425 504
L568.425 498.732
L565.738 498.732
z
" style="fill:#20b2aa;stroke:#eeeeee;stroke-width:0.5;"/>
   </g>
   <g id="patch_181">
    <path clip-path="url(#p337f83845a)" d="
M568.425 504
L571.112 504
L571.112 499.123
L568.425 499.123
z
" style="fill:#20b2aa;stroke:#eeeeee;stroke-width:0.5;"/>
   </g>
   <g id="patch_182">
    <path clip-path="url(#p337f83845a)" d="
M571.112 504
L573.799 504
L573.799 498.844
L571.112 498.844
z
" style="fill:#20b2aa;stroke:#eeeeee;stroke-width:0.5;"/>
   </g>
   <g id="patch_183">
    <path clip-path="url(#p337f83845a)" d="
M573.799 504
L576.486 504
L576.486 499.469
L573.799 499.469
z
" style="fill:#20b2aa;stroke:#eeeeee;stroke-width:0.5;"/>
   </g>
   <g id="patch_184">
    <path clip-path="url(#p337f83845a)" d="
M576.486 504
L579.174 504
L579.174 499.045
L576.486 499.045
z
" style="fill:#20b2aa;stroke:#eeeeee;stroke-width:0.5;"/>
   </g>
   <g id="patch_185">
    <path clip-path="url(#p337f83845a)" d="
M579.174 504
L581.861 504
L581.861 498.621
L579.174 498.621
z
" style="fill:#20b2aa;stroke:#eeeeee;stroke-width:0.5;"/>
   </g>
   <g id="patch_186">
    <path clip-path="url(#p337f83845a)" d="
M581.861 504
L584.548 504
L584.548 499.19
L581.861 499.19
z
" style="fill:#20b2aa;stroke:#eeeeee;stroke-width:0.5;"/>
   </g>
   <g id="patch_187">
    <path clip-path="url(#p337f83845a)" d="
M584.548 504
L587.235 504
L587.235 498.956
L584.548 498.956
z
" style="fill:#20b2aa;stroke:#eeeeee;stroke-width:0.5;"/>
   </g>
   <g id="patch_188">
    <path clip-path="url(#p337f83845a)" d="
M587.235 504
L589.923 504
L589.923 499.402
L587.235 499.402
z
" style="fill:#20b2aa;stroke:#eeeeee;stroke-width:0.5;"/>
   </g>
   <g id="patch_189">
    <path clip-path="url(#p337f83845a)" d="
M589.923 504
L592.61 504
L592.61 499.145
L589.923 499.145
z
" style="fill:#20b2aa;stroke:#eeeeee;stroke-width:0.5;"/>
   </g>
   <g id="patch_190">
    <path clip-path="url(#p337f83845a)" d="
M592.61 504
L595.297 504
L595.297 499.927
L592.61 499.927
z
" style="fill:#20b2aa;stroke:#eeeeee;stroke-width:0.5;"/>
   </g>
   <g id="patch_191">
    <path clip-path="url(#p337f83845a)" d="
M595.297 504
L597.984 504
L597.984 499.715
L595.297 499.715
z
" style="fill:#20b2aa;stroke:#eeeeee;stroke-width:0.5;"/>
   </g>
   <g id="patch_192">
    <path clip-path="url(#p337f83845a)" d="
M597.984 504
L600.671 504
L600.671 499.96
L597.984 499.96
z
" style="fill:#20b2aa;stroke:#eeeeee;stroke-width:0.5;"/>
   </g>
   <g id="patch_193">
    <path clip-path="url(#p337f83845a)" d="
M600.671 504
L603.359 504
L603.359 499.659
L600.671 499.659
z
" style="fill:#20b2aa;stroke:#eeeeee;stroke-width:0.5;"/>
   </g>
   <g id="patch_194">
    <path clip-path="url(#p337f83845a)" d="
M603.359 504
L606.046 504
L606.046 499.793
L603.359 499.793
z
" style="fill:#20b2aa;stroke:#eeeeee;stroke-width:0.5;"/>
   </g>
   <g id="patch_195">
    <path clip-path="url(#p337f83845a)" d="
M606.046 504
L608.733 504
L608.733 499.67
L606.046 499.67
z
" style="fill:#20b2aa;stroke:#eeeeee;stroke-width:0.5;"/>
   </g>
   <g id="patch_196">
    <path clip-path="url(#p337f83845a)" d="
M608.733 504
L611.42 504
L611.42 499.715
L608.733 499.715
z
" style="fill:#20b2aa;stroke:#eeeeee;stroke-width:0.5;"/>
   </g>
   <g id="patch_197">
    <path clip-path="url(#p337f83845a)" d="
M611.42 504
L614.107 504
L614.107 499.782
L611.42 499.782
z
" style="fill:#20b2aa;stroke:#eeeeee;stroke-width:0.5;"/>
   </g>
   <g id="patch_198">
    <path clip-path="url(#p337f83845a)" d="
M614.107 504
L616.795 504
L616.795 499.737
L614.107 499.737
z
" style="fill:#20b2aa;stroke:#eeeeee;stroke-width:0.5;"/>
   </g>
   <g id="patch_199">
    <path clip-path="url(#p337f83845a)" d="
M616.795 504
L619.482 504
L619.482 499.458
L616.795 499.458
z
" style="fill:#20b2aa;stroke:#eeeeee;stroke-width:0.5;"/>
   </g>
   <g id="patch_200">
    <path clip-path="url(#p337f83845a)" d="
M619.482 504
L622.169 504
L622.169 499.904
L619.482 499.904
z
" style="fill:#20b2aa;stroke:#eeeeee;stroke-width:0.5;"/>
   </g>
   <g id="patch_201">
    <path clip-path="url(#p337f83845a)" d="
M622.169 504
L624.856 504
L624.856 499.625
L622.169 499.625
z
" style="fill:#20b2aa;stroke:#eeeeee;stroke-width:0.5;"/>
   </g>
   <g id="patch_202">
    <path clip-path="url(#p337f83845a)" d="
M624.856 504
L627.544 504
L627.544 499.536
L624.856 499.536
z
" style="fill:#20b2aa;stroke:#eeeeee;stroke-width:0.5;"/>
   </g>
   <g id="LineCollection_1">
    <defs>
     <path d="
M311.833 -72
L311.833 -518.4" id="C0_0_98e162ee29"/>
    </defs>
    <g clip-path="url(#p337f83845a)">
     <use style="fill:none;stroke:#000000;stroke-dasharray:6.000000,6.000000;stroke-dashoffset:0.0;stroke-linecap:butt;" x="0" xlink:href="#C0_0_98e162ee29" y="576.0"/>
    </g>
   </g>
   <g id="patch_203">
    <path d="
M90 57.6
L648 57.6" style="fill:none;stroke:#ffffff;"/>
   </g>
   <g id="patch_204">
    <path d="
M648 504
L648 57.6" style="fill:none;stroke:#ffffff;"/>
   </g>
   <g id="patch_205">
    <path d="
M90 504
L648 504" style="fill:none;stroke:#ffffff;"/>
   </g>
   <g id="patch_206">
    <path d="
M90 504
L90 57.6" style="fill:none;stroke:#ffffff;"/>
   </g>
   <g id="text_32">
    <!-- App Installation Size Histogram (Play Store Dec. 2013) -->
    <defs>
     <path d="
M10.6875 12.4062
L21 12.4062
L21 0
L10.6875 0
z
" id="DejaVuSans-2e"/>
     <path d="
M54.8906 33.0156
L54.8906 0
L45.9062 0
L45.9062 32.7188
Q45.9062 40.4844 42.875 44.3281
Q39.8438 48.1875 33.7969 48.1875
Q26.5156 48.1875 22.3125 43.5469
Q18.1094 38.9219 18.1094 30.9062
L18.1094 0
L9.07812 0
L9.07812 54.6875
L18.1094 54.6875
L18.1094 46.1875
Q21.3438 51.125 25.7031 53.5625
Q30.0781 56 35.7969 56
Q45.2188 56 50.0469 50.1719
Q54.8906 44.3438 54.8906 33.0156" id="DejaVuSans-6e"/>
     <path d="
M9.42188 75.9844
L18.4062 75.9844
L18.4062 0
L9.42188 0
z
" id="DejaVuSans-6c"/>
     <path d="
M48.7812 52.5938
L48.7812 44.1875
Q44.9688 46.2969 41.1406 47.3438
Q37.3125 48.3906 33.4062 48.3906
Q24.6562 48.3906 19.8125 42.8438
Q14.9844 37.3125 14.9844 27.2969
Q14.9844 17.2812 19.8125 11.7344
Q24.6562 6.20312 33.4062 6.20312
Q37.3125 6.20312 41.1406 7.25
Q44.9688 8.29688 48.7812 10.4062
L48.7812 2.09375
Q45.0156 0.34375 40.9844 -0.53125
Q36.9688 -1.42188 32.4219 -1.42188
Q20.0625 -1.42188 12.7812 6.34375
Q5.51562 14.1094 5.51562 27.2969
Q5.51562 40.6719 12.8594 48.3281
Q20.2188 56 33.0156 56
Q37.1562 56 41.1094 55.1406
Q45.0625 54.2969 48.7812 52.5938" id="DejaVuSans-63"/>
     <path d="
M19.6719 64.7969
L19.6719 8.10938
L31.5938 8.10938
Q46.6875 8.10938 53.6875 14.9375
Q60.6875 21.7812 60.6875 36.5312
Q60.6875 51.1719 53.6875 57.9844
Q46.6875 64.7969 31.5938 64.7969
z

M9.8125 72.9062
L30.0781 72.9062
Q51.2656 72.9062 61.1719 64.0938
Q71.0938 55.2812 71.0938 36.5312
Q71.0938 17.6719 61.125 8.82812
Q51.1719 0 30.0781 0
L9.8125 0
z
" id="DejaVuSans-44"/>
     <path d="
M32.1719 -5.07812
Q28.375 -14.8438 24.75 -17.8125
Q21.1406 -20.7969 15.0938 -20.7969
L7.90625 -20.7969
L7.90625 -13.2812
L13.1875 -13.2812
Q16.8906 -13.2812 18.9375 -11.5156
Q21 -9.76562 23.4844 -3.21875
L25.0938 0.875
L2.98438 54.6875
L12.5 54.6875
L29.5938 11.9219
L46.6875 54.6875
L56.2031 54.6875
z
" id="DejaVuSans-79"/>
     <path d="
M45.4062 27.9844
Q45.4062 37.75 41.375 43.1094
Q37.3594 48.4844 30.0781 48.4844
Q22.8594 48.4844 18.8281 43.1094
Q14.7969 37.75 14.7969 27.9844
Q14.7969 18.2656 18.8281 12.8906
Q22.8594 7.51562 30.0781 7.51562
Q37.3594 7.51562 41.375 12.8906
Q45.4062 18.2656 45.4062 27.9844
M54.3906 6.78125
Q54.3906 -7.17188 48.1875 -13.9844
Q42 -20.7969 29.2031 -20.7969
Q24.4688 -20.7969 20.2656 -20.0938
Q16.0625 -19.3906 12.1094 -17.9219
L12.1094 -9.1875
Q16.0625 -11.3281 19.9219 -12.3438
Q23.7812 -13.375 27.7812 -13.375
Q36.625 -13.375 41.0156 -8.76562
Q45.4062 -4.15625 45.4062 5.17188
L45.4062 9.625
Q42.625 4.78125 38.2812 2.39062
Q33.9375 0 27.875 0
Q17.8281 0 11.6719 7.65625
Q5.51562 15.3281 5.51562 27.9844
Q5.51562 40.6719 11.6719 48.3281
Q17.8281 56 27.875 56
Q33.9375 56 38.2812 53.6094
Q42.625 51.2188 45.4062 46.3906
L45.4062 54.6875
L54.3906 54.6875
z
" id="DejaVuSans-67"/>
     <path d="
M18.3125 70.2188
L18.3125 54.6875
L36.8125 54.6875
L36.8125 47.7031
L18.3125 47.7031
L18.3125 18.0156
Q18.3125 11.3281 20.1406 9.42188
Q21.9688 7.51562 27.5938 7.51562
L36.8125 7.51562
L36.8125 0
L27.5938 0
Q17.1875 0 13.2344 3.875
Q9.28125 7.76562 9.28125 18.0156
L9.28125 47.7031
L2.6875 47.7031
L2.6875 54.6875
L9.28125 54.6875
L9.28125 70.2188
z
" id="DejaVuSans-74"/>
     <path d="
M19.6719 64.7969
L19.6719 37.4062
L32.0781 37.4062
Q38.9688 37.4062 42.7188 40.9688
Q46.4844 44.5312 46.4844 51.125
Q46.4844 57.6719 42.7188 61.2344
Q38.9688 64.7969 32.0781 64.7969
z

M9.8125 72.9062
L32.0781 72.9062
Q44.3438 72.9062 50.6094 67.3594
Q56.8906 61.8125 56.8906 51.125
Q56.8906 40.3281 50.6094 34.8125
Q44.3438 29.2969 32.0781 29.2969
L19.6719 29.2969
L19.6719 0
L9.8125 0
z
" id="DejaVuSans-50"/>
     <path d="
M9.8125 72.9062
L19.6719 72.9062
L19.6719 43.0156
L55.5156 43.0156
L55.5156 72.9062
L65.375 72.9062
L65.375 0
L55.5156 0
L55.5156 34.7188
L19.6719 34.7188
L19.6719 0
L9.8125 0
z
" id="DejaVuSans-48"/>
     <path d="
M9.8125 72.9062
L19.6719 72.9062
L19.6719 0
L9.8125 0
z
" id="DejaVuSans-49"/>
     <path d="
M34.2812 27.4844
Q23.3906 27.4844 19.1875 25
Q14.9844 22.5156 14.9844 16.5
Q14.9844 11.7188 18.1406 8.90625
Q21.2969 6.10938 26.7031 6.10938
Q34.1875 6.10938 38.7031 11.4062
Q43.2188 16.7031 43.2188 25.4844
L43.2188 27.4844
z

M52.2031 31.2031
L52.2031 0
L43.2188 0
L43.2188 8.29688
Q40.1406 3.32812 35.5469 0.953125
Q30.9531 -1.42188 24.3125 -1.42188
Q15.9219 -1.42188 10.9531 3.29688
Q6 8.01562 6 15.9219
Q6 25.1406 12.1719 29.8281
Q18.3594 34.5156 30.6094 34.5156
L43.2188 34.5156
L43.2188 35.4062
Q43.2188 41.6094 39.1406 45
Q35.0625 48.3906 27.6875 48.3906
Q23 48.3906 18.5469 47.2656
Q14.1094 46.1406 10.0156 43.8906
L10.0156 52.2031
Q14.9375 54.1094 19.5781 55.0469
Q24.2188 56 28.6094 56
Q40.4844 56 46.3438 49.8438
Q52.2031 43.7031 52.2031 31.2031" id="DejaVuSans-61"/>
    </defs>
    <g transform="translate(173.320875 52.6)scale(0.144 -0.144)">
     <use xlink:href="#DejaVuSans-41"/>
     <use x="68.408203125" xlink:href="#DejaVuSans-70"/>
     <use x="131.884765625" xlink:href="#DejaVuSans-70"/>
     <use x="195.361328125" xlink:href="#DejaVuSans-20"/>
     <use x="227.1484375" xlink:href="#DejaVuSans-49"/>
     <use x="256.640625" xlink:href="#DejaVuSans-6e"/>
     <use x="320.01953125" xlink:href="#DejaVuSans-73"/>
     <use x="372.119140625" xlink:href="#DejaVuSans-74"/>
     <use x="411.328125" xlink:href="#DejaVuSans-61"/>
     <use x="472.607421875" xlink:href="#DejaVuSans-6c"/>
     <use x="500.390625" xlink:href="#DejaVuSans-6c"/>
     <use x="528.173828125" xlink:href="#DejaVuSans-61"/>
     <use x="589.453125" xlink:href="#DejaVuSans-74"/>
     <use x="628.662109375" xlink:href="#DejaVuSans-69"/>
     <use x="656.4453125" xlink:href="#DejaVuSans-6f"/>
     <use x="717.626953125" xlink:href="#DejaVuSans-6e"/>
     <use x="781.005859375" xlink:href="#DejaVuSans-20"/>
     <use x="812.79296875" xlink:href="#DejaVuSans-53"/>
     <use x="876.26953125" xlink:href="#DejaVuSans-69"/>
     <use x="904.052734375" xlink:href="#DejaVuSans-7a"/>
     <use x="956.54296875" xlink:href="#DejaVuSans-65"/>
     <use x="1018.06640625" xlink:href="#DejaVuSans-20"/>
     <use x="1049.85351562" xlink:href="#DejaVuSans-48"/>
     <use x="1125.04882812" xlink:href="#DejaVuSans-69"/>
     <use x="1152.83203125" xlink:href="#DejaVuSans-73"/>
     <use x="1204.93164062" xlink:href="#DejaVuSans-74"/>
     <use x="1244.140625" xlink:href="#DejaVuSans-6f"/>
     <use x="1305.32226562" xlink:href="#DejaVuSans-67"/>
     <use x="1368.79882812" xlink:href="#DejaVuSans-72"/>
     <use x="1409.91210938" xlink:href="#DejaVuSans-61"/>
     <use x="1471.19140625" xlink:href="#DejaVuSans-6d"/>
     <use x="1568.60351562" xlink:href="#DejaVuSans-20"/>
     <use x="1600.390625" xlink:href="#DejaVuSans-28"/>
     <use x="1639.40429688" xlink:href="#DejaVuSans-50"/>
     <use x="1699.70703125" xlink:href="#DejaVuSans-6c"/>
     <use x="1727.49023438" xlink:href="#DejaVuSans-61"/>
     <use x="1788.76953125" xlink:href="#DejaVuSans-79"/>
     <use x="1847.94921875" xlink:href="#DejaVuSans-20"/>
     <use x="1879.73632812" xlink:href="#DejaVuSans-53"/>
     <use x="1943.21289062" xlink:href="#DejaVuSans-74"/>
     <use x="1982.421875" xlink:href="#DejaVuSans-6f"/>
     <use x="2043.60351562" xlink:href="#DejaVuSans-72"/>
     <use x="2082.46679688" xlink:href="#DejaVuSans-65"/>
     <use x="2143.99023438" xlink:href="#DejaVuSans-20"/>
     <use x="2175.77734375" xlink:href="#DejaVuSans-44"/>
     <use x="2252.77929688" xlink:href="#DejaVuSans-65"/>
     <use x="2314.30273438" xlink:href="#DejaVuSans-63"/>
     <use x="2369.28320312" xlink:href="#DejaVuSans-2e"/>
     <use x="2401.0703125" xlink:href="#DejaVuSans-20"/>
     <use x="2432.85742188" xlink:href="#DejaVuSans-32"/>
     <use x="2496.48046875" xlink:href="#DejaVuSans-30"/>
     <use x="2560.10351562" xlink:href="#DejaVuSans-31"/>
     <use x="2623.7265625" xlink:href="#DejaVuSans-33"/>
     <use x="2687.34960938" xlink:href="#DejaVuSans-29"/>
    </g>
   </g>
   <g id="legend_1">
    <g id="patch_207">
     <path d="
M516.169 98.5384
L642 98.5384
L642 63.6
L516.169 63.6
L516.169 98.5384
z
" style="fill:#e5e5e5;stroke:#ffffff;stroke-width:0.5;"/>
    </g>
    <g id="line2d_88">
     <path d="
M524.569 81.4283
L532.969 81.4283
L541.369 81.4283" style="fill:none;stroke:#000000;stroke-dasharray:6.000000,6.000000;stroke-dashoffset:0.0;stroke-linecap:butt;"/>
    </g>
    <g id="text_33">
     <!-- 7.5534494MB  -->
     <g transform="translate(554.56875 77.094375)scale(0.12 -0.12)">
      <use xlink:href="#DejaVuSans-37"/>
      <use x="63.623046875" xlink:href="#DejaVuSans-2e"/>
      <use x="95.41015625" xlink:href="#DejaVuSans-35"/>
      <use x="159.033203125" xlink:href="#DejaVuSans-35"/>
      <use x="222.65625" xlink:href="#DejaVuSans-33"/>
      <use x="286.279296875" xlink:href="#DejaVuSans-34"/>
      <use x="349.90234375" xlink:href="#DejaVuSans-34"/>
      <use x="413.525390625" xlink:href="#DejaVuSans-39"/>
      <use x="477.1484375" xlink:href="#DejaVuSans-34"/>
      <use x="540.771484375" xlink:href="#DejaVuSans-4d"/>
      <use x="627.05078125" xlink:href="#DejaVuSans-42"/>
      <use x="695.654296875" xlink:href="#DejaVuSans-20"/>
     </g>
     <!--  80% quantile -->
     <defs>
      <path d="
M14.7969 27.2969
Q14.7969 17.3906 18.875 11.75
Q22.9531 6.10938 30.0781 6.10938
Q37.2031 6.10938 41.2969 11.75
Q45.4062 17.3906 45.4062 27.2969
Q45.4062 37.2031 41.2969 42.8438
Q37.2031 48.4844 30.0781 48.4844
Q22.9531 48.4844 18.875 42.8438
Q14.7969 37.2031 14.7969 27.2969
M45.4062 8.20312
Q42.5781 3.32812 38.25 0.953125
Q33.9375 -1.42188 27.875 -1.42188
Q17.9688 -1.42188 11.7344 6.48438
Q5.51562 14.4062 5.51562 27.2969
Q5.51562 40.1875 11.7344 48.0938
Q17.9688 56 27.875 56
Q33.9375 56 38.25 53.625
Q42.5781 51.2656 45.4062 46.3906
L45.4062 54.6875
L54.3906 54.6875
L54.3906 -20.7969
L45.4062 -20.7969
z
" id="DejaVuSans-71"/>
      <path d="
M72.7031 32.0781
Q68.4531 32.0781 66.0312 28.4688
Q63.625 24.8594 63.625 18.4062
Q63.625 12.0625 66.0312 8.42188
Q68.4531 4.78125 72.7031 4.78125
Q76.8594 4.78125 79.2656 8.42188
Q81.6875 12.0625 81.6875 18.4062
Q81.6875 24.8125 79.2656 28.4375
Q76.8594 32.0781 72.7031 32.0781
M72.7031 38.2812
Q80.4219 38.2812 84.9531 32.9062
Q89.5 27.5469 89.5 18.4062
Q89.5 9.28125 84.9375 3.92188
Q80.375 -1.42188 72.7031 -1.42188
Q64.8906 -1.42188 60.3438 3.92188
Q55.8125 9.28125 55.8125 18.4062
Q55.8125 27.5938 60.375 32.9375
Q64.9375 38.2812 72.7031 38.2812
M22.3125 68.0156
Q18.1094 68.0156 15.6875 64.375
Q13.2812 60.75 13.2812 54.3906
Q13.2812 47.9531 15.6719 44.3281
Q18.0625 40.7188 22.3125 40.7188
Q26.5625 40.7188 28.9688 44.3281
Q31.3906 47.9531 31.3906 54.3906
Q31.3906 60.6875 28.9531 64.3438
Q26.5156 68.0156 22.3125 68.0156
M66.4062 74.2188
L74.2188 74.2188
L28.6094 -1.42188
L20.7969 -1.42188
z

M22.3125 74.2188
Q30.0312 74.2188 34.6094 68.875
Q39.2031 63.5312 39.2031 54.3906
Q39.2031 45.1719 34.6406 39.8438
Q30.0781 34.5156 22.3125 34.5156
Q14.5469 34.5156 10.0312 39.8594
Q5.51562 45.2188 5.51562 54.3906
Q5.51562 63.4844 10.0469 68.8438
Q14.5938 74.2188 22.3125 74.2188" id="DejaVuSans-25"/>
     </defs>
     <g transform="translate(554.56875 91.030875)scale(0.12 -0.12)">
      <use xlink:href="#DejaVuSans-20"/>
      <use x="31.787109375" xlink:href="#DejaVuSans-38"/>
      <use x="95.41015625" xlink:href="#DejaVuSans-30"/>
      <use x="159.033203125" xlink:href="#DejaVuSans-25"/>
      <use x="254.052734375" xlink:href="#DejaVuSans-20"/>
      <use x="285.83984375" xlink:href="#DejaVuSans-71"/>
      <use x="349.31640625" xlink:href="#DejaVuSans-75"/>
      <use x="412.6953125" xlink:href="#DejaVuSans-61"/>
      <use x="473.974609375" xlink:href="#DejaVuSans-6e"/>
      <use x="537.353515625" xlink:href="#DejaVuSans-74"/>
      <use x="576.5625" xlink:href="#DejaVuSans-69"/>
      <use x="604.345703125" xlink:href="#DejaVuSans-6c"/>
      <use x="632.12890625" xlink:href="#DejaVuSans-65"/>
     </g>
    </g>
   </g>
  </g>
 </g>
 <defs>
  <clipPath id="p337f83845a">
   <rect height="446.4" width="558.0" x="90.0" y="57.6"/>
  </clipPath>
 </defs>
</svg>
