<?xml version="1.0" encoding="utf-8" standalone="no"?>
<!DOCTYPE svg PUBLIC "-//W3C//DTD SVG 1.1//EN"
  "http://www.w3.org/Graphics/SVG/1.1/DTD/svg11.dtd">
<!-- Created with matplotlib (http://matplotlib.sourceforge.net/) -->
<svg height="576pt" version="1.1" viewBox="0 0 720 576" width="720pt" xmlns="http://www.w3.org/2000/svg" xmlns:xlink="http://www.w3.org/1999/xlink">
 <defs>
  <style type="text/css">
*{stroke-linecap:square;stroke-linejoin:round;}
  </style>
 </defs>
 <g id="figure_1">
  <g id="patch_1">
   <path d="
M0 576
L720 576
L720 0
L0 0
z
" style="fill:#ffffff;"/>
  </g>
  <g id="axes_1">
   <g id="patch_2">
    <path d="
M90 504
L648 504
L648 57.6
L90 57.6
z
" style="fill:#e5e5e5;"/>
   </g>
   <g id="matplotlib.axis_1">
    <g id="xtick_1">
     <g id="line2d_1">
      <path clip-path="url(#p337f83845a)" d="
M90 504
L90 57.6" style="fill:none;stroke:#ffffff;stroke-width:0.5;"/>
     </g>
     <g id="line2d_2">
      <defs>
       <path d="
M0 0
L0 4" id="m33224d4886" style="stroke:#555555;stroke-linecap:butt;stroke-width:0.5;"/>
      </defs>
      <g>
       <use style="fill:#555555;stroke:#555555;stroke-linecap:butt;stroke-width:0.5;" x="90.0" xlink:href="#m33224d4886" y="504.0"/>
      </g>
     </g>
     <g id="line2d_3">
      <defs>
       <path d="
M0 0
L0 -4" id="m5ed645569d" style="stroke:#555555;stroke-linecap:butt;stroke-width:0.5;"/>
      </defs>
      <g>
       <use style="fill:#555555;stroke:#555555;stroke-linecap:butt;stroke-width:0.5;" x="90.0" xlink:href="#m5ed645569d" y="57.6"/>
      </g>
     </g>
     <g id="text_1">
      <!-- 0 -->
      <defs>
       <path d="
M31.7812 66.4062
Q24.1719 66.4062 20.3281 58.9062
Q16.5 51.4219 16.5 36.375
Q16.5 21.3906 20.3281 13.8906
Q24.1719 6.39062 31.7812 6.39062
Q39.4531 6.39062 43.2812 13.8906
Q47.125 21.3906 47.125 36.375
Q47.125 51.4219 43.2812 58.9062
Q39.4531 66.4062 31.7812 66.4062
M31.7812 74.2188
Q44.0469 74.2188 50.5156 64.5156
Q56.9844 54.8281 56.9844 36.375
Q56.9844 17.9688 50.5156 8.26562
Q44.0469 -1.42188 31.7812 -1.42188
Q19.5312 -1.42188 13.0625 8.26562
Q6.59375 17.9688 6.59375 36.375
Q6.59375 54.8281 13.0625 64.5156
Q19.5312 74.2188 31.7812 74.2188" id="DejaVuSans-30"/>
      </defs>
      <g style="fill:#555555;" transform="translate(87.48046875 519.421875)scale(0.1 -0.1)">
       <use xlink:href="#DejaVuSans-30"/>
      </g>
     </g>
    </g>
    <g id="xtick_2">
     <g id="line2d_4">
      <path clip-path="url(#p337f83845a)" d="
M140.727 504
L140.727 57.6" style="fill:none;stroke:#ffffff;stroke-width:0.5;"/>
     </g>
     <g id="line2d_5">
      <g>
       <use style="fill:#555555;stroke:#555555;stroke-linecap:butt;stroke-width:0.5;" x="140.727272727" xlink:href="#m33224d4886" y="504.0"/>
      </g>
     </g>
     <g id="line2d_6">
      <g>
       <use style="fill:#555555;stroke:#555555;stroke-linecap:butt;stroke-width:0.5;" x="140.727272727" xlink:href="#m5ed645569d" y="57.6"/>
      </g>
     </g>
     <g id="text_2">
      <!-- 1 -->
      <defs>
       <path d="
M12.4062 8.29688
L28.5156 8.29688
L28.5156 63.9219
L10.9844 60.4062
L10.9844 69.3906
L28.4219 72.9062
L38.2812 72.9062
L38.2812 8.29688
L54.3906 8.29688
L54.3906 0
L12.4062 0
z
" id="DejaVuSans-31"/>
      </defs>
      <g style="fill:#555555;" transform="translate(138.556960227 519.290625)scale(0.1 -0.1)">
       <use xlink:href="#DejaVuSans-31"/>
      </g>
     </g>
    </g>
    <g id="xtick_3">
     <g id="line2d_7">
      <path clip-path="url(#p337f83845a)" d="
M191.455 504
L191.455 57.6" style="fill:none;stroke:#ffffff;stroke-width:0.5;"/>
     </g>
     <g id="line2d_8">
      <g>
       <use style="fill:#555555;stroke:#555555;stroke-linecap:butt;stroke-width:0.5;" x="191.454545455" xlink:href="#m33224d4886" y="504.0"/>
      </g>
     </g>
     <g id="line2d_9">
      <g>
       <use style="fill:#555555;stroke:#555555;stroke-linecap:butt;stroke-width:0.5;" x="191.454545455" xlink:href="#m5ed645569d" y="57.6"/>
      </g>
     </g>
     <g id="text_3">
      <!-- 2 -->
      <defs>
       <path d="
M19.1875 8.29688
L53.6094 8.29688
L53.6094 0
L7.32812 0
L7.32812 8.29688
Q12.9375 14.1094 22.625 23.8906
Q32.3281 33.6875 34.8125 36.5312
Q39.5469 41.8438 41.4219 45.5312
Q43.3125 49.2188 43.3125 52.7812
Q43.3125 58.5938 39.2344 62.25
Q35.1562 65.9219 28.6094 65.9219
Q23.9688 65.9219 18.8125 64.3125
Q13.6719 62.7031 7.8125 59.4219
L7.8125 69.3906
Q13.7656 71.7812 18.9375 73
Q24.125 74.2188 28.4219 74.2188
Q39.75 74.2188 46.4844 68.5469
Q53.2188 62.8906 53.2188 53.4219
Q53.2188 48.9219 51.5312 44.8906
Q49.8594 40.875 45.4062 35.4062
Q44.1875 33.9844 37.6406 27.2188
Q31.1094 20.4531 19.1875 8.29688" id="DejaVuSans-32"/>
      </defs>
      <g style="fill:#555555;" transform="translate(189.140482955 519.421875)scale(0.1 -0.1)">
       <use xlink:href="#DejaVuSans-32"/>
      </g>
     </g>
    </g>
    <g id="xtick_4">
     <g id="line2d_10">
      <path clip-path="url(#p337f83845a)" d="
M242.182 504
L242.182 57.6" style="fill:none;stroke:#ffffff;stroke-width:0.5;"/>
     </g>
     <g id="line2d_11">
      <g>
       <use style="fill:#555555;stroke:#555555;stroke-linecap:butt;stroke-width:0.5;" x="242.181818182" xlink:href="#m33224d4886" y="504.0"/>
      </g>
     </g>
     <g id="line2d_12">
      <g>
       <use style="fill:#555555;stroke:#555555;stroke-linecap:butt;stroke-width:0.5;" x="242.181818182" xlink:href="#m5ed645569d" y="57.6"/>
      </g>
     </g>
     <g id="text_4">
      <!-- 3 -->
      <defs>
       <path d="
M40.5781 39.3125
Q47.6562 37.7969 51.625 33
Q55.6094 28.2188 55.6094 21.1875
Q55.6094 10.4062 48.1875 4.48438
Q40.7656 -1.42188 27.0938 -1.42188
Q22.5156 -1.42188 17.6562 -0.515625
Q12.7969 0.390625 7.625 2.20312
L7.625 11.7188
Q11.7188 9.32812 16.5938 8.10938
Q21.4844 6.89062 26.8125 6.89062
Q36.0781 6.89062 40.9375 10.5469
Q45.7969 14.2031 45.7969 21.1875
Q45.7969 27.6406 41.2812 31.2656
Q36.7656 34.9062 28.7188 34.9062
L20.2188 34.9062
L20.2188 43.0156
L29.1094 43.0156
Q36.375 43.0156 40.2344 45.9219
Q44.0938 48.8281 44.0938 54.2969
Q44.0938 59.9062 40.1094 62.9062
Q36.1406 65.9219 28.7188 65.9219
Q24.6562 65.9219 20.0156 65.0312
Q15.375 64.1562 9.8125 62.3125
L9.8125 71.0938
Q15.4375 72.6562 20.3438 73.4375
Q25.25 74.2188 29.5938 74.2188
Q40.8281 74.2188 47.3594 69.1094
Q53.9062 64.0156 53.9062 55.3281
Q53.9062 49.2656 50.4375 45.0938
Q46.9688 40.9219 40.5781 39.3125" id="DejaVuSans-33"/>
      </defs>
      <g style="fill:#555555;" transform="translate(239.782599432 519.421875)scale(0.1 -0.1)">
       <use xlink:href="#DejaVuSans-33"/>
      </g>
     </g>
    </g>
    <g id="xtick_5">
     <g id="line2d_13">
      <path clip-path="url(#p337f83845a)" d="
M292.909 504
L292.909 57.6" style="fill:none;stroke:#ffffff;stroke-width:0.5;"/>
     </g>
     <g id="line2d_14">
      <g>
       <use style="fill:#555555;stroke:#555555;stroke-linecap:butt;stroke-width:0.5;" x="292.909090909" xlink:href="#m33224d4886" y="504.0"/>
      </g>
     </g>
     <g id="line2d_15">
      <g>
       <use style="fill:#555555;stroke:#555555;stroke-linecap:butt;stroke-width:0.5;" x="292.909090909" xlink:href="#m5ed645569d" y="57.6"/>
      </g>
     </g>
     <g id="text_5">
      <!-- 4 -->
      <defs>
       <path d="
M37.7969 64.3125
L12.8906 25.3906
L37.7969 25.3906
z

M35.2031 72.9062
L47.6094 72.9062
L47.6094 25.3906
L58.0156 25.3906
L58.0156 17.1875
L47.6094 17.1875
L47.6094 0
L37.7969 0
L37.7969 17.1875
L4.89062 17.1875
L4.89062 26.7031
z
" id="DejaVuSans-34"/>
      </defs>
      <g style="fill:#555555;" transform="translate(290.252840909 519.290625)scale(0.1 -0.1)">
       <use xlink:href="#DejaVuSans-34"/>
      </g>
     </g>
    </g>
    <g id="xtick_6">
     <g id="line2d_16">
      <path clip-path="url(#p337f83845a)" d="
M343.636 504
L343.636 57.6" style="fill:none;stroke:#ffffff;stroke-width:0.5;"/>
     </g>
     <g id="line2d_17">
      <g>
       <use style="fill:#555555;stroke:#555555;stroke-linecap:butt;stroke-width:0.5;" x="343.636363636" xlink:href="#m33224d4886" y="504.0"/>
      </g>
     </g>
     <g id="line2d_18">
      <g>
       <use style="fill:#555555;stroke:#555555;stroke-linecap:butt;stroke-width:0.5;" x="343.636363636" xlink:href="#m5ed645569d" y="57.6"/>
      </g>
     </g>
     <g id="text_6">
      <!-- 5 -->
      <defs>
       <path d="
M10.7969 72.9062
L49.5156 72.9062
L49.5156 64.5938
L19.8281 64.5938
L19.8281 46.7344
Q21.9688 47.4688 24.1094 47.8281
Q26.2656 48.1875 28.4219 48.1875
Q40.625 48.1875 47.75 41.5
Q54.8906 34.8125 54.8906 23.3906
Q54.8906 11.625 47.5625 5.09375
Q40.2344 -1.42188 26.9062 -1.42188
Q22.3125 -1.42188 17.5469 -0.640625
Q12.7969 0.140625 7.71875 1.70312
L7.71875 11.625
Q12.1094 9.23438 16.7969 8.0625
Q21.4844 6.89062 26.7031 6.89062
Q35.1562 6.89062 40.0781 11.3281
Q45.0156 15.7656 45.0156 23.3906
Q45.0156 31 40.0781 35.4375
Q35.1562 39.8906 26.7031 39.8906
Q22.75 39.8906 18.8125 39.0156
Q14.8906 38.1406 10.7969 36.2812
z
" id="DejaVuSans-35"/>
      </defs>
      <g style="fill:#555555;" transform="translate(341.277769886 519.290625)scale(0.1 -0.1)">
       <use xlink:href="#DejaVuSans-35"/>
      </g>
     </g>
    </g>
    <g id="xtick_7">
     <g id="line2d_19">
      <path clip-path="url(#p337f83845a)" d="
M394.364 504
L394.364 57.6" style="fill:none;stroke:#ffffff;stroke-width:0.5;"/>
     </g>
     <g id="line2d_20">
      <g>
       <use style="fill:#555555;stroke:#555555;stroke-linecap:butt;stroke-width:0.5;" x="394.363636364" xlink:href="#m33224d4886" y="504.0"/>
      </g>
     </g>
     <g id="line2d_21">
      <g>
       <use style="fill:#555555;stroke:#555555;stroke-linecap:butt;stroke-width:0.5;" x="394.363636364" xlink:href="#m5ed645569d" y="57.6"/>
      </g>
     </g>
     <g id="text_7">
      <!-- 6 -->
      <defs>
       <path d="
M33.0156 40.375
Q26.375 40.375 22.4844 35.8281
Q18.6094 31.2969 18.6094 23.3906
Q18.6094 15.5312 22.4844 10.9531
Q26.375 6.39062 33.0156 6.39062
Q39.6562 6.39062 43.5312 10.9531
Q47.4062 15.5312 47.4062 23.3906
Q47.4062 31.2969 43.5312 35.8281
Q39.6562 40.375 33.0156 40.375
M52.5938 71.2969
L52.5938 62.3125
Q48.875 64.0625 45.0938 64.9844
Q41.3125 65.9219 37.5938 65.9219
Q27.8281 65.9219 22.6719 59.3281
Q17.5312 52.7344 16.7969 39.4062
Q19.6719 43.6562 24.0156 45.9219
Q28.375 48.1875 33.5938 48.1875
Q44.5781 48.1875 50.9531 41.5156
Q57.3281 34.8594 57.3281 23.3906
Q57.3281 12.1562 50.6875 5.35938
Q44.0469 -1.42188 33.0156 -1.42188
Q20.3594 -1.42188 13.6719 8.26562
Q6.98438 17.9688 6.98438 36.375
Q6.98438 53.6562 15.1875 63.9375
Q23.3906 74.2188 37.2031 74.2188
Q40.9219 74.2188 44.7031 73.4844
Q48.4844 72.75 52.5938 71.2969" id="DejaVuSans-36"/>
      </defs>
      <g style="fill:#555555;" transform="translate(391.846448864 519.421875)scale(0.1 -0.1)">
       <use xlink:href="#DejaVuSans-36"/>
      </g>
     </g>
    </g>
    <g id="xtick_8">
     <g id="line2d_22">
      <path clip-path="url(#p337f83845a)" d="
M445.091 504
L445.091 57.6" style="fill:none;stroke:#ffffff;stroke-width:0.5;"/>
     </g>
     <g id="line2d_23">
      <g>
       <use style="fill:#555555;stroke:#555555;stroke-linecap:butt;stroke-width:0.5;" x="445.090909091" xlink:href="#m33224d4886" y="504.0"/>
      </g>
     </g>
     <g id="line2d_24">
      <g>
       <use style="fill:#555555;stroke:#555555;stroke-linecap:butt;stroke-width:0.5;" x="445.090909091" xlink:href="#m5ed645569d" y="57.6"/>
      </g>
     </g>
     <g id="text_8">
      <!-- 7 -->
      <defs>
       <path d="
M8.20312 72.9062
L55.0781 72.9062
L55.0781 68.7031
L28.6094 0
L18.3125 0
L43.2188 64.5938
L8.20312 64.5938
z
" id="DejaVuSans-37"/>
      </defs>
      <g style="fill:#555555;" transform="translate(442.747159091 519.290625)scale(0.1 -0.1)">
       <use xlink:href="#DejaVuSans-37"/>
      </g>
     </g>
    </g>
    <g id="xtick_9">
     <g id="line2d_25">
      <path clip-path="url(#p337f83845a)" d="
M495.818 504
L495.818 57.6" style="fill:none;stroke:#ffffff;stroke-width:0.5;"/>
     </g>
     <g id="line2d_26">
      <g>
       <use style="fill:#555555;stroke:#555555;stroke-linecap:butt;stroke-width:0.5;" x="495.818181818" xlink:href="#m33224d4886" y="504.0"/>
      </g>
     </g>
     <g id="line2d_27">
      <g>
       <use style="fill:#555555;stroke:#555555;stroke-linecap:butt;stroke-width:0.5;" x="495.818181818" xlink:href="#m5ed645569d" y="57.6"/>
      </g>
     </g>
     <g id="text_9">
      <!-- 8 -->
      <defs>
       <path d="
M31.7812 34.625
Q24.75 34.625 20.7188 30.8594
Q16.7031 27.0938 16.7031 20.5156
Q16.7031 13.9219 20.7188 10.1562
Q24.75 6.39062 31.7812 6.39062
Q38.8125 6.39062 42.8594 10.1719
Q46.9219 13.9688 46.9219 20.5156
Q46.9219 27.0938 42.8906 30.8594
Q38.875 34.625 31.7812 34.625
M21.9219 38.8125
Q15.5781 40.375 12.0312 44.7188
Q8.5 49.0781 8.5 55.3281
Q8.5 64.0625 14.7188 69.1406
Q20.9531 74.2188 31.7812 74.2188
Q42.6719 74.2188 48.875 69.1406
Q55.0781 64.0625 55.0781 55.3281
Q55.0781 49.0781 51.5312 44.7188
Q48 40.375 41.7031 38.8125
Q48.8281 37.1562 52.7969 32.3125
Q56.7812 27.4844 56.7812 20.5156
Q56.7812 9.90625 50.3125 4.23438
Q43.8438 -1.42188 31.7812 -1.42188
Q19.7344 -1.42188 13.25 4.23438
Q6.78125 9.90625 6.78125 20.5156
Q6.78125 27.4844 10.7812 32.3125
Q14.7969 37.1562 21.9219 38.8125
M18.3125 54.3906
Q18.3125 48.7344 21.8438 45.5625
Q25.3906 42.3906 31.7812 42.3906
Q38.1406 42.3906 41.7188 45.5625
Q45.3125 48.7344 45.3125 54.3906
Q45.3125 60.0625 41.7188 63.2344
Q38.1406 66.4062 31.7812 66.4062
Q25.3906 66.4062 21.8438 63.2344
Q18.3125 60.0625 18.3125 54.3906" id="DejaVuSans-38"/>
      </defs>
      <g style="fill:#555555;" transform="translate(493.318181818 519.421875)scale(0.1 -0.1)">
       <use xlink:href="#DejaVuSans-38"/>
      </g>
     </g>
    </g>
    <g id="xtick_10">
     <g id="line2d_28">
      <path clip-path="url(#p337f83845a)" d="
M546.545 504
L546.545 57.6" style="fill:none;stroke:#ffffff;stroke-width:0.5;"/>
     </g>
     <g id="line2d_29">
      <g>
       <use style="fill:#555555;stroke:#555555;stroke-linecap:butt;stroke-width:0.5;" x="546.545454545" xlink:href="#m33224d4886" y="504.0"/>
      </g>
     </g>
     <g id="line2d_30">
      <g>
       <use style="fill:#555555;stroke:#555555;stroke-linecap:butt;stroke-width:0.5;" x="546.545454545" xlink:href="#m5ed645569d" y="57.6"/>
      </g>
     </g>
     <g id="text_10">
      <!-- 9 -->
      <defs>
       <path d="
M10.9844 1.51562
L10.9844 10.5
Q14.7031 8.73438 18.5 7.8125
Q22.3125 6.89062 25.9844 6.89062
Q35.75 6.89062 40.8906 13.4531
Q46.0469 20.0156 46.7812 33.4062
Q43.9531 29.2031 39.5938 26.9531
Q35.25 24.7031 29.9844 24.7031
Q19.0469 24.7031 12.6719 31.3125
Q6.29688 37.9375 6.29688 49.4219
Q6.29688 60.6406 12.9375 67.4219
Q19.5781 74.2188 30.6094 74.2188
Q43.2656 74.2188 49.9219 64.5156
Q56.5938 54.8281 56.5938 36.375
Q56.5938 19.1406 48.4062 8.85938
Q40.2344 -1.42188 26.4219 -1.42188
Q22.7031 -1.42188 18.8906 -0.6875
Q15.0938 0.046875 10.9844 1.51562
M30.6094 32.4219
Q37.25 32.4219 41.125 36.9531
Q45.0156 41.5 45.0156 49.4219
Q45.0156 57.2812 41.125 61.8438
Q37.25 66.4062 30.6094 66.4062
Q23.9688 66.4062 20.0938 61.8438
Q16.2188 57.2812 16.2188 49.4219
Q16.2188 41.5 20.0938 36.9531
Q23.9688 32.4219 30.6094 32.4219" id="DejaVuSans-39"/>
      </defs>
      <g style="fill:#555555;" transform="translate(544.030610795 519.421875)scale(0.1 -0.1)">
       <use xlink:href="#DejaVuSans-39"/>
      </g>
     </g>
    </g>
    <g id="xtick_11">
     <g id="line2d_31">
      <path clip-path="url(#p337f83845a)" d="
M597.273 504
L597.273 57.6" style="fill:none;stroke:#ffffff;stroke-width:0.5;"/>
     </g>
     <g id="line2d_32">
      <g>
       <use style="fill:#555555;stroke:#555555;stroke-linecap:butt;stroke-width:0.5;" x="597.272727273" xlink:href="#m33224d4886" y="504.0"/>
      </g>
     </g>
     <g id="line2d_33">
      <g>
       <use style="fill:#555555;stroke:#555555;stroke-linecap:butt;stroke-width:0.5;" x="597.272727273" xlink:href="#m5ed645569d" y="57.6"/>
      </g>
     </g>
     <g id="text_11">
      <!-- 10 -->
      <g style="fill:#555555;" transform="translate(591.791477273 519.421875)scale(0.1 -0.1)">
       <use xlink:href="#DejaVuSans-31"/>
       <use x="63.623046875" xlink:href="#DejaVuSans-30"/>
      </g>
     </g>
    </g>
    <g id="xtick_12">
     <g id="line2d_34">
      <path clip-path="url(#p337f83845a)" d="
M648 504
L648 57.6" style="fill:none;stroke:#ffffff;stroke-width:0.5;"/>
     </g>
     <g id="line2d_35">
      <g>
       <use style="fill:#555555;stroke:#555555;stroke-linecap:butt;stroke-width:0.5;" x="648.0" xlink:href="#m33224d4886" y="504.0"/>
      </g>
     </g>
     <g id="line2d_36">
      <g>
       <use style="fill:#555555;stroke:#555555;stroke-linecap:butt;stroke-width:0.5;" x="648.0" xlink:href="#m5ed645569d" y="57.6"/>
      </g>
     </g>
     <g id="text_12">
      <!-- 11 -->
      <g style="fill:#555555;" transform="translate(642.6484375 519.290625)scale(0.1 -0.1)">
       <use xlink:href="#DejaVuSans-31"/>
       <use x="63.623046875" xlink:href="#DejaVuSans-31"/>
      </g>
     </g>
    </g>
    <g id="text_13">
     <!-- Ranking (1-10) -->
     <defs>
      <path d="
M4.89062 31.3906
L31.2031 31.3906
L31.2031 23.3906
L4.89062 23.3906
z
" id="DejaVuSans-2d"/>
      <path d="
M54.8906 33.0156
L54.8906 0
L45.9062 0
L45.9062 32.7188
Q45.9062 40.4844 42.875 44.3281
Q39.8438 48.1875 33.7969 48.1875
Q26.5156 48.1875 22.3125 43.5469
Q18.1094 38.9219 18.1094 30.9062
L18.1094 0
L9.07812 0
L9.07812 54.6875
L18.1094 54.6875
L18.1094 46.1875
Q21.3438 51.125 25.7031 53.5625
Q30.0781 56 35.7969 56
Q45.2188 56 50.0469 50.1719
Q54.8906 44.3438 54.8906 33.0156" id="DejaVuSans-6e"/>
      <path d="
M9.07812 75.9844
L18.1094 75.9844
L18.1094 31.1094
L44.9219 54.6875
L56.3906 54.6875
L27.3906 29.1094
L57.625 0
L45.9062 0
L18.1094 26.7031
L18.1094 0
L9.07812 0
z
" id="DejaVuSans-6b"/>
      <path id="DejaVuSans-20"/>
      <path d="
M45.4062 27.9844
Q45.4062 37.75 41.375 43.1094
Q37.3594 48.4844 30.0781 48.4844
Q22.8594 48.4844 18.8281 43.1094
Q14.7969 37.75 14.7969 27.9844
Q14.7969 18.2656 18.8281 12.8906
Q22.8594 7.51562 30.0781 7.51562
Q37.3594 7.51562 41.375 12.8906
Q45.4062 18.2656 45.4062 27.9844
M54.3906 6.78125
Q54.3906 -7.17188 48.1875 -13.9844
Q42 -20.7969 29.2031 -20.7969
Q24.4688 -20.7969 20.2656 -20.0938
Q16.0625 -19.3906 12.1094 -17.9219
L12.1094 -9.1875
Q16.0625 -11.3281 19.9219 -12.3438
Q23.7812 -13.375 27.7812 -13.375
Q36.625 -13.375 41.0156 -8.76562
Q45.4062 -4.15625 45.4062 5.17188
L45.4062 9.625
Q42.625 4.78125 38.2812 2.39062
Q33.9375 0 27.875 0
Q17.8281 0 11.6719 7.65625
Q5.51562 15.3281 5.51562 27.9844
Q5.51562 40.6719 11.6719 48.3281
Q17.8281 56 27.875 56
Q33.9375 56 38.2812 53.6094
Q42.625 51.2188 45.4062 46.3906
L45.4062 54.6875
L54.3906 54.6875
z
" id="DejaVuSans-67"/>
      <path d="
M44.3906 34.1875
Q47.5625 33.1094 50.5625 29.5938
Q53.5625 26.0781 56.5938 19.9219
L66.6094 0
L56 0
L46.6875 18.7031
Q43.0625 26.0312 39.6719 28.4219
Q36.2812 30.8125 30.4219 30.8125
L19.6719 30.8125
L19.6719 0
L9.8125 0
L9.8125 72.9062
L32.0781 72.9062
Q44.5781 72.9062 50.7344 67.6719
Q56.8906 62.4531 56.8906 51.9062
Q56.8906 45.0156 53.6875 40.4688
Q50.4844 35.9375 44.3906 34.1875
M19.6719 64.7969
L19.6719 38.9219
L32.0781 38.9219
Q39.2031 38.9219 42.8438 42.2188
Q46.4844 45.5156 46.4844 51.9062
Q46.4844 58.2969 42.8438 61.5469
Q39.2031 64.7969 32.0781 64.7969
z
" id="DejaVuSans-52"/>
      <path d="
M31 75.875
Q24.4688 64.6562 21.2812 53.6562
Q18.1094 42.6719 18.1094 31.3906
Q18.1094 20.125 21.3125 9.0625
Q24.5156 -2 31 -13.1875
L23.1875 -13.1875
Q15.875 -1.70312 12.2344 9.375
Q8.59375 20.4531 8.59375 31.3906
Q8.59375 42.2812 12.2031 53.3125
Q15.8281 64.3594 23.1875 75.875
z
" id="DejaVuSans-28"/>
      <path d="
M8.01562 75.875
L15.8281 75.875
Q23.1406 64.3594 26.7812 53.3125
Q30.4219 42.2812 30.4219 31.3906
Q30.4219 20.4531 26.7812 9.375
Q23.1406 -1.70312 15.8281 -13.1875
L8.01562 -13.1875
Q14.5 -2 17.7031 9.0625
Q20.9062 20.125 20.9062 31.3906
Q20.9062 42.6719 17.7031 53.6562
Q14.5 64.6562 8.01562 75.875" id="DejaVuSans-29"/>
      <path d="
M9.42188 54.6875
L18.4062 54.6875
L18.4062 0
L9.42188 0
z

M9.42188 75.9844
L18.4062 75.9844
L18.4062 64.5938
L9.42188 64.5938
z
" id="DejaVuSans-69"/>
      <path d="
M34.2812 27.4844
Q23.3906 27.4844 19.1875 25
Q14.9844 22.5156 14.9844 16.5
Q14.9844 11.7188 18.1406 8.90625
Q21.2969 6.10938 26.7031 6.10938
Q34.1875 6.10938 38.7031 11.4062
Q43.2188 16.7031 43.2188 25.4844
L43.2188 27.4844
z

M52.2031 31.2031
L52.2031 0
L43.2188 0
L43.2188 8.29688
Q40.1406 3.32812 35.5469 0.953125
Q30.9531 -1.42188 24.3125 -1.42188
Q15.9219 -1.42188 10.9531 3.29688
Q6 8.01562 6 15.9219
Q6 25.1406 12.1719 29.8281
Q18.3594 34.5156 30.6094 34.5156
L43.2188 34.5156
L43.2188 35.4062
Q43.2188 41.6094 39.1406 45
Q35.0625 48.3906 27.6875 48.3906
Q23 48.3906 18.5469 47.2656
Q14.1094 46.1406 10.0156 43.8906
L10.0156 52.2031
Q14.9375 54.1094 19.5781 55.0469
Q24.2188 56 28.6094 56
Q40.4844 56 46.3438 49.8438
Q52.2031 43.7031 52.2031 31.2031" id="DejaVuSans-61"/>
     </defs>
     <g style="fill:#555555;" transform="translate(325.0434375 533.6821875)scale(0.12 -0.12)">
      <use xlink:href="#DejaVuSans-52"/>
      <use x="67.232421875" xlink:href="#DejaVuSans-61"/>
      <use x="128.51171875" xlink:href="#DejaVuSans-6e"/>
      <use x="191.890625" xlink:href="#DejaVuSans-6b"/>
      <use x="249.80078125" xlink:href="#DejaVuSans-69"/>
      <use x="277.583984375" xlink:href="#DejaVuSans-6e"/>
      <use x="340.962890625" xlink:href="#DejaVuSans-67"/>
      <use x="404.439453125" xlink:href="#DejaVuSans-20"/>
      <use x="436.2265625" xlink:href="#DejaVuSans-28"/>
      <use x="475.240234375" xlink:href="#DejaVuSans-31"/>
      <use x="538.86328125" xlink:href="#DejaVuSans-2d"/>
      <use x="574.947265625" xlink:href="#DejaVuSans-31"/>
      <use x="638.5703125" xlink:href="#DejaVuSans-30"/>
      <use x="702.193359375" xlink:href="#DejaVuSans-29"/>
     </g>
    </g>
   </g>
   <g id="matplotlib.axis_2">
    <g id="ytick_1">
     <g id="line2d_37">
      <path clip-path="url(#p337f83845a)" d="
M90 466.8
L648 466.8" style="fill:none;stroke:#ffffff;stroke-width:0.5;"/>
     </g>
     <g id="line2d_38">
      <defs>
       <path d="
M0 0
L-4 0" id="m937c4c2fa6" style="stroke:#555555;stroke-linecap:butt;stroke-width:0.5;"/>
      </defs>
      <g>
       <use style="fill:#555555;stroke:#555555;stroke-linecap:butt;stroke-width:0.5;" x="90.0" xlink:href="#m937c4c2fa6" y="466.8"/>
      </g>
     </g>
     <g id="line2d_39">
      <defs>
       <path d="
M0 0
L4 0" id="m51d9097589" style="stroke:#555555;stroke-linecap:butt;stroke-width:0.5;"/>
      </defs>
      <g>
       <use style="fill:#555555;stroke:#555555;stroke-linecap:butt;stroke-width:0.5;" x="648.0" xlink:href="#m51d9097589" y="466.8"/>
      </g>
     </g>
     <g id="text_14">
      <!-- 0.2 -->
      <defs>
       <path d="
M10.6875 12.4062
L21 12.4062
L21 0
L10.6875 0
z
" id="DejaVuSans-2e"/>
      </defs>
      <g style="fill:#555555;" transform="translate(67.7578125 470.43984375)scale(0.1 -0.1)">
       <use xlink:href="#DejaVuSans-30"/>
       <use x="63.623046875" xlink:href="#DejaVuSans-2e"/>
       <use x="95.41015625" xlink:href="#DejaVuSans-32"/>
      </g>
     </g>
    </g>
    <g id="ytick_2">
     <g id="line2d_40">
      <path clip-path="url(#p337f83845a)" d="
M90 392.4
L648 392.4" style="fill:none;stroke:#ffffff;stroke-width:0.5;"/>
     </g>
     <g id="line2d_41">
      <g>
       <use style="fill:#555555;stroke:#555555;stroke-linecap:butt;stroke-width:0.5;" x="90.0" xlink:href="#m937c4c2fa6" y="392.4"/>
      </g>
     </g>
     <g id="line2d_42">
      <g>
       <use style="fill:#555555;stroke:#555555;stroke-linecap:butt;stroke-width:0.5;" x="648.0" xlink:href="#m51d9097589" y="392.4"/>
      </g>
     </g>
     <g id="text_15">
      <!-- 0.4 -->
      <g style="fill:#555555;" transform="translate(67.3171875 396.03984375)scale(0.1 -0.1)">
       <use xlink:href="#DejaVuSans-30"/>
       <use x="63.623046875" xlink:href="#DejaVuSans-2e"/>
       <use x="95.41015625" xlink:href="#DejaVuSans-34"/>
      </g>
     </g>
    </g>
    <g id="ytick_3">
     <g id="line2d_43">
      <path clip-path="url(#p337f83845a)" d="
M90 318
L648 318" style="fill:none;stroke:#ffffff;stroke-width:0.5;"/>
     </g>
     <g id="line2d_44">
      <g>
       <use style="fill:#555555;stroke:#555555;stroke-linecap:butt;stroke-width:0.5;" x="90.0" xlink:href="#m937c4c2fa6" y="318.0"/>
      </g>
     </g>
     <g id="line2d_45">
      <g>
       <use style="fill:#555555;stroke:#555555;stroke-linecap:butt;stroke-width:0.5;" x="648.0" xlink:href="#m51d9097589" y="318.0"/>
      </g>
     </g>
     <g id="text_16">
      <!-- 0.6 -->
      <g style="fill:#555555;" transform="translate(67.3859375 321.63984375)scale(0.1 -0.1)">
       <use xlink:href="#DejaVuSans-30"/>
       <use x="63.623046875" xlink:href="#DejaVuSans-2e"/>
       <use x="95.41015625" xlink:href="#DejaVuSans-36"/>
      </g>
     </g>
    </g>
    <g id="ytick_4">
     <g id="line2d_46">
      <path clip-path="url(#p337f83845a)" d="
M90 243.6
L648 243.6" style="fill:none;stroke:#ffffff;stroke-width:0.5;"/>
     </g>
     <g id="line2d_47">
      <g>
       <use style="fill:#555555;stroke:#555555;stroke-linecap:butt;stroke-width:0.5;" x="90.0" xlink:href="#m937c4c2fa6" y="243.6"/>
      </g>
     </g>
     <g id="line2d_48">
      <g>
       <use style="fill:#555555;stroke:#555555;stroke-linecap:butt;stroke-width:0.5;" x="648.0" xlink:href="#m51d9097589" y="243.6"/>
      </g>
     </g>
     <g id="text_17">
      <!-- 0.8 -->
      <g style="fill:#555555;" transform="translate(67.440625 247.23984375)scale(0.1 -0.1)">
       <use xlink:href="#DejaVuSans-30"/>
       <use x="63.623046875" xlink:href="#DejaVuSans-2e"/>
       <use x="95.41015625" xlink:href="#DejaVuSans-38"/>
      </g>
     </g>
    </g>
    <g id="ytick_5">
     <g id="line2d_49">
      <path clip-path="url(#p337f83845a)" d="
M90 169.2
L648 169.2" style="fill:none;stroke:#ffffff;stroke-width:0.5;"/>
     </g>
     <g id="line2d_50">
      <g>
       <use style="fill:#555555;stroke:#555555;stroke-linecap:butt;stroke-width:0.5;" x="90.0" xlink:href="#m937c4c2fa6" y="169.2"/>
      </g>
     </g>
     <g id="line2d_51">
      <g>
       <use style="fill:#555555;stroke:#555555;stroke-linecap:butt;stroke-width:0.5;" x="648.0" xlink:href="#m51d9097589" y="169.2"/>
      </g>
     </g>
     <g id="text_18">
      <!-- 1.0 -->
      <g style="fill:#555555;" transform="translate(67.859375 172.83984375)scale(0.1 -0.1)">
       <use xlink:href="#DejaVuSans-31"/>
       <use x="63.623046875" xlink:href="#DejaVuSans-2e"/>
       <use x="95.41015625" xlink:href="#DejaVuSans-30"/>
      </g>
     </g>
    </g>
    <g id="ytick_6">
     <g id="line2d_52">
      <path clip-path="url(#p337f83845a)" d="
M90 94.8
L648 94.8" style="fill:none;stroke:#ffffff;stroke-width:0.5;"/>
     </g>
     <g id="line2d_53">
      <g>
       <use style="fill:#555555;stroke:#555555;stroke-linecap:butt;stroke-width:0.5;" x="90.0" xlink:href="#m937c4c2fa6" y="94.8"/>
      </g>
     </g>
     <g id="line2d_54">
      <g>
       <use style="fill:#555555;stroke:#555555;stroke-linecap:butt;stroke-width:0.5;" x="648.0" xlink:href="#m51d9097589" y="94.8"/>
      </g>
     </g>
     <g id="text_19">
      <!-- 1.2 -->
      <g style="fill:#555555;" transform="translate(68.196875 98.5109375)scale(0.1 -0.1)">
       <use xlink:href="#DejaVuSans-31"/>
       <use x="63.623046875" xlink:href="#DejaVuSans-2e"/>
       <use x="95.41015625" xlink:href="#DejaVuSans-32"/>
      </g>
     </g>
    </g>
    <g id="text_20">
     <!-- Total Number of Rating -->
     <defs>
      <path d="
M9.8125 72.9062
L23.0938 72.9062
L55.4219 11.9219
L55.4219 72.9062
L64.9844 72.9062
L64.9844 0
L51.7031 0
L19.3906 60.9844
L19.3906 0
L9.8125 0
z
" id="DejaVuSans-4e"/>
      <path d="
M30.6094 48.3906
Q23.3906 48.3906 19.1875 42.75
Q14.9844 37.1094 14.9844 27.2969
Q14.9844 17.4844 19.1562 11.8438
Q23.3438 6.20312 30.6094 6.20312
Q37.7969 6.20312 41.9844 11.8594
Q46.1875 17.5312 46.1875 27.2969
Q46.1875 37.0156 41.9844 42.7031
Q37.7969 48.3906 30.6094 48.3906
M30.6094 56
Q42.3281 56 49.0156 48.375
Q55.7188 40.7656 55.7188 27.2969
Q55.7188 13.875 49.0156 6.21875
Q42.3281 -1.42188 30.6094 -1.42188
Q18.8438 -1.42188 12.1719 6.21875
Q5.51562 13.875 5.51562 27.2969
Q5.51562 40.7656 12.1719 48.375
Q18.8438 56 30.6094 56" id="DejaVuSans-6f"/>
      <path d="
M52 44.1875
Q55.375 50.25 60.0625 53.125
Q64.75 56 71.0938 56
Q79.6406 56 84.2812 50.0156
Q88.9219 44.0469 88.9219 33.0156
L88.9219 0
L79.8906 0
L79.8906 32.7188
Q79.8906 40.5781 77.0938 44.375
Q74.3125 48.1875 68.6094 48.1875
Q61.625 48.1875 57.5625 43.5469
Q53.5156 38.9219 53.5156 30.9062
L53.5156 0
L44.4844 0
L44.4844 32.7188
Q44.4844 40.625 41.7031 44.4062
Q38.9219 48.1875 33.1094 48.1875
Q26.2188 48.1875 22.1562 43.5312
Q18.1094 38.875 18.1094 30.9062
L18.1094 0
L9.07812 0
L9.07812 54.6875
L18.1094 54.6875
L18.1094 46.1875
Q21.1875 51.2188 25.4844 53.6094
Q29.7812 56 35.6875 56
Q41.6562 56 45.8281 52.9688
Q50 49.9531 52 44.1875" id="DejaVuSans-6d"/>
      <path d="
M41.1094 46.2969
Q39.5938 47.1719 37.8125 47.5781
Q36.0312 48 33.8906 48
Q26.2656 48 22.1875 43.0469
Q18.1094 38.0938 18.1094 28.8125
L18.1094 0
L9.07812 0
L9.07812 54.6875
L18.1094 54.6875
L18.1094 46.1875
Q20.9531 51.1719 25.4844 53.5781
Q30.0312 56 36.5312 56
Q37.4531 56 38.5781 55.875
Q39.7031 55.7656 41.0625 55.5156
z
" id="DejaVuSans-72"/>
      <path d="
M9.42188 75.9844
L18.4062 75.9844
L18.4062 0
L9.42188 0
z
" id="DejaVuSans-6c"/>
      <path d="
M37.1094 75.9844
L37.1094 68.5
L28.5156 68.5
Q23.6875 68.5 21.7969 66.5469
Q19.9219 64.5938 19.9219 59.5156
L19.9219 54.6875
L34.7188 54.6875
L34.7188 47.7031
L19.9219 47.7031
L19.9219 0
L10.8906 0
L10.8906 47.7031
L2.29688 47.7031
L2.29688 54.6875
L10.8906 54.6875
L10.8906 58.5
Q10.8906 67.625 15.1406 71.7969
Q19.3906 75.9844 28.6094 75.9844
z
" id="DejaVuSans-66"/>
      <path d="
M8.5 21.5781
L8.5 54.6875
L17.4844 54.6875
L17.4844 21.9219
Q17.4844 14.1562 20.5 10.2656
Q23.5312 6.39062 29.5938 6.39062
Q36.8594 6.39062 41.0781 11.0312
Q45.3125 15.6719 45.3125 23.6875
L45.3125 54.6875
L54.2969 54.6875
L54.2969 0
L45.3125 0
L45.3125 8.40625
Q42.0469 3.42188 37.7188 1
Q33.4062 -1.42188 27.6875 -1.42188
Q18.2656 -1.42188 13.375 4.4375
Q8.5 10.2969 8.5 21.5781
M31.1094 56
z
" id="DejaVuSans-75"/>
      <path d="
M18.3125 70.2188
L18.3125 54.6875
L36.8125 54.6875
L36.8125 47.7031
L18.3125 47.7031
L18.3125 18.0156
Q18.3125 11.3281 20.1406 9.42188
Q21.9688 7.51562 27.5938 7.51562
L36.8125 7.51562
L36.8125 0
L27.5938 0
Q17.1875 0 13.2344 3.875
Q9.28125 7.76562 9.28125 18.0156
L9.28125 47.7031
L2.6875 47.7031
L2.6875 54.6875
L9.28125 54.6875
L9.28125 70.2188
z
" id="DejaVuSans-74"/>
      <path d="
M56.2031 29.5938
L56.2031 25.2031
L14.8906 25.2031
Q15.4844 15.9219 20.4844 11.0625
Q25.4844 6.20312 34.4219 6.20312
Q39.5938 6.20312 44.4531 7.46875
Q49.3125 8.73438 54.1094 11.2812
L54.1094 2.78125
Q49.2656 0.734375 44.1875 -0.34375
Q39.1094 -1.42188 33.8906 -1.42188
Q20.7969 -1.42188 13.1562 6.1875
Q5.51562 13.8125 5.51562 26.8125
Q5.51562 40.2344 12.7656 48.1094
Q20.0156 56 32.3281 56
Q43.3594 56 49.7812 48.8906
Q56.2031 41.7969 56.2031 29.5938
M47.2188 32.2344
Q47.125 39.5938 43.0938 43.9844
Q39.0625 48.3906 32.4219 48.3906
Q24.9062 48.3906 20.3906 44.1406
Q15.875 39.8906 15.1875 32.1719
z
" id="DejaVuSans-65"/>
      <path d="
M48.6875 27.2969
Q48.6875 37.2031 44.6094 42.8438
Q40.5312 48.4844 33.4062 48.4844
Q26.2656 48.4844 22.1875 42.8438
Q18.1094 37.2031 18.1094 27.2969
Q18.1094 17.3906 22.1875 11.75
Q26.2656 6.10938 33.4062 6.10938
Q40.5312 6.10938 44.6094 11.75
Q48.6875 17.3906 48.6875 27.2969
M18.1094 46.3906
Q20.9531 51.2656 25.2656 53.625
Q29.5938 56 35.5938 56
Q45.5625 56 51.7812 48.0938
Q58.0156 40.1875 58.0156 27.2969
Q58.0156 14.4062 51.7812 6.48438
Q45.5625 -1.42188 35.5938 -1.42188
Q29.5938 -1.42188 25.2656 0.953125
Q20.9531 3.32812 18.1094 8.20312
L18.1094 0
L9.07812 0
L9.07812 75.9844
L18.1094 75.9844
z
" id="DejaVuSans-62"/>
      <path d="
M-0.296875 72.9062
L61.375 72.9062
L61.375 64.5938
L35.5 64.5938
L35.5 0
L25.5938 0
L25.5938 64.5938
L-0.296875 64.5938
z
" id="DejaVuSans-54"/>
     </defs>
     <g style="fill:#555555;" transform="translate(62.3171875 346.7371875)rotate(-90.0)scale(0.12 -0.12)">
      <use xlink:href="#DejaVuSans-54"/>
      <use x="44.083984375" xlink:href="#DejaVuSans-6f"/>
      <use x="105.265625" xlink:href="#DejaVuSans-74"/>
      <use x="144.474609375" xlink:href="#DejaVuSans-61"/>
      <use x="205.75390625" xlink:href="#DejaVuSans-6c"/>
      <use x="233.537109375" xlink:href="#DejaVuSans-20"/>
      <use x="265.32421875" xlink:href="#DejaVuSans-4e"/>
      <use x="340.12890625" xlink:href="#DejaVuSans-75"/>
      <use x="403.5078125" xlink:href="#DejaVuSans-6d"/>
      <use x="500.919921875" xlink:href="#DejaVuSans-62"/>
      <use x="564.396484375" xlink:href="#DejaVuSans-65"/>
      <use x="625.919921875" xlink:href="#DejaVuSans-72"/>
      <use x="667.033203125" xlink:href="#DejaVuSans-20"/>
      <use x="698.8203125" xlink:href="#DejaVuSans-6f"/>
      <use x="760.001953125" xlink:href="#DejaVuSans-66"/>
      <use x="795.20703125" xlink:href="#DejaVuSans-20"/>
      <use x="826.994140625" xlink:href="#DejaVuSans-52"/>
      <use x="894.2265625" xlink:href="#DejaVuSans-61"/>
      <use x="955.505859375" xlink:href="#DejaVuSans-74"/>
      <use x="994.71484375" xlink:href="#DejaVuSans-69"/>
      <use x="1022.49804688" xlink:href="#DejaVuSans-6e"/>
      <use x="1085.87695312" xlink:href="#DejaVuSans-67"/>
     </g>
    </g>
    <g id="text_21">
     <!-- 1e7 -->
     <g style="fill:#555555;" transform="translate(90.0 54.6)scale(0.1 -0.1)">
      <use xlink:href="#DejaVuSans-31"/>
      <use x="63.623046875" xlink:href="#DejaVuSans-65"/>
      <use x="125.146484375" xlink:href="#DejaVuSans-37"/>
     </g>
    </g>
   </g>
   <g id="line2d_55">
    <path clip-path="url(#p337f83845a)" d="
M140.727 118.743
L191.455 237.316
L242.182 267.448
L292.909 366.704
L343.636 386.297
L394.364 387.531
L445.091 420.212
L495.818 438.004
L546.545 438.608
L597.273 447.498" style="fill:none;stroke:#e24a33;stroke-dasharray:6.000000,6.000000;stroke-dashoffset:0.0;stroke-linecap:butt;"/>
    <defs>
     <path d="
M0 3
C0.795609 3 1.55874 2.6839 2.12132 2.12132
C2.6839 1.55874 3 0.795609 3 0
C3 -0.795609 2.6839 -1.55874 2.12132 -2.12132
C1.55874 -2.6839 0.795609 -3 0 -3
C-0.795609 -3 -1.55874 -2.6839 -2.12132 -2.12132
C-2.6839 -1.55874 -3 -0.795609 -3 0
C-3 0.795609 -2.6839 1.55874 -2.12132 2.12132
C-1.55874 2.6839 -0.795609 3 0 3
z
" id="ma282adc1fa" style="stroke:#000000;stroke-linecap:butt;stroke-width:0.5;"/>
    </defs>
    <g clip-path="url(#p337f83845a)">
     <use style="fill:#e24a33;stroke:#000000;stroke-linecap:butt;stroke-width:0.5;" x="140.727272727" xlink:href="#ma282adc1fa" y="118.7432592"/>
     <use style="fill:#e24a33;stroke:#000000;stroke-linecap:butt;stroke-width:0.5;" x="191.454545455" xlink:href="#ma282adc1fa" y="237.315804"/>
     <use style="fill:#e24a33;stroke:#000000;stroke-linecap:butt;stroke-width:0.5;" x="242.181818182" xlink:href="#ma282adc1fa" y="267.4484364"/>
     <use style="fill:#e24a33;stroke:#000000;stroke-linecap:butt;stroke-width:0.5;" x="292.909090909" xlink:href="#ma282adc1fa" y="366.7035048"/>
     <use style="fill:#e24a33;stroke:#000000;stroke-linecap:butt;stroke-width:0.5;" x="343.636363636" xlink:href="#ma282adc1fa" y="386.2968192"/>
     <use style="fill:#e24a33;stroke:#000000;stroke-linecap:butt;stroke-width:0.5;" x="394.363636364" xlink:href="#ma282adc1fa" y="387.5312268"/>
     <use style="fill:#e24a33;stroke:#000000;stroke-linecap:butt;stroke-width:0.5;" x="445.090909091" xlink:href="#ma282adc1fa" y="420.2117988"/>
     <use style="fill:#e24a33;stroke:#000000;stroke-linecap:butt;stroke-width:0.5;" x="495.818181818" xlink:href="#ma282adc1fa" y="438.0043356"/>
     <use style="fill:#e24a33;stroke:#000000;stroke-linecap:butt;stroke-width:0.5;" x="546.545454545" xlink:href="#ma282adc1fa" y="438.6075336"/>
     <use style="fill:#e24a33;stroke:#000000;stroke-linecap:butt;stroke-width:0.5;" x="597.272727273" xlink:href="#ma282adc1fa" y="447.49785"/>
    </g>
   </g>
   <g id="patch_3">
    <path d="
M90 57.6
L648 57.6" style="fill:none;stroke:#ffffff;"/>
   </g>
   <g id="patch_4">
    <path d="
M648 504
L648 57.6" style="fill:none;stroke:#ffffff;"/>
   </g>
   <g id="patch_5">
    <path d="
M90 504
L648 504" style="fill:none;stroke:#ffffff;"/>
   </g>
   <g id="patch_6">
    <path d="
M90 504
L90 57.6" style="fill:none;stroke:#ffffff;"/>
   </g>
   <g id="patch_7">
    <path d="
M199.499 97.1853
L200.756 100.983
L147.836 118.497
L149.092 122.295
L141.327 118.545
L145.322 110.902
L146.579 114.7
z
" style="fill:#20b2aa;stroke:#eeeeee;stroke-width:0.5;"/>
   </g>
   <g id="text_22">
    <!-- com.facebook.katana -->
    <defs>
     <path d="
M48.7812 52.5938
L48.7812 44.1875
Q44.9688 46.2969 41.1406 47.3438
Q37.3125 48.3906 33.4062 48.3906
Q24.6562 48.3906 19.8125 42.8438
Q14.9844 37.3125 14.9844 27.2969
Q14.9844 17.2812 19.8125 11.7344
Q24.6562 6.20312 33.4062 6.20312
Q37.3125 6.20312 41.1406 7.25
Q44.9688 8.29688 48.7812 10.4062
L48.7812 2.09375
Q45.0156 0.34375 40.9844 -0.53125
Q36.9688 -1.42188 32.4219 -1.42188
Q20.0625 -1.42188 12.7812 6.34375
Q5.51562 14.1094 5.51562 27.2969
Q5.51562 40.6719 12.8594 48.3281
Q20.2188 56 33.0156 56
Q37.1562 56 41.1094 55.1406
Q45.0625 54.2969 48.7812 52.5938" id="DejaVuSans-63"/>
    </defs>
    <g transform="translate(200.727272727 98.7432592)scale(0.1 -0.1)">
     <use xlink:href="#DejaVuSans-63"/>
     <use x="54.98046875" xlink:href="#DejaVuSans-6f"/>
     <use x="116.162109375" xlink:href="#DejaVuSans-6d"/>
     <use x="213.57421875" xlink:href="#DejaVuSans-2e"/>
     <use x="245.361328125" xlink:href="#DejaVuSans-66"/>
     <use x="280.56640625" xlink:href="#DejaVuSans-61"/>
     <use x="341.845703125" xlink:href="#DejaVuSans-63"/>
     <use x="396.826171875" xlink:href="#DejaVuSans-65"/>
     <use x="458.349609375" xlink:href="#DejaVuSans-62"/>
     <use x="521.826171875" xlink:href="#DejaVuSans-6f"/>
     <use x="583.0078125" xlink:href="#DejaVuSans-6f"/>
     <use x="644.189453125" xlink:href="#DejaVuSans-6b"/>
     <use x="702.099609375" xlink:href="#DejaVuSans-2e"/>
     <use x="733.88671875" xlink:href="#DejaVuSans-6b"/>
     <use x="790.046875" xlink:href="#DejaVuSans-61"/>
     <use x="851.326171875" xlink:href="#DejaVuSans-74"/>
     <use x="890.53515625" xlink:href="#DejaVuSans-61"/>
     <use x="951.814453125" xlink:href="#DejaVuSans-6e"/>
     <use x="1015.19335938" xlink:href="#DejaVuSans-61"/>
    </g>
   </g>
   <g id="patch_8">
    <path d="
M186.971 249.191
L190.889 249.996
L193.138 239.058
L197.056 239.864
L191.429 237.44
L185.302 237.447
L189.22 238.252
z
" style="fill:#20b2aa;stroke:#eeeeee;stroke-width:0.5;"/>
   </g>
   <g id="text_23">
    <!-- com.instagram.android -->
    <defs>
     <path d="
M45.4062 46.3906
L45.4062 75.9844
L54.3906 75.9844
L54.3906 0
L45.4062 0
L45.4062 8.20312
Q42.5781 3.32812 38.25 0.953125
Q33.9375 -1.42188 27.875 -1.42188
Q17.9688 -1.42188 11.7344 6.48438
Q5.51562 14.4062 5.51562 27.2969
Q5.51562 40.1875 11.7344 48.0938
Q17.9688 56 27.875 56
Q33.9375 56 38.25 53.625
Q42.5781 51.2656 45.4062 46.3906
M14.7969 27.2969
Q14.7969 17.3906 18.875 11.75
Q22.9531 6.10938 30.0781 6.10938
Q37.2031 6.10938 41.2969 11.75
Q45.4062 17.3906 45.4062 27.2969
Q45.4062 37.2031 41.2969 42.8438
Q37.2031 48.4844 30.0781 48.4844
Q22.9531 48.4844 18.875 42.8438
Q14.7969 37.2031 14.7969 27.2969" id="DejaVuSans-64"/>
     <path d="
M44.2812 53.0781
L44.2812 44.5781
Q40.4844 46.5312 36.375 47.5
Q32.2812 48.4844 27.875 48.4844
Q21.1875 48.4844 17.8438 46.4375
Q14.5 44.3906 14.5 40.2812
Q14.5 37.1562 16.8906 35.375
Q19.2812 33.5938 26.5156 31.9844
L29.5938 31.2969
Q39.1562 29.25 43.1875 25.5156
Q47.2188 21.7812 47.2188 15.0938
Q47.2188 7.46875 41.1875 3.01562
Q35.1562 -1.42188 24.6094 -1.42188
Q20.2188 -1.42188 15.4531 -0.5625
Q10.6875 0.296875 5.42188 2
L5.42188 11.2812
Q10.4062 8.6875 15.2344 7.39062
Q20.0625 6.10938 24.8125 6.10938
Q31.1562 6.10938 34.5625 8.28125
Q37.9844 10.4531 37.9844 14.4062
Q37.9844 18.0625 35.5156 20.0156
Q33.0625 21.9688 24.7031 23.7812
L21.5781 24.5156
Q13.2344 26.2656 9.51562 29.9062
Q5.8125 33.5469 5.8125 39.8906
Q5.8125 47.6094 11.2812 51.7969
Q16.75 56 26.8125 56
Q31.7812 56 36.1719 55.2656
Q40.5781 54.5469 44.2812 53.0781" id="DejaVuSans-73"/>
    </defs>
    <g transform="translate(131.454545455 257.315804)scale(0.1 -0.1)">
     <use xlink:href="#DejaVuSans-63"/>
     <use x="54.98046875" xlink:href="#DejaVuSans-6f"/>
     <use x="116.162109375" xlink:href="#DejaVuSans-6d"/>
     <use x="213.57421875" xlink:href="#DejaVuSans-2e"/>
     <use x="245.361328125" xlink:href="#DejaVuSans-69"/>
     <use x="273.14453125" xlink:href="#DejaVuSans-6e"/>
     <use x="336.5234375" xlink:href="#DejaVuSans-73"/>
     <use x="388.623046875" xlink:href="#DejaVuSans-74"/>
     <use x="427.83203125" xlink:href="#DejaVuSans-61"/>
     <use x="489.111328125" xlink:href="#DejaVuSans-67"/>
     <use x="552.587890625" xlink:href="#DejaVuSans-72"/>
     <use x="593.701171875" xlink:href="#DejaVuSans-61"/>
     <use x="654.98046875" xlink:href="#DejaVuSans-6d"/>
     <use x="752.392578125" xlink:href="#DejaVuSans-2e"/>
     <use x="784.1796875" xlink:href="#DejaVuSans-61"/>
     <use x="845.458984375" xlink:href="#DejaVuSans-6e"/>
     <use x="908.837890625" xlink:href="#DejaVuSans-64"/>
     <use x="972.314453125" xlink:href="#DejaVuSans-72"/>
     <use x="1011.17773438" xlink:href="#DejaVuSans-6f"/>
     <use x="1072.359375" xlink:href="#DejaVuSans-69"/>
     <use x="1100.14257812" xlink:href="#DejaVuSans-64"/>
    </g>
   </g>
   <g id="patch_9">
    <path d="
M301.009 247.791
L302.154 251.624
L249.234 267.429
L250.379 271.262
L242.782 267.269
L246.945 259.764
L248.089 263.597
z
" style="fill:#20b2aa;stroke:#eeeeee;stroke-width:0.5;"/>
   </g>
   <g id="text_24">
    <!-- com.whatsapp -->
    <defs>
     <path d="
M4.20312 54.6875
L13.1875 54.6875
L24.4219 12.0156
L35.5938 54.6875
L46.1875 54.6875
L57.4219 12.0156
L68.6094 54.6875
L77.5938 54.6875
L63.2812 0
L52.6875 0
L40.9219 44.8281
L29.1094 0
L18.5 0
z
" id="DejaVuSans-77"/>
     <path d="
M18.1094 8.20312
L18.1094 -20.7969
L9.07812 -20.7969
L9.07812 54.6875
L18.1094 54.6875
L18.1094 46.3906
Q20.9531 51.2656 25.2656 53.625
Q29.5938 56 35.5938 56
Q45.5625 56 51.7812 48.0938
Q58.0156 40.1875 58.0156 27.2969
Q58.0156 14.4062 51.7812 6.48438
Q45.5625 -1.42188 35.5938 -1.42188
Q29.5938 -1.42188 25.2656 0.953125
Q20.9531 3.32812 18.1094 8.20312
M48.6875 27.2969
Q48.6875 37.2031 44.6094 42.8438
Q40.5312 48.4844 33.4062 48.4844
Q26.2656 48.4844 22.1875 42.8438
Q18.1094 37.2031 18.1094 27.2969
Q18.1094 17.3906 22.1875 11.75
Q26.2656 6.10938 33.4062 6.10938
Q40.5312 6.10938 44.6094 11.75
Q48.6875 17.3906 48.6875 27.2969" id="DejaVuSans-70"/>
     <path d="
M54.8906 33.0156
L54.8906 0
L45.9062 0
L45.9062 32.7188
Q45.9062 40.4844 42.875 44.3281
Q39.8438 48.1875 33.7969 48.1875
Q26.5156 48.1875 22.3125 43.5469
Q18.1094 38.9219 18.1094 30.9062
L18.1094 0
L9.07812 0
L9.07812 75.9844
L18.1094 75.9844
L18.1094 46.1875
Q21.3438 51.125 25.7031 53.5625
Q30.0781 56 35.7969 56
Q45.2188 56 50.0469 50.1719
Q54.8906 44.3438 54.8906 33.0156" id="DejaVuSans-68"/>
    </defs>
    <g transform="translate(302.181818182 247.4484364)scale(0.1 -0.1)">
     <use xlink:href="#DejaVuSans-63"/>
     <use x="54.98046875" xlink:href="#DejaVuSans-6f"/>
     <use x="116.162109375" xlink:href="#DejaVuSans-6d"/>
     <use x="213.57421875" xlink:href="#DejaVuSans-2e"/>
     <use x="245.361328125" xlink:href="#DejaVuSans-77"/>
     <use x="327.1484375" xlink:href="#DejaVuSans-68"/>
     <use x="390.52734375" xlink:href="#DejaVuSans-61"/>
     <use x="451.806640625" xlink:href="#DejaVuSans-74"/>
     <use x="491.015625" xlink:href="#DejaVuSans-73"/>
     <use x="543.115234375" xlink:href="#DejaVuSans-61"/>
     <use x="604.39453125" xlink:href="#DejaVuSans-70"/>
     <use x="667.87109375" xlink:href="#DejaVuSans-70"/>
    </g>
   </g>
   <g id="patch_10">
    <path d="
M297.984 378.486
L294.108 379.476
L291.314 368.538
L287.438 369.528
L292.941 366.828
L299.065 366.558
L295.189 367.548
z
" style="fill:#20b2aa;stroke:#eeeeee;stroke-width:0.5;"/>
   </g>
   <g id="text_25">
    <!-- com.cleanmaster.mguard -->
    <g transform="translate(232.909090909 386.7035048)scale(0.1 -0.1)">
     <use xlink:href="#DejaVuSans-63"/>
     <use x="54.98046875" xlink:href="#DejaVuSans-6f"/>
     <use x="116.162109375" xlink:href="#DejaVuSans-6d"/>
     <use x="213.57421875" xlink:href="#DejaVuSans-2e"/>
     <use x="245.361328125" xlink:href="#DejaVuSans-63"/>
     <use x="300.341796875" xlink:href="#DejaVuSans-6c"/>
     <use x="328.125" xlink:href="#DejaVuSans-65"/>
     <use x="389.6484375" xlink:href="#DejaVuSans-61"/>
     <use x="450.927734375" xlink:href="#DejaVuSans-6e"/>
     <use x="514.306640625" xlink:href="#DejaVuSans-6d"/>
     <use x="611.71875" xlink:href="#DejaVuSans-61"/>
     <use x="672.998046875" xlink:href="#DejaVuSans-73"/>
     <use x="725.09765625" xlink:href="#DejaVuSans-74"/>
     <use x="764.306640625" xlink:href="#DejaVuSans-65"/>
     <use x="825.830078125" xlink:href="#DejaVuSans-72"/>
     <use x="857.818359375" xlink:href="#DejaVuSans-2e"/>
     <use x="889.60546875" xlink:href="#DejaVuSans-6d"/>
     <use x="987.017578125" xlink:href="#DejaVuSans-67"/>
     <use x="1050.49414062" xlink:href="#DejaVuSans-75"/>
     <use x="1113.87304688" xlink:href="#DejaVuSans-61"/>
     <use x="1175.15234375" xlink:href="#DejaVuSans-72"/>
     <use x="1214.515625" xlink:href="#DejaVuSans-64"/>
    </g>
   </g>
   <g id="patch_11">
    <path d="
M402.464 366.639
L403.609 370.472
L350.689 386.278
L351.833 390.11
L344.236 386.118
L348.399 378.612
L349.544 382.445
z
" style="fill:#20b2aa;stroke:#eeeeee;stroke-width:0.5;"/>
   </g>
   <g id="text_26">
    <!-- com.kiloo.subwaysurf -->
    <defs>
     <path d="
M32.1719 -5.07812
Q28.375 -14.8438 24.75 -17.8125
Q21.1406 -20.7969 15.0938 -20.7969
L7.90625 -20.7969
L7.90625 -13.2812
L13.1875 -13.2812
Q16.8906 -13.2812 18.9375 -11.5156
Q21 -9.76562 23.4844 -3.21875
L25.0938 0.875
L2.98438 54.6875
L12.5 54.6875
L29.5938 11.9219
L46.6875 54.6875
L56.2031 54.6875
z
" id="DejaVuSans-79"/>
    </defs>
    <g transform="translate(403.636363636 366.2968192)scale(0.1 -0.1)">
     <use xlink:href="#DejaVuSans-63"/>
     <use x="54.98046875" xlink:href="#DejaVuSans-6f"/>
     <use x="116.162109375" xlink:href="#DejaVuSans-6d"/>
     <use x="213.57421875" xlink:href="#DejaVuSans-2e"/>
     <use x="245.361328125" xlink:href="#DejaVuSans-6b"/>
     <use x="303.271484375" xlink:href="#DejaVuSans-69"/>
     <use x="331.0546875" xlink:href="#DejaVuSans-6c"/>
     <use x="358.837890625" xlink:href="#DejaVuSans-6f"/>
     <use x="420.01953125" xlink:href="#DejaVuSans-6f"/>
     <use x="479.451171875" xlink:href="#DejaVuSans-2e"/>
     <use x="511.23828125" xlink:href="#DejaVuSans-73"/>
     <use x="563.337890625" xlink:href="#DejaVuSans-75"/>
     <use x="626.716796875" xlink:href="#DejaVuSans-62"/>
     <use x="690.193359375" xlink:href="#DejaVuSans-77"/>
     <use x="771.98046875" xlink:href="#DejaVuSans-61"/>
     <use x="833.259765625" xlink:href="#DejaVuSans-79"/>
     <use x="892.439453125" xlink:href="#DejaVuSans-73"/>
     <use x="944.5390625" xlink:href="#DejaVuSans-75"/>
     <use x="1007.91796875" xlink:href="#DejaVuSans-72"/>
     <use x="1049.03125" xlink:href="#DejaVuSans-66"/>
    </g>
   </g>
   <g id="patch_12">
    <path d="
M400.721 399.123
L396.964 400.494
L392.973 389.556
L389.216 390.927
L394.409 387.655
L400.489 386.814
L396.731 388.185
z
" style="fill:#20b2aa;stroke:#eeeeee;stroke-width:0.5;"/>
   </g>
   <g id="text_27">
    <!-- com.king.candycrushsaga -->
    <g transform="translate(334.363636364 407.5312268)scale(0.1 -0.1)">
     <use xlink:href="#DejaVuSans-63"/>
     <use x="54.98046875" xlink:href="#DejaVuSans-6f"/>
     <use x="116.162109375" xlink:href="#DejaVuSans-6d"/>
     <use x="213.57421875" xlink:href="#DejaVuSans-2e"/>
     <use x="245.361328125" xlink:href="#DejaVuSans-6b"/>
     <use x="303.271484375" xlink:href="#DejaVuSans-69"/>
     <use x="331.0546875" xlink:href="#DejaVuSans-6e"/>
     <use x="394.43359375" xlink:href="#DejaVuSans-67"/>
     <use x="457.91015625" xlink:href="#DejaVuSans-2e"/>
     <use x="489.697265625" xlink:href="#DejaVuSans-63"/>
     <use x="544.677734375" xlink:href="#DejaVuSans-61"/>
     <use x="605.95703125" xlink:href="#DejaVuSans-6e"/>
     <use x="669.3359375" xlink:href="#DejaVuSans-64"/>
     <use x="732.8125" xlink:href="#DejaVuSans-79"/>
     <use x="791.9921875" xlink:href="#DejaVuSans-63"/>
     <use x="846.97265625" xlink:href="#DejaVuSans-72"/>
     <use x="888.0859375" xlink:href="#DejaVuSans-75"/>
     <use x="951.46484375" xlink:href="#DejaVuSans-73"/>
     <use x="1003.56445312" xlink:href="#DejaVuSans-68"/>
     <use x="1066.94335938" xlink:href="#DejaVuSans-73"/>
     <use x="1119.04296875" xlink:href="#DejaVuSans-61"/>
     <use x="1180.32226562" xlink:href="#DejaVuSans-67"/>
     <use x="1243.79882812" xlink:href="#DejaVuSans-61"/>
    </g>
   </g>
   <g id="patch_13">
    <path d="
M503.919 400.554
L505.063 404.387
L452.143 420.193
L453.288 424.025
L445.691 420.033
L449.854 412.527
L450.999 416.36
z
" style="fill:#20b2aa;stroke:#eeeeee;stroke-width:0.5;"/>
   </g>
   <g id="text_28">
    <!-- com.google.android.apps.maps -->
    <g transform="translate(505.090909091 400.2117988)scale(0.1 -0.1)">
     <use xlink:href="#DejaVuSans-63"/>
     <use x="54.98046875" xlink:href="#DejaVuSans-6f"/>
     <use x="116.162109375" xlink:href="#DejaVuSans-6d"/>
     <use x="213.57421875" xlink:href="#DejaVuSans-2e"/>
     <use x="245.361328125" xlink:href="#DejaVuSans-67"/>
     <use x="308.837890625" xlink:href="#DejaVuSans-6f"/>
     <use x="370.01953125" xlink:href="#DejaVuSans-6f"/>
     <use x="431.201171875" xlink:href="#DejaVuSans-67"/>
     <use x="494.677734375" xlink:href="#DejaVuSans-6c"/>
     <use x="522.4609375" xlink:href="#DejaVuSans-65"/>
     <use x="583.984375" xlink:href="#DejaVuSans-2e"/>
     <use x="615.771484375" xlink:href="#DejaVuSans-61"/>
     <use x="677.05078125" xlink:href="#DejaVuSans-6e"/>
     <use x="740.4296875" xlink:href="#DejaVuSans-64"/>
     <use x="803.90625" xlink:href="#DejaVuSans-72"/>
     <use x="842.76953125" xlink:href="#DejaVuSans-6f"/>
     <use x="903.951171875" xlink:href="#DejaVuSans-69"/>
     <use x="931.734375" xlink:href="#DejaVuSans-64"/>
     <use x="995.2109375" xlink:href="#DejaVuSans-2e"/>
     <use x="1026.99804688" xlink:href="#DejaVuSans-61"/>
     <use x="1088.27734375" xlink:href="#DejaVuSans-70"/>
     <use x="1151.75390625" xlink:href="#DejaVuSans-70"/>
     <use x="1215.23046875" xlink:href="#DejaVuSans-73"/>
     <use x="1267.33007812" xlink:href="#DejaVuSans-2e"/>
     <use x="1299.1171875" xlink:href="#DejaVuSans-6d"/>
     <use x="1396.52929688" xlink:href="#DejaVuSans-61"/>
     <use x="1457.80859375" xlink:href="#DejaVuSans-70"/>
     <use x="1521.28515625" xlink:href="#DejaVuSans-73"/>
    </g>
   </g>
   <g id="patch_14">
    <path d="
M520.934 448.498
L519.125 452.066
L497.555 441.127
L495.746 444.695
L496.063 438.128
L501.173 433.992
L499.364 437.56
z
" style="fill:#20b2aa;stroke:#eeeeee;stroke-width:0.5;"/>
   </g>
   <g id="text_29">
    <!-- com.NextFloor.DragonFlightKakao -->
    <defs>
     <path d="
M19.6719 64.7969
L19.6719 8.10938
L31.5938 8.10938
Q46.6875 8.10938 53.6875 14.9375
Q60.6875 21.7812 60.6875 36.5312
Q60.6875 51.1719 53.6875 57.9844
Q46.6875 64.7969 31.5938 64.7969
z

M9.8125 72.9062
L30.0781 72.9062
Q51.2656 72.9062 61.1719 64.0938
Q71.0938 55.2812 71.0938 36.5312
Q71.0938 17.6719 61.125 8.82812
Q51.1719 0 30.0781 0
L9.8125 0
z
" id="DejaVuSans-44"/>
     <path d="
M9.8125 72.9062
L51.7031 72.9062
L51.7031 64.5938
L19.6719 64.5938
L19.6719 43.1094
L48.5781 43.1094
L48.5781 34.8125
L19.6719 34.8125
L19.6719 0
L9.8125 0
z
" id="DejaVuSans-46"/>
     <path d="
M54.8906 54.6875
L35.1094 28.0781
L55.9062 0
L45.3125 0
L29.3906 21.4844
L13.4844 0
L2.875 0
L24.125 28.6094
L4.6875 54.6875
L15.2812 54.6875
L29.7812 35.2031
L44.2812 54.6875
z
" id="DejaVuSans-78"/>
     <path d="
M9.8125 72.9062
L19.6719 72.9062
L19.6719 42.0938
L52.3906 72.9062
L65.0938 72.9062
L28.9062 38.9219
L67.6719 0
L54.6875 0
L19.6719 35.1094
L19.6719 0
L9.8125 0
z
" id="DejaVuSans-4b"/>
    </defs>
    <g transform="translate(435.818181818 458.0043356)scale(0.1 -0.1)">
     <use xlink:href="#DejaVuSans-63"/>
     <use x="54.98046875" xlink:href="#DejaVuSans-6f"/>
     <use x="116.162109375" xlink:href="#DejaVuSans-6d"/>
     <use x="213.57421875" xlink:href="#DejaVuSans-2e"/>
     <use x="245.361328125" xlink:href="#DejaVuSans-4e"/>
     <use x="320.166015625" xlink:href="#DejaVuSans-65"/>
     <use x="379.939453125" xlink:href="#DejaVuSans-78"/>
     <use x="439.119140625" xlink:href="#DejaVuSans-74"/>
     <use x="478.328125" xlink:href="#DejaVuSans-46"/>
     <use x="535.84765625" xlink:href="#DejaVuSans-6c"/>
     <use x="563.630859375" xlink:href="#DejaVuSans-6f"/>
     <use x="624.8125" xlink:href="#DejaVuSans-6f"/>
     <use x="685.994140625" xlink:href="#DejaVuSans-72"/>
     <use x="717.982421875" xlink:href="#DejaVuSans-2e"/>
     <use x="749.76953125" xlink:href="#DejaVuSans-44"/>
     <use x="826.771484375" xlink:href="#DejaVuSans-72"/>
     <use x="867.884765625" xlink:href="#DejaVuSans-61"/>
     <use x="929.1640625" xlink:href="#DejaVuSans-67"/>
     <use x="992.640625" xlink:href="#DejaVuSans-6f"/>
     <use x="1053.82226562" xlink:href="#DejaVuSans-6e"/>
     <use x="1117.20117188" xlink:href="#DejaVuSans-46"/>
     <use x="1174.72070312" xlink:href="#DejaVuSans-6c"/>
     <use x="1202.50390625" xlink:href="#DejaVuSans-69"/>
     <use x="1230.28710938" xlink:href="#DejaVuSans-67"/>
     <use x="1293.76367188" xlink:href="#DejaVuSans-68"/>
     <use x="1357.14257812" xlink:href="#DejaVuSans-74"/>
     <use x="1396.3515625" xlink:href="#DejaVuSans-4b"/>
     <use x="1460.17773438" xlink:href="#DejaVuSans-61"/>
     <use x="1521.45703125" xlink:href="#DejaVuSans-6b"/>
     <use x="1577.6171875" xlink:href="#DejaVuSans-61"/>
     <use x="1638.89648438" xlink:href="#DejaVuSans-6f"/>
    </g>
   </g>
   <g id="patch_15">
    <path d="
M605.373 418.95
L606.518 422.783
L553.598 438.588
L554.743 442.421
L547.145 438.428
L551.308 430.923
L552.453 434.756
z
" style="fill:#20b2aa;stroke:#eeeeee;stroke-width:0.5;"/>
   </g>
   <g id="text_30">
    <!-- com.google.android.youtube -->
    <g transform="translate(606.545454545 418.6075336)scale(0.1 -0.1)">
     <use xlink:href="#DejaVuSans-63"/>
     <use x="54.98046875" xlink:href="#DejaVuSans-6f"/>
     <use x="116.162109375" xlink:href="#DejaVuSans-6d"/>
     <use x="213.57421875" xlink:href="#DejaVuSans-2e"/>
     <use x="245.361328125" xlink:href="#DejaVuSans-67"/>
     <use x="308.837890625" xlink:href="#DejaVuSans-6f"/>
     <use x="370.01953125" xlink:href="#DejaVuSans-6f"/>
     <use x="431.201171875" xlink:href="#DejaVuSans-67"/>
     <use x="494.677734375" xlink:href="#DejaVuSans-6c"/>
     <use x="522.4609375" xlink:href="#DejaVuSans-65"/>
     <use x="583.984375" xlink:href="#DejaVuSans-2e"/>
     <use x="615.771484375" xlink:href="#DejaVuSans-61"/>
     <use x="677.05078125" xlink:href="#DejaVuSans-6e"/>
     <use x="740.4296875" xlink:href="#DejaVuSans-64"/>
     <use x="803.90625" xlink:href="#DejaVuSans-72"/>
     <use x="842.76953125" xlink:href="#DejaVuSans-6f"/>
     <use x="903.951171875" xlink:href="#DejaVuSans-69"/>
     <use x="931.734375" xlink:href="#DejaVuSans-64"/>
     <use x="995.2109375" xlink:href="#DejaVuSans-2e"/>
     <use x="1026.99804688" xlink:href="#DejaVuSans-79"/>
     <use x="1086.17773438" xlink:href="#DejaVuSans-6f"/>
     <use x="1147.359375" xlink:href="#DejaVuSans-75"/>
     <use x="1210.73828125" xlink:href="#DejaVuSans-74"/>
     <use x="1249.94726562" xlink:href="#DejaVuSans-75"/>
     <use x="1313.32617188" xlink:href="#DejaVuSans-62"/>
     <use x="1376.80273438" xlink:href="#DejaVuSans-65"/>
    </g>
   </g>
   <g id="patch_16">
    <path d="
M593.725 461.536
L597.702 461.971
L599.091 449.271
L603.067 449.705
L597.257 447.642
L591.138 448.401
L595.114 448.836
z
" style="fill:#20b2aa;stroke:#eeeeee;stroke-width:0.5;"/>
   </g>
   <g id="text_31">
    <!-- me.pou.app -->
    <g transform="translate(537.272727273 467.49785)scale(0.1 -0.1)">
     <use xlink:href="#DejaVuSans-6d"/>
     <use x="97.412109375" xlink:href="#DejaVuSans-65"/>
     <use x="158.935546875" xlink:href="#DejaVuSans-2e"/>
     <use x="190.72265625" xlink:href="#DejaVuSans-70"/>
     <use x="254.19921875" xlink:href="#DejaVuSans-6f"/>
     <use x="315.380859375" xlink:href="#DejaVuSans-75"/>
     <use x="378.759765625" xlink:href="#DejaVuSans-2e"/>
     <use x="410.546875" xlink:href="#DejaVuSans-61"/>
     <use x="471.826171875" xlink:href="#DejaVuSans-70"/>
     <use x="535.302734375" xlink:href="#DejaVuSans-70"/>
    </g>
   </g>
   <g id="text_32">
    <!-- Top 10 rating apps by total number of rating(Play Store Jan. 2014) -->
    <defs>
     <path d="
M53.5156 70.5156
L53.5156 60.8906
Q47.9062 63.5781 42.9219 64.8906
Q37.9375 66.2188 33.2969 66.2188
Q25.25 66.2188 20.875 63.0938
Q16.5 59.9688 16.5 54.2031
Q16.5 49.3594 19.4062 46.8906
Q22.3125 44.4375 30.4219 42.9219
L36.375 41.7031
Q47.4062 39.5938 52.6562 34.2969
Q57.9062 29 57.9062 20.125
Q57.9062 9.51562 50.7969 4.04688
Q43.7031 -1.42188 29.9844 -1.42188
Q24.8125 -1.42188 18.9688 -0.25
Q13.1406 0.921875 6.89062 3.21875
L6.89062 13.375
Q12.8906 10.0156 18.6562 8.29688
Q24.4219 6.59375 29.9844 6.59375
Q38.4219 6.59375 43.0156 9.90625
Q47.6094 13.2344 47.6094 19.3906
Q47.6094 24.75 44.3125 27.7812
Q41.0156 30.8125 33.5 32.3281
L27.4844 33.5
Q16.4531 35.6875 11.5156 40.375
Q6.59375 45.0625 6.59375 53.4219
Q6.59375 63.0938 13.4062 68.6562
Q20.2188 74.2188 32.1719 74.2188
Q37.3125 74.2188 42.625 73.2812
Q47.9531 72.3594 53.5156 70.5156" id="DejaVuSans-53"/>
     <path d="
M19.6719 64.7969
L19.6719 37.4062
L32.0781 37.4062
Q38.9688 37.4062 42.7188 40.9688
Q46.4844 44.5312 46.4844 51.125
Q46.4844 57.6719 42.7188 61.2344
Q38.9688 64.7969 32.0781 64.7969
z

M9.8125 72.9062
L32.0781 72.9062
Q44.3438 72.9062 50.6094 67.3594
Q56.8906 61.8125 56.8906 51.125
Q56.8906 40.3281 50.6094 34.8125
Q44.3438 29.2969 32.0781 29.2969
L19.6719 29.2969
L19.6719 0
L9.8125 0
z
" id="DejaVuSans-50"/>
     <path d="
M9.8125 72.9062
L19.6719 72.9062
L19.6719 5.07812
Q19.6719 -8.10938 14.6719 -14.0625
Q9.67188 -20.0156 -1.42188 -20.0156
L-5.17188 -20.0156
L-5.17188 -11.7188
L-2.09375 -11.7188
Q4.4375 -11.7188 7.125 -8.04688
Q9.8125 -4.39062 9.8125 5.07812
z
" id="DejaVuSans-4a"/>
    </defs>
    <g transform="translate(131.443875 52.6)scale(0.144 -0.144)">
     <use xlink:href="#DejaVuSans-54"/>
     <use x="44.083984375" xlink:href="#DejaVuSans-6f"/>
     <use x="105.265625" xlink:href="#DejaVuSans-70"/>
     <use x="168.7421875" xlink:href="#DejaVuSans-20"/>
     <use x="200.529296875" xlink:href="#DejaVuSans-31"/>
     <use x="264.15234375" xlink:href="#DejaVuSans-30"/>
     <use x="327.775390625" xlink:href="#DejaVuSans-20"/>
     <use x="359.5625" xlink:href="#DejaVuSans-72"/>
     <use x="400.67578125" xlink:href="#DejaVuSans-61"/>
     <use x="461.955078125" xlink:href="#DejaVuSans-74"/>
     <use x="501.1640625" xlink:href="#DejaVuSans-69"/>
     <use x="528.947265625" xlink:href="#DejaVuSans-6e"/>
     <use x="592.326171875" xlink:href="#DejaVuSans-67"/>
     <use x="655.802734375" xlink:href="#DejaVuSans-20"/>
     <use x="687.58984375" xlink:href="#DejaVuSans-61"/>
     <use x="748.869140625" xlink:href="#DejaVuSans-70"/>
     <use x="812.345703125" xlink:href="#DejaVuSans-70"/>
     <use x="875.822265625" xlink:href="#DejaVuSans-73"/>
     <use x="927.921875" xlink:href="#DejaVuSans-20"/>
     <use x="959.708984375" xlink:href="#DejaVuSans-62"/>
     <use x="1023.18554688" xlink:href="#DejaVuSans-79"/>
     <use x="1082.36523438" xlink:href="#DejaVuSans-20"/>
     <use x="1114.15234375" xlink:href="#DejaVuSans-74"/>
     <use x="1153.36132812" xlink:href="#DejaVuSans-6f"/>
     <use x="1214.54296875" xlink:href="#DejaVuSans-74"/>
     <use x="1253.75195312" xlink:href="#DejaVuSans-61"/>
     <use x="1315.03125" xlink:href="#DejaVuSans-6c"/>
     <use x="1342.81445312" xlink:href="#DejaVuSans-20"/>
     <use x="1374.6015625" xlink:href="#DejaVuSans-6e"/>
     <use x="1437.98046875" xlink:href="#DejaVuSans-75"/>
     <use x="1501.359375" xlink:href="#DejaVuSans-6d"/>
     <use x="1598.77148438" xlink:href="#DejaVuSans-62"/>
     <use x="1662.24804688" xlink:href="#DejaVuSans-65"/>
     <use x="1723.77148438" xlink:href="#DejaVuSans-72"/>
     <use x="1764.88476562" xlink:href="#DejaVuSans-20"/>
     <use x="1796.671875" xlink:href="#DejaVuSans-6f"/>
     <use x="1857.85351562" xlink:href="#DejaVuSans-66"/>
     <use x="1893.05859375" xlink:href="#DejaVuSans-20"/>
     <use x="1924.84570312" xlink:href="#DejaVuSans-72"/>
     <use x="1965.95898438" xlink:href="#DejaVuSans-61"/>
     <use x="2027.23828125" xlink:href="#DejaVuSans-74"/>
     <use x="2066.44726562" xlink:href="#DejaVuSans-69"/>
     <use x="2094.23046875" xlink:href="#DejaVuSans-6e"/>
     <use x="2157.609375" xlink:href="#DejaVuSans-67"/>
     <use x="2221.0859375" xlink:href="#DejaVuSans-28"/>
     <use x="2260.09960938" xlink:href="#DejaVuSans-50"/>
     <use x="2320.40234375" xlink:href="#DejaVuSans-6c"/>
     <use x="2348.18554688" xlink:href="#DejaVuSans-61"/>
     <use x="2409.46484375" xlink:href="#DejaVuSans-79"/>
     <use x="2468.64453125" xlink:href="#DejaVuSans-20"/>
     <use x="2500.43164062" xlink:href="#DejaVuSans-53"/>
     <use x="2563.90820312" xlink:href="#DejaVuSans-74"/>
     <use x="2603.1171875" xlink:href="#DejaVuSans-6f"/>
     <use x="2664.29882812" xlink:href="#DejaVuSans-72"/>
     <use x="2703.16210938" xlink:href="#DejaVuSans-65"/>
     <use x="2764.68554688" xlink:href="#DejaVuSans-20"/>
     <use x="2796.47265625" xlink:href="#DejaVuSans-4a"/>
     <use x="2825.96484375" xlink:href="#DejaVuSans-61"/>
     <use x="2887.24414062" xlink:href="#DejaVuSans-6e"/>
     <use x="2950.62304688" xlink:href="#DejaVuSans-2e"/>
     <use x="2982.41015625" xlink:href="#DejaVuSans-20"/>
     <use x="3014.19726562" xlink:href="#DejaVuSans-32"/>
     <use x="3077.8203125" xlink:href="#DejaVuSans-30"/>
     <use x="3141.44335938" xlink:href="#DejaVuSans-31"/>
     <use x="3205.06640625" xlink:href="#DejaVuSans-34"/>
     <use x="3268.68945312" xlink:href="#DejaVuSans-29"/>
    </g>
   </g>
  </g>
 </g>
 <defs>
  <clipPath id="p337f83845a">
   <rect height="446.4" width="558.0" x="90.0" y="57.6"/>
  </clipPath>
 </defs>
</svg>
