<?xml version="1.0" encoding="utf-8" standalone="no"?>
<!DOCTYPE svg PUBLIC "-//W3C//DTD SVG 1.1//EN"
  "http://www.w3.org/Graphics/SVG/1.1/DTD/svg11.dtd">
<!-- Created with matplotlib (http://matplotlib.sourceforge.net/) -->
<svg height="432pt" version="1.1" viewBox="0 0 576 432" width="576pt" xmlns="http://www.w3.org/2000/svg" xmlns:xlink="http://www.w3.org/1999/xlink">
 <defs>
  <style type="text/css">
*{stroke-linecap:square;stroke-linejoin:round;}
  </style>
 </defs>
 <g id="figure_1">
  <g id="patch_1">
   <path d="
M0 432
L576 432
L576 0
L0 0
z
" style="fill:#ffffff;"/>
  </g>
  <g id="axes_1">
   <g id="patch_2">
    <path d="
M69.3225 178.92
L277.738 178.92
L277.738 19.8149
L69.3225 19.8149
z
" style="fill:#ffffff;"/>
   </g>
   <g id="LineCollection_1">
    <defs>
     <path d="
M74.6712 -253.08
L74.6712 -261.035" id="C0_0_9255a8582b"/>
     <path d="
M92.2313 -253.08
L92.2313 -261.035" id="C0_1_94bb4727f3"/>
     <path d="
M116.884 -253.08
L116.884 -261.035" id="C0_2_ac563b24b8"/>
     <path d="
M129.342 -253.08
L129.342 -261.035" id="C0_3_f5b99c276f"/>
     <path d="
M146.008 -253.08
L146.008 -261.035" id="C0_4_4f2ca45ab0"/>
     <path d="
M163.798 -253.08
L163.798 -261.035" id="C0_5_94687836d0"/>
     <path d="
M188.366 -253.08
L188.366 -261.035" id="C0_6_e21b67e706"/>
     <path d="
M208.842 -253.08
L208.842 -261.035" id="C0_7_9cc27b4aac"/>
     <path d="
M244.793 -253.08
L244.793 -261.035" id="C0_8_732fef22cc"/>
    </defs>
    <g clip-path="url(#p02fce3ceea)">
     <use style="fill:none;stroke:#000000;stroke-linecap:butt;" x="0" xlink:href="#C0_0_9255a8582b" y="432.0"/>
    </g>
    <g clip-path="url(#p02fce3ceea)">
     <use style="fill:none;stroke:#000000;stroke-linecap:butt;" x="0" xlink:href="#C0_1_94bb4727f3" y="432.0"/>
    </g>
    <g clip-path="url(#p02fce3ceea)">
     <use style="fill:none;stroke:#000000;stroke-linecap:butt;" x="0" xlink:href="#C0_2_ac563b24b8" y="432.0"/>
    </g>
    <g clip-path="url(#p02fce3ceea)">
     <use style="fill:none;stroke:#000000;stroke-linecap:butt;" x="0" xlink:href="#C0_3_f5b99c276f" y="432.0"/>
    </g>
    <g clip-path="url(#p02fce3ceea)">
     <use style="fill:none;stroke:#000000;stroke-linecap:butt;" x="0" xlink:href="#C0_4_4f2ca45ab0" y="432.0"/>
    </g>
    <g clip-path="url(#p02fce3ceea)">
     <use style="fill:none;stroke:#000000;stroke-linecap:butt;" x="0" xlink:href="#C0_5_94687836d0" y="432.0"/>
    </g>
    <g clip-path="url(#p02fce3ceea)">
     <use style="fill:none;stroke:#000000;stroke-linecap:butt;" x="0" xlink:href="#C0_6_e21b67e706" y="432.0"/>
    </g>
    <g clip-path="url(#p02fce3ceea)">
     <use style="fill:none;stroke:#000000;stroke-linecap:butt;" x="0" xlink:href="#C0_7_9cc27b4aac" y="432.0"/>
    </g>
    <g clip-path="url(#p02fce3ceea)">
     <use style="fill:none;stroke:#000000;stroke-linecap:butt;" x="0" xlink:href="#C0_8_732fef22cc" y="432.0"/>
    </g>
   </g>
   <g id="line2d_1">
    <path clip-path="url(#p02fce3ceea)" d="
M69.4686 88.7586
L71.4965 86.2935
L73.5244 85.6199
L75.5523 76.7209
L77.5801 77.8378
L79.608 77.8378
L81.6359 77.355
L83.6638 77.4716
L85.6916 75.4602
L87.7195 75.1929
L89.7474 79.4172
L91.7753 79.4172
L93.8031 79.4172
L95.831 78.614
L97.8589 83.3272
L99.8868 83.3272
L101.915 83.2438
L103.943 83.2438
L105.97 83.2438
L107.998 83.2438
L110.026 83.246
L112.054 83.246
L114.082 83.246
L116.11 83.2227
L118.138 83.2227
L120.166 83.2048
L122.193 83.2048
L124.221 82.7327
L126.249 83.749
L128.277 83.7699
L130.305 83.7699
L132.333 83.4212
L134.361 83.4212
L136.388 83.182
L138.416 83.182
L140.444 83.0771
L142.472 83.0771
L144.5 83.0771
L146.528 83.0771
L148.556 83.0771
L150.584 82.5695
L152.611 82.5695
L154.639 81.3265
L156.667 81.3265
L158.695 81.3265
L160.723 80.9375
L162.751 80.9375
L164.779 80.9364
L166.807 80.9364
L168.834 81.2209
L170.862 81.2209
L172.89 83.8821
L174.918 83.9397
L176.946 83.9397
L178.974 78.0456
L181.002 78.0456
L183.03 78.0456
L185.057 78.0456
L187.085 78.0456
L189.113 78.0456
L191.141 78.0456
L193.169 78.0456
L195.197 78.0456
L197.225 75.1936
L199.253 75.1936
L201.28 75.1936
L203.308 74.6391
L205.336 77.1465
L207.364 77.1465
L209.392 77.1465
L211.42 77.1465
L213.448 77.3752
L215.476 80.0114
L217.503 79.6808
L219.531 79.6808
L221.559 80.803
L223.587 80.693
L225.615 80.693
L227.643 80.693
L229.671 80.693
L231.699 80.693
L233.726 80.693
L235.754 80.693
L237.782 80.693
L239.81 80.693
L241.838 80.693
L243.866 79.5662
L245.894 80.1239
L247.922 81.6915
L249.949 81.6915
L251.977 81.6915
L254.005 80.9871
L256.033 80.9871
L258.061 80.9871
L260.089 80.9871
L262.117 80.9871
L264.145 80.9871
L266.172 83.6909
L268.2 83.6909
L270.228 84.7593" style="fill:none;stroke:#008000;"/>
   </g>
   <g id="matplotlib.axis_1">
    <g id="xtick_1">
     <g id="line2d_2">
      <defs>
       <path d="
M0 0
L0 -4" id="m0012dd4eef" style="stroke:#000000;stroke-linecap:butt;stroke-width:0.5;"/>
      </defs>
      <g>
       <use style="stroke:#000000;stroke-linecap:butt;stroke-width:0.5;" x="121.426269531" xlink:href="#m0012dd4eef" y="178.92"/>
      </g>
     </g>
     <g id="line2d_3">
      <defs>
       <path d="
M0 0
L0 4" id="m476344969c" style="stroke:#000000;stroke-linecap:butt;stroke-width:0.5;"/>
      </defs>
      <g>
       <use style="stroke:#000000;stroke-linecap:butt;stroke-width:0.5;" x="121.426269531" xlink:href="#m476344969c" y="19.814857337"/>
      </g>
     </g>
     <g id="text_1">
      <!-- −0.15 -->
      <defs>
       <path d="
M12.4062 8.29688
L28.5156 8.29688
L28.5156 63.9219
L10.9844 60.4062
L10.9844 69.3906
L28.4219 72.9062
L38.2812 72.9062
L38.2812 8.29688
L54.3906 8.29688
L54.3906 0
L12.4062 0
z
" id="DejaVuSans-31"/>
       <path d="
M31.7812 66.4062
Q24.1719 66.4062 20.3281 58.9062
Q16.5 51.4219 16.5 36.375
Q16.5 21.3906 20.3281 13.8906
Q24.1719 6.39062 31.7812 6.39062
Q39.4531 6.39062 43.2812 13.8906
Q47.125 21.3906 47.125 36.375
Q47.125 51.4219 43.2812 58.9062
Q39.4531 66.4062 31.7812 66.4062
M31.7812 74.2188
Q44.0469 74.2188 50.5156 64.5156
Q56.9844 54.8281 56.9844 36.375
Q56.9844 17.9688 50.5156 8.26562
Q44.0469 -1.42188 31.7812 -1.42188
Q19.5312 -1.42188 13.0625 8.26562
Q6.59375 17.9688 6.59375 36.375
Q6.59375 54.8281 13.0625 64.5156
Q19.5312 74.2188 31.7812 74.2188" id="DejaVuSans-30"/>
       <path d="
M10.6875 12.4062
L21 12.4062
L21 0
L10.6875 0
z
" id="DejaVuSans-2e"/>
       <path d="
M10.7969 72.9062
L49.5156 72.9062
L49.5156 64.5938
L19.8281 64.5938
L19.8281 46.7344
Q21.9688 47.4688 24.1094 47.8281
Q26.2656 48.1875 28.4219 48.1875
Q40.625 48.1875 47.75 41.5
Q54.8906 34.8125 54.8906 23.3906
Q54.8906 11.625 47.5625 5.09375
Q40.2344 -1.42188 26.9062 -1.42188
Q22.3125 -1.42188 17.5469 -0.640625
Q12.7969 0.140625 7.71875 1.70312
L7.71875 11.625
Q12.1094 9.23438 16.7969 8.0625
Q21.4844 6.89062 26.7031 6.89062
Q35.1562 6.89062 40.0781 11.3281
Q45.0156 15.7656 45.0156 23.3906
Q45.0156 31 40.0781 35.4375
Q35.1562 39.8906 26.7031 39.8906
Q22.75 39.8906 18.8125 39.0156
Q14.8906 38.1406 10.7969 36.2812
z
" id="DejaVuSans-35"/>
       <path d="
M10.5938 35.5
L73.1875 35.5
L73.1875 27.2031
L10.5938 27.2031
z
" id="DejaVuSans-2212"/>
      </defs>
      <g transform="translate(104.198769531 191.82625)scale(0.12 -0.12)">
       <use xlink:href="#DejaVuSans-2212"/>
       <use x="83.7890625" xlink:href="#DejaVuSans-30"/>
       <use x="147.412109375" xlink:href="#DejaVuSans-2e"/>
       <use x="179.19921875" xlink:href="#DejaVuSans-31"/>
       <use x="242.822265625" xlink:href="#DejaVuSans-35"/>
      </g>
     </g>
    </g>
    <g id="xtick_2">
     <g id="line2d_4">
      <g>
       <use style="stroke:#000000;stroke-linecap:butt;stroke-width:0.5;" x="173.530039063" xlink:href="#m0012dd4eef" y="178.92"/>
      </g>
     </g>
     <g id="line2d_5">
      <g>
       <use style="stroke:#000000;stroke-linecap:butt;stroke-width:0.5;" x="173.530039063" xlink:href="#m476344969c" y="19.814857337"/>
      </g>
     </g>
     <g id="text_2">
      <!-- 0.00 -->
      <g transform="translate(160.964726563 191.82625)scale(0.12 -0.12)">
       <use xlink:href="#DejaVuSans-30"/>
       <use x="63.623046875" xlink:href="#DejaVuSans-2e"/>
       <use x="95.41015625" xlink:href="#DejaVuSans-30"/>
       <use x="159.033203125" xlink:href="#DejaVuSans-30"/>
      </g>
     </g>
    </g>
    <g id="xtick_3">
     <g id="line2d_6">
      <g>
       <use style="stroke:#000000;stroke-linecap:butt;stroke-width:0.5;" x="225.633808594" xlink:href="#m0012dd4eef" y="178.92"/>
      </g>
     </g>
     <g id="line2d_7">
      <g>
       <use style="stroke:#000000;stroke-linecap:butt;stroke-width:0.5;" x="225.633808594" xlink:href="#m476344969c" y="19.814857337"/>
      </g>
     </g>
     <g id="text_3">
      <!-- 0.15 -->
      <g transform="translate(213.194121094 191.82625)scale(0.12 -0.12)">
       <use xlink:href="#DejaVuSans-30"/>
       <use x="63.623046875" xlink:href="#DejaVuSans-2e"/>
       <use x="95.41015625" xlink:href="#DejaVuSans-31"/>
       <use x="159.033203125" xlink:href="#DejaVuSans-35"/>
      </g>
     </g>
    </g>
    <g id="xtick_4">
     <g id="line2d_8">
      <g>
       <use style="stroke:#000000;stroke-linecap:butt;stroke-width:0.5;" x="277.737578125" xlink:href="#m0012dd4eef" y="178.92"/>
      </g>
     </g>
     <g id="line2d_9">
      <g>
       <use style="stroke:#000000;stroke-linecap:butt;stroke-width:0.5;" x="277.737578125" xlink:href="#m476344969c" y="19.814857337"/>
      </g>
     </g>
     <g id="text_4">
      <!-- 0.30 -->
      <defs>
       <path d="
M40.5781 39.3125
Q47.6562 37.7969 51.625 33
Q55.6094 28.2188 55.6094 21.1875
Q55.6094 10.4062 48.1875 4.48438
Q40.7656 -1.42188 27.0938 -1.42188
Q22.5156 -1.42188 17.6562 -0.515625
Q12.7969 0.390625 7.625 2.20312
L7.625 11.7188
Q11.7188 9.32812 16.5938 8.10938
Q21.4844 6.89062 26.8125 6.89062
Q36.0781 6.89062 40.9375 10.5469
Q45.7969 14.2031 45.7969 21.1875
Q45.7969 27.6406 41.2812 31.2656
Q36.7656 34.9062 28.7188 34.9062
L20.2188 34.9062
L20.2188 43.0156
L29.1094 43.0156
Q36.375 43.0156 40.2344 45.9219
Q44.0938 48.8281 44.0938 54.2969
Q44.0938 59.9062 40.1094 62.9062
Q36.1406 65.9219 28.7188 65.9219
Q24.6562 65.9219 20.0156 65.0312
Q15.375 64.1562 9.8125 62.3125
L9.8125 71.0938
Q15.4375 72.6562 20.3438 73.4375
Q25.25 74.2188 29.5938 74.2188
Q40.8281 74.2188 47.3594 69.1094
Q53.9062 64.0156 53.9062 55.3281
Q53.9062 49.2656 50.4375 45.0938
Q46.9688 40.9219 40.5781 39.3125" id="DejaVuSans-33"/>
      </defs>
      <g transform="translate(265.172265625 191.82625)scale(0.12 -0.12)">
       <use xlink:href="#DejaVuSans-30"/>
       <use x="63.623046875" xlink:href="#DejaVuSans-2e"/>
       <use x="95.41015625" xlink:href="#DejaVuSans-33"/>
       <use x="159.033203125" xlink:href="#DejaVuSans-30"/>
      </g>
     </g>
    </g>
    <g id="text_5">
     <!-- descriptionHtml -->
     <defs>
      <path d="
M30.6094 48.3906
Q23.3906 48.3906 19.1875 42.75
Q14.9844 37.1094 14.9844 27.2969
Q14.9844 17.4844 19.1562 11.8438
Q23.3438 6.20312 30.6094 6.20312
Q37.7969 6.20312 41.9844 11.8594
Q46.1875 17.5312 46.1875 27.2969
Q46.1875 37.0156 41.9844 42.7031
Q37.7969 48.3906 30.6094 48.3906
M30.6094 56
Q42.3281 56 49.0156 48.375
Q55.7188 40.7656 55.7188 27.2969
Q55.7188 13.875 49.0156 6.21875
Q42.3281 -1.42188 30.6094 -1.42188
Q18.8438 -1.42188 12.1719 6.21875
Q5.51562 13.875 5.51562 27.2969
Q5.51562 40.7656 12.1719 48.375
Q18.8438 56 30.6094 56" id="DejaVuSans-6f"/>
      <path d="
M52 44.1875
Q55.375 50.25 60.0625 53.125
Q64.75 56 71.0938 56
Q79.6406 56 84.2812 50.0156
Q88.9219 44.0469 88.9219 33.0156
L88.9219 0
L79.8906 0
L79.8906 32.7188
Q79.8906 40.5781 77.0938 44.375
Q74.3125 48.1875 68.6094 48.1875
Q61.625 48.1875 57.5625 43.5469
Q53.5156 38.9219 53.5156 30.9062
L53.5156 0
L44.4844 0
L44.4844 32.7188
Q44.4844 40.625 41.7031 44.4062
Q38.9219 48.1875 33.1094 48.1875
Q26.2188 48.1875 22.1562 43.5312
Q18.1094 38.875 18.1094 30.9062
L18.1094 0
L9.07812 0
L9.07812 54.6875
L18.1094 54.6875
L18.1094 46.1875
Q21.1875 51.2188 25.4844 53.6094
Q29.7812 56 35.6875 56
Q41.6562 56 45.8281 52.9688
Q50 49.9531 52 44.1875" id="DejaVuSans-6d"/>
      <path d="
M54.8906 33.0156
L54.8906 0
L45.9062 0
L45.9062 32.7188
Q45.9062 40.4844 42.875 44.3281
Q39.8438 48.1875 33.7969 48.1875
Q26.5156 48.1875 22.3125 43.5469
Q18.1094 38.9219 18.1094 30.9062
L18.1094 0
L9.07812 0
L9.07812 54.6875
L18.1094 54.6875
L18.1094 46.1875
Q21.3438 51.125 25.7031 53.5625
Q30.0781 56 35.7969 56
Q45.2188 56 50.0469 50.1719
Q54.8906 44.3438 54.8906 33.0156" id="DejaVuSans-6e"/>
      <path d="
M9.42188 75.9844
L18.4062 75.9844
L18.4062 0
L9.42188 0
z
" id="DejaVuSans-6c"/>
      <path d="
M18.1094 8.20312
L18.1094 -20.7969
L9.07812 -20.7969
L9.07812 54.6875
L18.1094 54.6875
L18.1094 46.3906
Q20.9531 51.2656 25.2656 53.625
Q29.5938 56 35.5938 56
Q45.5625 56 51.7812 48.0938
Q58.0156 40.1875 58.0156 27.2969
Q58.0156 14.4062 51.7812 6.48438
Q45.5625 -1.42188 35.5938 -1.42188
Q29.5938 -1.42188 25.2656 0.953125
Q20.9531 3.32812 18.1094 8.20312
M48.6875 27.2969
Q48.6875 37.2031 44.6094 42.8438
Q40.5312 48.4844 33.4062 48.4844
Q26.2656 48.4844 22.1875 42.8438
Q18.1094 37.2031 18.1094 27.2969
Q18.1094 17.3906 22.1875 11.75
Q26.2656 6.10938 33.4062 6.10938
Q40.5312 6.10938 44.6094 11.75
Q48.6875 17.3906 48.6875 27.2969" id="DejaVuSans-70"/>
      <path d="
M9.42188 54.6875
L18.4062 54.6875
L18.4062 0
L9.42188 0
z

M9.42188 75.9844
L18.4062 75.9844
L18.4062 64.5938
L9.42188 64.5938
z
" id="DejaVuSans-69"/>
      <path d="
M18.3125 70.2188
L18.3125 54.6875
L36.8125 54.6875
L36.8125 47.7031
L18.3125 47.7031
L18.3125 18.0156
Q18.3125 11.3281 20.1406 9.42188
Q21.9688 7.51562 27.5938 7.51562
L36.8125 7.51562
L36.8125 0
L27.5938 0
Q17.1875 0 13.2344 3.875
Q9.28125 7.76562 9.28125 18.0156
L9.28125 47.7031
L2.6875 47.7031
L2.6875 54.6875
L9.28125 54.6875
L9.28125 70.2188
z
" id="DejaVuSans-74"/>
      <path d="
M45.4062 46.3906
L45.4062 75.9844
L54.3906 75.9844
L54.3906 0
L45.4062 0
L45.4062 8.20312
Q42.5781 3.32812 38.25 0.953125
Q33.9375 -1.42188 27.875 -1.42188
Q17.9688 -1.42188 11.7344 6.48438
Q5.51562 14.4062 5.51562 27.2969
Q5.51562 40.1875 11.7344 48.0938
Q17.9688 56 27.875 56
Q33.9375 56 38.25 53.625
Q42.5781 51.2656 45.4062 46.3906
M14.7969 27.2969
Q14.7969 17.3906 18.875 11.75
Q22.9531 6.10938 30.0781 6.10938
Q37.2031 6.10938 41.2969 11.75
Q45.4062 17.3906 45.4062 27.2969
Q45.4062 37.2031 41.2969 42.8438
Q37.2031 48.4844 30.0781 48.4844
Q22.9531 48.4844 18.875 42.8438
Q14.7969 37.2031 14.7969 27.2969" id="DejaVuSans-64"/>
      <path d="
M56.2031 29.5938
L56.2031 25.2031
L14.8906 25.2031
Q15.4844 15.9219 20.4844 11.0625
Q25.4844 6.20312 34.4219 6.20312
Q39.5938 6.20312 44.4531 7.46875
Q49.3125 8.73438 54.1094 11.2812
L54.1094 2.78125
Q49.2656 0.734375 44.1875 -0.34375
Q39.1094 -1.42188 33.8906 -1.42188
Q20.7969 -1.42188 13.1562 6.1875
Q5.51562 13.8125 5.51562 26.8125
Q5.51562 40.2344 12.7656 48.1094
Q20.0156 56 32.3281 56
Q43.3594 56 49.7812 48.8906
Q56.2031 41.7969 56.2031 29.5938
M47.2188 32.2344
Q47.125 39.5938 43.0938 43.9844
Q39.0625 48.3906 32.4219 48.3906
Q24.9062 48.3906 20.3906 44.1406
Q15.875 39.8906 15.1875 32.1719
z
" id="DejaVuSans-65"/>
      <path d="
M9.8125 72.9062
L19.6719 72.9062
L19.6719 43.0156
L55.5156 43.0156
L55.5156 72.9062
L65.375 72.9062
L65.375 0
L55.5156 0
L55.5156 34.7188
L19.6719 34.7188
L19.6719 0
L9.8125 0
z
" id="DejaVuSans-48"/>
      <path d="
M48.7812 52.5938
L48.7812 44.1875
Q44.9688 46.2969 41.1406 47.3438
Q37.3125 48.3906 33.4062 48.3906
Q24.6562 48.3906 19.8125 42.8438
Q14.9844 37.3125 14.9844 27.2969
Q14.9844 17.2812 19.8125 11.7344
Q24.6562 6.20312 33.4062 6.20312
Q37.3125 6.20312 41.1406 7.25
Q44.9688 8.29688 48.7812 10.4062
L48.7812 2.09375
Q45.0156 0.34375 40.9844 -0.53125
Q36.9688 -1.42188 32.4219 -1.42188
Q20.0625 -1.42188 12.7812 6.34375
Q5.51562 14.1094 5.51562 27.2969
Q5.51562 40.6719 12.8594 48.3281
Q20.2188 56 33.0156 56
Q37.1562 56 41.1094 55.1406
Q45.0625 54.2969 48.7812 52.5938" id="DejaVuSans-63"/>
      <path d="
M44.2812 53.0781
L44.2812 44.5781
Q40.4844 46.5312 36.375 47.5
Q32.2812 48.4844 27.875 48.4844
Q21.1875 48.4844 17.8438 46.4375
Q14.5 44.3906 14.5 40.2812
Q14.5 37.1562 16.8906 35.375
Q19.2812 33.5938 26.5156 31.9844
L29.5938 31.2969
Q39.1562 29.25 43.1875 25.5156
Q47.2188 21.7812 47.2188 15.0938
Q47.2188 7.46875 41.1875 3.01562
Q35.1562 -1.42188 24.6094 -1.42188
Q20.2188 -1.42188 15.4531 -0.5625
Q10.6875 0.296875 5.42188 2
L5.42188 11.2812
Q10.4062 8.6875 15.2344 7.39062
Q20.0625 6.10938 24.8125 6.10938
Q31.1562 6.10938 34.5625 8.28125
Q37.9844 10.4531 37.9844 14.4062
Q37.9844 18.0625 35.5156 20.0156
Q33.0625 21.9688 24.7031 23.7812
L21.5781 24.5156
Q13.2344 26.2656 9.51562 29.9062
Q5.8125 33.5469 5.8125 39.8906
Q5.8125 47.6094 11.2812 51.7969
Q16.75 56 26.8125 56
Q31.7812 56 36.1719 55.2656
Q40.5781 54.5469 44.2812 53.0781" id="DejaVuSans-73"/>
      <path d="
M41.1094 46.2969
Q39.5938 47.1719 37.8125 47.5781
Q36.0312 48 33.8906 48
Q26.2656 48 22.1875 43.0469
Q18.1094 38.0938 18.1094 28.8125
L18.1094 0
L9.07812 0
L9.07812 54.6875
L18.1094 54.6875
L18.1094 46.1875
Q20.9531 51.1719 25.4844 53.5781
Q30.0312 56 36.5312 56
Q37.4531 56 38.5781 55.875
Q39.7031 55.7656 41.0625 55.5156
z
" id="DejaVuSans-72"/>
     </defs>
     <g transform="translate(126.686914063 206.115)scale(0.12 -0.12)">
      <use xlink:href="#DejaVuSans-64"/>
      <use x="63.4765625" xlink:href="#DejaVuSans-65"/>
      <use x="125.0" xlink:href="#DejaVuSans-73"/>
      <use x="177.099609375" xlink:href="#DejaVuSans-63"/>
      <use x="232.080078125" xlink:href="#DejaVuSans-72"/>
      <use x="273.193359375" xlink:href="#DejaVuSans-69"/>
      <use x="300.9765625" xlink:href="#DejaVuSans-70"/>
      <use x="364.453125" xlink:href="#DejaVuSans-74"/>
      <use x="403.662109375" xlink:href="#DejaVuSans-69"/>
      <use x="431.4453125" xlink:href="#DejaVuSans-6f"/>
      <use x="492.626953125" xlink:href="#DejaVuSans-6e"/>
      <use x="556.005859375" xlink:href="#DejaVuSans-48"/>
      <use x="631.201171875" xlink:href="#DejaVuSans-74"/>
      <use x="670.41015625" xlink:href="#DejaVuSans-6d"/>
      <use x="767.822265625" xlink:href="#DejaVuSans-6c"/>
     </g>
    </g>
   </g>
   <g id="matplotlib.axis_2">
    <g id="ytick_1">
     <g id="line2d_10">
      <defs>
       <path d="
M0 0
L4 0" id="me8a85f7bf6" style="stroke:#000000;stroke-linecap:butt;stroke-width:0.5;"/>
      </defs>
      <g>
       <use style="stroke:#000000;stroke-linecap:butt;stroke-width:0.5;" x="69.3225" xlink:href="#me8a85f7bf6" y="177.200920196"/>
      </g>
     </g>
     <g id="line2d_11">
      <defs>
       <path d="
M0 0
L-4 0" id="m1a32005dea" style="stroke:#000000;stroke-linecap:butt;stroke-width:0.5;"/>
      </defs>
      <g>
       <use style="stroke:#000000;stroke-linecap:butt;stroke-width:0.5;" x="277.737578125" xlink:href="#m1a32005dea" y="177.200920196"/>
      </g>
     </g>
     <g id="text_6">
      <!-- −0.12 -->
      <defs>
       <path d="
M19.1875 8.29688
L53.6094 8.29688
L53.6094 0
L7.32812 0
L7.32812 8.29688
Q12.9375 14.1094 22.625 23.8906
Q32.3281 33.6875 34.8125 36.5312
Q39.5469 41.8438 41.4219 45.5312
Q43.3125 49.2188 43.3125 52.7812
Q43.3125 58.5938 39.2344 62.25
Q35.1562 65.9219 28.6094 65.9219
Q23.9688 65.9219 18.8125 64.3125
Q13.6719 62.7031 7.8125 59.4219
L7.8125 69.3906
Q13.7656 71.7812 18.9375 73
Q24.125 74.2188 28.4219 74.2188
Q39.75 74.2188 46.4844 68.5469
Q53.2188 62.8906 53.2188 53.4219
Q53.2188 48.9219 51.5312 44.8906
Q49.8594 40.875 45.4062 35.4062
Q44.1875 33.9844 37.6406 27.2188
Q31.1094 20.4531 19.1875 8.29688" id="DejaVuSans-32"/>
      </defs>
      <g transform="translate(31.02125 181.568732696)scale(0.12 -0.12)">
       <use xlink:href="#DejaVuSans-2212"/>
       <use x="83.7890625" xlink:href="#DejaVuSans-30"/>
       <use x="147.412109375" xlink:href="#DejaVuSans-2e"/>
       <use x="179.19921875" xlink:href="#DejaVuSans-31"/>
       <use x="242.822265625" xlink:href="#DejaVuSans-32"/>
      </g>
     </g>
    </g>
    <g id="ytick_2">
     <g id="line2d_12">
      <g>
       <use style="stroke:#000000;stroke-linecap:butt;stroke-width:0.5;" x="69.3225" xlink:href="#me8a85f7bf6" y="154.14506961"/>
      </g>
     </g>
     <g id="line2d_13">
      <g>
       <use style="stroke:#000000;stroke-linecap:butt;stroke-width:0.5;" x="277.737578125" xlink:href="#m1a32005dea" y="154.14506961"/>
      </g>
     </g>
     <g id="text_7">
      <!-- −0.10 -->
      <g transform="translate(30.61625 158.51288211)scale(0.12 -0.12)">
       <use xlink:href="#DejaVuSans-2212"/>
       <use x="83.7890625" xlink:href="#DejaVuSans-30"/>
       <use x="147.412109375" xlink:href="#DejaVuSans-2e"/>
       <use x="179.19921875" xlink:href="#DejaVuSans-31"/>
       <use x="242.822265625" xlink:href="#DejaVuSans-30"/>
      </g>
     </g>
    </g>
    <g id="ytick_3">
     <g id="line2d_14">
      <g>
       <use style="stroke:#000000;stroke-linecap:butt;stroke-width:0.5;" x="69.3225" xlink:href="#me8a85f7bf6" y="131.089219025"/>
      </g>
     </g>
     <g id="line2d_15">
      <g>
       <use style="stroke:#000000;stroke-linecap:butt;stroke-width:0.5;" x="277.737578125" xlink:href="#m1a32005dea" y="131.089219025"/>
      </g>
     </g>
     <g id="text_8">
      <!-- −0.08 -->
      <defs>
       <path d="
M31.7812 34.625
Q24.75 34.625 20.7188 30.8594
Q16.7031 27.0938 16.7031 20.5156
Q16.7031 13.9219 20.7188 10.1562
Q24.75 6.39062 31.7812 6.39062
Q38.8125 6.39062 42.8594 10.1719
Q46.9219 13.9688 46.9219 20.5156
Q46.9219 27.0938 42.8906 30.8594
Q38.875 34.625 31.7812 34.625
M21.9219 38.8125
Q15.5781 40.375 12.0312 44.7188
Q8.5 49.0781 8.5 55.3281
Q8.5 64.0625 14.7188 69.1406
Q20.9531 74.2188 31.7812 74.2188
Q42.6719 74.2188 48.875 69.1406
Q55.0781 64.0625 55.0781 55.3281
Q55.0781 49.0781 51.5312 44.7188
Q48 40.375 41.7031 38.8125
Q48.8281 37.1562 52.7969 32.3125
Q56.7812 27.4844 56.7812 20.5156
Q56.7812 9.90625 50.3125 4.23438
Q43.8438 -1.42188 31.7812 -1.42188
Q19.7344 -1.42188 13.25 4.23438
Q6.78125 9.90625 6.78125 20.5156
Q6.78125 27.4844 10.7812 32.3125
Q14.7969 37.1562 21.9219 38.8125
M18.3125 54.3906
Q18.3125 48.7344 21.8438 45.5625
Q25.3906 42.3906 31.7812 42.3906
Q38.1406 42.3906 41.7188 45.5625
Q45.3125 48.7344 45.3125 54.3906
Q45.3125 60.0625 41.7188 63.2344
Q38.1406 66.4062 31.7812 66.4062
Q25.3906 66.4062 21.8438 63.2344
Q18.3125 60.0625 18.3125 54.3906" id="DejaVuSans-38"/>
      </defs>
      <g transform="translate(30.640625 135.457031525)scale(0.12 -0.12)">
       <use xlink:href="#DejaVuSans-2212"/>
       <use x="83.7890625" xlink:href="#DejaVuSans-30"/>
       <use x="147.412109375" xlink:href="#DejaVuSans-2e"/>
       <use x="179.19921875" xlink:href="#DejaVuSans-30"/>
       <use x="242.822265625" xlink:href="#DejaVuSans-38"/>
      </g>
     </g>
    </g>
    <g id="ytick_4">
     <g id="line2d_16">
      <g>
       <use style="stroke:#000000;stroke-linecap:butt;stroke-width:0.5;" x="69.3225" xlink:href="#me8a85f7bf6" y="108.033368439"/>
      </g>
     </g>
     <g id="line2d_17">
      <g>
       <use style="stroke:#000000;stroke-linecap:butt;stroke-width:0.5;" x="277.737578125" xlink:href="#m1a32005dea" y="108.033368439"/>
      </g>
     </g>
     <g id="text_9">
      <!-- −0.06 -->
      <defs>
       <path d="
M33.0156 40.375
Q26.375 40.375 22.4844 35.8281
Q18.6094 31.2969 18.6094 23.3906
Q18.6094 15.5312 22.4844 10.9531
Q26.375 6.39062 33.0156 6.39062
Q39.6562 6.39062 43.5312 10.9531
Q47.4062 15.5312 47.4062 23.3906
Q47.4062 31.2969 43.5312 35.8281
Q39.6562 40.375 33.0156 40.375
M52.5938 71.2969
L52.5938 62.3125
Q48.875 64.0625 45.0938 64.9844
Q41.3125 65.9219 37.5938 65.9219
Q27.8281 65.9219 22.6719 59.3281
Q17.5312 52.7344 16.7969 39.4062
Q19.6719 43.6562 24.0156 45.9219
Q28.375 48.1875 33.5938 48.1875
Q44.5781 48.1875 50.9531 41.5156
Q57.3281 34.8594 57.3281 23.3906
Q57.3281 12.1562 50.6875 5.35938
Q44.0469 -1.42188 33.0156 -1.42188
Q20.3594 -1.42188 13.6719 8.26562
Q6.98438 17.9688 6.98438 36.375
Q6.98438 53.6562 15.1875 63.9375
Q23.3906 74.2188 37.2031 74.2188
Q40.9219 74.2188 44.7031 73.4844
Q48.4844 72.75 52.5938 71.2969" id="DejaVuSans-36"/>
      </defs>
      <g transform="translate(30.575 112.401180939)scale(0.12 -0.12)">
       <use xlink:href="#DejaVuSans-2212"/>
       <use x="83.7890625" xlink:href="#DejaVuSans-30"/>
       <use x="147.412109375" xlink:href="#DejaVuSans-2e"/>
       <use x="179.19921875" xlink:href="#DejaVuSans-30"/>
       <use x="242.822265625" xlink:href="#DejaVuSans-36"/>
      </g>
     </g>
    </g>
    <g id="ytick_5">
     <g id="line2d_18">
      <g>
       <use style="stroke:#000000;stroke-linecap:butt;stroke-width:0.5;" x="69.3225" xlink:href="#me8a85f7bf6" y="84.9775178532"/>
      </g>
     </g>
     <g id="line2d_19">
      <g>
       <use style="stroke:#000000;stroke-linecap:butt;stroke-width:0.5;" x="277.737578125" xlink:href="#m1a32005dea" y="84.9775178532"/>
      </g>
     </g>
     <g id="text_10">
      <!-- −0.04 -->
      <defs>
       <path d="
M37.7969 64.3125
L12.8906 25.3906
L37.7969 25.3906
z

M35.2031 72.9062
L47.6094 72.9062
L47.6094 25.3906
L58.0156 25.3906
L58.0156 17.1875
L47.6094 17.1875
L47.6094 0
L37.7969 0
L37.7969 17.1875
L4.89062 17.1875
L4.89062 26.7031
z
" id="DejaVuSans-34"/>
      </defs>
      <g transform="translate(30.4925 89.3453303532)scale(0.12 -0.12)">
       <use xlink:href="#DejaVuSans-2212"/>
       <use x="83.7890625" xlink:href="#DejaVuSans-30"/>
       <use x="147.412109375" xlink:href="#DejaVuSans-2e"/>
       <use x="179.19921875" xlink:href="#DejaVuSans-30"/>
       <use x="242.822265625" xlink:href="#DejaVuSans-34"/>
      </g>
     </g>
    </g>
    <g id="ytick_6">
     <g id="line2d_20">
      <g>
       <use style="stroke:#000000;stroke-linecap:butt;stroke-width:0.5;" x="69.3225" xlink:href="#me8a85f7bf6" y="61.9216672674"/>
      </g>
     </g>
     <g id="line2d_21">
      <g>
       <use style="stroke:#000000;stroke-linecap:butt;stroke-width:0.5;" x="277.737578125" xlink:href="#m1a32005dea" y="61.9216672674"/>
      </g>
     </g>
     <g id="text_11">
      <!-- −0.02 -->
      <g transform="translate(31.02125 66.2894797674)scale(0.12 -0.12)">
       <use xlink:href="#DejaVuSans-2212"/>
       <use x="83.7890625" xlink:href="#DejaVuSans-30"/>
       <use x="147.412109375" xlink:href="#DejaVuSans-2e"/>
       <use x="179.19921875" xlink:href="#DejaVuSans-30"/>
       <use x="242.822265625" xlink:href="#DejaVuSans-32"/>
      </g>
     </g>
    </g>
    <g id="ytick_7">
     <g id="line2d_22">
      <g>
       <use style="stroke:#000000;stroke-linecap:butt;stroke-width:0.5;" x="69.3225" xlink:href="#me8a85f7bf6" y="38.8658166817"/>
      </g>
     </g>
     <g id="line2d_23">
      <g>
       <use style="stroke:#000000;stroke-linecap:butt;stroke-width:0.5;" x="277.737578125" xlink:href="#m1a32005dea" y="38.8658166817"/>
      </g>
     </g>
     <g id="text_12">
      <!-- 0.00 -->
      <g transform="translate(40.191875 43.2336291817)scale(0.12 -0.12)">
       <use xlink:href="#DejaVuSans-30"/>
       <use x="63.623046875" xlink:href="#DejaVuSans-2e"/>
       <use x="95.41015625" xlink:href="#DejaVuSans-30"/>
       <use x="159.033203125" xlink:href="#DejaVuSans-30"/>
      </g>
     </g>
    </g>
    <g id="text_13">
     <!-- Partial Dependence -->
     <defs>
      <path d="
M19.6719 64.7969
L19.6719 8.10938
L31.5938 8.10938
Q46.6875 8.10938 53.6875 14.9375
Q60.6875 21.7812 60.6875 36.5312
Q60.6875 51.1719 53.6875 57.9844
Q46.6875 64.7969 31.5938 64.7969
z

M9.8125 72.9062
L30.0781 72.9062
Q51.2656 72.9062 61.1719 64.0938
Q71.0938 55.2812 71.0938 36.5312
Q71.0938 17.6719 61.125 8.82812
Q51.1719 0 30.0781 0
L9.8125 0
z
" id="DejaVuSans-44"/>
      <path id="DejaVuSans-20"/>
      <path d="
M19.6719 64.7969
L19.6719 37.4062
L32.0781 37.4062
Q38.9688 37.4062 42.7188 40.9688
Q46.4844 44.5312 46.4844 51.125
Q46.4844 57.6719 42.7188 61.2344
Q38.9688 64.7969 32.0781 64.7969
z

M9.8125 72.9062
L32.0781 72.9062
Q44.3438 72.9062 50.6094 67.3594
Q56.8906 61.8125 56.8906 51.125
Q56.8906 40.3281 50.6094 34.8125
Q44.3438 29.2969 32.0781 29.2969
L19.6719 29.2969
L19.6719 0
L9.8125 0
z
" id="DejaVuSans-50"/>
      <path d="
M34.2812 27.4844
Q23.3906 27.4844 19.1875 25
Q14.9844 22.5156 14.9844 16.5
Q14.9844 11.7188 18.1406 8.90625
Q21.2969 6.10938 26.7031 6.10938
Q34.1875 6.10938 38.7031 11.4062
Q43.2188 16.7031 43.2188 25.4844
L43.2188 27.4844
z

M52.2031 31.2031
L52.2031 0
L43.2188 0
L43.2188 8.29688
Q40.1406 3.32812 35.5469 0.953125
Q30.9531 -1.42188 24.3125 -1.42188
Q15.9219 -1.42188 10.9531 3.29688
Q6 8.01562 6 15.9219
Q6 25.1406 12.1719 29.8281
Q18.3594 34.5156 30.6094 34.5156
L43.2188 34.5156
L43.2188 35.4062
Q43.2188 41.6094 39.1406 45
Q35.0625 48.3906 27.6875 48.3906
Q23 48.3906 18.5469 47.2656
Q14.1094 46.1406 10.0156 43.8906
L10.0156 52.2031
Q14.9375 54.1094 19.5781 55.0469
Q24.2188 56 28.6094 56
Q40.4844 56 46.3438 49.8438
Q52.2031 43.7031 52.2031 31.2031" id="DejaVuSans-61"/>
     </defs>
     <g transform="translate(25.4925 155.222741168)rotate(-90.0)scale(0.12 -0.12)">
      <use xlink:href="#DejaVuSans-50"/>
      <use x="55.802734375" xlink:href="#DejaVuSans-61"/>
      <use x="117.08203125" xlink:href="#DejaVuSans-72"/>
      <use x="158.1953125" xlink:href="#DejaVuSans-74"/>
      <use x="197.404296875" xlink:href="#DejaVuSans-69"/>
      <use x="225.1875" xlink:href="#DejaVuSans-61"/>
      <use x="286.466796875" xlink:href="#DejaVuSans-6c"/>
      <use x="314.25" xlink:href="#DejaVuSans-20"/>
      <use x="346.037109375" xlink:href="#DejaVuSans-44"/>
      <use x="423.0390625" xlink:href="#DejaVuSans-65"/>
      <use x="484.5625" xlink:href="#DejaVuSans-70"/>
      <use x="548.0390625" xlink:href="#DejaVuSans-65"/>
      <use x="609.5625" xlink:href="#DejaVuSans-6e"/>
      <use x="672.94140625" xlink:href="#DejaVuSans-64"/>
      <use x="736.41796875" xlink:href="#DejaVuSans-65"/>
      <use x="797.94140625" xlink:href="#DejaVuSans-6e"/>
      <use x="861.3203125" xlink:href="#DejaVuSans-63"/>
      <use x="916.30078125" xlink:href="#DejaVuSans-65"/>
     </g>
    </g>
   </g>
   <g id="patch_3">
    <path d="
M69.3225 19.8149
L277.738 19.8149" style="fill:none;stroke:#000000;"/>
   </g>
   <g id="patch_4">
    <path d="
M277.738 178.92
L277.738 19.8149" style="fill:none;stroke:#000000;"/>
   </g>
   <g id="patch_5">
    <path d="
M69.3225 178.92
L277.738 178.92" style="fill:none;stroke:#000000;"/>
   </g>
   <g id="patch_6">
    <path d="
M69.3225 178.92
L69.3225 19.8149" style="fill:none;stroke:#000000;"/>
   </g>
  </g>
  <g id="axes_2">
   <g id="patch_7">
    <path d="
M342.011 178.92
L550.426 178.92
L550.426 19.8149
L342.011 19.8149
z
" style="fill:#ffffff;"/>
   </g>
   <g id="LineCollection_2">
    <defs>
     <path d="
M344.621 -253.08
L344.621 -261.035" id="C1_0_2bfada9f31"/>
     <path d="
M344.985 -253.08
L344.985 -261.035" id="C1_1_4735cb4e01"/>
     <path d="
M345.435 -253.08
L345.435 -261.035" id="C1_2_94d3a4a5c7"/>
     <path d="
M345.602 -253.08
L345.602 -261.035" id="C1_3_9f71d4dd32"/>
     <path d="
M347.159 -253.08
L347.159 -261.035" id="C1_4_2686c41665"/>
     <path d="
M351.131 -253.08
L351.131 -261.035" id="C1_5_c872e24895"/>
     <path d="
M360.926 -253.08
L360.926 -261.035" id="C1_6_0ac00eaa70"/>
     <path d="
M432.569 -253.08
L432.569 -261.035" id="C1_7_b66645079c"/>
     <path d="
M487.892 -253.08
L487.892 -261.035" id="C1_8_ce4ea16cf8"/>
    </defs>
    <g clip-path="url(#pfa05700c5e)">
     <use style="fill:none;stroke:#000000;stroke-linecap:butt;" x="0" xlink:href="#C1_0_2bfada9f31" y="432.0"/>
    </g>
    <g clip-path="url(#pfa05700c5e)">
     <use style="fill:none;stroke:#000000;stroke-linecap:butt;" x="0" xlink:href="#C1_1_4735cb4e01" y="432.0"/>
    </g>
    <g clip-path="url(#pfa05700c5e)">
     <use style="fill:none;stroke:#000000;stroke-linecap:butt;" x="0" xlink:href="#C1_2_94d3a4a5c7" y="432.0"/>
    </g>
    <g clip-path="url(#pfa05700c5e)">
     <use style="fill:none;stroke:#000000;stroke-linecap:butt;" x="0" xlink:href="#C1_3_9f71d4dd32" y="432.0"/>
    </g>
    <g clip-path="url(#pfa05700c5e)">
     <use style="fill:none;stroke:#000000;stroke-linecap:butt;" x="0" xlink:href="#C1_4_2686c41665" y="432.0"/>
    </g>
    <g clip-path="url(#pfa05700c5e)">
     <use style="fill:none;stroke:#000000;stroke-linecap:butt;" x="0" xlink:href="#C1_5_c872e24895" y="432.0"/>
    </g>
    <g clip-path="url(#pfa05700c5e)">
     <use style="fill:none;stroke:#000000;stroke-linecap:butt;" x="0" xlink:href="#C1_6_0ac00eaa70" y="432.0"/>
    </g>
    <g clip-path="url(#pfa05700c5e)">
     <use style="fill:none;stroke:#000000;stroke-linecap:butt;" x="0" xlink:href="#C1_7_b66645079c" y="432.0"/>
    </g>
    <g clip-path="url(#pfa05700c5e)">
     <use style="fill:none;stroke:#000000;stroke-linecap:butt;" x="0" xlink:href="#C1_8_ce4ea16cf8" y="432.0"/>
    </g>
   </g>
   <g id="line2d_24">
    <path clip-path="url(#pfa05700c5e)" d="
M344.509 62.5316
L346.466 57.7995
L348.423 62.0541
L350.38 62.5785
L352.337 62.3905
L354.293 62.3905
L356.25 62.3905
L358.207 62.3692
L360.164 62.3692
L362.12 62.3692
L364.077 62.3692
L366.034 62.3692
L367.991 62.3692
L369.948 62.3692
L371.904 69.6821
L373.861 69.6821
L375.818 64.5374
L377.775 64.5374
L379.731 64.5374
L381.688 65.2201
L383.645 65.2201
L385.602 65.2201
L387.559 65.2201
L389.515 65.2201
L391.472 65.2201
L393.429 65.2201
L395.386 65.2201
L397.342 65.2201
L399.299 67.3917
L401.256 67.3917
L403.213 67.3917
L405.169 67.3917
L407.126 67.3917
L409.083 67.3917
L411.04 67.3917
L412.997 67.3917
L414.953 67.3917
L416.91 67.3917
L418.867 67.3917
L420.824 67.6591
L422.78 67.6591
L424.737 67.6591
L426.694 67.6591
L428.651 67.6591
L430.608 67.6591
L432.564 67.6591
L434.521 67.6591
L436.478 67.6591
L438.435 115.628
L440.391 115.628
L442.348 115.628
L444.305 115.792
L446.262 115.792
L448.219 115.792
L450.175 115.792
L452.132 115.792
L454.089 121.466
L456.046 121.466
L458.002 121.452
L459.959 125.512
L461.916 125.266
L463.873 126.489
L465.83 126.489
L467.786 126.489
L469.743 126.489
L471.7 126.489
L473.657 126.489
L475.613 126.489
L477.57 126.489
L479.527 126.489
L481.484 126.489
L483.441 126.489
L485.397 126.489
L487.354 125.907
L489.311 125.676
L491.268 125.753
L493.224 125.753
L495.181 125.753
L497.138 125.753
L499.095 125.753
L501.051 125.753
L503.008 125.72
L504.965 125.72
L506.922 125.72
L508.879 125.72
L510.835 125.72
L512.792 125.72
L514.749 125.659
L516.706 125.659
L518.662 125.659
L520.619 139.05
L522.576 139.05
L524.533 139.05
L526.49 139.05
L528.446 139.05
L530.403 139.05
L532.36 145.101
L534.317 145.973
L536.273 152.696
L538.23 152.696" style="fill:none;stroke:#008000;"/>
   </g>
   <g id="matplotlib.axis_3">
    <g id="xtick_5">
     <g id="line2d_25">
      <g>
       <use style="stroke:#000000;stroke-linecap:butt;stroke-width:0.5;" x="383.693875" xlink:href="#m0012dd4eef" y="178.92"/>
      </g>
     </g>
     <g id="line2d_26">
      <g>
       <use style="stroke:#000000;stroke-linecap:butt;stroke-width:0.5;" x="383.693875" xlink:href="#m476344969c" y="19.814857337"/>
      </g>
     </g>
     <g id="text_14">
      <!-- −0.04 -->
      <g transform="translate(366.278875 191.82625)scale(0.12 -0.12)">
       <use xlink:href="#DejaVuSans-2212"/>
       <use x="83.7890625" xlink:href="#DejaVuSans-30"/>
       <use x="147.412109375" xlink:href="#DejaVuSans-2e"/>
       <use x="179.19921875" xlink:href="#DejaVuSans-30"/>
       <use x="242.822265625" xlink:href="#DejaVuSans-34"/>
      </g>
     </g>
    </g>
    <g id="xtick_6">
     <g id="line2d_27">
      <g>
       <use style="stroke:#000000;stroke-linecap:butt;stroke-width:0.5;" x="425.376890625" xlink:href="#m0012dd4eef" y="178.92"/>
      </g>
     </g>
     <g id="line2d_28">
      <g>
       <use style="stroke:#000000;stroke-linecap:butt;stroke-width:0.5;" x="425.376890625" xlink:href="#m476344969c" y="19.814857337"/>
      </g>
     </g>
     <g id="text_15">
      <!-- −0.02 -->
      <g transform="translate(408.226265625 191.82625)scale(0.12 -0.12)">
       <use xlink:href="#DejaVuSans-2212"/>
       <use x="83.7890625" xlink:href="#DejaVuSans-30"/>
       <use x="147.412109375" xlink:href="#DejaVuSans-2e"/>
       <use x="179.19921875" xlink:href="#DejaVuSans-30"/>
       <use x="242.822265625" xlink:href="#DejaVuSans-32"/>
      </g>
     </g>
    </g>
    <g id="xtick_7">
     <g id="line2d_29">
      <g>
       <use style="stroke:#000000;stroke-linecap:butt;stroke-width:0.5;" x="467.05990625" xlink:href="#m0012dd4eef" y="178.92"/>
      </g>
     </g>
     <g id="line2d_30">
      <g>
       <use style="stroke:#000000;stroke-linecap:butt;stroke-width:0.5;" x="467.05990625" xlink:href="#m476344969c" y="19.814857337"/>
      </g>
     </g>
     <g id="text_16">
      <!-- 0.00 -->
      <g transform="translate(454.49459375 191.82625)scale(0.12 -0.12)">
       <use xlink:href="#DejaVuSans-30"/>
       <use x="63.623046875" xlink:href="#DejaVuSans-2e"/>
       <use x="95.41015625" xlink:href="#DejaVuSans-30"/>
       <use x="159.033203125" xlink:href="#DejaVuSans-30"/>
      </g>
     </g>
    </g>
    <g id="xtick_8">
     <g id="line2d_31">
      <g>
       <use style="stroke:#000000;stroke-linecap:butt;stroke-width:0.5;" x="508.742921875" xlink:href="#m0012dd4eef" y="178.92"/>
      </g>
     </g>
     <g id="line2d_32">
      <g>
       <use style="stroke:#000000;stroke-linecap:butt;stroke-width:0.5;" x="508.742921875" xlink:href="#m476344969c" y="19.814857337"/>
      </g>
     </g>
     <g id="text_17">
      <!-- 0.02 -->
      <g transform="translate(496.380109375 191.82625)scale(0.12 -0.12)">
       <use xlink:href="#DejaVuSans-30"/>
       <use x="63.623046875" xlink:href="#DejaVuSans-2e"/>
       <use x="95.41015625" xlink:href="#DejaVuSans-30"/>
       <use x="159.033203125" xlink:href="#DejaVuSans-32"/>
      </g>
     </g>
    </g>
    <g id="xtick_9">
     <g id="line2d_33">
      <g>
       <use style="stroke:#000000;stroke-linecap:butt;stroke-width:0.5;" x="550.4259375" xlink:href="#m0012dd4eef" y="178.92"/>
      </g>
     </g>
     <g id="line2d_34">
      <g>
       <use style="stroke:#000000;stroke-linecap:butt;stroke-width:0.5;" x="550.4259375" xlink:href="#m476344969c" y="19.814857337"/>
      </g>
     </g>
     <g id="text_18">
      <!-- 0.04 -->
      <g transform="translate(537.79875 191.82625)scale(0.12 -0.12)">
       <use xlink:href="#DejaVuSans-30"/>
       <use x="63.623046875" xlink:href="#DejaVuSans-2e"/>
       <use x="95.41015625" xlink:href="#DejaVuSans-30"/>
       <use x="159.033203125" xlink:href="#DejaVuSans-34"/>
      </g>
     </g>
    </g>
    <g id="text_19">
     <!-- commentCount -->
     <defs>
      <path d="
M8.5 21.5781
L8.5 54.6875
L17.4844 54.6875
L17.4844 21.9219
Q17.4844 14.1562 20.5 10.2656
Q23.5312 6.39062 29.5938 6.39062
Q36.8594 6.39062 41.0781 11.0312
Q45.3125 15.6719 45.3125 23.6875
L45.3125 54.6875
L54.2969 54.6875
L54.2969 0
L45.3125 0
L45.3125 8.40625
Q42.0469 3.42188 37.7188 1
Q33.4062 -1.42188 27.6875 -1.42188
Q18.2656 -1.42188 13.375 4.4375
Q8.5 10.2969 8.5 21.5781
M31.1094 56
z
" id="DejaVuSans-75"/>
      <path d="
M64.4062 67.2812
L64.4062 56.8906
Q59.4219 61.5312 53.7812 63.8125
Q48.1406 66.1094 41.7969 66.1094
Q29.2969 66.1094 22.6562 58.4688
Q16.0156 50.8281 16.0156 36.375
Q16.0156 21.9688 22.6562 14.3281
Q29.2969 6.6875 41.7969 6.6875
Q48.1406 6.6875 53.7812 8.98438
Q59.4219 11.2812 64.4062 15.9219
L64.4062 5.60938
Q59.2344 2.09375 53.4375 0.328125
Q47.6562 -1.42188 41.2188 -1.42188
Q24.6562 -1.42188 15.125 8.70312
Q5.60938 18.8438 5.60938 36.375
Q5.60938 53.9531 15.125 64.0781
Q24.6562 74.2188 41.2188 74.2188
Q47.75 74.2188 53.5312 72.4844
Q59.3281 70.75 64.4062 67.2812" id="DejaVuSans-43"/>
     </defs>
     <g transform="translate(400.369023438 205.903125)scale(0.12 -0.12)">
      <use xlink:href="#DejaVuSans-63"/>
      <use x="54.98046875" xlink:href="#DejaVuSans-6f"/>
      <use x="116.162109375" xlink:href="#DejaVuSans-6d"/>
      <use x="213.57421875" xlink:href="#DejaVuSans-6d"/>
      <use x="310.986328125" xlink:href="#DejaVuSans-65"/>
      <use x="372.509765625" xlink:href="#DejaVuSans-6e"/>
      <use x="435.888671875" xlink:href="#DejaVuSans-74"/>
      <use x="475.09765625" xlink:href="#DejaVuSans-43"/>
      <use x="544.921875" xlink:href="#DejaVuSans-6f"/>
      <use x="606.103515625" xlink:href="#DejaVuSans-75"/>
      <use x="669.482421875" xlink:href="#DejaVuSans-6e"/>
      <use x="732.861328125" xlink:href="#DejaVuSans-74"/>
     </g>
    </g>
   </g>
   <g id="matplotlib.axis_4">
    <g id="ytick_8">
     <g id="line2d_35">
      <g>
       <use style="stroke:#000000;stroke-linecap:butt;stroke-width:0.5;" x="342.010859375" xlink:href="#me8a85f7bf6" y="177.200920196"/>
      </g>
     </g>
     <g id="line2d_36">
      <g>
       <use style="stroke:#000000;stroke-linecap:butt;stroke-width:0.5;" x="550.4259375" xlink:href="#m1a32005dea" y="177.200920196"/>
      </g>
     </g>
     <g id="text_20">
      <!-- −0.12 -->
      <g transform="translate(303.709609375 181.568732696)scale(0.12 -0.12)">
       <use xlink:href="#DejaVuSans-2212"/>
       <use x="83.7890625" xlink:href="#DejaVuSans-30"/>
       <use x="147.412109375" xlink:href="#DejaVuSans-2e"/>
       <use x="179.19921875" xlink:href="#DejaVuSans-31"/>
       <use x="242.822265625" xlink:href="#DejaVuSans-32"/>
      </g>
     </g>
    </g>
    <g id="ytick_9">
     <g id="line2d_37">
      <g>
       <use style="stroke:#000000;stroke-linecap:butt;stroke-width:0.5;" x="342.010859375" xlink:href="#me8a85f7bf6" y="154.14506961"/>
      </g>
     </g>
     <g id="line2d_38">
      <g>
       <use style="stroke:#000000;stroke-linecap:butt;stroke-width:0.5;" x="550.4259375" xlink:href="#m1a32005dea" y="154.14506961"/>
      </g>
     </g>
     <g id="text_21">
      <!-- −0.10 -->
      <g transform="translate(303.304609375 158.51288211)scale(0.12 -0.12)">
       <use xlink:href="#DejaVuSans-2212"/>
       <use x="83.7890625" xlink:href="#DejaVuSans-30"/>
       <use x="147.412109375" xlink:href="#DejaVuSans-2e"/>
       <use x="179.19921875" xlink:href="#DejaVuSans-31"/>
       <use x="242.822265625" xlink:href="#DejaVuSans-30"/>
      </g>
     </g>
    </g>
    <g id="ytick_10">
     <g id="line2d_39">
      <g>
       <use style="stroke:#000000;stroke-linecap:butt;stroke-width:0.5;" x="342.010859375" xlink:href="#me8a85f7bf6" y="131.089219025"/>
      </g>
     </g>
     <g id="line2d_40">
      <g>
       <use style="stroke:#000000;stroke-linecap:butt;stroke-width:0.5;" x="550.4259375" xlink:href="#m1a32005dea" y="131.089219025"/>
      </g>
     </g>
     <g id="text_22">
      <!-- −0.08 -->
      <g transform="translate(303.328984375 135.457031525)scale(0.12 -0.12)">
       <use xlink:href="#DejaVuSans-2212"/>
       <use x="83.7890625" xlink:href="#DejaVuSans-30"/>
       <use x="147.412109375" xlink:href="#DejaVuSans-2e"/>
       <use x="179.19921875" xlink:href="#DejaVuSans-30"/>
       <use x="242.822265625" xlink:href="#DejaVuSans-38"/>
      </g>
     </g>
    </g>
    <g id="ytick_11">
     <g id="line2d_41">
      <g>
       <use style="stroke:#000000;stroke-linecap:butt;stroke-width:0.5;" x="342.010859375" xlink:href="#me8a85f7bf6" y="108.033368439"/>
      </g>
     </g>
     <g id="line2d_42">
      <g>
       <use style="stroke:#000000;stroke-linecap:butt;stroke-width:0.5;" x="550.4259375" xlink:href="#m1a32005dea" y="108.033368439"/>
      </g>
     </g>
     <g id="text_23">
      <!-- −0.06 -->
      <g transform="translate(303.263359375 112.401180939)scale(0.12 -0.12)">
       <use xlink:href="#DejaVuSans-2212"/>
       <use x="83.7890625" xlink:href="#DejaVuSans-30"/>
       <use x="147.412109375" xlink:href="#DejaVuSans-2e"/>
       <use x="179.19921875" xlink:href="#DejaVuSans-30"/>
       <use x="242.822265625" xlink:href="#DejaVuSans-36"/>
      </g>
     </g>
    </g>
    <g id="ytick_12">
     <g id="line2d_43">
      <g>
       <use style="stroke:#000000;stroke-linecap:butt;stroke-width:0.5;" x="342.010859375" xlink:href="#me8a85f7bf6" y="84.9775178532"/>
      </g>
     </g>
     <g id="line2d_44">
      <g>
       <use style="stroke:#000000;stroke-linecap:butt;stroke-width:0.5;" x="550.4259375" xlink:href="#m1a32005dea" y="84.9775178532"/>
      </g>
     </g>
     <g id="text_24">
      <!-- −0.04 -->
      <g transform="translate(303.180859375 89.3453303532)scale(0.12 -0.12)">
       <use xlink:href="#DejaVuSans-2212"/>
       <use x="83.7890625" xlink:href="#DejaVuSans-30"/>
       <use x="147.412109375" xlink:href="#DejaVuSans-2e"/>
       <use x="179.19921875" xlink:href="#DejaVuSans-30"/>
       <use x="242.822265625" xlink:href="#DejaVuSans-34"/>
      </g>
     </g>
    </g>
    <g id="ytick_13">
     <g id="line2d_45">
      <g>
       <use style="stroke:#000000;stroke-linecap:butt;stroke-width:0.5;" x="342.010859375" xlink:href="#me8a85f7bf6" y="61.9216672674"/>
      </g>
     </g>
     <g id="line2d_46">
      <g>
       <use style="stroke:#000000;stroke-linecap:butt;stroke-width:0.5;" x="550.4259375" xlink:href="#m1a32005dea" y="61.9216672674"/>
      </g>
     </g>
     <g id="text_25">
      <!-- −0.02 -->
      <g transform="translate(303.709609375 66.2894797674)scale(0.12 -0.12)">
       <use xlink:href="#DejaVuSans-2212"/>
       <use x="83.7890625" xlink:href="#DejaVuSans-30"/>
       <use x="147.412109375" xlink:href="#DejaVuSans-2e"/>
       <use x="179.19921875" xlink:href="#DejaVuSans-30"/>
       <use x="242.822265625" xlink:href="#DejaVuSans-32"/>
      </g>
     </g>
    </g>
    <g id="ytick_14">
     <g id="line2d_47">
      <g>
       <use style="stroke:#000000;stroke-linecap:butt;stroke-width:0.5;" x="342.010859375" xlink:href="#me8a85f7bf6" y="38.8658166817"/>
      </g>
     </g>
     <g id="line2d_48">
      <g>
       <use style="stroke:#000000;stroke-linecap:butt;stroke-width:0.5;" x="550.4259375" xlink:href="#m1a32005dea" y="38.8658166817"/>
      </g>
     </g>
     <g id="text_26">
      <!-- 0.00 -->
      <g transform="translate(312.880234375 43.2336291817)scale(0.12 -0.12)">
       <use xlink:href="#DejaVuSans-30"/>
       <use x="63.623046875" xlink:href="#DejaVuSans-2e"/>
       <use x="95.41015625" xlink:href="#DejaVuSans-30"/>
       <use x="159.033203125" xlink:href="#DejaVuSans-30"/>
      </g>
     </g>
    </g>
   </g>
   <g id="patch_8">
    <path d="
M342.011 19.8149
L550.426 19.8149" style="fill:none;stroke:#000000;"/>
   </g>
   <g id="patch_9">
    <path d="
M550.426 178.92
L550.426 19.8149" style="fill:none;stroke:#000000;"/>
   </g>
   <g id="patch_10">
    <path d="
M342.011 178.92
L550.426 178.92" style="fill:none;stroke:#000000;"/>
   </g>
   <g id="patch_11">
    <path d="
M342.011 178.92
L342.011 19.8149" style="fill:none;stroke:#000000;"/>
   </g>
  </g>
  <g id="axes_3">
   <g id="patch_12">
    <path d="
M69.3225 388.44
L277.738 388.44
L277.738 229.335
L69.3225 229.335
z
" style="fill:#ffffff;"/>
   </g>
   <g id="LineCollection_3">
    <defs>
     <path d="
M77.0191 -43.56
L77.0191 -51.5153" id="C2_0_0a236a6d3b"/>
     <path d="
M77.2557 -43.56
L77.2557 -51.5153" id="C2_1_936b519645"/>
     <path d="
M77.5723 -43.56
L77.5723 -51.5153" id="C2_2_cbea33ed68"/>
     <path d="
M77.8842 -43.56
L77.8842 -51.5153" id="C2_3_d60457ca76"/>
     <path d="
M78.7154 -43.56
L78.7154 -51.5153" id="C2_4_04b7754255"/>
     <path d="
M82.8104 -43.56
L82.8104 -51.5153" id="C2_5_a6681948bf"/>
     <path d="
M89.9309 -43.56
L89.9309 -51.5153" id="C2_6_0074872cf4"/>
     <path d="
M157.852 -43.56
L157.852 -51.5153" id="C2_7_081db719bd"/>
     <path d="
M226.128 -43.56
L226.128 -51.5153" id="C2_8_1444e519f9"/>
    </defs>
    <g clip-path="url(#pa11e8ae255)">
     <use style="fill:none;stroke:#000000;stroke-linecap:butt;" x="0" xlink:href="#C2_0_0a236a6d3b" y="432.0"/>
    </g>
    <g clip-path="url(#pa11e8ae255)">
     <use style="fill:none;stroke:#000000;stroke-linecap:butt;" x="0" xlink:href="#C2_1_936b519645" y="432.0"/>
    </g>
    <g clip-path="url(#pa11e8ae255)">
     <use style="fill:none;stroke:#000000;stroke-linecap:butt;" x="0" xlink:href="#C2_2_cbea33ed68" y="432.0"/>
    </g>
    <g clip-path="url(#pa11e8ae255)">
     <use style="fill:none;stroke:#000000;stroke-linecap:butt;" x="0" xlink:href="#C2_3_d60457ca76" y="432.0"/>
    </g>
    <g clip-path="url(#pa11e8ae255)">
     <use style="fill:none;stroke:#000000;stroke-linecap:butt;" x="0" xlink:href="#C2_4_04b7754255" y="432.0"/>
    </g>
    <g clip-path="url(#pa11e8ae255)">
     <use style="fill:none;stroke:#000000;stroke-linecap:butt;" x="0" xlink:href="#C2_5_a6681948bf" y="432.0"/>
    </g>
    <g clip-path="url(#pa11e8ae255)">
     <use style="fill:none;stroke:#000000;stroke-linecap:butt;" x="0" xlink:href="#C2_6_0074872cf4" y="432.0"/>
    </g>
    <g clip-path="url(#pa11e8ae255)">
     <use style="fill:none;stroke:#000000;stroke-linecap:butt;" x="0" xlink:href="#C2_7_081db719bd" y="432.0"/>
    </g>
    <g clip-path="url(#pa11e8ae255)">
     <use style="fill:none;stroke:#000000;stroke-linecap:butt;" x="0" xlink:href="#C2_8_1444e519f9" y="432.0"/>
    </g>
   </g>
   <g id="line2d_49">
    <path clip-path="url(#pa11e8ae255)" d="
M76.9492 254.523
L78.9449 249.625
L80.9406 250.231
L82.9364 250.231
L84.9321 250.231
L86.9278 253.2
L88.9235 253.2
L90.9192 253.2
L92.9149 257.572
L94.9107 257.572
L96.9064 257.572
L98.9021 257.572
L100.898 258.228
L102.894 258.205
L104.889 258.205
L106.885 258.205
L108.881 258.205
L110.876 258.205
L112.872 258.205
L114.868 258.205
L116.864 258.205
L118.859 258.205
L120.855 258.205
L122.851 258.205
L124.846 258.369
L126.842 258.369
L128.838 275.308
L130.834 275.308
L132.829 275.308
L134.825 275.308
L136.821 275.308
L138.816 275.308
L140.812 275.308
L142.808 275.308
L144.804 275.308
L146.799 275.308
L148.795 287.412
L150.791 287.412
L152.786 287.412
L154.782 287.412
L156.778 287.412
L158.774 349.561
L160.769 349.561
L162.765 349.561
L164.761 385.071
L166.756 385.071
L168.752 385.071
L170.748 385.071
L172.744 385.071
L174.739 385.208
L176.735 385.208
L178.731 385.208
L180.726 385.208
L182.722 385.208
L184.718 385.208
L186.714 384.586
L188.709 384.586
L190.705 384.586
L192.701 384.586
L194.697 385.366
L196.692 385.366
L198.688 385.366
L200.684 385.794
L202.679 385.794
L204.675 385.794
L206.671 385.586
L208.667 385.586
L210.662 385.586
L212.658 385.586
L214.654 385.263
L216.649 385.38
L218.645 385.127
L220.641 385.127
L222.637 385.127
L224.632 385.127
L226.628 385.518
L228.624 385.518
L230.619 385.51
L232.615 385.978
L234.611 385.978
L236.607 385.978
L238.602 385.978
L240.598 385.978
L242.594 385.978
L244.589 385.72
L246.585 387.019
L248.581 386.567
L250.577 386.567
L252.572 386.567
L254.568 386.649
L256.564 386.649
L258.559 386.649
L260.555 388.278
L262.551 388.278
L264.547 388.278
L266.542 388.278
L268.538 388.278
L270.534 388.278
L272.529 388.278
L274.525 388.44" style="fill:none;stroke:#008000;"/>
   </g>
   <g id="matplotlib.axis_5">
    <g id="xtick_10">
     <g id="line2d_50">
      <g>
       <use style="stroke:#000000;stroke-linecap:butt;stroke-width:0.5;" x="99.0960825893" xlink:href="#m0012dd4eef" y="388.44"/>
      </g>
     </g>
     <g id="line2d_51">
      <g>
       <use style="stroke:#000000;stroke-linecap:butt;stroke-width:0.5;" x="99.0960825893" xlink:href="#m476344969c" y="229.334857337"/>
      </g>
     </g>
     <g id="text_27">
      <!-- −0.06 -->
      <g transform="translate(81.7223325893 401.34625)scale(0.12 -0.12)">
       <use xlink:href="#DejaVuSans-2212"/>
       <use x="83.7890625" xlink:href="#DejaVuSans-30"/>
       <use x="147.412109375" xlink:href="#DejaVuSans-2e"/>
       <use x="179.19921875" xlink:href="#DejaVuSans-30"/>
       <use x="242.822265625" xlink:href="#DejaVuSans-36"/>
      </g>
     </g>
    </g>
    <g id="xtick_11">
     <g id="line2d_52">
      <g>
       <use style="stroke:#000000;stroke-linecap:butt;stroke-width:0.5;" x="143.756456473" xlink:href="#m0012dd4eef" y="388.44"/>
      </g>
     </g>
     <g id="line2d_53">
      <g>
       <use style="stroke:#000000;stroke-linecap:butt;stroke-width:0.5;" x="143.756456473" xlink:href="#m476344969c" y="229.334857337"/>
      </g>
     </g>
     <g id="text_28">
      <!-- −0.03 -->
      <g transform="translate(126.485831473 401.34625)scale(0.12 -0.12)">
       <use xlink:href="#DejaVuSans-2212"/>
       <use x="83.7890625" xlink:href="#DejaVuSans-30"/>
       <use x="147.412109375" xlink:href="#DejaVuSans-2e"/>
       <use x="179.19921875" xlink:href="#DejaVuSans-30"/>
       <use x="242.822265625" xlink:href="#DejaVuSans-33"/>
      </g>
     </g>
    </g>
    <g id="xtick_12">
     <g id="line2d_54">
      <g>
       <use style="stroke:#000000;stroke-linecap:butt;stroke-width:0.5;" x="188.416830357" xlink:href="#m0012dd4eef" y="388.44"/>
      </g>
     </g>
     <g id="line2d_55">
      <g>
       <use style="stroke:#000000;stroke-linecap:butt;stroke-width:0.5;" x="188.416830357" xlink:href="#m476344969c" y="229.334857337"/>
      </g>
     </g>
     <g id="text_29">
      <!-- 0.00 -->
      <g transform="translate(175.851517857 401.34625)scale(0.12 -0.12)">
       <use xlink:href="#DejaVuSans-30"/>
       <use x="63.623046875" xlink:href="#DejaVuSans-2e"/>
       <use x="95.41015625" xlink:href="#DejaVuSans-30"/>
       <use x="159.033203125" xlink:href="#DejaVuSans-30"/>
      </g>
     </g>
    </g>
    <g id="xtick_13">
     <g id="line2d_56">
      <g>
       <use style="stroke:#000000;stroke-linecap:butt;stroke-width:0.5;" x="233.077204241" xlink:href="#m0012dd4eef" y="388.44"/>
      </g>
     </g>
     <g id="line2d_57">
      <g>
       <use style="stroke:#000000;stroke-linecap:butt;stroke-width:0.5;" x="233.077204241" xlink:href="#m476344969c" y="229.334857337"/>
      </g>
     </g>
     <g id="text_30">
      <!-- 0.03 -->
      <g transform="translate(220.594391741 401.34625)scale(0.12 -0.12)">
       <use xlink:href="#DejaVuSans-30"/>
       <use x="63.623046875" xlink:href="#DejaVuSans-2e"/>
       <use x="95.41015625" xlink:href="#DejaVuSans-30"/>
       <use x="159.033203125" xlink:href="#DejaVuSans-33"/>
      </g>
     </g>
    </g>
    <g id="xtick_14">
     <g id="line2d_58">
      <g>
       <use style="stroke:#000000;stroke-linecap:butt;stroke-width:0.5;" x="277.737578125" xlink:href="#m0012dd4eef" y="388.44"/>
      </g>
     </g>
     <g id="line2d_59">
      <g>
       <use style="stroke:#000000;stroke-linecap:butt;stroke-width:0.5;" x="277.737578125" xlink:href="#m476344969c" y="229.334857337"/>
      </g>
     </g>
     <g id="text_31">
      <!-- 0.06 -->
      <g transform="translate(265.151640625 401.34625)scale(0.12 -0.12)">
       <use xlink:href="#DejaVuSans-30"/>
       <use x="63.623046875" xlink:href="#DejaVuSans-2e"/>
       <use x="95.41015625" xlink:href="#DejaVuSans-30"/>
       <use x="159.033203125" xlink:href="#DejaVuSans-36"/>
      </g>
     </g>
    </g>
    <g id="text_32">
     <!-- fiveStarRatings -->
     <defs>
      <path d="
M37.1094 75.9844
L37.1094 68.5
L28.5156 68.5
Q23.6875 68.5 21.7969 66.5469
Q19.9219 64.5938 19.9219 59.5156
L19.9219 54.6875
L34.7188 54.6875
L34.7188 47.7031
L19.9219 47.7031
L19.9219 0
L10.8906 0
L10.8906 47.7031
L2.29688 47.7031
L2.29688 54.6875
L10.8906 54.6875
L10.8906 58.5
Q10.8906 67.625 15.1406 71.7969
Q19.3906 75.9844 28.6094 75.9844
z
" id="DejaVuSans-66"/>
      <path d="
M53.5156 70.5156
L53.5156 60.8906
Q47.9062 63.5781 42.9219 64.8906
Q37.9375 66.2188 33.2969 66.2188
Q25.25 66.2188 20.875 63.0938
Q16.5 59.9688 16.5 54.2031
Q16.5 49.3594 19.4062 46.8906
Q22.3125 44.4375 30.4219 42.9219
L36.375 41.7031
Q47.4062 39.5938 52.6562 34.2969
Q57.9062 29 57.9062 20.125
Q57.9062 9.51562 50.7969 4.04688
Q43.7031 -1.42188 29.9844 -1.42188
Q24.8125 -1.42188 18.9688 -0.25
Q13.1406 0.921875 6.89062 3.21875
L6.89062 13.375
Q12.8906 10.0156 18.6562 8.29688
Q24.4219 6.59375 29.9844 6.59375
Q38.4219 6.59375 43.0156 9.90625
Q47.6094 13.2344 47.6094 19.3906
Q47.6094 24.75 44.3125 27.7812
Q41.0156 30.8125 33.5 32.3281
L27.4844 33.5
Q16.4531 35.6875 11.5156 40.375
Q6.59375 45.0625 6.59375 53.4219
Q6.59375 63.0938 13.4062 68.6562
Q20.2188 74.2188 32.1719 74.2188
Q37.3125 74.2188 42.625 73.2812
Q47.9531 72.3594 53.5156 70.5156" id="DejaVuSans-53"/>
      <path d="
M45.4062 27.9844
Q45.4062 37.75 41.375 43.1094
Q37.3594 48.4844 30.0781 48.4844
Q22.8594 48.4844 18.8281 43.1094
Q14.7969 37.75 14.7969 27.9844
Q14.7969 18.2656 18.8281 12.8906
Q22.8594 7.51562 30.0781 7.51562
Q37.3594 7.51562 41.375 12.8906
Q45.4062 18.2656 45.4062 27.9844
M54.3906 6.78125
Q54.3906 -7.17188 48.1875 -13.9844
Q42 -20.7969 29.2031 -20.7969
Q24.4688 -20.7969 20.2656 -20.0938
Q16.0625 -19.3906 12.1094 -17.9219
L12.1094 -9.1875
Q16.0625 -11.3281 19.9219 -12.3438
Q23.7812 -13.375 27.7812 -13.375
Q36.625 -13.375 41.0156 -8.76562
Q45.4062 -4.15625 45.4062 5.17188
L45.4062 9.625
Q42.625 4.78125 38.2812 2.39062
Q33.9375 0 27.875 0
Q17.8281 0 11.6719 7.65625
Q5.51562 15.3281 5.51562 27.9844
Q5.51562 40.6719 11.6719 48.3281
Q17.8281 56 27.875 56
Q33.9375 56 38.2812 53.6094
Q42.625 51.2188 45.4062 46.3906
L45.4062 54.6875
L54.3906 54.6875
z
" id="DejaVuSans-67"/>
      <path d="
M2.98438 54.6875
L12.5 54.6875
L29.5938 8.79688
L46.6875 54.6875
L56.2031 54.6875
L35.6875 0
L23.4844 0
z
" id="DejaVuSans-76"/>
      <path d="
M44.3906 34.1875
Q47.5625 33.1094 50.5625 29.5938
Q53.5625 26.0781 56.5938 19.9219
L66.6094 0
L56 0
L46.6875 18.7031
Q43.0625 26.0312 39.6719 28.4219
Q36.2812 30.8125 30.4219 30.8125
L19.6719 30.8125
L19.6719 0
L9.8125 0
L9.8125 72.9062
L32.0781 72.9062
Q44.5781 72.9062 50.7344 67.6719
Q56.8906 62.4531 56.8906 51.9062
Q56.8906 45.0156 53.6875 40.4688
Q50.4844 35.9375 44.3906 34.1875
M19.6719 64.7969
L19.6719 38.9219
L32.0781 38.9219
Q39.2031 38.9219 42.8438 42.2188
Q46.4844 45.5156 46.4844 51.9062
Q46.4844 58.2969 42.8438 61.5469
Q39.2031 64.7969 32.0781 64.7969
z
" id="DejaVuSans-52"/>
     </defs>
     <g transform="translate(128.166289063 415.635)scale(0.12 -0.12)">
      <use xlink:href="#DejaVuSans-66"/>
      <use x="35.205078125" xlink:href="#DejaVuSans-69"/>
      <use x="62.98828125" xlink:href="#DejaVuSans-76"/>
      <use x="122.16796875" xlink:href="#DejaVuSans-65"/>
      <use x="183.69140625" xlink:href="#DejaVuSans-53"/>
      <use x="247.16796875" xlink:href="#DejaVuSans-74"/>
      <use x="286.376953125" xlink:href="#DejaVuSans-61"/>
      <use x="347.65625" xlink:href="#DejaVuSans-72"/>
      <use x="388.76953125" xlink:href="#DejaVuSans-52"/>
      <use x="456.001953125" xlink:href="#DejaVuSans-61"/>
      <use x="517.28125" xlink:href="#DejaVuSans-74"/>
      <use x="556.490234375" xlink:href="#DejaVuSans-69"/>
      <use x="584.2734375" xlink:href="#DejaVuSans-6e"/>
      <use x="647.65234375" xlink:href="#DejaVuSans-67"/>
      <use x="711.12890625" xlink:href="#DejaVuSans-73"/>
     </g>
    </g>
   </g>
   <g id="matplotlib.axis_6">
    <g id="ytick_15">
     <g id="line2d_60">
      <g>
       <use style="stroke:#000000;stroke-linecap:butt;stroke-width:0.5;" x="69.3225" xlink:href="#me8a85f7bf6" y="386.720920196"/>
      </g>
     </g>
     <g id="line2d_61">
      <g>
       <use style="stroke:#000000;stroke-linecap:butt;stroke-width:0.5;" x="277.737578125" xlink:href="#m1a32005dea" y="386.720920196"/>
      </g>
     </g>
     <g id="text_33">
      <!-- −0.12 -->
      <g transform="translate(31.02125 391.088732696)scale(0.12 -0.12)">
       <use xlink:href="#DejaVuSans-2212"/>
       <use x="83.7890625" xlink:href="#DejaVuSans-30"/>
       <use x="147.412109375" xlink:href="#DejaVuSans-2e"/>
       <use x="179.19921875" xlink:href="#DejaVuSans-31"/>
       <use x="242.822265625" xlink:href="#DejaVuSans-32"/>
      </g>
     </g>
    </g>
    <g id="ytick_16">
     <g id="line2d_62">
      <g>
       <use style="stroke:#000000;stroke-linecap:butt;stroke-width:0.5;" x="69.3225" xlink:href="#me8a85f7bf6" y="363.66506961"/>
      </g>
     </g>
     <g id="line2d_63">
      <g>
       <use style="stroke:#000000;stroke-linecap:butt;stroke-width:0.5;" x="277.737578125" xlink:href="#m1a32005dea" y="363.66506961"/>
      </g>
     </g>
     <g id="text_34">
      <!-- −0.10 -->
      <g transform="translate(30.61625 368.03288211)scale(0.12 -0.12)">
       <use xlink:href="#DejaVuSans-2212"/>
       <use x="83.7890625" xlink:href="#DejaVuSans-30"/>
       <use x="147.412109375" xlink:href="#DejaVuSans-2e"/>
       <use x="179.19921875" xlink:href="#DejaVuSans-31"/>
       <use x="242.822265625" xlink:href="#DejaVuSans-30"/>
      </g>
     </g>
    </g>
    <g id="ytick_17">
     <g id="line2d_64">
      <g>
       <use style="stroke:#000000;stroke-linecap:butt;stroke-width:0.5;" x="69.3225" xlink:href="#me8a85f7bf6" y="340.609219025"/>
      </g>
     </g>
     <g id="line2d_65">
      <g>
       <use style="stroke:#000000;stroke-linecap:butt;stroke-width:0.5;" x="277.737578125" xlink:href="#m1a32005dea" y="340.609219025"/>
      </g>
     </g>
     <g id="text_35">
      <!-- −0.08 -->
      <g transform="translate(30.640625 344.977031525)scale(0.12 -0.12)">
       <use xlink:href="#DejaVuSans-2212"/>
       <use x="83.7890625" xlink:href="#DejaVuSans-30"/>
       <use x="147.412109375" xlink:href="#DejaVuSans-2e"/>
       <use x="179.19921875" xlink:href="#DejaVuSans-30"/>
       <use x="242.822265625" xlink:href="#DejaVuSans-38"/>
      </g>
     </g>
    </g>
    <g id="ytick_18">
     <g id="line2d_66">
      <g>
       <use style="stroke:#000000;stroke-linecap:butt;stroke-width:0.5;" x="69.3225" xlink:href="#me8a85f7bf6" y="317.553368439"/>
      </g>
     </g>
     <g id="line2d_67">
      <g>
       <use style="stroke:#000000;stroke-linecap:butt;stroke-width:0.5;" x="277.737578125" xlink:href="#m1a32005dea" y="317.553368439"/>
      </g>
     </g>
     <g id="text_36">
      <!-- −0.06 -->
      <g transform="translate(30.575 321.921180939)scale(0.12 -0.12)">
       <use xlink:href="#DejaVuSans-2212"/>
       <use x="83.7890625" xlink:href="#DejaVuSans-30"/>
       <use x="147.412109375" xlink:href="#DejaVuSans-2e"/>
       <use x="179.19921875" xlink:href="#DejaVuSans-30"/>
       <use x="242.822265625" xlink:href="#DejaVuSans-36"/>
      </g>
     </g>
    </g>
    <g id="ytick_19">
     <g id="line2d_68">
      <g>
       <use style="stroke:#000000;stroke-linecap:butt;stroke-width:0.5;" x="69.3225" xlink:href="#me8a85f7bf6" y="294.497517853"/>
      </g>
     </g>
     <g id="line2d_69">
      <g>
       <use style="stroke:#000000;stroke-linecap:butt;stroke-width:0.5;" x="277.737578125" xlink:href="#m1a32005dea" y="294.497517853"/>
      </g>
     </g>
     <g id="text_37">
      <!-- −0.04 -->
      <g transform="translate(30.4925 298.865330353)scale(0.12 -0.12)">
       <use xlink:href="#DejaVuSans-2212"/>
       <use x="83.7890625" xlink:href="#DejaVuSans-30"/>
       <use x="147.412109375" xlink:href="#DejaVuSans-2e"/>
       <use x="179.19921875" xlink:href="#DejaVuSans-30"/>
       <use x="242.822265625" xlink:href="#DejaVuSans-34"/>
      </g>
     </g>
    </g>
    <g id="ytick_20">
     <g id="line2d_70">
      <g>
       <use style="stroke:#000000;stroke-linecap:butt;stroke-width:0.5;" x="69.3225" xlink:href="#me8a85f7bf6" y="271.441667267"/>
      </g>
     </g>
     <g id="line2d_71">
      <g>
       <use style="stroke:#000000;stroke-linecap:butt;stroke-width:0.5;" x="277.737578125" xlink:href="#m1a32005dea" y="271.441667267"/>
      </g>
     </g>
     <g id="text_38">
      <!-- −0.02 -->
      <g transform="translate(31.02125 275.809479767)scale(0.12 -0.12)">
       <use xlink:href="#DejaVuSans-2212"/>
       <use x="83.7890625" xlink:href="#DejaVuSans-30"/>
       <use x="147.412109375" xlink:href="#DejaVuSans-2e"/>
       <use x="179.19921875" xlink:href="#DejaVuSans-30"/>
       <use x="242.822265625" xlink:href="#DejaVuSans-32"/>
      </g>
     </g>
    </g>
    <g id="ytick_21">
     <g id="line2d_72">
      <g>
       <use style="stroke:#000000;stroke-linecap:butt;stroke-width:0.5;" x="69.3225" xlink:href="#me8a85f7bf6" y="248.385816682"/>
      </g>
     </g>
     <g id="line2d_73">
      <g>
       <use style="stroke:#000000;stroke-linecap:butt;stroke-width:0.5;" x="277.737578125" xlink:href="#m1a32005dea" y="248.385816682"/>
      </g>
     </g>
     <g id="text_39">
      <!-- 0.00 -->
      <g transform="translate(40.191875 252.753629182)scale(0.12 -0.12)">
       <use xlink:href="#DejaVuSans-30"/>
       <use x="63.623046875" xlink:href="#DejaVuSans-2e"/>
       <use x="95.41015625" xlink:href="#DejaVuSans-30"/>
       <use x="159.033203125" xlink:href="#DejaVuSans-30"/>
      </g>
     </g>
    </g>
    <g id="text_40">
     <!-- Partial Dependence -->
     <g transform="translate(25.4925 364.742741168)rotate(-90.0)scale(0.12 -0.12)">
      <use xlink:href="#DejaVuSans-50"/>
      <use x="55.802734375" xlink:href="#DejaVuSans-61"/>
      <use x="117.08203125" xlink:href="#DejaVuSans-72"/>
      <use x="158.1953125" xlink:href="#DejaVuSans-74"/>
      <use x="197.404296875" xlink:href="#DejaVuSans-69"/>
      <use x="225.1875" xlink:href="#DejaVuSans-61"/>
      <use x="286.466796875" xlink:href="#DejaVuSans-6c"/>
      <use x="314.25" xlink:href="#DejaVuSans-20"/>
      <use x="346.037109375" xlink:href="#DejaVuSans-44"/>
      <use x="423.0390625" xlink:href="#DejaVuSans-65"/>
      <use x="484.5625" xlink:href="#DejaVuSans-70"/>
      <use x="548.0390625" xlink:href="#DejaVuSans-65"/>
      <use x="609.5625" xlink:href="#DejaVuSans-6e"/>
      <use x="672.94140625" xlink:href="#DejaVuSans-64"/>
      <use x="736.41796875" xlink:href="#DejaVuSans-65"/>
      <use x="797.94140625" xlink:href="#DejaVuSans-6e"/>
      <use x="861.3203125" xlink:href="#DejaVuSans-63"/>
      <use x="916.30078125" xlink:href="#DejaVuSans-65"/>
     </g>
    </g>
   </g>
   <g id="patch_13">
    <path d="
M69.3225 229.335
L277.738 229.335" style="fill:none;stroke:#000000;"/>
   </g>
   <g id="patch_14">
    <path d="
M277.738 388.44
L277.738 229.335" style="fill:none;stroke:#000000;"/>
   </g>
   <g id="patch_15">
    <path d="
M69.3225 388.44
L277.738 388.44" style="fill:none;stroke:#000000;"/>
   </g>
   <g id="patch_16">
    <path d="
M69.3225 388.44
L69.3225 229.335" style="fill:none;stroke:#000000;"/>
   </g>
  </g>
  <g id="axes_4">
   <g id="patch_17">
    <path d="
M342.011 388.44
L550.426 388.44
L550.426 229.335
L342.011 229.335
z
" style="fill:#ffffff;"/>
   </g>
   <g id="LineCollection_4">
    <defs>
     <path d="
M364.724 -43.56
L364.724 -51.5153" id="C3_0_bfc889e530"/>
     <path d="
M368.625 -43.56
L368.625 -51.5153" id="C3_1_f4bcf949b1"/>
     <path d="
M372.706 -43.56
L372.706 -51.5153" id="C3_2_c4e3150948"/>
     <path d="
M377.732 -43.56
L377.732 -51.5153" id="C3_3_e86bf9a453"/>
     <path d="
M381.953 -43.56
L381.953 -51.5153" id="C3_4_8c056f833a"/>
     <path d="
M390.98 -43.56
L390.98 -51.5153" id="C3_5_cb1f0cc3c9"/>
     <path d="
M407.305 -43.56
L407.305 -51.5153" id="C3_6_33eeb749d1"/>
     <path d="
M436.946 -43.56
L436.946 -51.5153" id="C3_7_bc755e567d"/>
     <path d="
M475.798 -43.56
L475.798 -51.5153" id="C3_8_6508bc8125"/>
    </defs>
    <g clip-path="url(#p8f358f30ae)">
     <use style="fill:none;stroke:#000000;stroke-linecap:butt;" x="0" xlink:href="#C3_0_bfc889e530" y="432.0"/>
    </g>
    <g clip-path="url(#p8f358f30ae)">
     <use style="fill:none;stroke:#000000;stroke-linecap:butt;" x="0" xlink:href="#C3_1_f4bcf949b1" y="432.0"/>
    </g>
    <g clip-path="url(#p8f358f30ae)">
     <use style="fill:none;stroke:#000000;stroke-linecap:butt;" x="0" xlink:href="#C3_2_c4e3150948" y="432.0"/>
    </g>
    <g clip-path="url(#p8f358f30ae)">
     <use style="fill:none;stroke:#000000;stroke-linecap:butt;" x="0" xlink:href="#C3_3_e86bf9a453" y="432.0"/>
    </g>
    <g clip-path="url(#p8f358f30ae)">
     <use style="fill:none;stroke:#000000;stroke-linecap:butt;" x="0" xlink:href="#C3_4_8c056f833a" y="432.0"/>
    </g>
    <g clip-path="url(#p8f358f30ae)">
     <use style="fill:none;stroke:#000000;stroke-linecap:butt;" x="0" xlink:href="#C3_5_cb1f0cc3c9" y="432.0"/>
    </g>
    <g clip-path="url(#p8f358f30ae)">
     <use style="fill:none;stroke:#000000;stroke-linecap:butt;" x="0" xlink:href="#C3_6_33eeb749d1" y="432.0"/>
    </g>
    <g clip-path="url(#p8f358f30ae)">
     <use style="fill:none;stroke:#000000;stroke-linecap:butt;" x="0" xlink:href="#C3_7_bc755e567d" y="432.0"/>
    </g>
    <g clip-path="url(#p8f358f30ae)">
     <use style="fill:none;stroke:#000000;stroke-linecap:butt;" x="0" xlink:href="#C3_8_6508bc8125" y="432.0"/>
    </g>
   </g>
   <g id="line2d_74">
    <path clip-path="url(#p8f358f30ae)" d="
M362.2 334.44
L363.916 324.099
L365.632 322.84
L367.347 322.396
L369.063 297.334
L370.779 298.343
L372.495 297.748
L374.21 297.686
L375.926 295.804
L377.642 295.41
L379.358 289.754
L381.073 287.208
L382.789 287.208
L384.505 287.208
L386.221 287.208
L387.936 290.981
L389.652 292.487
L391.368 292.487
L393.084 292.49
L394.799 292.49
L396.515 283.72
L398.231 283.72
L399.947 283.72
L401.662 283.697
L403.378 276.152
L405.094 276.021
L406.81 270.294
L408.525 247.894
L410.241 246.028
L411.957 246.028
L413.673 246.028
L415.388 246.028
L417.104 246.12
L418.82 246.12
L420.536 246.12
L422.251 246.204
L423.967 246.307
L425.683 247.127
L427.399 246.981
L429.114 246.981
L430.83 247.262
L432.546 247.262
L434.262 247.262
L435.977 247.262
L437.693 247.262
L439.409 247.262
L441.125 247.14
L442.84 247.14
L444.556 247.14
L446.272 247.14
L447.988 247.14
L449.703 247.14
L451.419 247.14
L453.135 247.14
L454.851 248.905
L456.566 248.905
L458.282 248.905
L459.998 248.905
L461.714 248.805
L463.43 248.805
L465.145 239.914
L466.861 237.44
L468.577 235.961
L470.293 231.43
L472.008 231.341
L473.724 231.341
L475.44 231.341
L477.156 229.335
L478.871 229.335
L480.587 231.469
L482.303 231.534
L484.019 231.534
L485.734 231.534
L487.45 231.534
L489.166 231.534
L490.882 231.534
L492.597 231.534
L494.313 231.534
L496.029 231.534
L497.745 231.534
L499.46 231.534
L501.176 231.534
L502.892 229.665
L504.608 229.665
L506.323 229.665
L508.039 229.665
L509.755 229.665
L511.471 229.665
L513.186 229.665
L514.902 229.665
L516.618 229.665
L518.334 229.665
L520.049 229.665
L521.765 229.665
L523.481 229.665
L525.197 229.665
L526.912 229.665
L528.628 229.665
L530.344 229.665
L532.06 229.665" style="fill:none;stroke:#008000;"/>
   </g>
   <g id="matplotlib.axis_7">
    <g id="xtick_15">
     <g id="line2d_75">
      <g>
       <use style="stroke:#000000;stroke-linecap:butt;stroke-width:0.5;" x="365.168090278" xlink:href="#m0012dd4eef" y="388.44"/>
      </g>
     </g>
     <g id="line2d_76">
      <g>
       <use style="stroke:#000000;stroke-linecap:butt;stroke-width:0.5;" x="365.168090278" xlink:href="#m476344969c" y="229.334857337"/>
      </g>
     </g>
     <g id="text_41">
      <!-- −0.2 -->
      <g transform="translate(351.834965278 401.34625)scale(0.12 -0.12)">
       <use xlink:href="#DejaVuSans-2212"/>
       <use x="83.7890625" xlink:href="#DejaVuSans-30"/>
       <use x="147.412109375" xlink:href="#DejaVuSans-2e"/>
       <use x="179.19921875" xlink:href="#DejaVuSans-32"/>
      </g>
     </g>
    </g>
    <g id="xtick_16">
     <g id="line2d_77">
      <g>
       <use style="stroke:#000000;stroke-linecap:butt;stroke-width:0.5;" x="411.482552083" xlink:href="#m0012dd4eef" y="388.44"/>
      </g>
     </g>
     <g id="line2d_78">
      <g>
       <use style="stroke:#000000;stroke-linecap:butt;stroke-width:0.5;" x="411.482552083" xlink:href="#m476344969c" y="229.334857337"/>
      </g>
     </g>
     <g id="text_42">
      <!-- −0.1 -->
      <g transform="translate(398.102552083 401.34625)scale(0.12 -0.12)">
       <use xlink:href="#DejaVuSans-2212"/>
       <use x="83.7890625" xlink:href="#DejaVuSans-30"/>
       <use x="147.412109375" xlink:href="#DejaVuSans-2e"/>
       <use x="179.19921875" xlink:href="#DejaVuSans-31"/>
      </g>
     </g>
    </g>
    <g id="xtick_17">
     <g id="line2d_79">
      <g>
       <use style="stroke:#000000;stroke-linecap:butt;stroke-width:0.5;" x="457.797013889" xlink:href="#m0012dd4eef" y="388.44"/>
      </g>
     </g>
     <g id="line2d_80">
      <g>
       <use style="stroke:#000000;stroke-linecap:butt;stroke-width:0.5;" x="457.797013889" xlink:href="#m476344969c" y="229.334857337"/>
      </g>
     </g>
     <g id="text_43">
      <!-- 0.0 -->
      <g transform="translate(449.049201389 401.34625)scale(0.12 -0.12)">
       <use xlink:href="#DejaVuSans-30"/>
       <use x="63.623046875" xlink:href="#DejaVuSans-2e"/>
       <use x="95.41015625" xlink:href="#DejaVuSans-30"/>
      </g>
     </g>
    </g>
    <g id="xtick_18">
     <g id="line2d_81">
      <g>
       <use style="stroke:#000000;stroke-linecap:butt;stroke-width:0.5;" x="504.111475694" xlink:href="#m0012dd4eef" y="388.44"/>
      </g>
     </g>
     <g id="line2d_82">
      <g>
       <use style="stroke:#000000;stroke-linecap:butt;stroke-width:0.5;" x="504.111475694" xlink:href="#m476344969c" y="229.334857337"/>
      </g>
     </g>
     <g id="text_44">
      <!-- 0.1 -->
      <g transform="translate(495.519288194 401.34625)scale(0.12 -0.12)">
       <use xlink:href="#DejaVuSans-30"/>
       <use x="63.623046875" xlink:href="#DejaVuSans-2e"/>
       <use x="95.41015625" xlink:href="#DejaVuSans-31"/>
      </g>
     </g>
    </g>
    <g id="xtick_19">
     <g id="line2d_83">
      <g>
       <use style="stroke:#000000;stroke-linecap:butt;stroke-width:0.5;" x="550.4259375" xlink:href="#m0012dd4eef" y="388.44"/>
      </g>
     </g>
     <g id="line2d_84">
      <g>
       <use style="stroke:#000000;stroke-linecap:butt;stroke-width:0.5;" x="550.4259375" xlink:href="#m476344969c" y="229.334857337"/>
      </g>
     </g>
     <g id="text_45">
      <!-- 0.2 -->
      <g transform="translate(541.880625 401.34625)scale(0.12 -0.12)">
       <use xlink:href="#DejaVuSans-30"/>
       <use x="63.623046875" xlink:href="#DejaVuSans-2e"/>
       <use x="95.41015625" xlink:href="#DejaVuSans-32"/>
      </g>
     </g>
    </g>
    <g id="text_46">
     <!-- pictureCount -->
     <g transform="translate(408.135273438 415.635)scale(0.12 -0.12)">
      <use xlink:href="#DejaVuSans-70"/>
      <use x="63.4765625" xlink:href="#DejaVuSans-69"/>
      <use x="91.259765625" xlink:href="#DejaVuSans-63"/>
      <use x="146.240234375" xlink:href="#DejaVuSans-74"/>
      <use x="185.44921875" xlink:href="#DejaVuSans-75"/>
      <use x="248.828125" xlink:href="#DejaVuSans-72"/>
      <use x="287.69140625" xlink:href="#DejaVuSans-65"/>
      <use x="349.21484375" xlink:href="#DejaVuSans-43"/>
      <use x="419.0390625" xlink:href="#DejaVuSans-6f"/>
      <use x="480.220703125" xlink:href="#DejaVuSans-75"/>
      <use x="543.599609375" xlink:href="#DejaVuSans-6e"/>
      <use x="606.978515625" xlink:href="#DejaVuSans-74"/>
     </g>
    </g>
   </g>
   <g id="matplotlib.axis_8">
    <g id="ytick_22">
     <g id="line2d_85">
      <g>
       <use style="stroke:#000000;stroke-linecap:butt;stroke-width:0.5;" x="342.010859375" xlink:href="#me8a85f7bf6" y="386.720920196"/>
      </g>
     </g>
     <g id="line2d_86">
      <g>
       <use style="stroke:#000000;stroke-linecap:butt;stroke-width:0.5;" x="550.4259375" xlink:href="#m1a32005dea" y="386.720920196"/>
      </g>
     </g>
     <g id="text_47">
      <!-- −0.12 -->
      <g transform="translate(303.709609375 391.088732696)scale(0.12 -0.12)">
       <use xlink:href="#DejaVuSans-2212"/>
       <use x="83.7890625" xlink:href="#DejaVuSans-30"/>
       <use x="147.412109375" xlink:href="#DejaVuSans-2e"/>
       <use x="179.19921875" xlink:href="#DejaVuSans-31"/>
       <use x="242.822265625" xlink:href="#DejaVuSans-32"/>
      </g>
     </g>
    </g>
    <g id="ytick_23">
     <g id="line2d_87">
      <g>
       <use style="stroke:#000000;stroke-linecap:butt;stroke-width:0.5;" x="342.010859375" xlink:href="#me8a85f7bf6" y="363.66506961"/>
      </g>
     </g>
     <g id="line2d_88">
      <g>
       <use style="stroke:#000000;stroke-linecap:butt;stroke-width:0.5;" x="550.4259375" xlink:href="#m1a32005dea" y="363.66506961"/>
      </g>
     </g>
     <g id="text_48">
      <!-- −0.10 -->
      <g transform="translate(303.304609375 368.03288211)scale(0.12 -0.12)">
       <use xlink:href="#DejaVuSans-2212"/>
       <use x="83.7890625" xlink:href="#DejaVuSans-30"/>
       <use x="147.412109375" xlink:href="#DejaVuSans-2e"/>
       <use x="179.19921875" xlink:href="#DejaVuSans-31"/>
       <use x="242.822265625" xlink:href="#DejaVuSans-30"/>
      </g>
     </g>
    </g>
    <g id="ytick_24">
     <g id="line2d_89">
      <g>
       <use style="stroke:#000000;stroke-linecap:butt;stroke-width:0.5;" x="342.010859375" xlink:href="#me8a85f7bf6" y="340.609219025"/>
      </g>
     </g>
     <g id="line2d_90">
      <g>
       <use style="stroke:#000000;stroke-linecap:butt;stroke-width:0.5;" x="550.4259375" xlink:href="#m1a32005dea" y="340.609219025"/>
      </g>
     </g>
     <g id="text_49">
      <!-- −0.08 -->
      <g transform="translate(303.328984375 344.977031525)scale(0.12 -0.12)">
       <use xlink:href="#DejaVuSans-2212"/>
       <use x="83.7890625" xlink:href="#DejaVuSans-30"/>
       <use x="147.412109375" xlink:href="#DejaVuSans-2e"/>
       <use x="179.19921875" xlink:href="#DejaVuSans-30"/>
       <use x="242.822265625" xlink:href="#DejaVuSans-38"/>
      </g>
     </g>
    </g>
    <g id="ytick_25">
     <g id="line2d_91">
      <g>
       <use style="stroke:#000000;stroke-linecap:butt;stroke-width:0.5;" x="342.010859375" xlink:href="#me8a85f7bf6" y="317.553368439"/>
      </g>
     </g>
     <g id="line2d_92">
      <g>
       <use style="stroke:#000000;stroke-linecap:butt;stroke-width:0.5;" x="550.4259375" xlink:href="#m1a32005dea" y="317.553368439"/>
      </g>
     </g>
     <g id="text_50">
      <!-- −0.06 -->
      <g transform="translate(303.263359375 321.921180939)scale(0.12 -0.12)">
       <use xlink:href="#DejaVuSans-2212"/>
       <use x="83.7890625" xlink:href="#DejaVuSans-30"/>
       <use x="147.412109375" xlink:href="#DejaVuSans-2e"/>
       <use x="179.19921875" xlink:href="#DejaVuSans-30"/>
       <use x="242.822265625" xlink:href="#DejaVuSans-36"/>
      </g>
     </g>
    </g>
    <g id="ytick_26">
     <g id="line2d_93">
      <g>
       <use style="stroke:#000000;stroke-linecap:butt;stroke-width:0.5;" x="342.010859375" xlink:href="#me8a85f7bf6" y="294.497517853"/>
      </g>
     </g>
     <g id="line2d_94">
      <g>
       <use style="stroke:#000000;stroke-linecap:butt;stroke-width:0.5;" x="550.4259375" xlink:href="#m1a32005dea" y="294.497517853"/>
      </g>
     </g>
     <g id="text_51">
      <!-- −0.04 -->
      <g transform="translate(303.180859375 298.865330353)scale(0.12 -0.12)">
       <use xlink:href="#DejaVuSans-2212"/>
       <use x="83.7890625" xlink:href="#DejaVuSans-30"/>
       <use x="147.412109375" xlink:href="#DejaVuSans-2e"/>
       <use x="179.19921875" xlink:href="#DejaVuSans-30"/>
       <use x="242.822265625" xlink:href="#DejaVuSans-34"/>
      </g>
     </g>
    </g>
    <g id="ytick_27">
     <g id="line2d_95">
      <g>
       <use style="stroke:#000000;stroke-linecap:butt;stroke-width:0.5;" x="342.010859375" xlink:href="#me8a85f7bf6" y="271.441667267"/>
      </g>
     </g>
     <g id="line2d_96">
      <g>
       <use style="stroke:#000000;stroke-linecap:butt;stroke-width:0.5;" x="550.4259375" xlink:href="#m1a32005dea" y="271.441667267"/>
      </g>
     </g>
     <g id="text_52">
      <!-- −0.02 -->
      <g transform="translate(303.709609375 275.809479767)scale(0.12 -0.12)">
       <use xlink:href="#DejaVuSans-2212"/>
       <use x="83.7890625" xlink:href="#DejaVuSans-30"/>
       <use x="147.412109375" xlink:href="#DejaVuSans-2e"/>
       <use x="179.19921875" xlink:href="#DejaVuSans-30"/>
       <use x="242.822265625" xlink:href="#DejaVuSans-32"/>
      </g>
     </g>
    </g>
    <g id="ytick_28">
     <g id="line2d_97">
      <g>
       <use style="stroke:#000000;stroke-linecap:butt;stroke-width:0.5;" x="342.010859375" xlink:href="#me8a85f7bf6" y="248.385816682"/>
      </g>
     </g>
     <g id="line2d_98">
      <g>
       <use style="stroke:#000000;stroke-linecap:butt;stroke-width:0.5;" x="550.4259375" xlink:href="#m1a32005dea" y="248.385816682"/>
      </g>
     </g>
     <g id="text_53">
      <!-- 0.00 -->
      <g transform="translate(312.880234375 252.753629182)scale(0.12 -0.12)">
       <use xlink:href="#DejaVuSans-30"/>
       <use x="63.623046875" xlink:href="#DejaVuSans-2e"/>
       <use x="95.41015625" xlink:href="#DejaVuSans-30"/>
       <use x="159.033203125" xlink:href="#DejaVuSans-30"/>
      </g>
     </g>
    </g>
   </g>
   <g id="patch_18">
    <path d="
M342.011 229.335
L550.426 229.335" style="fill:none;stroke:#000000;"/>
   </g>
   <g id="patch_19">
    <path d="
M550.426 388.44
L550.426 229.335" style="fill:none;stroke:#000000;"/>
   </g>
   <g id="patch_20">
    <path d="
M342.011 388.44
L550.426 388.44" style="fill:none;stroke:#000000;"/>
   </g>
   <g id="patch_21">
    <path d="
M342.011 388.44
L342.011 229.335" style="fill:none;stroke:#000000;"/>
   </g>
  </g>
  <g id="text_54">
   <!-- Partial dependence of privacy comfort score on most important features -->
   <defs>
    <path d="
M32.1719 -5.07812
Q28.375 -14.8438 24.75 -17.8125
Q21.1406 -20.7969 15.0938 -20.7969
L7.90625 -20.7969
L7.90625 -13.2812
L13.1875 -13.2812
Q16.8906 -13.2812 18.9375 -11.5156
Q21 -9.76562 23.4844 -3.21875
L25.0938 0.875
L2.98438 54.6875
L12.5 54.6875
L29.5938 11.9219
L46.6875 54.6875
L56.2031 54.6875
z
" id="DejaVuSans-79"/>
   </defs>
   <g transform="translate(70.9434375 17.758125)scale(0.12 -0.12)">
    <use xlink:href="#DejaVuSans-50"/>
    <use x="55.802734375" xlink:href="#DejaVuSans-61"/>
    <use x="117.08203125" xlink:href="#DejaVuSans-72"/>
    <use x="158.1953125" xlink:href="#DejaVuSans-74"/>
    <use x="197.404296875" xlink:href="#DejaVuSans-69"/>
    <use x="225.1875" xlink:href="#DejaVuSans-61"/>
    <use x="286.466796875" xlink:href="#DejaVuSans-6c"/>
    <use x="314.25" xlink:href="#DejaVuSans-20"/>
    <use x="346.037109375" xlink:href="#DejaVuSans-64"/>
    <use x="409.513671875" xlink:href="#DejaVuSans-65"/>
    <use x="471.037109375" xlink:href="#DejaVuSans-70"/>
    <use x="534.513671875" xlink:href="#DejaVuSans-65"/>
    <use x="596.037109375" xlink:href="#DejaVuSans-6e"/>
    <use x="659.416015625" xlink:href="#DejaVuSans-64"/>
    <use x="722.892578125" xlink:href="#DejaVuSans-65"/>
    <use x="784.416015625" xlink:href="#DejaVuSans-6e"/>
    <use x="847.794921875" xlink:href="#DejaVuSans-63"/>
    <use x="902.775390625" xlink:href="#DejaVuSans-65"/>
    <use x="964.298828125" xlink:href="#DejaVuSans-20"/>
    <use x="996.0859375" xlink:href="#DejaVuSans-6f"/>
    <use x="1057.26757812" xlink:href="#DejaVuSans-66"/>
    <use x="1092.47265625" xlink:href="#DejaVuSans-20"/>
    <use x="1124.25976562" xlink:href="#DejaVuSans-70"/>
    <use x="1187.73632812" xlink:href="#DejaVuSans-72"/>
    <use x="1228.84960938" xlink:href="#DejaVuSans-69"/>
    <use x="1256.6328125" xlink:href="#DejaVuSans-76"/>
    <use x="1315.8125" xlink:href="#DejaVuSans-61"/>
    <use x="1377.09179688" xlink:href="#DejaVuSans-63"/>
    <use x="1432.07226562" xlink:href="#DejaVuSans-79"/>
    <use x="1491.25195312" xlink:href="#DejaVuSans-20"/>
    <use x="1523.0390625" xlink:href="#DejaVuSans-63"/>
    <use x="1578.01953125" xlink:href="#DejaVuSans-6f"/>
    <use x="1639.20117188" xlink:href="#DejaVuSans-6d"/>
    <use x="1736.61328125" xlink:href="#DejaVuSans-66"/>
    <use x="1771.81835938" xlink:href="#DejaVuSans-6f"/>
    <use x="1833.0" xlink:href="#DejaVuSans-72"/>
    <use x="1874.11328125" xlink:href="#DejaVuSans-74"/>
    <use x="1913.32226562" xlink:href="#DejaVuSans-20"/>
    <use x="1945.109375" xlink:href="#DejaVuSans-73"/>
    <use x="1997.20898438" xlink:href="#DejaVuSans-63"/>
    <use x="2052.18945312" xlink:href="#DejaVuSans-6f"/>
    <use x="2113.37109375" xlink:href="#DejaVuSans-72"/>
    <use x="2152.234375" xlink:href="#DejaVuSans-65"/>
    <use x="2213.7578125" xlink:href="#DejaVuSans-20"/>
    <use x="2245.54492188" xlink:href="#DejaVuSans-6f"/>
    <use x="2306.7265625" xlink:href="#DejaVuSans-6e"/>
    <use x="2370.10546875" xlink:href="#DejaVuSans-20"/>
    <use x="2401.89257812" xlink:href="#DejaVuSans-6d"/>
    <use x="2499.3046875" xlink:href="#DejaVuSans-6f"/>
    <use x="2560.48632812" xlink:href="#DejaVuSans-73"/>
    <use x="2612.5859375" xlink:href="#DejaVuSans-74"/>
    <use x="2651.79492188" xlink:href="#DejaVuSans-20"/>
    <use x="2683.58203125" xlink:href="#DejaVuSans-69"/>
    <use x="2711.36523438" xlink:href="#DejaVuSans-6d"/>
    <use x="2808.77734375" xlink:href="#DejaVuSans-70"/>
    <use x="2872.25390625" xlink:href="#DejaVuSans-6f"/>
    <use x="2933.43554688" xlink:href="#DejaVuSans-72"/>
    <use x="2974.54882812" xlink:href="#DejaVuSans-74"/>
    <use x="3013.7578125" xlink:href="#DejaVuSans-61"/>
    <use x="3075.03710938" xlink:href="#DejaVuSans-6e"/>
    <use x="3138.41601562" xlink:href="#DejaVuSans-74"/>
    <use x="3177.625" xlink:href="#DejaVuSans-20"/>
    <use x="3209.41210938" xlink:href="#DejaVuSans-66"/>
    <use x="3244.6171875" xlink:href="#DejaVuSans-65"/>
    <use x="3306.140625" xlink:href="#DejaVuSans-61"/>
    <use x="3367.41992188" xlink:href="#DejaVuSans-74"/>
    <use x="3406.62890625" xlink:href="#DejaVuSans-75"/>
    <use x="3470.0078125" xlink:href="#DejaVuSans-72"/>
    <use x="3508.87109375" xlink:href="#DejaVuSans-65"/>
    <use x="3570.39453125" xlink:href="#DejaVuSans-73"/>
   </g>
  </g>
 </g>
 <defs>
  <clipPath id="p02fce3ceea">
   <rect height="159.105142663" width="208.415078125" x="69.3225" y="19.814857337"/>
  </clipPath>
  <clipPath id="pfa05700c5e">
   <rect height="159.105142663" width="208.415078125" x="342.010859375" y="19.814857337"/>
  </clipPath>
  <clipPath id="pa11e8ae255">
   <rect height="159.105142663" width="208.415078125" x="69.3225" y="229.334857337"/>
  </clipPath>
  <clipPath id="p8f358f30ae">
   <rect height="159.105142663" width="208.415078125" x="342.010859375" y="229.334857337"/>
  </clipPath>
 </defs>
</svg>
