<?xml version="1.0" encoding="utf-8" standalone="no"?>
<!DOCTYPE svg PUBLIC "-//W3C//DTD SVG 1.1//EN"
  "http://www.w3.org/Graphics/SVG/1.1/DTD/svg11.dtd">
<!-- Created with matplotlib (http://matplotlib.sourceforge.net/) -->
<svg height="432pt" version="1.1" viewBox="0 0 576 432" width="576pt" xmlns="http://www.w3.org/2000/svg" xmlns:xlink="http://www.w3.org/1999/xlink">
 <defs>
  <style type="text/css">
*{stroke-linecap:square;stroke-linejoin:round;}
  </style>
 </defs>
 <g id="figure_1">
  <g id="patch_1">
   <path d="
M0 432
L576 432
L576 0
L0 0
z
" style="fill:#ffffff;"/>
  </g>
  <g id="axes_1">
   <g id="patch_2">
    <path d="
M59.7881 178.92
L286.927 178.92
L286.927 19.8149
L59.7881 19.8149
z
" style="fill:#ffffff;"/>
   </g>
   <g id="LineCollection_1">
    <defs>
     <path d="
M84.6083 -253.08
L84.6083 -261.035" id="C0_0_aaa395ef88"/>
     <path d="
M84.6764 -253.08
L84.6764 -261.035" id="C0_1_316b6d7466"/>
     <path d="
M84.7819 -253.08
L84.7819 -261.035" id="C0_2_57f6803e3c"/>
     <path d="
M85.1309 -253.08
L85.1309 -261.035" id="C0_3_1088c4fd87"/>
     <path d="
M86.4269 -253.08
L86.4269 -261.035" id="C0_4_a6b32ebe46"/>
     <path d="
M105.69 -253.08
L105.69 -261.035" id="C0_5_d2fd83f4f8"/>
     <path d="
M122.717 -253.08
L122.717 -261.035" id="C0_6_9e901442ce"/>
     <path d="
M138.442 -253.08
L138.442 -261.035" id="C0_7_cd8efa1107"/>
     <path d="
M164.045 -253.08
L164.045 -261.035" id="C0_8_fd505ecf50"/>
    </defs>
    <g clip-path="url(#p7c68522b1b)">
     <use style="fill:none;stroke:#000000;stroke-linecap:butt;" x="0" xlink:href="#C0_0_aaa395ef88" y="432.0"/>
    </g>
    <g clip-path="url(#p7c68522b1b)">
     <use style="fill:none;stroke:#000000;stroke-linecap:butt;" x="0" xlink:href="#C0_1_316b6d7466" y="432.0"/>
    </g>
    <g clip-path="url(#p7c68522b1b)">
     <use style="fill:none;stroke:#000000;stroke-linecap:butt;" x="0" xlink:href="#C0_2_57f6803e3c" y="432.0"/>
    </g>
    <g clip-path="url(#p7c68522b1b)">
     <use style="fill:none;stroke:#000000;stroke-linecap:butt;" x="0" xlink:href="#C0_3_1088c4fd87" y="432.0"/>
    </g>
    <g clip-path="url(#p7c68522b1b)">
     <use style="fill:none;stroke:#000000;stroke-linecap:butt;" x="0" xlink:href="#C0_4_a6b32ebe46" y="432.0"/>
    </g>
    <g clip-path="url(#p7c68522b1b)">
     <use style="fill:none;stroke:#000000;stroke-linecap:butt;" x="0" xlink:href="#C0_5_d2fd83f4f8" y="432.0"/>
    </g>
    <g clip-path="url(#p7c68522b1b)">
     <use style="fill:none;stroke:#000000;stroke-linecap:butt;" x="0" xlink:href="#C0_6_9e901442ce" y="432.0"/>
    </g>
    <g clip-path="url(#p7c68522b1b)">
     <use style="fill:none;stroke:#000000;stroke-linecap:butt;" x="0" xlink:href="#C0_7_cd8efa1107" y="432.0"/>
    </g>
    <g clip-path="url(#p7c68522b1b)">
     <use style="fill:none;stroke:#000000;stroke-linecap:butt;" x="0" xlink:href="#C0_8_fd505ecf50" y="432.0"/>
    </g>
   </g>
   <g id="line2d_1">
    <path clip-path="url(#p7c68522b1b)" d="
M84.4268 60.9891
L84.4282 60.9891
L84.5152 61.2347
L84.5476 61.2681
L84.573 61.2681
L84.6083 57.5964
L84.6185 57.5964
L84.6578 56.4382
L84.6622 56.4382
L84.6629 56.4382
L84.6745 56.4382
L84.6767 56.4382
L84.6793 55.9256
L84.6902 55.8949
L84.7076 55.9732
L84.7167 55.9732
L84.7778 55.5053
L84.8459 55.2305
L84.851 55.3762
L84.8943 55.3762
L84.9325 55.3812
L84.9714 55.3812
L85.13 55.3199
L85.1333 55.3199
L85.1729 55.3199
L85.445 51.8868
L85.4985 51.8868
L85.8757 29.289
L86.4018 19.8149
L86.452 19.9366
L87.0031 19.9366
L90.2706 22.1551
L90.8374 22.1551
L94.5068 32.0274
L96.0849 32.0274
L109.426 105.295
L115.667 106.39
L117.954 116.75
L117.989 137.945
L122.098 141.698
L122.638 141.612
L122.722 141.612
L126.192 141.612
L129.936 141.883
L131.742 142.394
L132.126 142.394
L138.365 150.547
L138.848 155.158
L145.309 167.712
L146.549 167.712
L149.224 167.752
L158.538 167.669
L173.029 168.33
L182.355 166.098
L210.562 162.591
L214.87 162.573
L258.896 165.876" style="fill:none;stroke:#008000;"/>
   </g>
   <g id="matplotlib.axis_1">
    <g id="xtick_1">
     <g id="line2d_2">
      <defs>
       <path d="
M0 0
L0 -4" id="m0012dd4eef" style="stroke:#000000;stroke-linecap:butt;stroke-width:0.5;"/>
      </defs>
      <g>
       <use style="stroke:#000000;stroke-linecap:butt;stroke-width:0.5;" x="72.7675038265" xlink:href="#m0012dd4eef" y="178.92"/>
      </g>
     </g>
     <g id="line2d_3">
      <defs>
       <path d="
M0 0
L0 4" id="m476344969c" style="stroke:#000000;stroke-linecap:butt;stroke-width:0.5;"/>
      </defs>
      <g>
       <use style="stroke:#000000;stroke-linecap:butt;stroke-width:0.5;" x="72.7675038265" xlink:href="#m476344969c" y="19.814857337"/>
      </g>
     </g>
     <g id="text_1">
      <!-- −0.08 -->
      <defs>
       <path d="
M31.7812 34.625
Q24.75 34.625 20.7188 30.8594
Q16.7031 27.0938 16.7031 20.5156
Q16.7031 13.9219 20.7188 10.1562
Q24.75 6.39062 31.7812 6.39062
Q38.8125 6.39062 42.8594 10.1719
Q46.9219 13.9688 46.9219 20.5156
Q46.9219 27.0938 42.8906 30.8594
Q38.875 34.625 31.7812 34.625
M21.9219 38.8125
Q15.5781 40.375 12.0312 44.7188
Q8.5 49.0781 8.5 55.3281
Q8.5 64.0625 14.7188 69.1406
Q20.9531 74.2188 31.7812 74.2188
Q42.6719 74.2188 48.875 69.1406
Q55.0781 64.0625 55.0781 55.3281
Q55.0781 49.0781 51.5312 44.7188
Q48 40.375 41.7031 38.8125
Q48.8281 37.1562 52.7969 32.3125
Q56.7812 27.4844 56.7812 20.5156
Q56.7812 9.90625 50.3125 4.23438
Q43.8438 -1.42188 31.7812 -1.42188
Q19.7344 -1.42188 13.25 4.23438
Q6.78125 9.90625 6.78125 20.5156
Q6.78125 27.4844 10.7812 32.3125
Q14.7969 37.1562 21.9219 38.8125
M18.3125 54.3906
Q18.3125 48.7344 21.8438 45.5625
Q25.3906 42.3906 31.7812 42.3906
Q38.1406 42.3906 41.7188 45.5625
Q45.3125 48.7344 45.3125 54.3906
Q45.3125 60.0625 41.7188 63.2344
Q38.1406 66.4062 31.7812 66.4062
Q25.3906 66.4062 21.8438 63.2344
Q18.3125 60.0625 18.3125 54.3906" id="DejaVuSans-38"/>
       <path d="
M31.7812 66.4062
Q24.1719 66.4062 20.3281 58.9062
Q16.5 51.4219 16.5 36.375
Q16.5 21.3906 20.3281 13.8906
Q24.1719 6.39062 31.7812 6.39062
Q39.4531 6.39062 43.2812 13.8906
Q47.125 21.3906 47.125 36.375
Q47.125 51.4219 43.2812 58.9062
Q39.4531 66.4062 31.7812 66.4062
M31.7812 74.2188
Q44.0469 74.2188 50.5156 64.5156
Q56.9844 54.8281 56.9844 36.375
Q56.9844 17.9688 50.5156 8.26562
Q44.0469 -1.42188 31.7812 -1.42188
Q19.5312 -1.42188 13.0625 8.26562
Q6.59375 17.9688 6.59375 36.375
Q6.59375 54.8281 13.0625 64.5156
Q19.5312 74.2188 31.7812 74.2188" id="DejaVuSans-30"/>
       <path d="
M10.6875 12.4062
L21 12.4062
L21 0
L10.6875 0
z
" id="DejaVuSans-2e"/>
       <path d="
M10.5938 35.5
L73.1875 35.5
L73.1875 27.2031
L10.5938 27.2031
z
" id="DejaVuSans-2212"/>
      </defs>
      <g transform="translate(55.4265663265 191.82625)scale(0.12 -0.12)">
       <use xlink:href="#DejaVuSans-2212"/>
       <use x="83.7890625" xlink:href="#DejaVuSans-30"/>
       <use x="147.412109375" xlink:href="#DejaVuSans-2e"/>
       <use x="179.19921875" xlink:href="#DejaVuSans-30"/>
       <use x="242.822265625" xlink:href="#DejaVuSans-38"/>
      </g>
     </g>
    </g>
    <g id="xtick_2">
     <g id="line2d_4">
      <g>
       <use style="stroke:#000000;stroke-linecap:butt;stroke-width:0.5;" x="124.685019133" xlink:href="#m0012dd4eef" y="178.92"/>
      </g>
     </g>
     <g id="line2d_5">
      <g>
       <use style="stroke:#000000;stroke-linecap:butt;stroke-width:0.5;" x="124.685019133" xlink:href="#m476344969c" y="19.814857337"/>
      </g>
     </g>
     <g id="text_2">
      <!-- 0.00 -->
      <g transform="translate(112.119706633 191.82625)scale(0.12 -0.12)">
       <use xlink:href="#DejaVuSans-30"/>
       <use x="63.623046875" xlink:href="#DejaVuSans-2e"/>
       <use x="95.41015625" xlink:href="#DejaVuSans-30"/>
       <use x="159.033203125" xlink:href="#DejaVuSans-30"/>
      </g>
     </g>
    </g>
    <g id="xtick_3">
     <g id="line2d_6">
      <g>
       <use style="stroke:#000000;stroke-linecap:butt;stroke-width:0.5;" x="176.602534439" xlink:href="#m0012dd4eef" y="178.92"/>
      </g>
     </g>
     <g id="line2d_7">
      <g>
       <use style="stroke:#000000;stroke-linecap:butt;stroke-width:0.5;" x="176.602534439" xlink:href="#m476344969c" y="19.814857337"/>
      </g>
     </g>
     <g id="text_3">
      <!-- 0.08 -->
      <g transform="translate(164.049409439 191.82625)scale(0.12 -0.12)">
       <use xlink:href="#DejaVuSans-30"/>
       <use x="63.623046875" xlink:href="#DejaVuSans-2e"/>
       <use x="95.41015625" xlink:href="#DejaVuSans-30"/>
       <use x="159.033203125" xlink:href="#DejaVuSans-38"/>
      </g>
     </g>
    </g>
    <g id="xtick_4">
     <g id="line2d_8">
      <g>
       <use style="stroke:#000000;stroke-linecap:butt;stroke-width:0.5;" x="228.520049745" xlink:href="#m0012dd4eef" y="178.92"/>
      </g>
     </g>
     <g id="line2d_9">
      <g>
       <use style="stroke:#000000;stroke-linecap:butt;stroke-width:0.5;" x="228.520049745" xlink:href="#m476344969c" y="19.814857337"/>
      </g>
     </g>
     <g id="text_4">
      <!-- 0.16 -->
      <defs>
       <path d="
M12.4062 8.29688
L28.5156 8.29688
L28.5156 63.9219
L10.9844 60.4062
L10.9844 69.3906
L28.4219 72.9062
L38.2812 72.9062
L38.2812 8.29688
L54.3906 8.29688
L54.3906 0
L12.4062 0
z
" id="DejaVuSans-31"/>
       <path d="
M33.0156 40.375
Q26.375 40.375 22.4844 35.8281
Q18.6094 31.2969 18.6094 23.3906
Q18.6094 15.5312 22.4844 10.9531
Q26.375 6.39062 33.0156 6.39062
Q39.6562 6.39062 43.5312 10.9531
Q47.4062 15.5312 47.4062 23.3906
Q47.4062 31.2969 43.5312 35.8281
Q39.6562 40.375 33.0156 40.375
M52.5938 71.2969
L52.5938 62.3125
Q48.875 64.0625 45.0938 64.9844
Q41.3125 65.9219 37.5938 65.9219
Q27.8281 65.9219 22.6719 59.3281
Q17.5312 52.7344 16.7969 39.4062
Q19.6719 43.6562 24.0156 45.9219
Q28.375 48.1875 33.5938 48.1875
Q44.5781 48.1875 50.9531 41.5156
Q57.3281 34.8594 57.3281 23.3906
Q57.3281 12.1562 50.6875 5.35938
Q44.0469 -1.42188 33.0156 -1.42188
Q20.3594 -1.42188 13.6719 8.26562
Q6.98438 17.9688 6.98438 36.375
Q6.98438 53.6562 15.1875 63.9375
Q23.3906 74.2188 37.2031 74.2188
Q40.9219 74.2188 44.7031 73.4844
Q48.4844 72.75 52.5938 71.2969" id="DejaVuSans-36"/>
      </defs>
      <g transform="translate(215.934112245 191.82625)scale(0.12 -0.12)">
       <use xlink:href="#DejaVuSans-30"/>
       <use x="63.623046875" xlink:href="#DejaVuSans-2e"/>
       <use x="95.41015625" xlink:href="#DejaVuSans-31"/>
       <use x="159.033203125" xlink:href="#DejaVuSans-36"/>
      </g>
     </g>
    </g>
    <g id="xtick_5">
     <g id="line2d_10">
      <g>
       <use style="stroke:#000000;stroke-linecap:butt;stroke-width:0.5;" x="280.437565051" xlink:href="#m0012dd4eef" y="178.92"/>
      </g>
     </g>
     <g id="line2d_11">
      <g>
       <use style="stroke:#000000;stroke-linecap:butt;stroke-width:0.5;" x="280.437565051" xlink:href="#m476344969c" y="19.814857337"/>
      </g>
     </g>
     <g id="text_5">
      <!-- 0.24 -->
      <defs>
       <path d="
M19.1875 8.29688
L53.6094 8.29688
L53.6094 0
L7.32812 0
L7.32812 8.29688
Q12.9375 14.1094 22.625 23.8906
Q32.3281 33.6875 34.8125 36.5312
Q39.5469 41.8438 41.4219 45.5312
Q43.3125 49.2188 43.3125 52.7812
Q43.3125 58.5938 39.2344 62.25
Q35.1562 65.9219 28.6094 65.9219
Q23.9688 65.9219 18.8125 64.3125
Q13.6719 62.7031 7.8125 59.4219
L7.8125 69.3906
Q13.7656 71.7812 18.9375 73
Q24.125 74.2188 28.4219 74.2188
Q39.75 74.2188 46.4844 68.5469
Q53.2188 62.8906 53.2188 53.4219
Q53.2188 48.9219 51.5312 44.8906
Q49.8594 40.875 45.4062 35.4062
Q44.1875 33.9844 37.6406 27.2188
Q31.1094 20.4531 19.1875 8.29688" id="DejaVuSans-32"/>
       <path d="
M37.7969 64.3125
L12.8906 25.3906
L37.7969 25.3906
z

M35.2031 72.9062
L47.6094 72.9062
L47.6094 25.3906
L58.0156 25.3906
L58.0156 17.1875
L47.6094 17.1875
L47.6094 0
L37.7969 0
L37.7969 17.1875
L4.89062 17.1875
L4.89062 26.7031
z
" id="DejaVuSans-34"/>
      </defs>
      <g transform="translate(267.810377551 191.82625)scale(0.12 -0.12)">
       <use xlink:href="#DejaVuSans-30"/>
       <use x="63.623046875" xlink:href="#DejaVuSans-2e"/>
       <use x="95.41015625" xlink:href="#DejaVuSans-32"/>
       <use x="159.033203125" xlink:href="#DejaVuSans-34"/>
      </g>
     </g>
    </g>
    <g id="text_6">
     <!-- fourStarRatings -->
     <defs>
      <path d="
M54.8906 33.0156
L54.8906 0
L45.9062 0
L45.9062 32.7188
Q45.9062 40.4844 42.875 44.3281
Q39.8438 48.1875 33.7969 48.1875
Q26.5156 48.1875 22.3125 43.5469
Q18.1094 38.9219 18.1094 30.9062
L18.1094 0
L9.07812 0
L9.07812 54.6875
L18.1094 54.6875
L18.1094 46.1875
Q21.3438 51.125 25.7031 53.5625
Q30.0781 56 35.7969 56
Q45.2188 56 50.0469 50.1719
Q54.8906 44.3438 54.8906 33.0156" id="DejaVuSans-6e"/>
      <path d="
M30.6094 48.3906
Q23.3906 48.3906 19.1875 42.75
Q14.9844 37.1094 14.9844 27.2969
Q14.9844 17.4844 19.1562 11.8438
Q23.3438 6.20312 30.6094 6.20312
Q37.7969 6.20312 41.9844 11.8594
Q46.1875 17.5312 46.1875 27.2969
Q46.1875 37.0156 41.9844 42.7031
Q37.7969 48.3906 30.6094 48.3906
M30.6094 56
Q42.3281 56 49.0156 48.375
Q55.7188 40.7656 55.7188 27.2969
Q55.7188 13.875 49.0156 6.21875
Q42.3281 -1.42188 30.6094 -1.42188
Q18.8438 -1.42188 12.1719 6.21875
Q5.51562 13.875 5.51562 27.2969
Q5.51562 40.7656 12.1719 48.375
Q18.8438 56 30.6094 56" id="DejaVuSans-6f"/>
      <path d="
M9.42188 54.6875
L18.4062 54.6875
L18.4062 0
L9.42188 0
z

M9.42188 75.9844
L18.4062 75.9844
L18.4062 64.5938
L9.42188 64.5938
z
" id="DejaVuSans-69"/>
      <path d="
M53.5156 70.5156
L53.5156 60.8906
Q47.9062 63.5781 42.9219 64.8906
Q37.9375 66.2188 33.2969 66.2188
Q25.25 66.2188 20.875 63.0938
Q16.5 59.9688 16.5 54.2031
Q16.5 49.3594 19.4062 46.8906
Q22.3125 44.4375 30.4219 42.9219
L36.375 41.7031
Q47.4062 39.5938 52.6562 34.2969
Q57.9062 29 57.9062 20.125
Q57.9062 9.51562 50.7969 4.04688
Q43.7031 -1.42188 29.9844 -1.42188
Q24.8125 -1.42188 18.9688 -0.25
Q13.1406 0.921875 6.89062 3.21875
L6.89062 13.375
Q12.8906 10.0156 18.6562 8.29688
Q24.4219 6.59375 29.9844 6.59375
Q38.4219 6.59375 43.0156 9.90625
Q47.6094 13.2344 47.6094 19.3906
Q47.6094 24.75 44.3125 27.7812
Q41.0156 30.8125 33.5 32.3281
L27.4844 33.5
Q16.4531 35.6875 11.5156 40.375
Q6.59375 45.0625 6.59375 53.4219
Q6.59375 63.0938 13.4062 68.6562
Q20.2188 74.2188 32.1719 74.2188
Q37.3125 74.2188 42.625 73.2812
Q47.9531 72.3594 53.5156 70.5156" id="DejaVuSans-53"/>
      <path d="
M8.5 21.5781
L8.5 54.6875
L17.4844 54.6875
L17.4844 21.9219
Q17.4844 14.1562 20.5 10.2656
Q23.5312 6.39062 29.5938 6.39062
Q36.8594 6.39062 41.0781 11.0312
Q45.3125 15.6719 45.3125 23.6875
L45.3125 54.6875
L54.2969 54.6875
L54.2969 0
L45.3125 0
L45.3125 8.40625
Q42.0469 3.42188 37.7188 1
Q33.4062 -1.42188 27.6875 -1.42188
Q18.2656 -1.42188 13.375 4.4375
Q8.5 10.2969 8.5 21.5781
M31.1094 56
z
" id="DejaVuSans-75"/>
      <path d="
M45.4062 27.9844
Q45.4062 37.75 41.375 43.1094
Q37.3594 48.4844 30.0781 48.4844
Q22.8594 48.4844 18.8281 43.1094
Q14.7969 37.75 14.7969 27.9844
Q14.7969 18.2656 18.8281 12.8906
Q22.8594 7.51562 30.0781 7.51562
Q37.3594 7.51562 41.375 12.8906
Q45.4062 18.2656 45.4062 27.9844
M54.3906 6.78125
Q54.3906 -7.17188 48.1875 -13.9844
Q42 -20.7969 29.2031 -20.7969
Q24.4688 -20.7969 20.2656 -20.0938
Q16.0625 -19.3906 12.1094 -17.9219
L12.1094 -9.1875
Q16.0625 -11.3281 19.9219 -12.3438
Q23.7812 -13.375 27.7812 -13.375
Q36.625 -13.375 41.0156 -8.76562
Q45.4062 -4.15625 45.4062 5.17188
L45.4062 9.625
Q42.625 4.78125 38.2812 2.39062
Q33.9375 0 27.875 0
Q17.8281 0 11.6719 7.65625
Q5.51562 15.3281 5.51562 27.9844
Q5.51562 40.6719 11.6719 48.3281
Q17.8281 56 27.875 56
Q33.9375 56 38.2812 53.6094
Q42.625 51.2188 45.4062 46.3906
L45.4062 54.6875
L54.3906 54.6875
z
" id="DejaVuSans-67"/>
      <path d="
M44.3906 34.1875
Q47.5625 33.1094 50.5625 29.5938
Q53.5625 26.0781 56.5938 19.9219
L66.6094 0
L56 0
L46.6875 18.7031
Q43.0625 26.0312 39.6719 28.4219
Q36.2812 30.8125 30.4219 30.8125
L19.6719 30.8125
L19.6719 0
L9.8125 0
L9.8125 72.9062
L32.0781 72.9062
Q44.5781 72.9062 50.7344 67.6719
Q56.8906 62.4531 56.8906 51.9062
Q56.8906 45.0156 53.6875 40.4688
Q50.4844 35.9375 44.3906 34.1875
M19.6719 64.7969
L19.6719 38.9219
L32.0781 38.9219
Q39.2031 38.9219 42.8438 42.2188
Q46.4844 45.5156 46.4844 51.9062
Q46.4844 58.2969 42.8438 61.5469
Q39.2031 64.7969 32.0781 64.7969
z
" id="DejaVuSans-52"/>
      <path d="
M37.1094 75.9844
L37.1094 68.5
L28.5156 68.5
Q23.6875 68.5 21.7969 66.5469
Q19.9219 64.5938 19.9219 59.5156
L19.9219 54.6875
L34.7188 54.6875
L34.7188 47.7031
L19.9219 47.7031
L19.9219 0
L10.8906 0
L10.8906 47.7031
L2.29688 47.7031
L2.29688 54.6875
L10.8906 54.6875
L10.8906 58.5
Q10.8906 67.625 15.1406 71.7969
Q19.3906 75.9844 28.6094 75.9844
z
" id="DejaVuSans-66"/>
      <path d="
M18.3125 70.2188
L18.3125 54.6875
L36.8125 54.6875
L36.8125 47.7031
L18.3125 47.7031
L18.3125 18.0156
Q18.3125 11.3281 20.1406 9.42188
Q21.9688 7.51562 27.5938 7.51562
L36.8125 7.51562
L36.8125 0
L27.5938 0
Q17.1875 0 13.2344 3.875
Q9.28125 7.76562 9.28125 18.0156
L9.28125 47.7031
L2.6875 47.7031
L2.6875 54.6875
L9.28125 54.6875
L9.28125 70.2188
z
" id="DejaVuSans-74"/>
      <path d="
M34.2812 27.4844
Q23.3906 27.4844 19.1875 25
Q14.9844 22.5156 14.9844 16.5
Q14.9844 11.7188 18.1406 8.90625
Q21.2969 6.10938 26.7031 6.10938
Q34.1875 6.10938 38.7031 11.4062
Q43.2188 16.7031 43.2188 25.4844
L43.2188 27.4844
z

M52.2031 31.2031
L52.2031 0
L43.2188 0
L43.2188 8.29688
Q40.1406 3.32812 35.5469 0.953125
Q30.9531 -1.42188 24.3125 -1.42188
Q15.9219 -1.42188 10.9531 3.29688
Q6 8.01562 6 15.9219
Q6 25.1406 12.1719 29.8281
Q18.3594 34.5156 30.6094 34.5156
L43.2188 34.5156
L43.2188 35.4062
Q43.2188 41.6094 39.1406 45
Q35.0625 48.3906 27.6875 48.3906
Q23 48.3906 18.5469 47.2656
Q14.1094 46.1406 10.0156 43.8906
L10.0156 52.2031
Q14.9375 54.1094 19.5781 55.0469
Q24.2188 56 28.6094 56
Q40.4844 56 46.3438 49.8438
Q52.2031 43.7031 52.2031 31.2031" id="DejaVuSans-61"/>
      <path d="
M44.2812 53.0781
L44.2812 44.5781
Q40.4844 46.5312 36.375 47.5
Q32.2812 48.4844 27.875 48.4844
Q21.1875 48.4844 17.8438 46.4375
Q14.5 44.3906 14.5 40.2812
Q14.5 37.1562 16.8906 35.375
Q19.2812 33.5938 26.5156 31.9844
L29.5938 31.2969
Q39.1562 29.25 43.1875 25.5156
Q47.2188 21.7812 47.2188 15.0938
Q47.2188 7.46875 41.1875 3.01562
Q35.1562 -1.42188 24.6094 -1.42188
Q20.2188 -1.42188 15.4531 -0.5625
Q10.6875 0.296875 5.42188 2
L5.42188 11.2812
Q10.4062 8.6875 15.2344 7.39062
Q20.0625 6.10938 24.8125 6.10938
Q31.1562 6.10938 34.5625 8.28125
Q37.9844 10.4531 37.9844 14.4062
Q37.9844 18.0625 35.5156 20.0156
Q33.0625 21.9688 24.7031 23.7812
L21.5781 24.5156
Q13.2344 26.2656 9.51562 29.9062
Q5.8125 33.5469 5.8125 39.8906
Q5.8125 47.6094 11.2812 51.7969
Q16.75 56 26.8125 56
Q31.7812 56 36.1719 55.2656
Q40.5781 54.5469 44.2812 53.0781" id="DejaVuSans-73"/>
      <path d="
M41.1094 46.2969
Q39.5938 47.1719 37.8125 47.5781
Q36.0312 48 33.8906 48
Q26.2656 48 22.1875 43.0469
Q18.1094 38.0938 18.1094 28.8125
L18.1094 0
L9.07812 0
L9.07812 54.6875
L18.1094 54.6875
L18.1094 46.1875
Q20.9531 51.1719 25.4844 53.5781
Q30.0312 56 36.5312 56
Q37.4531 56 38.5781 55.875
Q39.7031 55.7656 41.0625 55.5156
z
" id="DejaVuSans-72"/>
     </defs>
     <g transform="translate(126.963627232 206.115)scale(0.12 -0.12)">
      <use xlink:href="#DejaVuSans-66"/>
      <use x="35.205078125" xlink:href="#DejaVuSans-6f"/>
      <use x="96.38671875" xlink:href="#DejaVuSans-75"/>
      <use x="159.765625" xlink:href="#DejaVuSans-72"/>
      <use x="200.87890625" xlink:href="#DejaVuSans-53"/>
      <use x="264.35546875" xlink:href="#DejaVuSans-74"/>
      <use x="303.564453125" xlink:href="#DejaVuSans-61"/>
      <use x="364.84375" xlink:href="#DejaVuSans-72"/>
      <use x="405.95703125" xlink:href="#DejaVuSans-52"/>
      <use x="473.189453125" xlink:href="#DejaVuSans-61"/>
      <use x="534.46875" xlink:href="#DejaVuSans-74"/>
      <use x="573.677734375" xlink:href="#DejaVuSans-69"/>
      <use x="601.4609375" xlink:href="#DejaVuSans-6e"/>
      <use x="664.83984375" xlink:href="#DejaVuSans-67"/>
      <use x="728.31640625" xlink:href="#DejaVuSans-73"/>
     </g>
    </g>
   </g>
   <g id="matplotlib.axis_2">
    <g id="ytick_1">
     <g id="line2d_12">
      <defs>
       <path d="
M0 0
L4 0" id="me8a85f7bf6" style="stroke:#000000;stroke-linecap:butt;stroke-width:0.5;"/>
      </defs>
      <g>
       <use style="stroke:#000000;stroke-linecap:butt;stroke-width:0.5;" x="59.788125" xlink:href="#me8a85f7bf6" y="160.921546642"/>
      </g>
     </g>
     <g id="line2d_13">
      <defs>
       <path d="
M0 0
L-4 0" id="m1a32005dea" style="stroke:#000000;stroke-linecap:butt;stroke-width:0.5;"/>
      </defs>
      <g>
       <use style="stroke:#000000;stroke-linecap:butt;stroke-width:0.5;" x="286.927254464" xlink:href="#m1a32005dea" y="160.921546642"/>
      </g>
     </g>
     <g id="text_7">
      <!-- 0.00 -->
      <g transform="translate(30.6575 165.289359142)scale(0.12 -0.12)">
       <use xlink:href="#DejaVuSans-30"/>
       <use x="63.623046875" xlink:href="#DejaVuSans-2e"/>
       <use x="95.41015625" xlink:href="#DejaVuSans-30"/>
       <use x="159.033203125" xlink:href="#DejaVuSans-30"/>
      </g>
     </g>
    </g>
    <g id="ytick_2">
     <g id="line2d_14">
      <g>
       <use style="stroke:#000000;stroke-linecap:butt;stroke-width:0.5;" x="59.788125" xlink:href="#me8a85f7bf6" y="130.815445159"/>
      </g>
     </g>
     <g id="line2d_15">
      <g>
       <use style="stroke:#000000;stroke-linecap:butt;stroke-width:0.5;" x="286.927254464" xlink:href="#m1a32005dea" y="130.815445159"/>
      </g>
     </g>
     <g id="text_8">
      <!-- 0.02 -->
      <g transform="translate(31.0625 135.183257659)scale(0.12 -0.12)">
       <use xlink:href="#DejaVuSans-30"/>
       <use x="63.623046875" xlink:href="#DejaVuSans-2e"/>
       <use x="95.41015625" xlink:href="#DejaVuSans-30"/>
       <use x="159.033203125" xlink:href="#DejaVuSans-32"/>
      </g>
     </g>
    </g>
    <g id="ytick_3">
     <g id="line2d_16">
      <g>
       <use style="stroke:#000000;stroke-linecap:butt;stroke-width:0.5;" x="59.788125" xlink:href="#me8a85f7bf6" y="100.709343676"/>
      </g>
     </g>
     <g id="line2d_17">
      <g>
       <use style="stroke:#000000;stroke-linecap:butt;stroke-width:0.5;" x="286.927254464" xlink:href="#m1a32005dea" y="100.709343676"/>
      </g>
     </g>
     <g id="text_9">
      <!-- 0.04 -->
      <g transform="translate(30.53375 105.077156176)scale(0.12 -0.12)">
       <use xlink:href="#DejaVuSans-30"/>
       <use x="63.623046875" xlink:href="#DejaVuSans-2e"/>
       <use x="95.41015625" xlink:href="#DejaVuSans-30"/>
       <use x="159.033203125" xlink:href="#DejaVuSans-34"/>
      </g>
     </g>
    </g>
    <g id="ytick_4">
     <g id="line2d_18">
      <g>
       <use style="stroke:#000000;stroke-linecap:butt;stroke-width:0.5;" x="59.788125" xlink:href="#me8a85f7bf6" y="70.6032421923"/>
      </g>
     </g>
     <g id="line2d_19">
      <g>
       <use style="stroke:#000000;stroke-linecap:butt;stroke-width:0.5;" x="286.927254464" xlink:href="#m1a32005dea" y="70.6032421923"/>
      </g>
     </g>
     <g id="text_10">
      <!-- 0.06 -->
      <g transform="translate(30.61625 74.9710546923)scale(0.12 -0.12)">
       <use xlink:href="#DejaVuSans-30"/>
       <use x="63.623046875" xlink:href="#DejaVuSans-2e"/>
       <use x="95.41015625" xlink:href="#DejaVuSans-30"/>
       <use x="159.033203125" xlink:href="#DejaVuSans-36"/>
      </g>
     </g>
    </g>
    <g id="ytick_5">
     <g id="line2d_20">
      <g>
       <use style="stroke:#000000;stroke-linecap:butt;stroke-width:0.5;" x="59.788125" xlink:href="#me8a85f7bf6" y="40.4971407089"/>
      </g>
     </g>
     <g id="line2d_21">
      <g>
       <use style="stroke:#000000;stroke-linecap:butt;stroke-width:0.5;" x="286.927254464" xlink:href="#m1a32005dea" y="40.4971407089"/>
      </g>
     </g>
     <g id="text_11">
      <!-- 0.08 -->
      <g transform="translate(30.681875 44.8649532089)scale(0.12 -0.12)">
       <use xlink:href="#DejaVuSans-30"/>
       <use x="63.623046875" xlink:href="#DejaVuSans-2e"/>
       <use x="95.41015625" xlink:href="#DejaVuSans-30"/>
       <use x="159.033203125" xlink:href="#DejaVuSans-38"/>
      </g>
     </g>
    </g>
    <g id="text_12">
     <!-- Partial Dependence -->
     <defs>
      <path d="
M56.2031 29.5938
L56.2031 25.2031
L14.8906 25.2031
Q15.4844 15.9219 20.4844 11.0625
Q25.4844 6.20312 34.4219 6.20312
Q39.5938 6.20312 44.4531 7.46875
Q49.3125 8.73438 54.1094 11.2812
L54.1094 2.78125
Q49.2656 0.734375 44.1875 -0.34375
Q39.1094 -1.42188 33.8906 -1.42188
Q20.7969 -1.42188 13.1562 6.1875
Q5.51562 13.8125 5.51562 26.8125
Q5.51562 40.2344 12.7656 48.1094
Q20.0156 56 32.3281 56
Q43.3594 56 49.7812 48.8906
Q56.2031 41.7969 56.2031 29.5938
M47.2188 32.2344
Q47.125 39.5938 43.0938 43.9844
Q39.0625 48.3906 32.4219 48.3906
Q24.9062 48.3906 20.3906 44.1406
Q15.875 39.8906 15.1875 32.1719
z
" id="DejaVuSans-65"/>
      <path d="
M9.42188 75.9844
L18.4062 75.9844
L18.4062 0
L9.42188 0
z
" id="DejaVuSans-6c"/>
      <path d="
M48.7812 52.5938
L48.7812 44.1875
Q44.9688 46.2969 41.1406 47.3438
Q37.3125 48.3906 33.4062 48.3906
Q24.6562 48.3906 19.8125 42.8438
Q14.9844 37.3125 14.9844 27.2969
Q14.9844 17.2812 19.8125 11.7344
Q24.6562 6.20312 33.4062 6.20312
Q37.3125 6.20312 41.1406 7.25
Q44.9688 8.29688 48.7812 10.4062
L48.7812 2.09375
Q45.0156 0.34375 40.9844 -0.53125
Q36.9688 -1.42188 32.4219 -1.42188
Q20.0625 -1.42188 12.7812 6.34375
Q5.51562 14.1094 5.51562 27.2969
Q5.51562 40.6719 12.8594 48.3281
Q20.2188 56 33.0156 56
Q37.1562 56 41.1094 55.1406
Q45.0625 54.2969 48.7812 52.5938" id="DejaVuSans-63"/>
      <path d="
M19.6719 64.7969
L19.6719 8.10938
L31.5938 8.10938
Q46.6875 8.10938 53.6875 14.9375
Q60.6875 21.7812 60.6875 36.5312
Q60.6875 51.1719 53.6875 57.9844
Q46.6875 64.7969 31.5938 64.7969
z

M9.8125 72.9062
L30.0781 72.9062
Q51.2656 72.9062 61.1719 64.0938
Q71.0938 55.2812 71.0938 36.5312
Q71.0938 17.6719 61.125 8.82812
Q51.1719 0 30.0781 0
L9.8125 0
z
" id="DejaVuSans-44"/>
      <path id="DejaVuSans-20"/>
      <path d="
M45.4062 46.3906
L45.4062 75.9844
L54.3906 75.9844
L54.3906 0
L45.4062 0
L45.4062 8.20312
Q42.5781 3.32812 38.25 0.953125
Q33.9375 -1.42188 27.875 -1.42188
Q17.9688 -1.42188 11.7344 6.48438
Q5.51562 14.4062 5.51562 27.2969
Q5.51562 40.1875 11.7344 48.0938
Q17.9688 56 27.875 56
Q33.9375 56 38.25 53.625
Q42.5781 51.2656 45.4062 46.3906
M14.7969 27.2969
Q14.7969 17.3906 18.875 11.75
Q22.9531 6.10938 30.0781 6.10938
Q37.2031 6.10938 41.2969 11.75
Q45.4062 17.3906 45.4062 27.2969
Q45.4062 37.2031 41.2969 42.8438
Q37.2031 48.4844 30.0781 48.4844
Q22.9531 48.4844 18.875 42.8438
Q14.7969 37.2031 14.7969 27.2969" id="DejaVuSans-64"/>
      <path d="
M19.6719 64.7969
L19.6719 37.4062
L32.0781 37.4062
Q38.9688 37.4062 42.7188 40.9688
Q46.4844 44.5312 46.4844 51.125
Q46.4844 57.6719 42.7188 61.2344
Q38.9688 64.7969 32.0781 64.7969
z

M9.8125 72.9062
L32.0781 72.9062
Q44.3438 72.9062 50.6094 67.3594
Q56.8906 61.8125 56.8906 51.125
Q56.8906 40.3281 50.6094 34.8125
Q44.3438 29.2969 32.0781 29.2969
L19.6719 29.2969
L19.6719 0
L9.8125 0
z
" id="DejaVuSans-50"/>
      <path d="
M18.1094 8.20312
L18.1094 -20.7969
L9.07812 -20.7969
L9.07812 54.6875
L18.1094 54.6875
L18.1094 46.3906
Q20.9531 51.2656 25.2656 53.625
Q29.5938 56 35.5938 56
Q45.5625 56 51.7812 48.0938
Q58.0156 40.1875 58.0156 27.2969
Q58.0156 14.4062 51.7812 6.48438
Q45.5625 -1.42188 35.5938 -1.42188
Q29.5938 -1.42188 25.2656 0.953125
Q20.9531 3.32812 18.1094 8.20312
M48.6875 27.2969
Q48.6875 37.2031 44.6094 42.8438
Q40.5312 48.4844 33.4062 48.4844
Q26.2656 48.4844 22.1875 42.8438
Q18.1094 37.2031 18.1094 27.2969
Q18.1094 17.3906 22.1875 11.75
Q26.2656 6.10938 33.4062 6.10938
Q40.5312 6.10938 44.6094 11.75
Q48.6875 17.3906 48.6875 27.2969" id="DejaVuSans-70"/>
     </defs>
     <g transform="translate(25.53375 155.222741168)rotate(-90.0)scale(0.12 -0.12)">
      <use xlink:href="#DejaVuSans-50"/>
      <use x="55.802734375" xlink:href="#DejaVuSans-61"/>
      <use x="117.08203125" xlink:href="#DejaVuSans-72"/>
      <use x="158.1953125" xlink:href="#DejaVuSans-74"/>
      <use x="197.404296875" xlink:href="#DejaVuSans-69"/>
      <use x="225.1875" xlink:href="#DejaVuSans-61"/>
      <use x="286.466796875" xlink:href="#DejaVuSans-6c"/>
      <use x="314.25" xlink:href="#DejaVuSans-20"/>
      <use x="346.037109375" xlink:href="#DejaVuSans-44"/>
      <use x="423.0390625" xlink:href="#DejaVuSans-65"/>
      <use x="484.5625" xlink:href="#DejaVuSans-70"/>
      <use x="548.0390625" xlink:href="#DejaVuSans-65"/>
      <use x="609.5625" xlink:href="#DejaVuSans-6e"/>
      <use x="672.94140625" xlink:href="#DejaVuSans-64"/>
      <use x="736.41796875" xlink:href="#DejaVuSans-65"/>
      <use x="797.94140625" xlink:href="#DejaVuSans-6e"/>
      <use x="861.3203125" xlink:href="#DejaVuSans-63"/>
      <use x="916.30078125" xlink:href="#DejaVuSans-65"/>
     </g>
    </g>
   </g>
   <g id="patch_3">
    <path d="
M59.7881 19.8149
L286.927 19.8149" style="fill:none;stroke:#000000;"/>
   </g>
   <g id="patch_4">
    <path d="
M286.927 178.92
L286.927 19.8149" style="fill:none;stroke:#000000;"/>
   </g>
   <g id="patch_5">
    <path d="
M59.7881 178.92
L286.927 178.92" style="fill:none;stroke:#000000;"/>
   </g>
   <g id="patch_6">
    <path d="
M59.7881 178.92
L59.7881 19.8149" style="fill:none;stroke:#000000;"/>
   </g>
  </g>
  <g id="axes_2">
   <g id="patch_7">
    <path d="
M335.901 178.92
L563.04 178.92
L563.04 19.8149
L335.901 19.8149
z
" style="fill:#ffffff;"/>
   </g>
   <g id="LineCollection_2">
    <defs>
     <path d="
M352.074 -253.08
L352.074 -261.035" id="C1_0_c0307d4173"/>
     <path d="
M370.918 -253.08
L370.918 -261.035" id="C1_1_ff0988f407"/>
     <path d="
M381.148 -253.08
L381.148 -261.035" id="C1_2_aca70a5ad9"/>
     <path d="
M395.59 -253.08
L395.59 -261.035" id="C1_3_16871bf55c"/>
     <path d="
M407.462 -253.08
L407.462 -261.035" id="C1_4_40fe7adaff"/>
     <path d="
M416.731 -253.08
L416.731 -261.035" id="C1_5_b863e8ed08"/>
     <path d="
M439.344 -253.08
L439.344 -261.035" id="C1_6_ba5f38b9b2"/>
     <path d="
M450.845 -253.08
L450.845 -261.035" id="C1_7_1c63dc43a3"/>
     <path d="
M475.234 -253.08
L475.234 -261.035" id="C1_8_e465319684"/>
    </defs>
    <g clip-path="url(#p80d11787a9)">
     <use style="fill:none;stroke:#000000;stroke-linecap:butt;" x="0" xlink:href="#C1_0_c0307d4173" y="432.0"/>
    </g>
    <g clip-path="url(#p80d11787a9)">
     <use style="fill:none;stroke:#000000;stroke-linecap:butt;" x="0" xlink:href="#C1_1_ff0988f407" y="432.0"/>
    </g>
    <g clip-path="url(#p80d11787a9)">
     <use style="fill:none;stroke:#000000;stroke-linecap:butt;" x="0" xlink:href="#C1_2_aca70a5ad9" y="432.0"/>
    </g>
    <g clip-path="url(#p80d11787a9)">
     <use style="fill:none;stroke:#000000;stroke-linecap:butt;" x="0" xlink:href="#C1_3_16871bf55c" y="432.0"/>
    </g>
    <g clip-path="url(#p80d11787a9)">
     <use style="fill:none;stroke:#000000;stroke-linecap:butt;" x="0" xlink:href="#C1_4_40fe7adaff" y="432.0"/>
    </g>
    <g clip-path="url(#p80d11787a9)">
     <use style="fill:none;stroke:#000000;stroke-linecap:butt;" x="0" xlink:href="#C1_5_b863e8ed08" y="432.0"/>
    </g>
    <g clip-path="url(#p80d11787a9)">
     <use style="fill:none;stroke:#000000;stroke-linecap:butt;" x="0" xlink:href="#C1_6_ba5f38b9b2" y="432.0"/>
    </g>
    <g clip-path="url(#p80d11787a9)">
     <use style="fill:none;stroke:#000000;stroke-linecap:butt;" x="0" xlink:href="#C1_7_1c63dc43a3" y="432.0"/>
    </g>
    <g clip-path="url(#p80d11787a9)">
     <use style="fill:none;stroke:#000000;stroke-linecap:butt;" x="0" xlink:href="#C1_8_e465319684" y="432.0"/>
    </g>
   </g>
   <g id="line2d_22">
    <path clip-path="url(#p80d11787a9)" d="
M338.318 107.154
L339.557 107.154
L344.192 102.108
L346.348 123.164
L349.528 123.859
L351.306 123.841
L352.545 84.4053
L355.132 84.4053
L360.683 84.0321
L360.899 85.5384
L366.665 106.55
L369.198 106.55
L371.246 106.399
L373.671 105.997
L374.372 106.094
L375.719 106.163
L377.228 106.163
L378.521 137.773
L380.731 137.53
L387.683 141.636
L388.815 141.629
L390.054 141.629
L391.348 141.629
L395.228 133.286
L396.521 133.286
L396.629 133.286
L399.27 133.286
L401.156 134.447
L402.665 134.619
L406.869 134.693
L408.054 134.694
L408.863 134.694
L413.821 134.61
L415.761 133.924
L417.108 116.728
L425.03 116.881
L426.755 115.968
L427.186 114.381
L436.887 102.148
L437.318 102.148
L439.473 102.076
L439.797 101.859
L442.222 101.011
L442.438 101.011
L442.653 101.011
L450.198 101.067
L450.845 100.815
L456.396 105.578
L457.958 105.806
L461.515 114.412
L465.827 114.412
L471.917 114.412
L480.647 115.396
L498.216 115.409
L537.773 115.648
L543.27 115.648
L548.767 117.714" style="fill:none;stroke:#008000;"/>
   </g>
   <g id="matplotlib.axis_3">
    <g id="xtick_6">
     <g id="line2d_23">
      <g>
       <use style="stroke:#000000;stroke-linecap:butt;stroke-width:0.5;" x="373.757392113" xlink:href="#m0012dd4eef" y="178.92"/>
      </g>
     </g>
     <g id="line2d_24">
      <g>
       <use style="stroke:#000000;stroke-linecap:butt;stroke-width:0.5;" x="373.757392113" xlink:href="#m476344969c" y="19.814857337"/>
      </g>
     </g>
     <g id="text_13">
      <!-- −0.15 -->
      <defs>
       <path d="
M10.7969 72.9062
L49.5156 72.9062
L49.5156 64.5938
L19.8281 64.5938
L19.8281 46.7344
Q21.9688 47.4688 24.1094 47.8281
Q26.2656 48.1875 28.4219 48.1875
Q40.625 48.1875 47.75 41.5
Q54.8906 34.8125 54.8906 23.3906
Q54.8906 11.625 47.5625 5.09375
Q40.2344 -1.42188 26.9062 -1.42188
Q22.3125 -1.42188 17.5469 -0.640625
Q12.7969 0.140625 7.71875 1.70312
L7.71875 11.625
Q12.1094 9.23438 16.7969 8.0625
Q21.4844 6.89062 26.7031 6.89062
Q35.1562 6.89062 40.0781 11.3281
Q45.0156 15.7656 45.0156 23.3906
Q45.0156 31 40.0781 35.4375
Q35.1562 39.8906 26.7031 39.8906
Q22.75 39.8906 18.8125 39.0156
Q14.8906 38.1406 10.7969 36.2812
z
" id="DejaVuSans-35"/>
      </defs>
      <g transform="translate(356.529892113 191.82625)scale(0.12 -0.12)">
       <use xlink:href="#DejaVuSans-2212"/>
       <use x="83.7890625" xlink:href="#DejaVuSans-30"/>
       <use x="147.412109375" xlink:href="#DejaVuSans-2e"/>
       <use x="179.19921875" xlink:href="#DejaVuSans-31"/>
       <use x="242.822265625" xlink:href="#DejaVuSans-35"/>
      </g>
     </g>
    </g>
    <g id="xtick_7">
     <g id="line2d_25">
      <g>
       <use style="stroke:#000000;stroke-linecap:butt;stroke-width:0.5;" x="411.61391369" xlink:href="#m0012dd4eef" y="178.92"/>
      </g>
     </g>
     <g id="line2d_26">
      <g>
       <use style="stroke:#000000;stroke-linecap:butt;stroke-width:0.5;" x="411.61391369" xlink:href="#m476344969c" y="19.814857337"/>
      </g>
     </g>
     <g id="text_14">
      <!-- 0.00 -->
      <g transform="translate(399.04860119 191.82625)scale(0.12 -0.12)">
       <use xlink:href="#DejaVuSans-30"/>
       <use x="63.623046875" xlink:href="#DejaVuSans-2e"/>
       <use x="95.41015625" xlink:href="#DejaVuSans-30"/>
       <use x="159.033203125" xlink:href="#DejaVuSans-30"/>
      </g>
     </g>
    </g>
    <g id="xtick_8">
     <g id="line2d_27">
      <g>
       <use style="stroke:#000000;stroke-linecap:butt;stroke-width:0.5;" x="449.470435268" xlink:href="#m0012dd4eef" y="178.92"/>
      </g>
     </g>
     <g id="line2d_28">
      <g>
       <use style="stroke:#000000;stroke-linecap:butt;stroke-width:0.5;" x="449.470435268" xlink:href="#m476344969c" y="19.814857337"/>
      </g>
     </g>
     <g id="text_15">
      <!-- 0.15 -->
      <g transform="translate(437.030747768 191.82625)scale(0.12 -0.12)">
       <use xlink:href="#DejaVuSans-30"/>
       <use x="63.623046875" xlink:href="#DejaVuSans-2e"/>
       <use x="95.41015625" xlink:href="#DejaVuSans-31"/>
       <use x="159.033203125" xlink:href="#DejaVuSans-35"/>
      </g>
     </g>
    </g>
    <g id="xtick_9">
     <g id="line2d_29">
      <g>
       <use style="stroke:#000000;stroke-linecap:butt;stroke-width:0.5;" x="487.326956845" xlink:href="#m0012dd4eef" y="178.92"/>
      </g>
     </g>
     <g id="line2d_30">
      <g>
       <use style="stroke:#000000;stroke-linecap:butt;stroke-width:0.5;" x="487.326956845" xlink:href="#m476344969c" y="19.814857337"/>
      </g>
     </g>
     <g id="text_16">
      <!-- 0.30 -->
      <defs>
       <path d="
M40.5781 39.3125
Q47.6562 37.7969 51.625 33
Q55.6094 28.2188 55.6094 21.1875
Q55.6094 10.4062 48.1875 4.48438
Q40.7656 -1.42188 27.0938 -1.42188
Q22.5156 -1.42188 17.6562 -0.515625
Q12.7969 0.390625 7.625 2.20312
L7.625 11.7188
Q11.7188 9.32812 16.5938 8.10938
Q21.4844 6.89062 26.8125 6.89062
Q36.0781 6.89062 40.9375 10.5469
Q45.7969 14.2031 45.7969 21.1875
Q45.7969 27.6406 41.2812 31.2656
Q36.7656 34.9062 28.7188 34.9062
L20.2188 34.9062
L20.2188 43.0156
L29.1094 43.0156
Q36.375 43.0156 40.2344 45.9219
Q44.0938 48.8281 44.0938 54.2969
Q44.0938 59.9062 40.1094 62.9062
Q36.1406 65.9219 28.7188 65.9219
Q24.6562 65.9219 20.0156 65.0312
Q15.375 64.1562 9.8125 62.3125
L9.8125 71.0938
Q15.4375 72.6562 20.3438 73.4375
Q25.25 74.2188 29.5938 74.2188
Q40.8281 74.2188 47.3594 69.1094
Q53.9062 64.0156 53.9062 55.3281
Q53.9062 49.2656 50.4375 45.0938
Q46.9688 40.9219 40.5781 39.3125" id="DejaVuSans-33"/>
      </defs>
      <g transform="translate(474.761644345 191.82625)scale(0.12 -0.12)">
       <use xlink:href="#DejaVuSans-30"/>
       <use x="63.623046875" xlink:href="#DejaVuSans-2e"/>
       <use x="95.41015625" xlink:href="#DejaVuSans-33"/>
       <use x="159.033203125" xlink:href="#DejaVuSans-30"/>
      </g>
     </g>
    </g>
    <g id="xtick_10">
     <g id="line2d_31">
      <g>
       <use style="stroke:#000000;stroke-linecap:butt;stroke-width:0.5;" x="525.183478423" xlink:href="#m0012dd4eef" y="178.92"/>
      </g>
     </g>
     <g id="line2d_32">
      <g>
       <use style="stroke:#000000;stroke-linecap:butt;stroke-width:0.5;" x="525.183478423" xlink:href="#m476344969c" y="19.814857337"/>
      </g>
     </g>
     <g id="text_17">
      <!-- 0.45 -->
      <g transform="translate(512.743790923 191.82625)scale(0.12 -0.12)">
       <use xlink:href="#DejaVuSans-30"/>
       <use x="63.623046875" xlink:href="#DejaVuSans-2e"/>
       <use x="95.41015625" xlink:href="#DejaVuSans-34"/>
       <use x="159.033203125" xlink:href="#DejaVuSans-35"/>
      </g>
     </g>
    </g>
    <g id="text_18">
     <!-- descriptionHtml -->
     <defs>
      <path d="
M52 44.1875
Q55.375 50.25 60.0625 53.125
Q64.75 56 71.0938 56
Q79.6406 56 84.2812 50.0156
Q88.9219 44.0469 88.9219 33.0156
L88.9219 0
L79.8906 0
L79.8906 32.7188
Q79.8906 40.5781 77.0938 44.375
Q74.3125 48.1875 68.6094 48.1875
Q61.625 48.1875 57.5625 43.5469
Q53.5156 38.9219 53.5156 30.9062
L53.5156 0
L44.4844 0
L44.4844 32.7188
Q44.4844 40.625 41.7031 44.4062
Q38.9219 48.1875 33.1094 48.1875
Q26.2188 48.1875 22.1562 43.5312
Q18.1094 38.875 18.1094 30.9062
L18.1094 0
L9.07812 0
L9.07812 54.6875
L18.1094 54.6875
L18.1094 46.1875
Q21.1875 51.2188 25.4844 53.6094
Q29.7812 56 35.6875 56
Q41.6562 56 45.8281 52.9688
Q50 49.9531 52 44.1875" id="DejaVuSans-6d"/>
      <path d="
M9.8125 72.9062
L19.6719 72.9062
L19.6719 43.0156
L55.5156 43.0156
L55.5156 72.9062
L65.375 72.9062
L65.375 0
L55.5156 0
L55.5156 34.7188
L19.6719 34.7188
L19.6719 0
L9.8125 0
z
" id="DejaVuSans-48"/>
     </defs>
     <g transform="translate(402.627310268 206.115)scale(0.12 -0.12)">
      <use xlink:href="#DejaVuSans-64"/>
      <use x="63.4765625" xlink:href="#DejaVuSans-65"/>
      <use x="125.0" xlink:href="#DejaVuSans-73"/>
      <use x="177.099609375" xlink:href="#DejaVuSans-63"/>
      <use x="232.080078125" xlink:href="#DejaVuSans-72"/>
      <use x="273.193359375" xlink:href="#DejaVuSans-69"/>
      <use x="300.9765625" xlink:href="#DejaVuSans-70"/>
      <use x="364.453125" xlink:href="#DejaVuSans-74"/>
      <use x="403.662109375" xlink:href="#DejaVuSans-69"/>
      <use x="431.4453125" xlink:href="#DejaVuSans-6f"/>
      <use x="492.626953125" xlink:href="#DejaVuSans-6e"/>
      <use x="556.005859375" xlink:href="#DejaVuSans-48"/>
      <use x="631.201171875" xlink:href="#DejaVuSans-74"/>
      <use x="670.41015625" xlink:href="#DejaVuSans-6d"/>
      <use x="767.822265625" xlink:href="#DejaVuSans-6c"/>
     </g>
    </g>
   </g>
   <g id="matplotlib.axis_4">
    <g id="ytick_6">
     <g id="line2d_33">
      <g>
       <use style="stroke:#000000;stroke-linecap:butt;stroke-width:0.5;" x="335.900870536" xlink:href="#me8a85f7bf6" y="160.921546642"/>
      </g>
     </g>
     <g id="line2d_34">
      <g>
       <use style="stroke:#000000;stroke-linecap:butt;stroke-width:0.5;" x="563.04" xlink:href="#m1a32005dea" y="160.921546642"/>
      </g>
     </g>
     <g id="text_19">
      <!-- 0.00 -->
      <g transform="translate(306.770245536 165.289359142)scale(0.12 -0.12)">
       <use xlink:href="#DejaVuSans-30"/>
       <use x="63.623046875" xlink:href="#DejaVuSans-2e"/>
       <use x="95.41015625" xlink:href="#DejaVuSans-30"/>
       <use x="159.033203125" xlink:href="#DejaVuSans-30"/>
      </g>
     </g>
    </g>
    <g id="ytick_7">
     <g id="line2d_35">
      <g>
       <use style="stroke:#000000;stroke-linecap:butt;stroke-width:0.5;" x="335.900870536" xlink:href="#me8a85f7bf6" y="130.815445159"/>
      </g>
     </g>
     <g id="line2d_36">
      <g>
       <use style="stroke:#000000;stroke-linecap:butt;stroke-width:0.5;" x="563.04" xlink:href="#m1a32005dea" y="130.815445159"/>
      </g>
     </g>
     <g id="text_20">
      <!-- 0.02 -->
      <g transform="translate(307.175245536 135.183257659)scale(0.12 -0.12)">
       <use xlink:href="#DejaVuSans-30"/>
       <use x="63.623046875" xlink:href="#DejaVuSans-2e"/>
       <use x="95.41015625" xlink:href="#DejaVuSans-30"/>
       <use x="159.033203125" xlink:href="#DejaVuSans-32"/>
      </g>
     </g>
    </g>
    <g id="ytick_8">
     <g id="line2d_37">
      <g>
       <use style="stroke:#000000;stroke-linecap:butt;stroke-width:0.5;" x="335.900870536" xlink:href="#me8a85f7bf6" y="100.709343676"/>
      </g>
     </g>
     <g id="line2d_38">
      <g>
       <use style="stroke:#000000;stroke-linecap:butt;stroke-width:0.5;" x="563.04" xlink:href="#m1a32005dea" y="100.709343676"/>
      </g>
     </g>
     <g id="text_21">
      <!-- 0.04 -->
      <g transform="translate(306.646495536 105.077156176)scale(0.12 -0.12)">
       <use xlink:href="#DejaVuSans-30"/>
       <use x="63.623046875" xlink:href="#DejaVuSans-2e"/>
       <use x="95.41015625" xlink:href="#DejaVuSans-30"/>
       <use x="159.033203125" xlink:href="#DejaVuSans-34"/>
      </g>
     </g>
    </g>
    <g id="ytick_9">
     <g id="line2d_39">
      <g>
       <use style="stroke:#000000;stroke-linecap:butt;stroke-width:0.5;" x="335.900870536" xlink:href="#me8a85f7bf6" y="70.6032421923"/>
      </g>
     </g>
     <g id="line2d_40">
      <g>
       <use style="stroke:#000000;stroke-linecap:butt;stroke-width:0.5;" x="563.04" xlink:href="#m1a32005dea" y="70.6032421923"/>
      </g>
     </g>
     <g id="text_22">
      <!-- 0.06 -->
      <g transform="translate(306.728995536 74.9710546923)scale(0.12 -0.12)">
       <use xlink:href="#DejaVuSans-30"/>
       <use x="63.623046875" xlink:href="#DejaVuSans-2e"/>
       <use x="95.41015625" xlink:href="#DejaVuSans-30"/>
       <use x="159.033203125" xlink:href="#DejaVuSans-36"/>
      </g>
     </g>
    </g>
    <g id="ytick_10">
     <g id="line2d_41">
      <g>
       <use style="stroke:#000000;stroke-linecap:butt;stroke-width:0.5;" x="335.900870536" xlink:href="#me8a85f7bf6" y="40.4971407089"/>
      </g>
     </g>
     <g id="line2d_42">
      <g>
       <use style="stroke:#000000;stroke-linecap:butt;stroke-width:0.5;" x="563.04" xlink:href="#m1a32005dea" y="40.4971407089"/>
      </g>
     </g>
     <g id="text_23">
      <!-- 0.08 -->
      <g transform="translate(306.794620536 44.8649532089)scale(0.12 -0.12)">
       <use xlink:href="#DejaVuSans-30"/>
       <use x="63.623046875" xlink:href="#DejaVuSans-2e"/>
       <use x="95.41015625" xlink:href="#DejaVuSans-30"/>
       <use x="159.033203125" xlink:href="#DejaVuSans-38"/>
      </g>
     </g>
    </g>
   </g>
   <g id="patch_8">
    <path d="
M335.901 19.8149
L563.04 19.8149" style="fill:none;stroke:#000000;"/>
   </g>
   <g id="patch_9">
    <path d="
M563.04 178.92
L563.04 19.8149" style="fill:none;stroke:#000000;"/>
   </g>
   <g id="patch_10">
    <path d="
M335.901 178.92
L563.04 178.92" style="fill:none;stroke:#000000;"/>
   </g>
   <g id="patch_11">
    <path d="
M335.901 178.92
L335.901 19.8149" style="fill:none;stroke:#000000;"/>
   </g>
  </g>
  <g id="axes_3">
   <g id="patch_12">
    <path d="
M59.7881 388.44
L286.927 388.44
L286.927 229.335
L59.7881 229.335
z
" style="fill:#ffffff;"/>
   </g>
   <g id="LineCollection_3">
    <defs>
     <path d="
M90.561 -43.56
L90.561 -51.5153" id="C2_0_fe3f4ffec9"/>
     <path d="
M92.6183 -43.56
L92.6183 -51.5153" id="C2_1_f16a838d59"/>
     <path d="
M98.007 -43.56
L98.007 -51.5153" id="C2_2_2a343efd34"/>
     <path d="
M103.953 -43.56
L103.953 -51.5153" id="C2_3_f792fc3ef8"/>
     <path d="
M120.087 -43.56
L120.087 -51.5153" id="C2_4_048d6299df"/>
     <path d="
M133.304 -43.56
L133.304 -51.5153" id="C2_5_a1c620902f"/>
     <path d="
M139.306 -43.56
L139.306 -51.5153" id="C2_6_44de433984"/>
     <path d="
M159.372 -43.56
L159.372 -51.5153" id="C2_7_858d82215a"/>
     <path d="
M212.527 -43.56
L212.527 -51.5153" id="C2_8_32b7f0762b"/>
    </defs>
    <g clip-path="url(#p9462dbe390)">
     <use style="fill:none;stroke:#000000;stroke-linecap:butt;" x="0" xlink:href="#C2_0_fe3f4ffec9" y="432.0"/>
    </g>
    <g clip-path="url(#p9462dbe390)">
     <use style="fill:none;stroke:#000000;stroke-linecap:butt;" x="0" xlink:href="#C2_1_f16a838d59" y="432.0"/>
    </g>
    <g clip-path="url(#p9462dbe390)">
     <use style="fill:none;stroke:#000000;stroke-linecap:butt;" x="0" xlink:href="#C2_2_2a343efd34" y="432.0"/>
    </g>
    <g clip-path="url(#p9462dbe390)">
     <use style="fill:none;stroke:#000000;stroke-linecap:butt;" x="0" xlink:href="#C2_3_f792fc3ef8" y="432.0"/>
    </g>
    <g clip-path="url(#p9462dbe390)">
     <use style="fill:none;stroke:#000000;stroke-linecap:butt;" x="0" xlink:href="#C2_4_048d6299df" y="432.0"/>
    </g>
    <g clip-path="url(#p9462dbe390)">
     <use style="fill:none;stroke:#000000;stroke-linecap:butt;" x="0" xlink:href="#C2_5_a1c620902f" y="432.0"/>
    </g>
    <g clip-path="url(#p9462dbe390)">
     <use style="fill:none;stroke:#000000;stroke-linecap:butt;" x="0" xlink:href="#C2_6_44de433984" y="432.0"/>
    </g>
    <g clip-path="url(#p9462dbe390)">
     <use style="fill:none;stroke:#000000;stroke-linecap:butt;" x="0" xlink:href="#C2_7_858d82215a" y="432.0"/>
    </g>
    <g clip-path="url(#p9462dbe390)">
     <use style="fill:none;stroke:#000000;stroke-linecap:butt;" x="0" xlink:href="#C2_8_32b7f0762b" y="432.0"/>
    </g>
   </g>
   <g id="line2d_43">
    <path clip-path="url(#p9462dbe390)" d="
M85.6914 385.651
L86.2488 385.651
L87.3634 385.764
L88.3189 386.405
L89.0355 386.241
L89.6724 383.428
L91.1056 368.874
L91.9018 368.874
L92.1406 369.359
L92.3795 349.684
L92.6183 349.684
L93.3349 349.684
L94.8477 349.684
L95.7235 347.128
L95.8828 339.199
L97.714 339.451
L97.8732 338.767
L100.103 335.964
L100.66 335.964
L101.138 335.964
L102.252 335.964
L102.571 335.964
L107.507 319.093
L109.179 316.852
L118.893 315.473
L119.132 315.473
L121.043 315.924
L123.59 315.884
L123.67 315.884
L129.084 319.08
L130.517 319.08
L133.304 319.312
L134.419 319.312
L135.533 319.312
L136.25 319.312
L136.33 307.638
L137.285 307.638
L139.435 307.637
L139.833 307.637
L148.671 307.858
L155.518 307.858
L155.677 320.284
L157.508 320.378
L158.543 320.429
L163.719 320.391
L168.894 318.19
L183.624 332.027
L187.764 336.461
L211.65 329.143
L213.959 329.173
L224.707 329.318
L256.555 308.502
L269.374 308.444
L276.54 308.444" style="fill:none;stroke:#008000;"/>
   </g>
   <g id="matplotlib.axis_5">
    <g id="xtick_11">
     <g id="line2d_44">
      <g>
       <use style="stroke:#000000;stroke-linecap:butt;stroke-width:0.5;" x="102.376711775" xlink:href="#m0012dd4eef" y="388.44"/>
      </g>
     </g>
     <g id="line2d_45">
      <g>
       <use style="stroke:#000000;stroke-linecap:butt;stroke-width:0.5;" x="102.376711775" xlink:href="#m476344969c" y="229.334857337"/>
      </g>
     </g>
     <g id="text_24">
      <!-- −0.15 -->
      <g transform="translate(85.1492117746 401.34625)scale(0.12 -0.12)">
       <use xlink:href="#DejaVuSans-2212"/>
       <use x="83.7890625" xlink:href="#DejaVuSans-30"/>
       <use x="147.412109375" xlink:href="#DejaVuSans-2e"/>
       <use x="179.19921875" xlink:href="#DejaVuSans-31"/>
       <use x="242.822265625" xlink:href="#DejaVuSans-35"/>
      </g>
     </g>
    </g>
    <g id="xtick_12">
     <g id="line2d_46">
      <g>
       <use style="stroke:#000000;stroke-linecap:butt;stroke-width:0.5;" x="144.965298549" xlink:href="#m0012dd4eef" y="388.44"/>
      </g>
     </g>
     <g id="line2d_47">
      <g>
       <use style="stroke:#000000;stroke-linecap:butt;stroke-width:0.5;" x="144.965298549" xlink:href="#m476344969c" y="229.334857337"/>
      </g>
     </g>
     <g id="text_25">
      <!-- 0.00 -->
      <g transform="translate(132.399986049 401.34625)scale(0.12 -0.12)">
       <use xlink:href="#DejaVuSans-30"/>
       <use x="63.623046875" xlink:href="#DejaVuSans-2e"/>
       <use x="95.41015625" xlink:href="#DejaVuSans-30"/>
       <use x="159.033203125" xlink:href="#DejaVuSans-30"/>
      </g>
     </g>
    </g>
    <g id="xtick_13">
     <g id="line2d_48">
      <g>
       <use style="stroke:#000000;stroke-linecap:butt;stroke-width:0.5;" x="187.553885324" xlink:href="#m0012dd4eef" y="388.44"/>
      </g>
     </g>
     <g id="line2d_49">
      <g>
       <use style="stroke:#000000;stroke-linecap:butt;stroke-width:0.5;" x="187.553885324" xlink:href="#m476344969c" y="229.334857337"/>
      </g>
     </g>
     <g id="text_26">
      <!-- 0.15 -->
      <g transform="translate(175.114197824 401.34625)scale(0.12 -0.12)">
       <use xlink:href="#DejaVuSans-30"/>
       <use x="63.623046875" xlink:href="#DejaVuSans-2e"/>
       <use x="95.41015625" xlink:href="#DejaVuSans-31"/>
       <use x="159.033203125" xlink:href="#DejaVuSans-35"/>
      </g>
     </g>
    </g>
    <g id="xtick_14">
     <g id="line2d_50">
      <g>
       <use style="stroke:#000000;stroke-linecap:butt;stroke-width:0.5;" x="230.142472098" xlink:href="#m0012dd4eef" y="388.44"/>
      </g>
     </g>
     <g id="line2d_51">
      <g>
       <use style="stroke:#000000;stroke-linecap:butt;stroke-width:0.5;" x="230.142472098" xlink:href="#m476344969c" y="229.334857337"/>
      </g>
     </g>
     <g id="text_27">
      <!-- 0.30 -->
      <g transform="translate(217.577159598 401.34625)scale(0.12 -0.12)">
       <use xlink:href="#DejaVuSans-30"/>
       <use x="63.623046875" xlink:href="#DejaVuSans-2e"/>
       <use x="95.41015625" xlink:href="#DejaVuSans-33"/>
       <use x="159.033203125" xlink:href="#DejaVuSans-30"/>
      </g>
     </g>
    </g>
    <g id="xtick_15">
     <g id="line2d_52">
      <g>
       <use style="stroke:#000000;stroke-linecap:butt;stroke-width:0.5;" x="272.731058873" xlink:href="#m0012dd4eef" y="388.44"/>
      </g>
     </g>
     <g id="line2d_53">
      <g>
       <use style="stroke:#000000;stroke-linecap:butt;stroke-width:0.5;" x="272.731058873" xlink:href="#m476344969c" y="229.334857337"/>
      </g>
     </g>
     <g id="text_28">
      <!-- 0.45 -->
      <g transform="translate(260.291371373 401.34625)scale(0.12 -0.12)">
       <use xlink:href="#DejaVuSans-30"/>
       <use x="63.623046875" xlink:href="#DejaVuSans-2e"/>
       <use x="95.41015625" xlink:href="#DejaVuSans-34"/>
       <use x="159.033203125" xlink:href="#DejaVuSans-35"/>
      </g>
     </g>
    </g>
    <g id="text_29">
     <!-- pictureCount -->
     <defs>
      <path d="
M64.4062 67.2812
L64.4062 56.8906
Q59.4219 61.5312 53.7812 63.8125
Q48.1406 66.1094 41.7969 66.1094
Q29.2969 66.1094 22.6562 58.4688
Q16.0156 50.8281 16.0156 36.375
Q16.0156 21.9688 22.6562 14.3281
Q29.2969 6.6875 41.7969 6.6875
Q48.1406 6.6875 53.7812 8.98438
Q59.4219 11.2812 64.4062 15.9219
L64.4062 5.60938
Q59.2344 2.09375 53.4375 0.328125
Q47.6562 -1.42188 41.2188 -1.42188
Q24.6562 -1.42188 15.125 8.70312
Q5.60938 18.8438 5.60938 36.375
Q5.60938 53.9531 15.125 64.0781
Q24.6562 74.2188 41.2188 74.2188
Q47.75 74.2188 53.5312 72.4844
Q59.3281 70.75 64.4062 67.2812" id="DejaVuSans-43"/>
     </defs>
     <g transform="translate(135.274564732 415.635)scale(0.12 -0.12)">
      <use xlink:href="#DejaVuSans-70"/>
      <use x="63.4765625" xlink:href="#DejaVuSans-69"/>
      <use x="91.259765625" xlink:href="#DejaVuSans-63"/>
      <use x="146.240234375" xlink:href="#DejaVuSans-74"/>
      <use x="185.44921875" xlink:href="#DejaVuSans-75"/>
      <use x="248.828125" xlink:href="#DejaVuSans-72"/>
      <use x="287.69140625" xlink:href="#DejaVuSans-65"/>
      <use x="349.21484375" xlink:href="#DejaVuSans-43"/>
      <use x="419.0390625" xlink:href="#DejaVuSans-6f"/>
      <use x="480.220703125" xlink:href="#DejaVuSans-75"/>
      <use x="543.599609375" xlink:href="#DejaVuSans-6e"/>
      <use x="606.978515625" xlink:href="#DejaVuSans-74"/>
     </g>
    </g>
   </g>
   <g id="matplotlib.axis_6">
    <g id="ytick_11">
     <g id="line2d_54">
      <g>
       <use style="stroke:#000000;stroke-linecap:butt;stroke-width:0.5;" x="59.788125" xlink:href="#me8a85f7bf6" y="370.441546642"/>
      </g>
     </g>
     <g id="line2d_55">
      <g>
       <use style="stroke:#000000;stroke-linecap:butt;stroke-width:0.5;" x="286.927254464" xlink:href="#m1a32005dea" y="370.441546642"/>
      </g>
     </g>
     <g id="text_30">
      <!-- 0.00 -->
      <g transform="translate(30.6575 374.809359142)scale(0.12 -0.12)">
       <use xlink:href="#DejaVuSans-30"/>
       <use x="63.623046875" xlink:href="#DejaVuSans-2e"/>
       <use x="95.41015625" xlink:href="#DejaVuSans-30"/>
       <use x="159.033203125" xlink:href="#DejaVuSans-30"/>
      </g>
     </g>
    </g>
    <g id="ytick_12">
     <g id="line2d_56">
      <g>
       <use style="stroke:#000000;stroke-linecap:butt;stroke-width:0.5;" x="59.788125" xlink:href="#me8a85f7bf6" y="340.335445159"/>
      </g>
     </g>
     <g id="line2d_57">
      <g>
       <use style="stroke:#000000;stroke-linecap:butt;stroke-width:0.5;" x="286.927254464" xlink:href="#m1a32005dea" y="340.335445159"/>
      </g>
     </g>
     <g id="text_31">
      <!-- 0.02 -->
      <g transform="translate(31.0625 344.703257659)scale(0.12 -0.12)">
       <use xlink:href="#DejaVuSans-30"/>
       <use x="63.623046875" xlink:href="#DejaVuSans-2e"/>
       <use x="95.41015625" xlink:href="#DejaVuSans-30"/>
       <use x="159.033203125" xlink:href="#DejaVuSans-32"/>
      </g>
     </g>
    </g>
    <g id="ytick_13">
     <g id="line2d_58">
      <g>
       <use style="stroke:#000000;stroke-linecap:butt;stroke-width:0.5;" x="59.788125" xlink:href="#me8a85f7bf6" y="310.229343676"/>
      </g>
     </g>
     <g id="line2d_59">
      <g>
       <use style="stroke:#000000;stroke-linecap:butt;stroke-width:0.5;" x="286.927254464" xlink:href="#m1a32005dea" y="310.229343676"/>
      </g>
     </g>
     <g id="text_32">
      <!-- 0.04 -->
      <g transform="translate(30.53375 314.597156176)scale(0.12 -0.12)">
       <use xlink:href="#DejaVuSans-30"/>
       <use x="63.623046875" xlink:href="#DejaVuSans-2e"/>
       <use x="95.41015625" xlink:href="#DejaVuSans-30"/>
       <use x="159.033203125" xlink:href="#DejaVuSans-34"/>
      </g>
     </g>
    </g>
    <g id="ytick_14">
     <g id="line2d_60">
      <g>
       <use style="stroke:#000000;stroke-linecap:butt;stroke-width:0.5;" x="59.788125" xlink:href="#me8a85f7bf6" y="280.123242192"/>
      </g>
     </g>
     <g id="line2d_61">
      <g>
       <use style="stroke:#000000;stroke-linecap:butt;stroke-width:0.5;" x="286.927254464" xlink:href="#m1a32005dea" y="280.123242192"/>
      </g>
     </g>
     <g id="text_33">
      <!-- 0.06 -->
      <g transform="translate(30.61625 284.491054692)scale(0.12 -0.12)">
       <use xlink:href="#DejaVuSans-30"/>
       <use x="63.623046875" xlink:href="#DejaVuSans-2e"/>
       <use x="95.41015625" xlink:href="#DejaVuSans-30"/>
       <use x="159.033203125" xlink:href="#DejaVuSans-36"/>
      </g>
     </g>
    </g>
    <g id="ytick_15">
     <g id="line2d_62">
      <g>
       <use style="stroke:#000000;stroke-linecap:butt;stroke-width:0.5;" x="59.788125" xlink:href="#me8a85f7bf6" y="250.017140709"/>
      </g>
     </g>
     <g id="line2d_63">
      <g>
       <use style="stroke:#000000;stroke-linecap:butt;stroke-width:0.5;" x="286.927254464" xlink:href="#m1a32005dea" y="250.017140709"/>
      </g>
     </g>
     <g id="text_34">
      <!-- 0.08 -->
      <g transform="translate(30.681875 254.384953209)scale(0.12 -0.12)">
       <use xlink:href="#DejaVuSans-30"/>
       <use x="63.623046875" xlink:href="#DejaVuSans-2e"/>
       <use x="95.41015625" xlink:href="#DejaVuSans-30"/>
       <use x="159.033203125" xlink:href="#DejaVuSans-38"/>
      </g>
     </g>
    </g>
    <g id="text_35">
     <!-- Partial Dependence -->
     <g transform="translate(25.53375 364.742741168)rotate(-90.0)scale(0.12 -0.12)">
      <use xlink:href="#DejaVuSans-50"/>
      <use x="55.802734375" xlink:href="#DejaVuSans-61"/>
      <use x="117.08203125" xlink:href="#DejaVuSans-72"/>
      <use x="158.1953125" xlink:href="#DejaVuSans-74"/>
      <use x="197.404296875" xlink:href="#DejaVuSans-69"/>
      <use x="225.1875" xlink:href="#DejaVuSans-61"/>
      <use x="286.466796875" xlink:href="#DejaVuSans-6c"/>
      <use x="314.25" xlink:href="#DejaVuSans-20"/>
      <use x="346.037109375" xlink:href="#DejaVuSans-44"/>
      <use x="423.0390625" xlink:href="#DejaVuSans-65"/>
      <use x="484.5625" xlink:href="#DejaVuSans-70"/>
      <use x="548.0390625" xlink:href="#DejaVuSans-65"/>
      <use x="609.5625" xlink:href="#DejaVuSans-6e"/>
      <use x="672.94140625" xlink:href="#DejaVuSans-64"/>
      <use x="736.41796875" xlink:href="#DejaVuSans-65"/>
      <use x="797.94140625" xlink:href="#DejaVuSans-6e"/>
      <use x="861.3203125" xlink:href="#DejaVuSans-63"/>
      <use x="916.30078125" xlink:href="#DejaVuSans-65"/>
     </g>
    </g>
   </g>
   <g id="patch_13">
    <path d="
M59.7881 229.335
L286.927 229.335" style="fill:none;stroke:#000000;"/>
   </g>
   <g id="patch_14">
    <path d="
M286.927 388.44
L286.927 229.335" style="fill:none;stroke:#000000;"/>
   </g>
   <g id="patch_15">
    <path d="
M59.7881 388.44
L286.927 388.44" style="fill:none;stroke:#000000;"/>
   </g>
   <g id="patch_16">
    <path d="
M59.7881 388.44
L59.7881 229.335" style="fill:none;stroke:#000000;"/>
   </g>
  </g>
  <g id="axes_4">
   <g id="patch_17">
    <path d="
M335.901 388.44
L563.04 388.44
L563.04 229.335
L335.901 229.335
z
" style="fill:#ffffff;"/>
   </g>
   <g id="LineCollection_4">
    <defs>
     <path d="
M463.4 -43.56
L463.4 -51.5153" id="C3_0_7dccef342d"/>
     <path d="
M484.233 -43.56
L484.233 -51.5153" id="C3_1_715da77c26"/>
     <path d="
M500.244 -43.56
L500.244 -51.5153" id="C3_2_c578391696"/>
     <path d="
M512.384 -43.56
L512.384 -51.5153" id="C3_3_1ee05f767e"/>
     <path d="
M520.97 -43.56
L520.97 -51.5153" id="C3_4_2267fe341c"/>
     <path d="
M526.94 -43.56
L526.94 -51.5153" id="C3_5_0375b34811"/>
     <path d="
M531.77 -43.56
L531.77 -51.5153" id="C3_6_00ea36af06"/>
     <path d="
M535.335 -43.56
L535.335 -51.5153" id="C3_7_c649537d0e"/>
     <path d="
M540.66 -43.56
L540.66 -51.5153" id="C3_8_a8a66ebf57"/>
    </defs>
    <g clip-path="url(#pcdae4f5700)">
     <use style="fill:none;stroke:#000000;stroke-linecap:butt;" x="0" xlink:href="#C3_0_7dccef342d" y="432.0"/>
    </g>
    <g clip-path="url(#pcdae4f5700)">
     <use style="fill:none;stroke:#000000;stroke-linecap:butt;" x="0" xlink:href="#C3_1_715da77c26" y="432.0"/>
    </g>
    <g clip-path="url(#pcdae4f5700)">
     <use style="fill:none;stroke:#000000;stroke-linecap:butt;" x="0" xlink:href="#C3_2_c578391696" y="432.0"/>
    </g>
    <g clip-path="url(#pcdae4f5700)">
     <use style="fill:none;stroke:#000000;stroke-linecap:butt;" x="0" xlink:href="#C3_3_1ee05f767e" y="432.0"/>
    </g>
    <g clip-path="url(#pcdae4f5700)">
     <use style="fill:none;stroke:#000000;stroke-linecap:butt;" x="0" xlink:href="#C3_4_2267fe341c" y="432.0"/>
    </g>
    <g clip-path="url(#pcdae4f5700)">
     <use style="fill:none;stroke:#000000;stroke-linecap:butt;" x="0" xlink:href="#C3_5_0375b34811" y="432.0"/>
    </g>
    <g clip-path="url(#pcdae4f5700)">
     <use style="fill:none;stroke:#000000;stroke-linecap:butt;" x="0" xlink:href="#C3_6_00ea36af06" y="432.0"/>
    </g>
    <g clip-path="url(#pcdae4f5700)">
     <use style="fill:none;stroke:#000000;stroke-linecap:butt;" x="0" xlink:href="#C3_7_c649537d0e" y="432.0"/>
    </g>
    <g clip-path="url(#pcdae4f5700)">
     <use style="fill:none;stroke:#000000;stroke-linecap:butt;" x="0" xlink:href="#C3_8_a8a66ebf57" y="432.0"/>
    </g>
   </g>
   <g id="line2d_64">
    <path clip-path="url(#pcdae4f5700)" d="
M358.424 261.373
L390.426 261.373
L395.243 261.367
L425.335 261.162
L429.509 259.206
L463.4 253.445
L468.077 253.445
L471.05 254.385
L472.214 254.385
L480.905 254.449
L483.439 254.449
L484.384 254.449
L489.242 256.158
L492.845 256.478
L494.426 256.546
L495.269 289.382
L500.222 290.454
L500.591 290.454
L505.678 290.454
L509.351 290.454
L510.832 290.454
L510.978 290.454
L511.854 386.71
L513.746 386.739
L517.661 388.024
L517.901 388.024
L520.419 388.025
L520.7 388.025
L521.24 388.011
L521.344 388.44
L524.666 388.44
L524.678 388.44
L525.522 388.44
L526.761 386.421
L527.01 386.421
L529.828 366.732
L530.327 366.732
L530.839 363.763
L531.605 361.555
L531.78 361.479
L531.945 361.479
L532.455 361.479
L533.763 361.288
L533.933 361.288
L534.418 360.879
L535.294 360.696
L535.55 327.602
L536.084 328.193
L536.45 328.193
L537.382 330.037
L537.414 330.142
L540.345 331.58
L541.173 331.58
L541.905 331.704
L545.249 331.262
L548.717 331.71
L552.019 331.71" style="fill:none;stroke:#008000;"/>
   </g>
   <g id="matplotlib.axis_7">
    <g id="xtick_16">
     <g id="line2d_65">
      <g>
       <use style="stroke:#000000;stroke-linecap:butt;stroke-width:0.5;" x="378.48945731" xlink:href="#m0012dd4eef" y="388.44"/>
      </g>
     </g>
     <g id="line2d_66">
      <g>
       <use style="stroke:#000000;stroke-linecap:butt;stroke-width:0.5;" x="378.48945731" xlink:href="#m476344969c" y="229.334857337"/>
      </g>
     </g>
     <g id="text_36">
      <!-- −0.45 -->
      <g transform="translate(361.26195731 401.34625)scale(0.12 -0.12)">
       <use xlink:href="#DejaVuSans-2212"/>
       <use x="83.7890625" xlink:href="#DejaVuSans-30"/>
       <use x="147.412109375" xlink:href="#DejaVuSans-2e"/>
       <use x="179.19921875" xlink:href="#DejaVuSans-34"/>
       <use x="242.822265625" xlink:href="#DejaVuSans-35"/>
      </g>
     </g>
    </g>
    <g id="xtick_17">
     <g id="line2d_67">
      <g>
       <use style="stroke:#000000;stroke-linecap:butt;stroke-width:0.5;" x="421.078044085" xlink:href="#m0012dd4eef" y="388.44"/>
      </g>
     </g>
     <g id="line2d_68">
      <g>
       <use style="stroke:#000000;stroke-linecap:butt;stroke-width:0.5;" x="421.078044085" xlink:href="#m476344969c" y="229.334857337"/>
      </g>
     </g>
     <g id="text_37">
      <!-- −0.30 -->
      <g transform="translate(403.724919085 401.34625)scale(0.12 -0.12)">
       <use xlink:href="#DejaVuSans-2212"/>
       <use x="83.7890625" xlink:href="#DejaVuSans-30"/>
       <use x="147.412109375" xlink:href="#DejaVuSans-2e"/>
       <use x="179.19921875" xlink:href="#DejaVuSans-33"/>
       <use x="242.822265625" xlink:href="#DejaVuSans-30"/>
      </g>
     </g>
    </g>
    <g id="xtick_18">
     <g id="line2d_69">
      <g>
       <use style="stroke:#000000;stroke-linecap:butt;stroke-width:0.5;" x="463.666630859" xlink:href="#m0012dd4eef" y="388.44"/>
      </g>
     </g>
     <g id="line2d_70">
      <g>
       <use style="stroke:#000000;stroke-linecap:butt;stroke-width:0.5;" x="463.666630859" xlink:href="#m476344969c" y="229.334857337"/>
      </g>
     </g>
     <g id="text_38">
      <!-- −0.15 -->
      <g transform="translate(446.439130859 401.34625)scale(0.12 -0.12)">
       <use xlink:href="#DejaVuSans-2212"/>
       <use x="83.7890625" xlink:href="#DejaVuSans-30"/>
       <use x="147.412109375" xlink:href="#DejaVuSans-2e"/>
       <use x="179.19921875" xlink:href="#DejaVuSans-31"/>
       <use x="242.822265625" xlink:href="#DejaVuSans-35"/>
      </g>
     </g>
    </g>
    <g id="xtick_19">
     <g id="line2d_71">
      <g>
       <use style="stroke:#000000;stroke-linecap:butt;stroke-width:0.5;" x="506.255217634" xlink:href="#m0012dd4eef" y="388.44"/>
      </g>
     </g>
     <g id="line2d_72">
      <g>
       <use style="stroke:#000000;stroke-linecap:butt;stroke-width:0.5;" x="506.255217634" xlink:href="#m476344969c" y="229.334857337"/>
      </g>
     </g>
     <g id="text_39">
      <!-- 0.00 -->
      <g transform="translate(493.689905134 401.34625)scale(0.12 -0.12)">
       <use xlink:href="#DejaVuSans-30"/>
       <use x="63.623046875" xlink:href="#DejaVuSans-2e"/>
       <use x="95.41015625" xlink:href="#DejaVuSans-30"/>
       <use x="159.033203125" xlink:href="#DejaVuSans-30"/>
      </g>
     </g>
    </g>
    <g id="xtick_20">
     <g id="line2d_73">
      <g>
       <use style="stroke:#000000;stroke-linecap:butt;stroke-width:0.5;" x="548.843804408" xlink:href="#m0012dd4eef" y="388.44"/>
      </g>
     </g>
     <g id="line2d_74">
      <g>
       <use style="stroke:#000000;stroke-linecap:butt;stroke-width:0.5;" x="548.843804408" xlink:href="#m476344969c" y="229.334857337"/>
      </g>
     </g>
     <g id="text_40">
      <!-- 0.15 -->
      <g transform="translate(536.404116908 401.34625)scale(0.12 -0.12)">
       <use xlink:href="#DejaVuSans-30"/>
       <use x="63.623046875" xlink:href="#DejaVuSans-2e"/>
       <use x="95.41015625" xlink:href="#DejaVuSans-31"/>
       <use x="159.033203125" xlink:href="#DejaVuSans-35"/>
      </g>
     </g>
    </g>
    <g id="text_41">
     <!-- starRating -->
     <g transform="translate(419.378560268 415.635)scale(0.12 -0.12)">
      <use xlink:href="#DejaVuSans-73"/>
      <use x="52.099609375" xlink:href="#DejaVuSans-74"/>
      <use x="91.30859375" xlink:href="#DejaVuSans-61"/>
      <use x="152.587890625" xlink:href="#DejaVuSans-72"/>
      <use x="193.701171875" xlink:href="#DejaVuSans-52"/>
      <use x="260.93359375" xlink:href="#DejaVuSans-61"/>
      <use x="322.212890625" xlink:href="#DejaVuSans-74"/>
      <use x="361.421875" xlink:href="#DejaVuSans-69"/>
      <use x="389.205078125" xlink:href="#DejaVuSans-6e"/>
      <use x="452.583984375" xlink:href="#DejaVuSans-67"/>
     </g>
    </g>
   </g>
   <g id="matplotlib.axis_8">
    <g id="ytick_16">
     <g id="line2d_75">
      <g>
       <use style="stroke:#000000;stroke-linecap:butt;stroke-width:0.5;" x="335.900870536" xlink:href="#me8a85f7bf6" y="370.441546642"/>
      </g>
     </g>
     <g id="line2d_76">
      <g>
       <use style="stroke:#000000;stroke-linecap:butt;stroke-width:0.5;" x="563.04" xlink:href="#m1a32005dea" y="370.441546642"/>
      </g>
     </g>
     <g id="text_42">
      <!-- 0.00 -->
      <g transform="translate(306.770245536 374.809359142)scale(0.12 -0.12)">
       <use xlink:href="#DejaVuSans-30"/>
       <use x="63.623046875" xlink:href="#DejaVuSans-2e"/>
       <use x="95.41015625" xlink:href="#DejaVuSans-30"/>
       <use x="159.033203125" xlink:href="#DejaVuSans-30"/>
      </g>
     </g>
    </g>
    <g id="ytick_17">
     <g id="line2d_77">
      <g>
       <use style="stroke:#000000;stroke-linecap:butt;stroke-width:0.5;" x="335.900870536" xlink:href="#me8a85f7bf6" y="340.335445159"/>
      </g>
     </g>
     <g id="line2d_78">
      <g>
       <use style="stroke:#000000;stroke-linecap:butt;stroke-width:0.5;" x="563.04" xlink:href="#m1a32005dea" y="340.335445159"/>
      </g>
     </g>
     <g id="text_43">
      <!-- 0.02 -->
      <g transform="translate(307.175245536 344.703257659)scale(0.12 -0.12)">
       <use xlink:href="#DejaVuSans-30"/>
       <use x="63.623046875" xlink:href="#DejaVuSans-2e"/>
       <use x="95.41015625" xlink:href="#DejaVuSans-30"/>
       <use x="159.033203125" xlink:href="#DejaVuSans-32"/>
      </g>
     </g>
    </g>
    <g id="ytick_18">
     <g id="line2d_79">
      <g>
       <use style="stroke:#000000;stroke-linecap:butt;stroke-width:0.5;" x="335.900870536" xlink:href="#me8a85f7bf6" y="310.229343676"/>
      </g>
     </g>
     <g id="line2d_80">
      <g>
       <use style="stroke:#000000;stroke-linecap:butt;stroke-width:0.5;" x="563.04" xlink:href="#m1a32005dea" y="310.229343676"/>
      </g>
     </g>
     <g id="text_44">
      <!-- 0.04 -->
      <g transform="translate(306.646495536 314.597156176)scale(0.12 -0.12)">
       <use xlink:href="#DejaVuSans-30"/>
       <use x="63.623046875" xlink:href="#DejaVuSans-2e"/>
       <use x="95.41015625" xlink:href="#DejaVuSans-30"/>
       <use x="159.033203125" xlink:href="#DejaVuSans-34"/>
      </g>
     </g>
    </g>
    <g id="ytick_19">
     <g id="line2d_81">
      <g>
       <use style="stroke:#000000;stroke-linecap:butt;stroke-width:0.5;" x="335.900870536" xlink:href="#me8a85f7bf6" y="280.123242192"/>
      </g>
     </g>
     <g id="line2d_82">
      <g>
       <use style="stroke:#000000;stroke-linecap:butt;stroke-width:0.5;" x="563.04" xlink:href="#m1a32005dea" y="280.123242192"/>
      </g>
     </g>
     <g id="text_45">
      <!-- 0.06 -->
      <g transform="translate(306.728995536 284.491054692)scale(0.12 -0.12)">
       <use xlink:href="#DejaVuSans-30"/>
       <use x="63.623046875" xlink:href="#DejaVuSans-2e"/>
       <use x="95.41015625" xlink:href="#DejaVuSans-30"/>
       <use x="159.033203125" xlink:href="#DejaVuSans-36"/>
      </g>
     </g>
    </g>
    <g id="ytick_20">
     <g id="line2d_83">
      <g>
       <use style="stroke:#000000;stroke-linecap:butt;stroke-width:0.5;" x="335.900870536" xlink:href="#me8a85f7bf6" y="250.017140709"/>
      </g>
     </g>
     <g id="line2d_84">
      <g>
       <use style="stroke:#000000;stroke-linecap:butt;stroke-width:0.5;" x="563.04" xlink:href="#m1a32005dea" y="250.017140709"/>
      </g>
     </g>
     <g id="text_46">
      <!-- 0.08 -->
      <g transform="translate(306.794620536 254.384953209)scale(0.12 -0.12)">
       <use xlink:href="#DejaVuSans-30"/>
       <use x="63.623046875" xlink:href="#DejaVuSans-2e"/>
       <use x="95.41015625" xlink:href="#DejaVuSans-30"/>
       <use x="159.033203125" xlink:href="#DejaVuSans-38"/>
      </g>
     </g>
    </g>
   </g>
   <g id="patch_18">
    <path d="
M335.901 229.335
L563.04 229.335" style="fill:none;stroke:#000000;"/>
   </g>
   <g id="patch_19">
    <path d="
M563.04 388.44
L563.04 229.335" style="fill:none;stroke:#000000;"/>
   </g>
   <g id="patch_20">
    <path d="
M335.901 388.44
L563.04 388.44" style="fill:none;stroke:#000000;"/>
   </g>
   <g id="patch_21">
    <path d="
M335.901 388.44
L335.901 229.335" style="fill:none;stroke:#000000;"/>
   </g>
  </g>
  <g id="text_47">
   <!-- Partial dependence of privacy comfort score on most important features -->
   <defs>
    <path d="
M2.98438 54.6875
L12.5 54.6875
L29.5938 8.79688
L46.6875 54.6875
L56.2031 54.6875
L35.6875 0
L23.4844 0
z
" id="DejaVuSans-76"/>
    <path d="
M32.1719 -5.07812
Q28.375 -14.8438 24.75 -17.8125
Q21.1406 -20.7969 15.0938 -20.7969
L7.90625 -20.7969
L7.90625 -13.2812
L13.1875 -13.2812
Q16.8906 -13.2812 18.9375 -11.5156
Q21 -9.76562 23.4844 -3.21875
L25.0938 0.875
L2.98438 54.6875
L12.5 54.6875
L29.5938 11.9219
L46.6875 54.6875
L56.2031 54.6875
z
" id="DejaVuSans-79"/>
   </defs>
   <g transform="translate(70.9434375 17.758125)scale(0.12 -0.12)">
    <use xlink:href="#DejaVuSans-50"/>
    <use x="55.802734375" xlink:href="#DejaVuSans-61"/>
    <use x="117.08203125" xlink:href="#DejaVuSans-72"/>
    <use x="158.1953125" xlink:href="#DejaVuSans-74"/>
    <use x="197.404296875" xlink:href="#DejaVuSans-69"/>
    <use x="225.1875" xlink:href="#DejaVuSans-61"/>
    <use x="286.466796875" xlink:href="#DejaVuSans-6c"/>
    <use x="314.25" xlink:href="#DejaVuSans-20"/>
    <use x="346.037109375" xlink:href="#DejaVuSans-64"/>
    <use x="409.513671875" xlink:href="#DejaVuSans-65"/>
    <use x="471.037109375" xlink:href="#DejaVuSans-70"/>
    <use x="534.513671875" xlink:href="#DejaVuSans-65"/>
    <use x="596.037109375" xlink:href="#DejaVuSans-6e"/>
    <use x="659.416015625" xlink:href="#DejaVuSans-64"/>
    <use x="722.892578125" xlink:href="#DejaVuSans-65"/>
    <use x="784.416015625" xlink:href="#DejaVuSans-6e"/>
    <use x="847.794921875" xlink:href="#DejaVuSans-63"/>
    <use x="902.775390625" xlink:href="#DejaVuSans-65"/>
    <use x="964.298828125" xlink:href="#DejaVuSans-20"/>
    <use x="996.0859375" xlink:href="#DejaVuSans-6f"/>
    <use x="1057.26757812" xlink:href="#DejaVuSans-66"/>
    <use x="1092.47265625" xlink:href="#DejaVuSans-20"/>
    <use x="1124.25976562" xlink:href="#DejaVuSans-70"/>
    <use x="1187.73632812" xlink:href="#DejaVuSans-72"/>
    <use x="1228.84960938" xlink:href="#DejaVuSans-69"/>
    <use x="1256.6328125" xlink:href="#DejaVuSans-76"/>
    <use x="1315.8125" xlink:href="#DejaVuSans-61"/>
    <use x="1377.09179688" xlink:href="#DejaVuSans-63"/>
    <use x="1432.07226562" xlink:href="#DejaVuSans-79"/>
    <use x="1491.25195312" xlink:href="#DejaVuSans-20"/>
    <use x="1523.0390625" xlink:href="#DejaVuSans-63"/>
    <use x="1578.01953125" xlink:href="#DejaVuSans-6f"/>
    <use x="1639.20117188" xlink:href="#DejaVuSans-6d"/>
    <use x="1736.61328125" xlink:href="#DejaVuSans-66"/>
    <use x="1771.81835938" xlink:href="#DejaVuSans-6f"/>
    <use x="1833.0" xlink:href="#DejaVuSans-72"/>
    <use x="1874.11328125" xlink:href="#DejaVuSans-74"/>
    <use x="1913.32226562" xlink:href="#DejaVuSans-20"/>
    <use x="1945.109375" xlink:href="#DejaVuSans-73"/>
    <use x="1997.20898438" xlink:href="#DejaVuSans-63"/>
    <use x="2052.18945312" xlink:href="#DejaVuSans-6f"/>
    <use x="2113.37109375" xlink:href="#DejaVuSans-72"/>
    <use x="2152.234375" xlink:href="#DejaVuSans-65"/>
    <use x="2213.7578125" xlink:href="#DejaVuSans-20"/>
    <use x="2245.54492188" xlink:href="#DejaVuSans-6f"/>
    <use x="2306.7265625" xlink:href="#DejaVuSans-6e"/>
    <use x="2370.10546875" xlink:href="#DejaVuSans-20"/>
    <use x="2401.89257812" xlink:href="#DejaVuSans-6d"/>
    <use x="2499.3046875" xlink:href="#DejaVuSans-6f"/>
    <use x="2560.48632812" xlink:href="#DejaVuSans-73"/>
    <use x="2612.5859375" xlink:href="#DejaVuSans-74"/>
    <use x="2651.79492188" xlink:href="#DejaVuSans-20"/>
    <use x="2683.58203125" xlink:href="#DejaVuSans-69"/>
    <use x="2711.36523438" xlink:href="#DejaVuSans-6d"/>
    <use x="2808.77734375" xlink:href="#DejaVuSans-70"/>
    <use x="2872.25390625" xlink:href="#DejaVuSans-6f"/>
    <use x="2933.43554688" xlink:href="#DejaVuSans-72"/>
    <use x="2974.54882812" xlink:href="#DejaVuSans-74"/>
    <use x="3013.7578125" xlink:href="#DejaVuSans-61"/>
    <use x="3075.03710938" xlink:href="#DejaVuSans-6e"/>
    <use x="3138.41601562" xlink:href="#DejaVuSans-74"/>
    <use x="3177.625" xlink:href="#DejaVuSans-20"/>
    <use x="3209.41210938" xlink:href="#DejaVuSans-66"/>
    <use x="3244.6171875" xlink:href="#DejaVuSans-65"/>
    <use x="3306.140625" xlink:href="#DejaVuSans-61"/>
    <use x="3367.41992188" xlink:href="#DejaVuSans-74"/>
    <use x="3406.62890625" xlink:href="#DejaVuSans-75"/>
    <use x="3470.0078125" xlink:href="#DejaVuSans-72"/>
    <use x="3508.87109375" xlink:href="#DejaVuSans-65"/>
    <use x="3570.39453125" xlink:href="#DejaVuSans-73"/>
   </g>
  </g>
 </g>
 <defs>
  <clipPath id="p7c68522b1b">
   <rect height="159.105142663" width="227.139129464" x="59.788125" y="19.814857337"/>
  </clipPath>
  <clipPath id="pcdae4f5700">
   <rect height="159.105142663" width="227.139129464" x="335.900870536" y="229.334857337"/>
  </clipPath>
  <clipPath id="p9462dbe390">
   <rect height="159.105142663" width="227.139129464" x="59.788125" y="229.334857337"/>
  </clipPath>
  <clipPath id="p80d11787a9">
   <rect height="159.105142663" width="227.139129464" x="335.900870536" y="19.814857337"/>
  </clipPath>
 </defs>
</svg>
