<?xml version="1.0" encoding="utf-8" standalone="no"?>
<!DOCTYPE svg PUBLIC "-//W3C//DTD SVG 1.1//EN"
  "http://www.w3.org/Graphics/SVG/1.1/DTD/svg11.dtd">
<!-- Created with matplotlib (http://matplotlib.sourceforge.net/) -->
<svg height="432pt" version="1.1" viewBox="0 0 576 432" width="576pt" xmlns="http://www.w3.org/2000/svg" xmlns:xlink="http://www.w3.org/1999/xlink">
 <defs>
  <style type="text/css">
*{stroke-linecap:square;stroke-linejoin:round;}
  </style>
 </defs>
 <g id="figure_1">
  <g id="patch_1">
   <path d="
M0 432
L576 432
L576 0
L0 0
z
" style="fill:#ffffff;"/>
  </g>
  <g id="axes_1">
   <g id="patch_2">
    <path d="
M69.1959 178.92
L284.076 178.92
L284.076 19.8149
L69.1959 19.8149
z
" style="fill:#ffffff;"/>
   </g>
   <g id="LineCollection_1">
    <defs>
     <path d="
M129.695 -253.08
L129.695 -261.035" id="C0_0_56e8f2526c"/>
     <path d="
M164.514 -253.08
L164.514 -261.035" id="C0_1_4fa32b76e6"/>
     <path d="
M189.08 -253.08
L189.08 -261.035" id="C0_2_4425052111"/>
     <path d="
M206.819 -253.08
L206.819 -261.035" id="C0_3_534b2bf3c3"/>
     <path d="
M219.598 -253.08
L219.598 -261.035" id="C0_4_f7a05c44cc"/>
     <path d="
M226.573 -253.08
L226.573 -261.035" id="C0_5_be8bf205e5"/>
     <path d="
M233.932 -253.08
L233.932 -261.035" id="C0_6_70a624e4b8"/>
     <path d="
M242.421 -253.08
L242.421 -261.035" id="C0_7_a7cde6efdd"/>
     <path d="
M252.093 -253.08
L252.093 -261.035" id="C0_8_ba02cd2540"/>
    </defs>
    <g clip-path="url(#paf31ce1901)">
     <use style="fill:none;stroke:#000000;stroke-linecap:butt;" x="0" xlink:href="#C0_0_56e8f2526c" y="432.0"/>
    </g>
    <g clip-path="url(#paf31ce1901)">
     <use style="fill:none;stroke:#000000;stroke-linecap:butt;" x="0" xlink:href="#C0_1_4fa32b76e6" y="432.0"/>
    </g>
    <g clip-path="url(#paf31ce1901)">
     <use style="fill:none;stroke:#000000;stroke-linecap:butt;" x="0" xlink:href="#C0_2_4425052111" y="432.0"/>
    </g>
    <g clip-path="url(#paf31ce1901)">
     <use style="fill:none;stroke:#000000;stroke-linecap:butt;" x="0" xlink:href="#C0_3_534b2bf3c3" y="432.0"/>
    </g>
    <g clip-path="url(#paf31ce1901)">
     <use style="fill:none;stroke:#000000;stroke-linecap:butt;" x="0" xlink:href="#C0_4_f7a05c44cc" y="432.0"/>
    </g>
    <g clip-path="url(#paf31ce1901)">
     <use style="fill:none;stroke:#000000;stroke-linecap:butt;" x="0" xlink:href="#C0_5_be8bf205e5" y="432.0"/>
    </g>
    <g clip-path="url(#paf31ce1901)">
     <use style="fill:none;stroke:#000000;stroke-linecap:butt;" x="0" xlink:href="#C0_6_70a624e4b8" y="432.0"/>
    </g>
    <g clip-path="url(#paf31ce1901)">
     <use style="fill:none;stroke:#000000;stroke-linecap:butt;" x="0" xlink:href="#C0_7_a7cde6efdd" y="432.0"/>
    </g>
    <g clip-path="url(#paf31ce1901)">
     <use style="fill:none;stroke:#000000;stroke-linecap:butt;" x="0" xlink:href="#C0_8_ba02cd2540" y="432.0"/>
    </g>
   </g>
   <g id="line2d_1">
    <path clip-path="url(#paf31ce1901)" d="
M89.7439 43.2828
L91.4944 46.8068
L93.2449 46.8068
L94.9954 46.8068
L96.7459 53.1016
L98.4965 53.7464
L100.247 53.7464
L101.997 53.7464
L103.748 53.7464
L105.498 53.7464
L107.249 53.7464
L108.999 53.7464
L110.75 53.7464
L112.5 54.4891
L114.251 54.4891
L116.001 54.4891
L117.752 54.4891
L119.502 54.4891
L121.253 54.4891
L123.003 56.1895
L124.754 56.1895
L126.504 54.856
L128.255 54.856
L130.006 54.856
L131.756 54.856
L133.507 54.856
L135.257 54.856
L137.008 54.856
L138.758 54.856
L140.509 54.856
L142.259 54.856
L144.01 54.856
L145.76 54.856
L147.511 54.0089
L149.261 54.0089
L151.012 54.0089
L152.762 53.0769
L154.513 58.1568
L156.263 58.1568
L158.014 58.1568
L159.764 58.1568
L161.515 58.1568
L163.265 58.1568
L165.016 58.2323
L166.766 58.2323
L168.517 58.5353
L170.267 58.5353
L172.018 58.5353
L173.768 59.9559
L175.519 59.9559
L177.269 62.1881
L179.02 62.1881
L180.77 62.1881
L182.521 62.1881
L184.271 62.1881
L186.022 66.8948
L187.772 73.4951
L189.523 73.4951
L191.273 73.4951
L193.024 74.8601
L194.774 75.1821
L196.525 75.3123
L198.275 75.256
L200.026 75.256
L201.776 75.256
L203.527 75.256
L205.277 75.1478
L207.028 75.1478
L208.778 75.1478
L210.529 75.0119
L212.279 75.8711
L214.03 75.7041
L215.78 75.7041
L217.531 75.7041
L219.281 75.7041
L221.032 75.7041
L222.782 75.8143
L224.533 75.7576
L226.283 75.7576
L228.034 74.8914
L229.784 74.8642
L231.535 74.8642
L233.285 87.5686
L235.036 87.5686
L236.786 88.1598
L238.537 87.8278
L240.287 88.1776
L242.038 93.1528
L243.788 117.114
L245.539 117.114
L247.289 124.158
L249.04 124.585
L250.79 125.37
L252.541 131.647
L254.291 131.596
L256.042 131.596
L257.792 131.714
L259.543 131.714
L261.293 131.714
L263.044 134.614" style="fill:none;stroke:#008000;"/>
   </g>
   <g id="matplotlib.axis_1">
    <g id="xtick_1">
     <g id="line2d_2">
      <defs>
       <path d="
M0 0
L0 -4" id="m0012dd4eef" style="stroke:#000000;stroke-linecap:butt;stroke-width:0.5;"/>
      </defs>
      <g>
       <use style="stroke:#000000;stroke-linecap:butt;stroke-width:0.5;" x="69.1959375" xlink:href="#m0012dd4eef" y="178.92"/>
      </g>
     </g>
     <g id="line2d_3">
      <defs>
       <path d="
M0 0
L0 4" id="m476344969c" style="stroke:#000000;stroke-linecap:butt;stroke-width:0.5;"/>
      </defs>
      <g>
       <use style="stroke:#000000;stroke-linecap:butt;stroke-width:0.5;" x="69.1959375" xlink:href="#m476344969c" y="19.814857337"/>
      </g>
     </g>
     <g id="text_1">
      <!-- −0.3 -->
      <defs>
       <path d="
M31.7812 66.4062
Q24.1719 66.4062 20.3281 58.9062
Q16.5 51.4219 16.5 36.375
Q16.5 21.3906 20.3281 13.8906
Q24.1719 6.39062 31.7812 6.39062
Q39.4531 6.39062 43.2812 13.8906
Q47.125 21.3906 47.125 36.375
Q47.125 51.4219 43.2812 58.9062
Q39.4531 66.4062 31.7812 66.4062
M31.7812 74.2188
Q44.0469 74.2188 50.5156 64.5156
Q56.9844 54.8281 56.9844 36.375
Q56.9844 17.9688 50.5156 8.26562
Q44.0469 -1.42188 31.7812 -1.42188
Q19.5312 -1.42188 13.0625 8.26562
Q6.59375 17.9688 6.59375 36.375
Q6.59375 54.8281 13.0625 64.5156
Q19.5312 74.2188 31.7812 74.2188" id="DejaVuSans-30"/>
       <path d="
M40.5781 39.3125
Q47.6562 37.7969 51.625 33
Q55.6094 28.2188 55.6094 21.1875
Q55.6094 10.4062 48.1875 4.48438
Q40.7656 -1.42188 27.0938 -1.42188
Q22.5156 -1.42188 17.6562 -0.515625
Q12.7969 0.390625 7.625 2.20312
L7.625 11.7188
Q11.7188 9.32812 16.5938 8.10938
Q21.4844 6.89062 26.8125 6.89062
Q36.0781 6.89062 40.9375 10.5469
Q45.7969 14.2031 45.7969 21.1875
Q45.7969 27.6406 41.2812 31.2656
Q36.7656 34.9062 28.7188 34.9062
L20.2188 34.9062
L20.2188 43.0156
L29.1094 43.0156
Q36.375 43.0156 40.2344 45.9219
Q44.0938 48.8281 44.0938 54.2969
Q44.0938 59.9062 40.1094 62.9062
Q36.1406 65.9219 28.7188 65.9219
Q24.6562 65.9219 20.0156 65.0312
Q15.375 64.1562 9.8125 62.3125
L9.8125 71.0938
Q15.4375 72.6562 20.3438 73.4375
Q25.25 74.2188 29.5938 74.2188
Q40.8281 74.2188 47.3594 69.1094
Q53.9062 64.0156 53.9062 55.3281
Q53.9062 49.2656 50.4375 45.0938
Q46.9688 40.9219 40.5781 39.3125" id="DejaVuSans-33"/>
       <path d="
M10.6875 12.4062
L21 12.4062
L21 0
L10.6875 0
z
" id="DejaVuSans-2e"/>
       <path d="
M10.5938 35.5
L73.1875 35.5
L73.1875 27.2031
L10.5938 27.2031
z
" id="DejaVuSans-2212"/>
      </defs>
      <g transform="translate(55.7428125 191.82625)scale(0.12 -0.12)">
       <use xlink:href="#DejaVuSans-2212"/>
       <use x="83.7890625" xlink:href="#DejaVuSans-30"/>
       <use x="147.412109375" xlink:href="#DejaVuSans-2e"/>
       <use x="179.19921875" xlink:href="#DejaVuSans-33"/>
      </g>
     </g>
    </g>
    <g id="xtick_2">
     <g id="line2d_4">
      <g>
       <use style="stroke:#000000;stroke-linecap:butt;stroke-width:0.5;" x="112.172" xlink:href="#m0012dd4eef" y="178.92"/>
      </g>
     </g>
     <g id="line2d_5">
      <g>
       <use style="stroke:#000000;stroke-linecap:butt;stroke-width:0.5;" x="112.172" xlink:href="#m476344969c" y="19.814857337"/>
      </g>
     </g>
     <g id="text_2">
      <!-- −0.2 -->
      <defs>
       <path d="
M19.1875 8.29688
L53.6094 8.29688
L53.6094 0
L7.32812 0
L7.32812 8.29688
Q12.9375 14.1094 22.625 23.8906
Q32.3281 33.6875 34.8125 36.5312
Q39.5469 41.8438 41.4219 45.5312
Q43.3125 49.2188 43.3125 52.7812
Q43.3125 58.5938 39.2344 62.25
Q35.1562 65.9219 28.6094 65.9219
Q23.9688 65.9219 18.8125 64.3125
Q13.6719 62.7031 7.8125 59.4219
L7.8125 69.3906
Q13.7656 71.7812 18.9375 73
Q24.125 74.2188 28.4219 74.2188
Q39.75 74.2188 46.4844 68.5469
Q53.2188 62.8906 53.2188 53.4219
Q53.2188 48.9219 51.5312 44.8906
Q49.8594 40.875 45.4062 35.4062
Q44.1875 33.9844 37.6406 27.2188
Q31.1094 20.4531 19.1875 8.29688" id="DejaVuSans-32"/>
      </defs>
      <g transform="translate(98.838875 191.82625)scale(0.12 -0.12)">
       <use xlink:href="#DejaVuSans-2212"/>
       <use x="83.7890625" xlink:href="#DejaVuSans-30"/>
       <use x="147.412109375" xlink:href="#DejaVuSans-2e"/>
       <use x="179.19921875" xlink:href="#DejaVuSans-32"/>
      </g>
     </g>
    </g>
    <g id="xtick_3">
     <g id="line2d_6">
      <g>
       <use style="stroke:#000000;stroke-linecap:butt;stroke-width:0.5;" x="155.1480625" xlink:href="#m0012dd4eef" y="178.92"/>
      </g>
     </g>
     <g id="line2d_7">
      <g>
       <use style="stroke:#000000;stroke-linecap:butt;stroke-width:0.5;" x="155.1480625" xlink:href="#m476344969c" y="19.814857337"/>
      </g>
     </g>
     <g id="text_3">
      <!-- −0.1 -->
      <defs>
       <path d="
M12.4062 8.29688
L28.5156 8.29688
L28.5156 63.9219
L10.9844 60.4062
L10.9844 69.3906
L28.4219 72.9062
L38.2812 72.9062
L38.2812 8.29688
L54.3906 8.29688
L54.3906 0
L12.4062 0
z
" id="DejaVuSans-31"/>
      </defs>
      <g transform="translate(141.7680625 191.82625)scale(0.12 -0.12)">
       <use xlink:href="#DejaVuSans-2212"/>
       <use x="83.7890625" xlink:href="#DejaVuSans-30"/>
       <use x="147.412109375" xlink:href="#DejaVuSans-2e"/>
       <use x="179.19921875" xlink:href="#DejaVuSans-31"/>
      </g>
     </g>
    </g>
    <g id="xtick_4">
     <g id="line2d_8">
      <g>
       <use style="stroke:#000000;stroke-linecap:butt;stroke-width:0.5;" x="198.124125" xlink:href="#m0012dd4eef" y="178.92"/>
      </g>
     </g>
     <g id="line2d_9">
      <g>
       <use style="stroke:#000000;stroke-linecap:butt;stroke-width:0.5;" x="198.124125" xlink:href="#m476344969c" y="19.814857337"/>
      </g>
     </g>
     <g id="text_4">
      <!-- 0.0 -->
      <g transform="translate(189.3763125 191.82625)scale(0.12 -0.12)">
       <use xlink:href="#DejaVuSans-30"/>
       <use x="63.623046875" xlink:href="#DejaVuSans-2e"/>
       <use x="95.41015625" xlink:href="#DejaVuSans-30"/>
      </g>
     </g>
    </g>
    <g id="xtick_5">
     <g id="line2d_10">
      <g>
       <use style="stroke:#000000;stroke-linecap:butt;stroke-width:0.5;" x="241.1001875" xlink:href="#m0012dd4eef" y="178.92"/>
      </g>
     </g>
     <g id="line2d_11">
      <g>
       <use style="stroke:#000000;stroke-linecap:butt;stroke-width:0.5;" x="241.1001875" xlink:href="#m476344969c" y="19.814857337"/>
      </g>
     </g>
     <g id="text_5">
      <!-- 0.1 -->
      <g transform="translate(232.508 191.82625)scale(0.12 -0.12)">
       <use xlink:href="#DejaVuSans-30"/>
       <use x="63.623046875" xlink:href="#DejaVuSans-2e"/>
       <use x="95.41015625" xlink:href="#DejaVuSans-31"/>
      </g>
     </g>
    </g>
    <g id="text_6">
     <!-- starRating -->
     <defs>
      <path d="
M54.8906 33.0156
L54.8906 0
L45.9062 0
L45.9062 32.7188
Q45.9062 40.4844 42.875 44.3281
Q39.8438 48.1875 33.7969 48.1875
Q26.5156 48.1875 22.3125 43.5469
Q18.1094 38.9219 18.1094 30.9062
L18.1094 0
L9.07812 0
L9.07812 54.6875
L18.1094 54.6875
L18.1094 46.1875
Q21.3438 51.125 25.7031 53.5625
Q30.0781 56 35.7969 56
Q45.2188 56 50.0469 50.1719
Q54.8906 44.3438 54.8906 33.0156" id="DejaVuSans-6e"/>
      <path d="
M9.42188 54.6875
L18.4062 54.6875
L18.4062 0
L9.42188 0
z

M9.42188 75.9844
L18.4062 75.9844
L18.4062 64.5938
L9.42188 64.5938
z
" id="DejaVuSans-69"/>
      <path d="
M45.4062 27.9844
Q45.4062 37.75 41.375 43.1094
Q37.3594 48.4844 30.0781 48.4844
Q22.8594 48.4844 18.8281 43.1094
Q14.7969 37.75 14.7969 27.9844
Q14.7969 18.2656 18.8281 12.8906
Q22.8594 7.51562 30.0781 7.51562
Q37.3594 7.51562 41.375 12.8906
Q45.4062 18.2656 45.4062 27.9844
M54.3906 6.78125
Q54.3906 -7.17188 48.1875 -13.9844
Q42 -20.7969 29.2031 -20.7969
Q24.4688 -20.7969 20.2656 -20.0938
Q16.0625 -19.3906 12.1094 -17.9219
L12.1094 -9.1875
Q16.0625 -11.3281 19.9219 -12.3438
Q23.7812 -13.375 27.7812 -13.375
Q36.625 -13.375 41.0156 -8.76562
Q45.4062 -4.15625 45.4062 5.17188
L45.4062 9.625
Q42.625 4.78125 38.2812 2.39062
Q33.9375 0 27.875 0
Q17.8281 0 11.6719 7.65625
Q5.51562 15.3281 5.51562 27.9844
Q5.51562 40.6719 11.6719 48.3281
Q17.8281 56 27.875 56
Q33.9375 56 38.2812 53.6094
Q42.625 51.2188 45.4062 46.3906
L45.4062 54.6875
L54.3906 54.6875
z
" id="DejaVuSans-67"/>
      <path d="
M44.3906 34.1875
Q47.5625 33.1094 50.5625 29.5938
Q53.5625 26.0781 56.5938 19.9219
L66.6094 0
L56 0
L46.6875 18.7031
Q43.0625 26.0312 39.6719 28.4219
Q36.2812 30.8125 30.4219 30.8125
L19.6719 30.8125
L19.6719 0
L9.8125 0
L9.8125 72.9062
L32.0781 72.9062
Q44.5781 72.9062 50.7344 67.6719
Q56.8906 62.4531 56.8906 51.9062
Q56.8906 45.0156 53.6875 40.4688
Q50.4844 35.9375 44.3906 34.1875
M19.6719 64.7969
L19.6719 38.9219
L32.0781 38.9219
Q39.2031 38.9219 42.8438 42.2188
Q46.4844 45.5156 46.4844 51.9062
Q46.4844 58.2969 42.8438 61.5469
Q39.2031 64.7969 32.0781 64.7969
z
" id="DejaVuSans-52"/>
      <path d="
M18.3125 70.2188
L18.3125 54.6875
L36.8125 54.6875
L36.8125 47.7031
L18.3125 47.7031
L18.3125 18.0156
Q18.3125 11.3281 20.1406 9.42188
Q21.9688 7.51562 27.5938 7.51562
L36.8125 7.51562
L36.8125 0
L27.5938 0
Q17.1875 0 13.2344 3.875
Q9.28125 7.76562 9.28125 18.0156
L9.28125 47.7031
L2.6875 47.7031
L2.6875 54.6875
L9.28125 54.6875
L9.28125 70.2188
z
" id="DejaVuSans-74"/>
      <path d="
M34.2812 27.4844
Q23.3906 27.4844 19.1875 25
Q14.9844 22.5156 14.9844 16.5
Q14.9844 11.7188 18.1406 8.90625
Q21.2969 6.10938 26.7031 6.10938
Q34.1875 6.10938 38.7031 11.4062
Q43.2188 16.7031 43.2188 25.4844
L43.2188 27.4844
z

M52.2031 31.2031
L52.2031 0
L43.2188 0
L43.2188 8.29688
Q40.1406 3.32812 35.5469 0.953125
Q30.9531 -1.42188 24.3125 -1.42188
Q15.9219 -1.42188 10.9531 3.29688
Q6 8.01562 6 15.9219
Q6 25.1406 12.1719 29.8281
Q18.3594 34.5156 30.6094 34.5156
L43.2188 34.5156
L43.2188 35.4062
Q43.2188 41.6094 39.1406 45
Q35.0625 48.3906 27.6875 48.3906
Q23 48.3906 18.5469 47.2656
Q14.1094 46.1406 10.0156 43.8906
L10.0156 52.2031
Q14.9375 54.1094 19.5781 55.0469
Q24.2188 56 28.6094 56
Q40.4844 56 46.3438 49.8438
Q52.2031 43.7031 52.2031 31.2031" id="DejaVuSans-61"/>
      <path d="
M44.2812 53.0781
L44.2812 44.5781
Q40.4844 46.5312 36.375 47.5
Q32.2812 48.4844 27.875 48.4844
Q21.1875 48.4844 17.8438 46.4375
Q14.5 44.3906 14.5 40.2812
Q14.5 37.1562 16.8906 35.375
Q19.2812 33.5938 26.5156 31.9844
L29.5938 31.2969
Q39.1562 29.25 43.1875 25.5156
Q47.2188 21.7812 47.2188 15.0938
Q47.2188 7.46875 41.1875 3.01562
Q35.1562 -1.42188 24.6094 -1.42188
Q20.2188 -1.42188 15.4531 -0.5625
Q10.6875 0.296875 5.42188 2
L5.42188 11.2812
Q10.4062 8.6875 15.2344 7.39062
Q20.0625 6.10938 24.8125 6.10938
Q31.1562 6.10938 34.5625 8.28125
Q37.9844 10.4531 37.9844 14.4062
Q37.9844 18.0625 35.5156 20.0156
Q33.0625 21.9688 24.7031 23.7812
L21.5781 24.5156
Q13.2344 26.2656 9.51562 29.9062
Q5.8125 33.5469 5.8125 39.8906
Q5.8125 47.6094 11.2812 51.7969
Q16.75 56 26.8125 56
Q31.7812 56 36.1719 55.2656
Q40.5781 54.5469 44.2812 53.0781" id="DejaVuSans-73"/>
      <path d="
M41.1094 46.2969
Q39.5938 47.1719 37.8125 47.5781
Q36.0312 48 33.8906 48
Q26.2656 48 22.1875 43.0469
Q18.1094 38.0938 18.1094 28.8125
L18.1094 0
L9.07812 0
L9.07812 54.6875
L18.1094 54.6875
L18.1094 46.1875
Q20.9531 51.1719 25.4844 53.5781
Q30.0312 56 36.5312 56
Q37.4531 56 38.5781 55.875
Q39.7031 55.7656 41.0625 55.5156
z
" id="DejaVuSans-72"/>
     </defs>
     <g transform="translate(146.54421875 206.115)scale(0.12 -0.12)">
      <use xlink:href="#DejaVuSans-73"/>
      <use x="52.099609375" xlink:href="#DejaVuSans-74"/>
      <use x="91.30859375" xlink:href="#DejaVuSans-61"/>
      <use x="152.587890625" xlink:href="#DejaVuSans-72"/>
      <use x="193.701171875" xlink:href="#DejaVuSans-52"/>
      <use x="260.93359375" xlink:href="#DejaVuSans-61"/>
      <use x="322.212890625" xlink:href="#DejaVuSans-74"/>
      <use x="361.421875" xlink:href="#DejaVuSans-69"/>
      <use x="389.205078125" xlink:href="#DejaVuSans-6e"/>
      <use x="452.583984375" xlink:href="#DejaVuSans-67"/>
     </g>
    </g>
   </g>
   <g id="matplotlib.axis_2">
    <g id="ytick_1">
     <g id="line2d_12">
      <defs>
       <path d="
M0 0
L4 0" id="me8a85f7bf6" style="stroke:#000000;stroke-linecap:butt;stroke-width:0.5;"/>
      </defs>
      <g>
       <use style="stroke:#000000;stroke-linecap:butt;stroke-width:0.5;" x="69.1959375" xlink:href="#me8a85f7bf6" y="162.077915959"/>
      </g>
     </g>
     <g id="line2d_13">
      <defs>
       <path d="
M0 0
L-4 0" id="m1a32005dea" style="stroke:#000000;stroke-linecap:butt;stroke-width:0.5;"/>
      </defs>
      <g>
       <use style="stroke:#000000;stroke-linecap:butt;stroke-width:0.5;" x="284.07625" xlink:href="#m1a32005dea" y="162.077915959"/>
      </g>
     </g>
     <g id="text_7">
      <!-- −0.15 -->
      <defs>
       <path d="
M10.7969 72.9062
L49.5156 72.9062
L49.5156 64.5938
L19.8281 64.5938
L19.8281 46.7344
Q21.9688 47.4688 24.1094 47.8281
Q26.2656 48.1875 28.4219 48.1875
Q40.625 48.1875 47.75 41.5
Q54.8906 34.8125 54.8906 23.3906
Q54.8906 11.625 47.5625 5.09375
Q40.2344 -1.42188 26.9062 -1.42188
Q22.3125 -1.42188 17.5469 -0.640625
Q12.7969 0.140625 7.71875 1.70312
L7.71875 11.625
Q12.1094 9.23438 16.7969 8.0625
Q21.4844 6.89062 26.7031 6.89062
Q35.1562 6.89062 40.0781 11.3281
Q45.0156 15.7656 45.0156 23.3906
Q45.0156 31 40.0781 35.4375
Q35.1562 39.8906 26.7031 39.8906
Q22.75 39.8906 18.8125 39.0156
Q14.8906 38.1406 10.7969 36.2812
z
" id="DejaVuSans-35"/>
      </defs>
      <g transform="translate(30.7409375 166.445728459)scale(0.12 -0.12)">
       <use xlink:href="#DejaVuSans-2212"/>
       <use x="83.7890625" xlink:href="#DejaVuSans-30"/>
       <use x="147.412109375" xlink:href="#DejaVuSans-2e"/>
       <use x="179.19921875" xlink:href="#DejaVuSans-31"/>
       <use x="242.822265625" xlink:href="#DejaVuSans-35"/>
      </g>
     </g>
    </g>
    <g id="ytick_2">
     <g id="line2d_14">
      <g>
       <use style="stroke:#000000;stroke-linecap:butt;stroke-width:0.5;" x="69.1959375" xlink:href="#me8a85f7bf6" y="118.931420917"/>
      </g>
     </g>
     <g id="line2d_15">
      <g>
       <use style="stroke:#000000;stroke-linecap:butt;stroke-width:0.5;" x="284.07625" xlink:href="#m1a32005dea" y="118.931420917"/>
      </g>
     </g>
     <g id="text_8">
      <!-- −0.10 -->
      <g transform="translate(30.4896875 123.299233417)scale(0.12 -0.12)">
       <use xlink:href="#DejaVuSans-2212"/>
       <use x="83.7890625" xlink:href="#DejaVuSans-30"/>
       <use x="147.412109375" xlink:href="#DejaVuSans-2e"/>
       <use x="179.19921875" xlink:href="#DejaVuSans-31"/>
       <use x="242.822265625" xlink:href="#DejaVuSans-30"/>
      </g>
     </g>
    </g>
    <g id="ytick_3">
     <g id="line2d_16">
      <g>
       <use style="stroke:#000000;stroke-linecap:butt;stroke-width:0.5;" x="69.1959375" xlink:href="#me8a85f7bf6" y="75.7849258738"/>
      </g>
     </g>
     <g id="line2d_17">
      <g>
       <use style="stroke:#000000;stroke-linecap:butt;stroke-width:0.5;" x="284.07625" xlink:href="#m1a32005dea" y="75.7849258738"/>
      </g>
     </g>
     <g id="text_9">
      <!-- −0.05 -->
      <g transform="translate(30.7409375 80.1527383738)scale(0.12 -0.12)">
       <use xlink:href="#DejaVuSans-2212"/>
       <use x="83.7890625" xlink:href="#DejaVuSans-30"/>
       <use x="147.412109375" xlink:href="#DejaVuSans-2e"/>
       <use x="179.19921875" xlink:href="#DejaVuSans-30"/>
       <use x="242.822265625" xlink:href="#DejaVuSans-35"/>
      </g>
     </g>
    </g>
    <g id="ytick_4">
     <g id="line2d_18">
      <g>
       <use style="stroke:#000000;stroke-linecap:butt;stroke-width:0.5;" x="69.1959375" xlink:href="#me8a85f7bf6" y="32.638430831"/>
      </g>
     </g>
     <g id="line2d_19">
      <g>
       <use style="stroke:#000000;stroke-linecap:butt;stroke-width:0.5;" x="284.07625" xlink:href="#m1a32005dea" y="32.638430831"/>
      </g>
     </g>
     <g id="text_10">
      <!-- 0.00 -->
      <g transform="translate(40.0653125 37.006243331)scale(0.12 -0.12)">
       <use xlink:href="#DejaVuSans-30"/>
       <use x="63.623046875" xlink:href="#DejaVuSans-2e"/>
       <use x="95.41015625" xlink:href="#DejaVuSans-30"/>
       <use x="159.033203125" xlink:href="#DejaVuSans-30"/>
      </g>
     </g>
    </g>
    <g id="text_11">
     <!-- Partial Dependence -->
     <defs>
      <path d="
M56.2031 29.5938
L56.2031 25.2031
L14.8906 25.2031
Q15.4844 15.9219 20.4844 11.0625
Q25.4844 6.20312 34.4219 6.20312
Q39.5938 6.20312 44.4531 7.46875
Q49.3125 8.73438 54.1094 11.2812
L54.1094 2.78125
Q49.2656 0.734375 44.1875 -0.34375
Q39.1094 -1.42188 33.8906 -1.42188
Q20.7969 -1.42188 13.1562 6.1875
Q5.51562 13.8125 5.51562 26.8125
Q5.51562 40.2344 12.7656 48.1094
Q20.0156 56 32.3281 56
Q43.3594 56 49.7812 48.8906
Q56.2031 41.7969 56.2031 29.5938
M47.2188 32.2344
Q47.125 39.5938 43.0938 43.9844
Q39.0625 48.3906 32.4219 48.3906
Q24.9062 48.3906 20.3906 44.1406
Q15.875 39.8906 15.1875 32.1719
z
" id="DejaVuSans-65"/>
      <path d="
M9.42188 75.9844
L18.4062 75.9844
L18.4062 0
L9.42188 0
z
" id="DejaVuSans-6c"/>
      <path d="
M48.7812 52.5938
L48.7812 44.1875
Q44.9688 46.2969 41.1406 47.3438
Q37.3125 48.3906 33.4062 48.3906
Q24.6562 48.3906 19.8125 42.8438
Q14.9844 37.3125 14.9844 27.2969
Q14.9844 17.2812 19.8125 11.7344
Q24.6562 6.20312 33.4062 6.20312
Q37.3125 6.20312 41.1406 7.25
Q44.9688 8.29688 48.7812 10.4062
L48.7812 2.09375
Q45.0156 0.34375 40.9844 -0.53125
Q36.9688 -1.42188 32.4219 -1.42188
Q20.0625 -1.42188 12.7812 6.34375
Q5.51562 14.1094 5.51562 27.2969
Q5.51562 40.6719 12.8594 48.3281
Q20.2188 56 33.0156 56
Q37.1562 56 41.1094 55.1406
Q45.0625 54.2969 48.7812 52.5938" id="DejaVuSans-63"/>
      <path d="
M19.6719 64.7969
L19.6719 8.10938
L31.5938 8.10938
Q46.6875 8.10938 53.6875 14.9375
Q60.6875 21.7812 60.6875 36.5312
Q60.6875 51.1719 53.6875 57.9844
Q46.6875 64.7969 31.5938 64.7969
z

M9.8125 72.9062
L30.0781 72.9062
Q51.2656 72.9062 61.1719 64.0938
Q71.0938 55.2812 71.0938 36.5312
Q71.0938 17.6719 61.125 8.82812
Q51.1719 0 30.0781 0
L9.8125 0
z
" id="DejaVuSans-44"/>
      <path id="DejaVuSans-20"/>
      <path d="
M45.4062 46.3906
L45.4062 75.9844
L54.3906 75.9844
L54.3906 0
L45.4062 0
L45.4062 8.20312
Q42.5781 3.32812 38.25 0.953125
Q33.9375 -1.42188 27.875 -1.42188
Q17.9688 -1.42188 11.7344 6.48438
Q5.51562 14.4062 5.51562 27.2969
Q5.51562 40.1875 11.7344 48.0938
Q17.9688 56 27.875 56
Q33.9375 56 38.25 53.625
Q42.5781 51.2656 45.4062 46.3906
M14.7969 27.2969
Q14.7969 17.3906 18.875 11.75
Q22.9531 6.10938 30.0781 6.10938
Q37.2031 6.10938 41.2969 11.75
Q45.4062 17.3906 45.4062 27.2969
Q45.4062 37.2031 41.2969 42.8438
Q37.2031 48.4844 30.0781 48.4844
Q22.9531 48.4844 18.875 42.8438
Q14.7969 37.2031 14.7969 27.2969" id="DejaVuSans-64"/>
      <path d="
M19.6719 64.7969
L19.6719 37.4062
L32.0781 37.4062
Q38.9688 37.4062 42.7188 40.9688
Q46.4844 44.5312 46.4844 51.125
Q46.4844 57.6719 42.7188 61.2344
Q38.9688 64.7969 32.0781 64.7969
z

M9.8125 72.9062
L32.0781 72.9062
Q44.3438 72.9062 50.6094 67.3594
Q56.8906 61.8125 56.8906 51.125
Q56.8906 40.3281 50.6094 34.8125
Q44.3438 29.2969 32.0781 29.2969
L19.6719 29.2969
L19.6719 0
L9.8125 0
z
" id="DejaVuSans-50"/>
      <path d="
M18.1094 8.20312
L18.1094 -20.7969
L9.07812 -20.7969
L9.07812 54.6875
L18.1094 54.6875
L18.1094 46.3906
Q20.9531 51.2656 25.2656 53.625
Q29.5938 56 35.5938 56
Q45.5625 56 51.7812 48.0938
Q58.0156 40.1875 58.0156 27.2969
Q58.0156 14.4062 51.7812 6.48438
Q45.5625 -1.42188 35.5938 -1.42188
Q29.5938 -1.42188 25.2656 0.953125
Q20.9531 3.32812 18.1094 8.20312
M48.6875 27.2969
Q48.6875 37.2031 44.6094 42.8438
Q40.5312 48.4844 33.4062 48.4844
Q26.2656 48.4844 22.1875 42.8438
Q18.1094 37.2031 18.1094 27.2969
Q18.1094 17.3906 22.1875 11.75
Q26.2656 6.10938 33.4062 6.10938
Q40.5312 6.10938 44.6094 11.75
Q48.6875 17.3906 48.6875 27.2969" id="DejaVuSans-70"/>
     </defs>
     <g transform="translate(25.4896875 155.222741168)rotate(-90.0)scale(0.12 -0.12)">
      <use xlink:href="#DejaVuSans-50"/>
      <use x="55.802734375" xlink:href="#DejaVuSans-61"/>
      <use x="117.08203125" xlink:href="#DejaVuSans-72"/>
      <use x="158.1953125" xlink:href="#DejaVuSans-74"/>
      <use x="197.404296875" xlink:href="#DejaVuSans-69"/>
      <use x="225.1875" xlink:href="#DejaVuSans-61"/>
      <use x="286.466796875" xlink:href="#DejaVuSans-6c"/>
      <use x="314.25" xlink:href="#DejaVuSans-20"/>
      <use x="346.037109375" xlink:href="#DejaVuSans-44"/>
      <use x="423.0390625" xlink:href="#DejaVuSans-65"/>
      <use x="484.5625" xlink:href="#DejaVuSans-70"/>
      <use x="548.0390625" xlink:href="#DejaVuSans-65"/>
      <use x="609.5625" xlink:href="#DejaVuSans-6e"/>
      <use x="672.94140625" xlink:href="#DejaVuSans-64"/>
      <use x="736.41796875" xlink:href="#DejaVuSans-65"/>
      <use x="797.94140625" xlink:href="#DejaVuSans-6e"/>
      <use x="861.3203125" xlink:href="#DejaVuSans-63"/>
      <use x="916.30078125" xlink:href="#DejaVuSans-65"/>
     </g>
    </g>
   </g>
   <g id="patch_3">
    <path d="
M69.1959 19.8149
L284.076 19.8149" style="fill:none;stroke:#000000;"/>
   </g>
   <g id="patch_4">
    <path d="
M284.076 178.92
L284.076 19.8149" style="fill:none;stroke:#000000;"/>
   </g>
   <g id="patch_5">
    <path d="
M69.1959 178.92
L284.076 178.92" style="fill:none;stroke:#000000;"/>
   </g>
   <g id="patch_6">
    <path d="
M69.1959 178.92
L69.1959 19.8149" style="fill:none;stroke:#000000;"/>
   </g>
  </g>
  <g id="axes_2">
   <g id="patch_7">
    <path d="
M335.672 178.92
L550.553 178.92
L550.553 19.8149
L335.672 19.8149
z
" style="fill:#ffffff;"/>
   </g>
   <g id="LineCollection_2">
    <defs>
     <path d="
M353.796 -253.08
L353.796 -261.035" id="C1_0_54aaa33fb8"/>
     <path d="
M354.026 -253.08
L354.026 -261.035" id="C1_1_910271c29b"/>
     <path d="
M354.301 -253.08
L354.301 -261.035" id="C1_2_8949e98e44"/>
     <path d="
M354.997 -253.08
L354.997 -261.035" id="C1_3_08cdc950fc"/>
     <path d="
M356.778 -253.08
L356.778 -261.035" id="C1_4_e39ee7aa96"/>
     <path d="
M362.797 -253.08
L362.797 -261.035" id="C1_5_5ec7e108ff"/>
     <path d="
M410.979 -253.08
L410.979 -261.035" id="C1_6_9395bda15c"/>
     <path d="
M426.713 -253.08
L426.713 -261.035" id="C1_7_0f91d8cf62"/>
     <path d="
M455.478 -253.08
L455.478 -261.035" id="C1_8_685d7fee82"/>
    </defs>
    <g clip-path="url(#pa771e637a5)">
     <use style="fill:none;stroke:#000000;stroke-linecap:butt;" x="0" xlink:href="#C1_0_54aaa33fb8" y="432.0"/>
    </g>
    <g clip-path="url(#pa771e637a5)">
     <use style="fill:none;stroke:#000000;stroke-linecap:butt;" x="0" xlink:href="#C1_1_910271c29b" y="432.0"/>
    </g>
    <g clip-path="url(#pa771e637a5)">
     <use style="fill:none;stroke:#000000;stroke-linecap:butt;" x="0" xlink:href="#C1_2_8949e98e44" y="432.0"/>
    </g>
    <g clip-path="url(#pa771e637a5)">
     <use style="fill:none;stroke:#000000;stroke-linecap:butt;" x="0" xlink:href="#C1_3_08cdc950fc" y="432.0"/>
    </g>
    <g clip-path="url(#pa771e637a5)">
     <use style="fill:none;stroke:#000000;stroke-linecap:butt;" x="0" xlink:href="#C1_4_e39ee7aa96" y="432.0"/>
    </g>
    <g clip-path="url(#pa771e637a5)">
     <use style="fill:none;stroke:#000000;stroke-linecap:butt;" x="0" xlink:href="#C1_5_5ec7e108ff" y="432.0"/>
    </g>
    <g clip-path="url(#pa771e637a5)">
     <use style="fill:none;stroke:#000000;stroke-linecap:butt;" x="0" xlink:href="#C1_6_9395bda15c" y="432.0"/>
    </g>
    <g clip-path="url(#pa771e637a5)">
     <use style="fill:none;stroke:#000000;stroke-linecap:butt;" x="0" xlink:href="#C1_7_0f91d8cf62" y="432.0"/>
    </g>
    <g clip-path="url(#pa771e637a5)">
     <use style="fill:none;stroke:#000000;stroke-linecap:butt;" x="0" xlink:href="#C1_8_685d7fee82" y="432.0"/>
    </g>
   </g>
   <g id="line2d_20">
    <path clip-path="url(#pa771e637a5)" d="
M353.668 76.0097
L355.477 50.7644
L357.286 49.083
L359.095 49.083
L360.904 48.9821
L362.713 48.7908
L364.521 48.7908
L366.33 48.7908
L368.139 48.7908
L369.948 48.7908
L371.757 48.7908
L373.566 48.7908
L375.374 87.8367
L377.183 97.4581
L378.992 97.4581
L380.801 97.4581
L382.61 97.4581
L384.419 97.4581
L386.227 101.09
L388.036 101.042
L389.845 130.215
L391.654 130.215
L393.463 130.215
L395.272 130.215
L397.08 130.215
L398.889 130.215
L400.698 130.215
L402.507 130.215
L404.316 130.215
L406.125 130.215
L407.933 129.897
L409.742 129.897
L411.551 129.993
L413.36 129.372
L415.169 126.089
L416.978 126.847
L418.786 128.273
L420.595 128.262
L422.404 128.262
L424.213 128.017
L426.022 128.017
L427.831 128.66
L429.639 127.269
L431.448 127.243
L433.257 127.243
L435.066 118.87
L436.875 118.87
L438.684 118.87
L440.492 118.856
L442.301 118.856
L444.11 118.856
L445.919 118.856
L447.728 118.856
L449.537 118.856
L451.345 118.856
L453.154 118.94
L454.963 118.94
L456.772 118.94
L458.581 122.255
L460.39 122.255
L462.198 122.241
L464.007 122.241
L465.816 122.241
L467.625 122.241
L469.434 122.241
L471.243 122.241
L473.051 122.241
L474.86 122.241
L476.669 122.241
L478.478 122.241
L480.287 122.241
L482.096 122.38
L483.904 122.38
L485.713 122.38
L487.522 122.38
L489.331 122.38
L491.14 122.38
L492.949 122.38
L494.757 122.38
L496.566 122.38
L498.375 122.38
L500.184 122.38
L501.993 122.38
L503.802 122.38
L505.61 122.38
L507.419 122.38
L509.228 122.38
L511.037 122.38
L512.846 123.467
L514.655 123.467
L516.463 123.467
L518.272 123.491
L520.081 123.491
L521.89 123.491
L523.699 123.491
L525.508 123.491
L527.316 123.491
L529.125 123.491
L530.934 123.491
L532.743 123.491" style="fill:none;stroke:#008000;"/>
   </g>
   <g id="matplotlib.axis_3">
    <g id="xtick_6">
     <g id="line2d_21">
      <g>
       <use style="stroke:#000000;stroke-linecap:butt;stroke-width:0.5;" x="364.322895833" xlink:href="#m0012dd4eef" y="178.92"/>
      </g>
     </g>
     <g id="line2d_22">
      <g>
       <use style="stroke:#000000;stroke-linecap:butt;stroke-width:0.5;" x="364.322895833" xlink:href="#m476344969c" y="19.814857337"/>
      </g>
     </g>
     <g id="text_12">
      <!-- −0.06 -->
      <defs>
       <path d="
M33.0156 40.375
Q26.375 40.375 22.4844 35.8281
Q18.6094 31.2969 18.6094 23.3906
Q18.6094 15.5312 22.4844 10.9531
Q26.375 6.39062 33.0156 6.39062
Q39.6562 6.39062 43.5312 10.9531
Q47.4062 15.5312 47.4062 23.3906
Q47.4062 31.2969 43.5312 35.8281
Q39.6562 40.375 33.0156 40.375
M52.5938 71.2969
L52.5938 62.3125
Q48.875 64.0625 45.0938 64.9844
Q41.3125 65.9219 37.5938 65.9219
Q27.8281 65.9219 22.6719 59.3281
Q17.5312 52.7344 16.7969 39.4062
Q19.6719 43.6562 24.0156 45.9219
Q28.375 48.1875 33.5938 48.1875
Q44.5781 48.1875 50.9531 41.5156
Q57.3281 34.8594 57.3281 23.3906
Q57.3281 12.1562 50.6875 5.35938
Q44.0469 -1.42188 33.0156 -1.42188
Q20.3594 -1.42188 13.6719 8.26562
Q6.98438 17.9688 6.98438 36.375
Q6.98438 53.6562 15.1875 63.9375
Q23.3906 74.2188 37.2031 74.2188
Q40.9219 74.2188 44.7031 73.4844
Q48.4844 72.75 52.5938 71.2969" id="DejaVuSans-36"/>
      </defs>
      <g transform="translate(346.949145833 191.82625)scale(0.12 -0.12)">
       <use xlink:href="#DejaVuSans-2212"/>
       <use x="83.7890625" xlink:href="#DejaVuSans-30"/>
       <use x="147.412109375" xlink:href="#DejaVuSans-2e"/>
       <use x="179.19921875" xlink:href="#DejaVuSans-30"/>
       <use x="242.822265625" xlink:href="#DejaVuSans-36"/>
      </g>
     </g>
    </g>
    <g id="xtick_7">
     <g id="line2d_23">
      <g>
       <use style="stroke:#000000;stroke-linecap:butt;stroke-width:0.5;" x="407.298958333" xlink:href="#m0012dd4eef" y="178.92"/>
      </g>
     </g>
     <g id="line2d_24">
      <g>
       <use style="stroke:#000000;stroke-linecap:butt;stroke-width:0.5;" x="407.298958333" xlink:href="#m476344969c" y="19.814857337"/>
      </g>
     </g>
     <g id="text_13">
      <!-- 0.00 -->
      <g transform="translate(394.733645833 191.82625)scale(0.12 -0.12)">
       <use xlink:href="#DejaVuSans-30"/>
       <use x="63.623046875" xlink:href="#DejaVuSans-2e"/>
       <use x="95.41015625" xlink:href="#DejaVuSans-30"/>
       <use x="159.033203125" xlink:href="#DejaVuSans-30"/>
      </g>
     </g>
    </g>
    <g id="xtick_8">
     <g id="line2d_25">
      <g>
       <use style="stroke:#000000;stroke-linecap:butt;stroke-width:0.5;" x="450.275020833" xlink:href="#m0012dd4eef" y="178.92"/>
      </g>
     </g>
     <g id="line2d_26">
      <g>
       <use style="stroke:#000000;stroke-linecap:butt;stroke-width:0.5;" x="450.275020833" xlink:href="#m476344969c" y="19.814857337"/>
      </g>
     </g>
     <g id="text_14">
      <!-- 0.06 -->
      <g transform="translate(437.689083333 191.82625)scale(0.12 -0.12)">
       <use xlink:href="#DejaVuSans-30"/>
       <use x="63.623046875" xlink:href="#DejaVuSans-2e"/>
       <use x="95.41015625" xlink:href="#DejaVuSans-30"/>
       <use x="159.033203125" xlink:href="#DejaVuSans-36"/>
      </g>
     </g>
    </g>
    <g id="xtick_9">
     <g id="line2d_27">
      <g>
       <use style="stroke:#000000;stroke-linecap:butt;stroke-width:0.5;" x="493.251083333" xlink:href="#m0012dd4eef" y="178.92"/>
      </g>
     </g>
     <g id="line2d_28">
      <g>
       <use style="stroke:#000000;stroke-linecap:butt;stroke-width:0.5;" x="493.251083333" xlink:href="#m476344969c" y="19.814857337"/>
      </g>
     </g>
     <g id="text_15">
      <!-- 0.12 -->
      <g transform="translate(480.888270833 191.82625)scale(0.12 -0.12)">
       <use xlink:href="#DejaVuSans-30"/>
       <use x="63.623046875" xlink:href="#DejaVuSans-2e"/>
       <use x="95.41015625" xlink:href="#DejaVuSans-31"/>
       <use x="159.033203125" xlink:href="#DejaVuSans-32"/>
      </g>
     </g>
    </g>
    <g id="xtick_10">
     <g id="line2d_29">
      <g>
       <use style="stroke:#000000;stroke-linecap:butt;stroke-width:0.5;" x="536.227145833" xlink:href="#m0012dd4eef" y="178.92"/>
      </g>
     </g>
     <g id="line2d_30">
      <g>
       <use style="stroke:#000000;stroke-linecap:butt;stroke-width:0.5;" x="536.227145833" xlink:href="#m476344969c" y="19.814857337"/>
      </g>
     </g>
     <g id="text_16">
      <!-- 0.18 -->
      <defs>
       <path d="
M31.7812 34.625
Q24.75 34.625 20.7188 30.8594
Q16.7031 27.0938 16.7031 20.5156
Q16.7031 13.9219 20.7188 10.1562
Q24.75 6.39062 31.7812 6.39062
Q38.8125 6.39062 42.8594 10.1719
Q46.9219 13.9688 46.9219 20.5156
Q46.9219 27.0938 42.8906 30.8594
Q38.875 34.625 31.7812 34.625
M21.9219 38.8125
Q15.5781 40.375 12.0312 44.7188
Q8.5 49.0781 8.5 55.3281
Q8.5 64.0625 14.7188 69.1406
Q20.9531 74.2188 31.7812 74.2188
Q42.6719 74.2188 48.875 69.1406
Q55.0781 64.0625 55.0781 55.3281
Q55.0781 49.0781 51.5312 44.7188
Q48 40.375 41.7031 38.8125
Q48.8281 37.1562 52.7969 32.3125
Q56.7812 27.4844 56.7812 20.5156
Q56.7812 9.90625 50.3125 4.23438
Q43.8438 -1.42188 31.7812 -1.42188
Q19.7344 -1.42188 13.25 4.23438
Q6.78125 9.90625 6.78125 20.5156
Q6.78125 27.4844 10.7812 32.3125
Q14.7969 37.1562 21.9219 38.8125
M18.3125 54.3906
Q18.3125 48.7344 21.8438 45.5625
Q25.3906 42.3906 31.7812 42.3906
Q38.1406 42.3906 41.7188 45.5625
Q45.3125 48.7344 45.3125 54.3906
Q45.3125 60.0625 41.7188 63.2344
Q38.1406 66.4062 31.7812 66.4062
Q25.3906 66.4062 21.8438 63.2344
Q18.3125 60.0625 18.3125 54.3906" id="DejaVuSans-38"/>
      </defs>
      <g transform="translate(523.674020833 191.82625)scale(0.12 -0.12)">
       <use xlink:href="#DejaVuSans-30"/>
       <use x="63.623046875" xlink:href="#DejaVuSans-2e"/>
       <use x="95.41015625" xlink:href="#DejaVuSans-31"/>
       <use x="159.033203125" xlink:href="#DejaVuSans-38"/>
      </g>
     </g>
    </g>
    <g id="text_17">
     <!-- fiveStarRatings -->
     <defs>
      <path d="
M37.1094 75.9844
L37.1094 68.5
L28.5156 68.5
Q23.6875 68.5 21.7969 66.5469
Q19.9219 64.5938 19.9219 59.5156
L19.9219 54.6875
L34.7188 54.6875
L34.7188 47.7031
L19.9219 47.7031
L19.9219 0
L10.8906 0
L10.8906 47.7031
L2.29688 47.7031
L2.29688 54.6875
L10.8906 54.6875
L10.8906 58.5
Q10.8906 67.625 15.1406 71.7969
Q19.3906 75.9844 28.6094 75.9844
z
" id="DejaVuSans-66"/>
      <path d="
M53.5156 70.5156
L53.5156 60.8906
Q47.9062 63.5781 42.9219 64.8906
Q37.9375 66.2188 33.2969 66.2188
Q25.25 66.2188 20.875 63.0938
Q16.5 59.9688 16.5 54.2031
Q16.5 49.3594 19.4062 46.8906
Q22.3125 44.4375 30.4219 42.9219
L36.375 41.7031
Q47.4062 39.5938 52.6562 34.2969
Q57.9062 29 57.9062 20.125
Q57.9062 9.51562 50.7969 4.04688
Q43.7031 -1.42188 29.9844 -1.42188
Q24.8125 -1.42188 18.9688 -0.25
Q13.1406 0.921875 6.89062 3.21875
L6.89062 13.375
Q12.8906 10.0156 18.6562 8.29688
Q24.4219 6.59375 29.9844 6.59375
Q38.4219 6.59375 43.0156 9.90625
Q47.6094 13.2344 47.6094 19.3906
Q47.6094 24.75 44.3125 27.7812
Q41.0156 30.8125 33.5 32.3281
L27.4844 33.5
Q16.4531 35.6875 11.5156 40.375
Q6.59375 45.0625 6.59375 53.4219
Q6.59375 63.0938 13.4062 68.6562
Q20.2188 74.2188 32.1719 74.2188
Q37.3125 74.2188 42.625 73.2812
Q47.9531 72.3594 53.5156 70.5156" id="DejaVuSans-53"/>
      <path d="
M2.98438 54.6875
L12.5 54.6875
L29.5938 8.79688
L46.6875 54.6875
L56.2031 54.6875
L35.6875 0
L23.4844 0
z
" id="DejaVuSans-76"/>
     </defs>
     <g transform="translate(397.74859375 206.115)scale(0.12 -0.12)">
      <use xlink:href="#DejaVuSans-66"/>
      <use x="35.205078125" xlink:href="#DejaVuSans-69"/>
      <use x="62.98828125" xlink:href="#DejaVuSans-76"/>
      <use x="122.16796875" xlink:href="#DejaVuSans-65"/>
      <use x="183.69140625" xlink:href="#DejaVuSans-53"/>
      <use x="247.16796875" xlink:href="#DejaVuSans-74"/>
      <use x="286.376953125" xlink:href="#DejaVuSans-61"/>
      <use x="347.65625" xlink:href="#DejaVuSans-72"/>
      <use x="388.76953125" xlink:href="#DejaVuSans-52"/>
      <use x="456.001953125" xlink:href="#DejaVuSans-61"/>
      <use x="517.28125" xlink:href="#DejaVuSans-74"/>
      <use x="556.490234375" xlink:href="#DejaVuSans-69"/>
      <use x="584.2734375" xlink:href="#DejaVuSans-6e"/>
      <use x="647.65234375" xlink:href="#DejaVuSans-67"/>
      <use x="711.12890625" xlink:href="#DejaVuSans-73"/>
     </g>
    </g>
   </g>
   <g id="matplotlib.axis_4">
    <g id="ytick_5">
     <g id="line2d_31">
      <g>
       <use style="stroke:#000000;stroke-linecap:butt;stroke-width:0.5;" x="335.6721875" xlink:href="#me8a85f7bf6" y="162.077915959"/>
      </g>
     </g>
     <g id="line2d_32">
      <g>
       <use style="stroke:#000000;stroke-linecap:butt;stroke-width:0.5;" x="550.5525" xlink:href="#m1a32005dea" y="162.077915959"/>
      </g>
     </g>
     <g id="text_18">
      <!-- −0.15 -->
      <g transform="translate(297.2171875 166.445728459)scale(0.12 -0.12)">
       <use xlink:href="#DejaVuSans-2212"/>
       <use x="83.7890625" xlink:href="#DejaVuSans-30"/>
       <use x="147.412109375" xlink:href="#DejaVuSans-2e"/>
       <use x="179.19921875" xlink:href="#DejaVuSans-31"/>
       <use x="242.822265625" xlink:href="#DejaVuSans-35"/>
      </g>
     </g>
    </g>
    <g id="ytick_6">
     <g id="line2d_33">
      <g>
       <use style="stroke:#000000;stroke-linecap:butt;stroke-width:0.5;" x="335.6721875" xlink:href="#me8a85f7bf6" y="118.931420917"/>
      </g>
     </g>
     <g id="line2d_34">
      <g>
       <use style="stroke:#000000;stroke-linecap:butt;stroke-width:0.5;" x="550.5525" xlink:href="#m1a32005dea" y="118.931420917"/>
      </g>
     </g>
     <g id="text_19">
      <!-- −0.10 -->
      <g transform="translate(296.9659375 123.299233417)scale(0.12 -0.12)">
       <use xlink:href="#DejaVuSans-2212"/>
       <use x="83.7890625" xlink:href="#DejaVuSans-30"/>
       <use x="147.412109375" xlink:href="#DejaVuSans-2e"/>
       <use x="179.19921875" xlink:href="#DejaVuSans-31"/>
       <use x="242.822265625" xlink:href="#DejaVuSans-30"/>
      </g>
     </g>
    </g>
    <g id="ytick_7">
     <g id="line2d_35">
      <g>
       <use style="stroke:#000000;stroke-linecap:butt;stroke-width:0.5;" x="335.6721875" xlink:href="#me8a85f7bf6" y="75.7849258738"/>
      </g>
     </g>
     <g id="line2d_36">
      <g>
       <use style="stroke:#000000;stroke-linecap:butt;stroke-width:0.5;" x="550.5525" xlink:href="#m1a32005dea" y="75.7849258738"/>
      </g>
     </g>
     <g id="text_20">
      <!-- −0.05 -->
      <g transform="translate(297.2171875 80.1527383738)scale(0.12 -0.12)">
       <use xlink:href="#DejaVuSans-2212"/>
       <use x="83.7890625" xlink:href="#DejaVuSans-30"/>
       <use x="147.412109375" xlink:href="#DejaVuSans-2e"/>
       <use x="179.19921875" xlink:href="#DejaVuSans-30"/>
       <use x="242.822265625" xlink:href="#DejaVuSans-35"/>
      </g>
     </g>
    </g>
    <g id="ytick_8">
     <g id="line2d_37">
      <g>
       <use style="stroke:#000000;stroke-linecap:butt;stroke-width:0.5;" x="335.6721875" xlink:href="#me8a85f7bf6" y="32.638430831"/>
      </g>
     </g>
     <g id="line2d_38">
      <g>
       <use style="stroke:#000000;stroke-linecap:butt;stroke-width:0.5;" x="550.5525" xlink:href="#m1a32005dea" y="32.638430831"/>
      </g>
     </g>
     <g id="text_21">
      <!-- 0.00 -->
      <g transform="translate(306.5415625 37.006243331)scale(0.12 -0.12)">
       <use xlink:href="#DejaVuSans-30"/>
       <use x="63.623046875" xlink:href="#DejaVuSans-2e"/>
       <use x="95.41015625" xlink:href="#DejaVuSans-30"/>
       <use x="159.033203125" xlink:href="#DejaVuSans-30"/>
      </g>
     </g>
    </g>
   </g>
   <g id="patch_8">
    <path d="
M335.672 19.8149
L550.553 19.8149" style="fill:none;stroke:#000000;"/>
   </g>
   <g id="patch_9">
    <path d="
M550.553 178.92
L550.553 19.8149" style="fill:none;stroke:#000000;"/>
   </g>
   <g id="patch_10">
    <path d="
M335.672 178.92
L550.553 178.92" style="fill:none;stroke:#000000;"/>
   </g>
   <g id="patch_11">
    <path d="
M335.672 178.92
L335.672 19.8149" style="fill:none;stroke:#000000;"/>
   </g>
  </g>
  <g id="axes_3">
   <g id="patch_12">
    <path d="
M69.1959 388.44
L284.076 388.44
L284.076 229.335
L69.1959 229.335
z
" style="fill:#ffffff;"/>
   </g>
   <g id="LineCollection_3">
    <defs>
     <path d="
M83.185 -43.56
L83.185 -51.5153" id="C2_0_30f94e4c1a"/>
     <path d="
M97.3124 -43.56
L97.3124 -51.5153" id="C2_1_90144ba710"/>
     <path d="
M115.98 -43.56
L115.98 -51.5153" id="C2_2_d40978b102"/>
     <path d="
M131.991 -43.56
L131.991 -51.5153" id="C2_3_c26ced36d5"/>
     <path d="
M148.174 -43.56
L148.174 -51.5153" id="C2_4_02d0550977"/>
     <path d="
M167.664 -43.56
L167.664 -51.5153" id="C2_5_3cb51a9455"/>
     <path d="
M191.424 -43.56
L191.424 -51.5153" id="C2_6_f9268b3dcc"/>
     <path d="
M218.793 -43.56
L218.793 -51.5153" id="C2_7_c65d486a81"/>
     <path d="
M244.144 -43.56
L244.144 -51.5153" id="C2_8_c6835a91d9"/>
    </defs>
    <g clip-path="url(#p2ade9d2e00)">
     <use style="fill:none;stroke:#000000;stroke-linecap:butt;" x="0" xlink:href="#C2_0_30f94e4c1a" y="432.0"/>
    </g>
    <g clip-path="url(#p2ade9d2e00)">
     <use style="fill:none;stroke:#000000;stroke-linecap:butt;" x="0" xlink:href="#C2_1_90144ba710" y="432.0"/>
    </g>
    <g clip-path="url(#p2ade9d2e00)">
     <use style="fill:none;stroke:#000000;stroke-linecap:butt;" x="0" xlink:href="#C2_2_d40978b102" y="432.0"/>
    </g>
    <g clip-path="url(#p2ade9d2e00)">
     <use style="fill:none;stroke:#000000;stroke-linecap:butt;" x="0" xlink:href="#C2_3_c26ced36d5" y="432.0"/>
    </g>
    <g clip-path="url(#p2ade9d2e00)">
     <use style="fill:none;stroke:#000000;stroke-linecap:butt;" x="0" xlink:href="#C2_4_02d0550977" y="432.0"/>
    </g>
    <g clip-path="url(#p2ade9d2e00)">
     <use style="fill:none;stroke:#000000;stroke-linecap:butt;" x="0" xlink:href="#C2_5_3cb51a9455" y="432.0"/>
    </g>
    <g clip-path="url(#p2ade9d2e00)">
     <use style="fill:none;stroke:#000000;stroke-linecap:butt;" x="0" xlink:href="#C2_6_f9268b3dcc" y="432.0"/>
    </g>
    <g clip-path="url(#p2ade9d2e00)">
     <use style="fill:none;stroke:#000000;stroke-linecap:butt;" x="0" xlink:href="#C2_7_c65d486a81" y="432.0"/>
    </g>
    <g clip-path="url(#p2ade9d2e00)">
     <use style="fill:none;stroke:#000000;stroke-linecap:butt;" x="0" xlink:href="#C2_8_c6835a91d9" y="432.0"/>
    </g>
   </g>
   <g id="line2d_39">
    <path clip-path="url(#p2ade9d2e00)" d="
M74.3784 310.508
L76.4896 310.07
L78.6009 310.07
L80.7121 293.909
L82.8234 293.446
L84.9346 293.257
L87.0459 293.257
L89.1571 293.127
L91.2684 293.107
L93.3797 293.356
L95.4909 293.356
L97.6022 293.356
L99.7134 294.347
L101.825 294.347
L103.936 294.325
L106.047 294.325
L108.158 294.325
L110.27 294.325
L112.381 294.156
L114.492 291.405
L116.603 290.688
L118.715 290.688
L120.826 291.417
L122.937 291.892
L125.048 293.037
L127.16 293.037
L129.271 293.037
L131.382 293.037
L133.493 292.958
L135.605 290.498
L137.716 290.498
L139.827 289.03
L141.939 289.439
L144.05 289.399
L146.161 285.442
L148.272 285.341
L150.384 285.341
L152.495 285.338
L154.606 285.338
L156.717 285.135
L158.829 285.135
L160.94 282.698
L163.051 281.708
L165.162 281.708
L167.274 281.708
L169.385 281.269
L171.496 281.269
L173.607 281.269
L175.719 281.269
L177.83 281.269
L179.941 281.269
L182.052 281.269
L184.164 281.269
L186.275 281.269
L188.386 281.269
L190.497 281.139
L192.609 285.089
L194.72 285.089
L196.831 285.089
L198.942 285.089
L201.054 285.155
L203.165 285.155
L205.276 278.481
L207.387 278.481
L209.499 278.121
L211.61 278.064
L213.721 278.039
L215.832 295.158
L217.944 295.158
L220.055 293.149
L222.166 293.137
L224.277 293.137
L226.389 295.883
L228.5 295.763
L230.611 295.763
L232.722 297.465
L234.834 297.465
L236.945 297.54
L239.056 297.54
L241.167 297.54
L243.279 297.149
L245.39 297.149
L247.501 297.149
L249.613 297.149
L251.724 297.178
L253.835 294.268
L255.946 294.268
L258.058 294.268
L260.169 294.268
L262.28 294.268
L264.391 291.436
L266.503 292.1
L268.614 292.1
L270.725 292.1
L272.836 292.1
L274.948 291.826
L277.059 291.826
L279.17 291.826
L281.281 291.602
L283.393 291.602" style="fill:none;stroke:#008000;"/>
   </g>
   <g id="matplotlib.axis_5">
    <g id="xtick_11">
     <g id="line2d_40">
      <g>
       <use style="stroke:#000000;stroke-linecap:butt;stroke-width:0.5;" x="115.24171875" xlink:href="#m0012dd4eef" y="388.44"/>
      </g>
     </g>
     <g id="line2d_41">
      <g>
       <use style="stroke:#000000;stroke-linecap:butt;stroke-width:0.5;" x="115.24171875" xlink:href="#m476344969c" y="229.334857337"/>
      </g>
     </g>
     <g id="text_22">
      <!-- −0.15 -->
      <g transform="translate(98.01421875 401.34625)scale(0.12 -0.12)">
       <use xlink:href="#DejaVuSans-2212"/>
       <use x="83.7890625" xlink:href="#DejaVuSans-30"/>
       <use x="147.412109375" xlink:href="#DejaVuSans-2e"/>
       <use x="179.19921875" xlink:href="#DejaVuSans-31"/>
       <use x="242.822265625" xlink:href="#DejaVuSans-35"/>
      </g>
     </g>
    </g>
    <g id="xtick_12">
     <g id="line2d_42">
      <g>
       <use style="stroke:#000000;stroke-linecap:butt;stroke-width:0.5;" x="161.2875" xlink:href="#m0012dd4eef" y="388.44"/>
      </g>
     </g>
     <g id="line2d_43">
      <g>
       <use style="stroke:#000000;stroke-linecap:butt;stroke-width:0.5;" x="161.2875" xlink:href="#m476344969c" y="229.334857337"/>
      </g>
     </g>
     <g id="text_23">
      <!-- 0.00 -->
      <g transform="translate(148.7221875 401.34625)scale(0.12 -0.12)">
       <use xlink:href="#DejaVuSans-30"/>
       <use x="63.623046875" xlink:href="#DejaVuSans-2e"/>
       <use x="95.41015625" xlink:href="#DejaVuSans-30"/>
       <use x="159.033203125" xlink:href="#DejaVuSans-30"/>
      </g>
     </g>
    </g>
    <g id="xtick_13">
     <g id="line2d_44">
      <g>
       <use style="stroke:#000000;stroke-linecap:butt;stroke-width:0.5;" x="207.33328125" xlink:href="#m0012dd4eef" y="388.44"/>
      </g>
     </g>
     <g id="line2d_45">
      <g>
       <use style="stroke:#000000;stroke-linecap:butt;stroke-width:0.5;" x="207.33328125" xlink:href="#m476344969c" y="229.334857337"/>
      </g>
     </g>
     <g id="text_24">
      <!-- 0.15 -->
      <g transform="translate(194.89359375 401.34625)scale(0.12 -0.12)">
       <use xlink:href="#DejaVuSans-30"/>
       <use x="63.623046875" xlink:href="#DejaVuSans-2e"/>
       <use x="95.41015625" xlink:href="#DejaVuSans-31"/>
       <use x="159.033203125" xlink:href="#DejaVuSans-35"/>
      </g>
     </g>
    </g>
    <g id="xtick_14">
     <g id="line2d_46">
      <g>
       <use style="stroke:#000000;stroke-linecap:butt;stroke-width:0.5;" x="253.3790625" xlink:href="#m0012dd4eef" y="388.44"/>
      </g>
     </g>
     <g id="line2d_47">
      <g>
       <use style="stroke:#000000;stroke-linecap:butt;stroke-width:0.5;" x="253.3790625" xlink:href="#m476344969c" y="229.334857337"/>
      </g>
     </g>
     <g id="text_25">
      <!-- 0.30 -->
      <g transform="translate(240.81375 401.34625)scale(0.12 -0.12)">
       <use xlink:href="#DejaVuSans-30"/>
       <use x="63.623046875" xlink:href="#DejaVuSans-2e"/>
       <use x="95.41015625" xlink:href="#DejaVuSans-33"/>
       <use x="159.033203125" xlink:href="#DejaVuSans-30"/>
      </g>
     </g>
    </g>
    <g id="text_26">
     <!-- descriptionHtml -->
     <defs>
      <path d="
M30.6094 48.3906
Q23.3906 48.3906 19.1875 42.75
Q14.9844 37.1094 14.9844 27.2969
Q14.9844 17.4844 19.1562 11.8438
Q23.3438 6.20312 30.6094 6.20312
Q37.7969 6.20312 41.9844 11.8594
Q46.1875 17.5312 46.1875 27.2969
Q46.1875 37.0156 41.9844 42.7031
Q37.7969 48.3906 30.6094 48.3906
M30.6094 56
Q42.3281 56 49.0156 48.375
Q55.7188 40.7656 55.7188 27.2969
Q55.7188 13.875 49.0156 6.21875
Q42.3281 -1.42188 30.6094 -1.42188
Q18.8438 -1.42188 12.1719 6.21875
Q5.51562 13.875 5.51562 27.2969
Q5.51562 40.7656 12.1719 48.375
Q18.8438 56 30.6094 56" id="DejaVuSans-6f"/>
      <path d="
M52 44.1875
Q55.375 50.25 60.0625 53.125
Q64.75 56 71.0938 56
Q79.6406 56 84.2812 50.0156
Q88.9219 44.0469 88.9219 33.0156
L88.9219 0
L79.8906 0
L79.8906 32.7188
Q79.8906 40.5781 77.0938 44.375
Q74.3125 48.1875 68.6094 48.1875
Q61.625 48.1875 57.5625 43.5469
Q53.5156 38.9219 53.5156 30.9062
L53.5156 0
L44.4844 0
L44.4844 32.7188
Q44.4844 40.625 41.7031 44.4062
Q38.9219 48.1875 33.1094 48.1875
Q26.2188 48.1875 22.1562 43.5312
Q18.1094 38.875 18.1094 30.9062
L18.1094 0
L9.07812 0
L9.07812 54.6875
L18.1094 54.6875
L18.1094 46.1875
Q21.1875 51.2188 25.4844 53.6094
Q29.7812 56 35.6875 56
Q41.6562 56 45.8281 52.9688
Q50 49.9531 52 44.1875" id="DejaVuSans-6d"/>
      <path d="
M9.8125 72.9062
L19.6719 72.9062
L19.6719 43.0156
L55.5156 43.0156
L55.5156 72.9062
L65.375 72.9062
L65.375 0
L55.5156 0
L55.5156 34.7188
L19.6719 34.7188
L19.6719 0
L9.8125 0
z
" id="DejaVuSans-48"/>
     </defs>
     <g transform="translate(129.79296875 415.635)scale(0.12 -0.12)">
      <use xlink:href="#DejaVuSans-64"/>
      <use x="63.4765625" xlink:href="#DejaVuSans-65"/>
      <use x="125.0" xlink:href="#DejaVuSans-73"/>
      <use x="177.099609375" xlink:href="#DejaVuSans-63"/>
      <use x="232.080078125" xlink:href="#DejaVuSans-72"/>
      <use x="273.193359375" xlink:href="#DejaVuSans-69"/>
      <use x="300.9765625" xlink:href="#DejaVuSans-70"/>
      <use x="364.453125" xlink:href="#DejaVuSans-74"/>
      <use x="403.662109375" xlink:href="#DejaVuSans-69"/>
      <use x="431.4453125" xlink:href="#DejaVuSans-6f"/>
      <use x="492.626953125" xlink:href="#DejaVuSans-6e"/>
      <use x="556.005859375" xlink:href="#DejaVuSans-48"/>
      <use x="631.201171875" xlink:href="#DejaVuSans-74"/>
      <use x="670.41015625" xlink:href="#DejaVuSans-6d"/>
      <use x="767.822265625" xlink:href="#DejaVuSans-6c"/>
     </g>
    </g>
   </g>
   <g id="matplotlib.axis_6">
    <g id="ytick_9">
     <g id="line2d_48">
      <g>
       <use style="stroke:#000000;stroke-linecap:butt;stroke-width:0.5;" x="69.1959375" xlink:href="#me8a85f7bf6" y="371.597915959"/>
      </g>
     </g>
     <g id="line2d_49">
      <g>
       <use style="stroke:#000000;stroke-linecap:butt;stroke-width:0.5;" x="284.07625" xlink:href="#m1a32005dea" y="371.597915959"/>
      </g>
     </g>
     <g id="text_27">
      <!-- −0.15 -->
      <g transform="translate(30.7409375 375.965728459)scale(0.12 -0.12)">
       <use xlink:href="#DejaVuSans-2212"/>
       <use x="83.7890625" xlink:href="#DejaVuSans-30"/>
       <use x="147.412109375" xlink:href="#DejaVuSans-2e"/>
       <use x="179.19921875" xlink:href="#DejaVuSans-31"/>
       <use x="242.822265625" xlink:href="#DejaVuSans-35"/>
      </g>
     </g>
    </g>
    <g id="ytick_10">
     <g id="line2d_50">
      <g>
       <use style="stroke:#000000;stroke-linecap:butt;stroke-width:0.5;" x="69.1959375" xlink:href="#me8a85f7bf6" y="328.451420917"/>
      </g>
     </g>
     <g id="line2d_51">
      <g>
       <use style="stroke:#000000;stroke-linecap:butt;stroke-width:0.5;" x="284.07625" xlink:href="#m1a32005dea" y="328.451420917"/>
      </g>
     </g>
     <g id="text_28">
      <!-- −0.10 -->
      <g transform="translate(30.4896875 332.819233417)scale(0.12 -0.12)">
       <use xlink:href="#DejaVuSans-2212"/>
       <use x="83.7890625" xlink:href="#DejaVuSans-30"/>
       <use x="147.412109375" xlink:href="#DejaVuSans-2e"/>
       <use x="179.19921875" xlink:href="#DejaVuSans-31"/>
       <use x="242.822265625" xlink:href="#DejaVuSans-30"/>
      </g>
     </g>
    </g>
    <g id="ytick_11">
     <g id="line2d_52">
      <g>
       <use style="stroke:#000000;stroke-linecap:butt;stroke-width:0.5;" x="69.1959375" xlink:href="#me8a85f7bf6" y="285.304925874"/>
      </g>
     </g>
     <g id="line2d_53">
      <g>
       <use style="stroke:#000000;stroke-linecap:butt;stroke-width:0.5;" x="284.07625" xlink:href="#m1a32005dea" y="285.304925874"/>
      </g>
     </g>
     <g id="text_29">
      <!-- −0.05 -->
      <g transform="translate(30.7409375 289.672738374)scale(0.12 -0.12)">
       <use xlink:href="#DejaVuSans-2212"/>
       <use x="83.7890625" xlink:href="#DejaVuSans-30"/>
       <use x="147.412109375" xlink:href="#DejaVuSans-2e"/>
       <use x="179.19921875" xlink:href="#DejaVuSans-30"/>
       <use x="242.822265625" xlink:href="#DejaVuSans-35"/>
      </g>
     </g>
    </g>
    <g id="ytick_12">
     <g id="line2d_54">
      <g>
       <use style="stroke:#000000;stroke-linecap:butt;stroke-width:0.5;" x="69.1959375" xlink:href="#me8a85f7bf6" y="242.158430831"/>
      </g>
     </g>
     <g id="line2d_55">
      <g>
       <use style="stroke:#000000;stroke-linecap:butt;stroke-width:0.5;" x="284.07625" xlink:href="#m1a32005dea" y="242.158430831"/>
      </g>
     </g>
     <g id="text_30">
      <!-- 0.00 -->
      <g transform="translate(40.0653125 246.526243331)scale(0.12 -0.12)">
       <use xlink:href="#DejaVuSans-30"/>
       <use x="63.623046875" xlink:href="#DejaVuSans-2e"/>
       <use x="95.41015625" xlink:href="#DejaVuSans-30"/>
       <use x="159.033203125" xlink:href="#DejaVuSans-30"/>
      </g>
     </g>
    </g>
    <g id="text_31">
     <!-- Partial Dependence -->
     <g transform="translate(25.4896875 364.742741168)rotate(-90.0)scale(0.12 -0.12)">
      <use xlink:href="#DejaVuSans-50"/>
      <use x="55.802734375" xlink:href="#DejaVuSans-61"/>
      <use x="117.08203125" xlink:href="#DejaVuSans-72"/>
      <use x="158.1953125" xlink:href="#DejaVuSans-74"/>
      <use x="197.404296875" xlink:href="#DejaVuSans-69"/>
      <use x="225.1875" xlink:href="#DejaVuSans-61"/>
      <use x="286.466796875" xlink:href="#DejaVuSans-6c"/>
      <use x="314.25" xlink:href="#DejaVuSans-20"/>
      <use x="346.037109375" xlink:href="#DejaVuSans-44"/>
      <use x="423.0390625" xlink:href="#DejaVuSans-65"/>
      <use x="484.5625" xlink:href="#DejaVuSans-70"/>
      <use x="548.0390625" xlink:href="#DejaVuSans-65"/>
      <use x="609.5625" xlink:href="#DejaVuSans-6e"/>
      <use x="672.94140625" xlink:href="#DejaVuSans-64"/>
      <use x="736.41796875" xlink:href="#DejaVuSans-65"/>
      <use x="797.94140625" xlink:href="#DejaVuSans-6e"/>
      <use x="861.3203125" xlink:href="#DejaVuSans-63"/>
      <use x="916.30078125" xlink:href="#DejaVuSans-65"/>
     </g>
    </g>
   </g>
   <g id="patch_13">
    <path d="
M69.1959 229.335
L284.076 229.335" style="fill:none;stroke:#000000;"/>
   </g>
   <g id="patch_14">
    <path d="
M284.076 388.44
L284.076 229.335" style="fill:none;stroke:#000000;"/>
   </g>
   <g id="patch_15">
    <path d="
M69.1959 388.44
L284.076 388.44" style="fill:none;stroke:#000000;"/>
   </g>
   <g id="patch_16">
    <path d="
M69.1959 388.44
L69.1959 229.335" style="fill:none;stroke:#000000;"/>
   </g>
  </g>
  <g id="axes_4">
   <g id="patch_17">
    <path d="
M335.672 388.44
L550.553 388.44
L550.553 229.335
L335.672 229.335
z
" style="fill:#ffffff;"/>
   </g>
   <g id="LineCollection_4">
    <defs>
     <path d="
M368.429 -43.56
L368.429 -51.5153" id="C3_0_e371726f96"/>
     <path d="
M368.677 -43.56
L368.677 -51.5153" id="C3_1_01da62149f"/>
     <path d="
M369.002 -43.56
L369.002 -51.5153" id="C3_2_7010c5120b"/>
     <path d="
M369.666 -43.56
L369.666 -51.5153" id="C3_3_a4aed3e788"/>
     <path d="
M371.657 -43.56
L371.657 -51.5153" id="C3_4_66da5e841b"/>
     <path d="
M377.661 -43.56
L377.661 -51.5153" id="C3_5_13c935cc49"/>
     <path d="
M415.205 -43.56
L415.205 -51.5153" id="C3_6_229eb994fa"/>
     <path d="
M437.755 -43.56
L437.755 -51.5153" id="C3_7_9f34039b32"/>
     <path d="
M470.558 -43.56
L470.558 -51.5153" id="C3_8_805fe01f56"/>
    </defs>
    <g clip-path="url(#p805421909a)">
     <use style="fill:none;stroke:#000000;stroke-linecap:butt;" x="0" xlink:href="#C3_0_e371726f96" y="432.0"/>
    </g>
    <g clip-path="url(#p805421909a)">
     <use style="fill:none;stroke:#000000;stroke-linecap:butt;" x="0" xlink:href="#C3_1_01da62149f" y="432.0"/>
    </g>
    <g clip-path="url(#p805421909a)">
     <use style="fill:none;stroke:#000000;stroke-linecap:butt;" x="0" xlink:href="#C3_2_7010c5120b" y="432.0"/>
    </g>
    <g clip-path="url(#p805421909a)">
     <use style="fill:none;stroke:#000000;stroke-linecap:butt;" x="0" xlink:href="#C3_3_a4aed3e788" y="432.0"/>
    </g>
    <g clip-path="url(#p805421909a)">
     <use style="fill:none;stroke:#000000;stroke-linecap:butt;" x="0" xlink:href="#C3_4_66da5e841b" y="432.0"/>
    </g>
    <g clip-path="url(#p805421909a)">
     <use style="fill:none;stroke:#000000;stroke-linecap:butt;" x="0" xlink:href="#C3_5_13c935cc49" y="432.0"/>
    </g>
    <g clip-path="url(#p805421909a)">
     <use style="fill:none;stroke:#000000;stroke-linecap:butt;" x="0" xlink:href="#C3_6_229eb994fa" y="432.0"/>
    </g>
    <g clip-path="url(#p805421909a)">
     <use style="fill:none;stroke:#000000;stroke-linecap:butt;" x="0" xlink:href="#C3_7_9f34039b32" y="432.0"/>
    </g>
    <g clip-path="url(#p805421909a)">
     <use style="fill:none;stroke:#000000;stroke-linecap:butt;" x="0" xlink:href="#C3_8_805fe01f56" y="432.0"/>
    </g>
   </g>
   <g id="line2d_56">
    <path clip-path="url(#p805421909a)" d="
M368.306 270.87
L370.109 229.335
L371.912 234.786
L373.715 234.592
L375.518 235.502
L377.321 235.768
L379.124 242.406
L380.926 242.406
L382.729 242.406
L384.532 242.406
L386.335 242.406
L388.138 242.585
L389.941 242.585
L391.744 313.477
L393.547 318.276
L395.35 318.659
L397.152 318.659
L398.955 319.957
L400.758 319.957
L402.561 338.283
L404.364 349.077
L406.167 369.516
L407.97 369.804
L409.773 369.804
L411.575 383.345
L413.378 387.889
L415.181 387.889
L416.984 387.889
L418.787 387.889
L420.59 387.889
L422.393 387.889
L424.196 388.154
L425.998 388.179
L427.801 388.44
L429.604 388.44
L431.407 388.44
L433.21 388.067
L435.013 388.067
L436.816 388.067
L438.619 364.706
L440.422 365.669
L442.224 363.853
L444.027 364.355
L445.83 364.355
L447.633 364.355
L449.436 364.308
L451.239 364.354
L453.042 364.551
L454.845 364.551
L456.647 364.551
L458.45 363.068
L460.253 363.068
L462.056 363.068
L463.859 363.068
L465.662 363.068
L467.465 363.068
L469.268 363.064
L471.07 363.959
L472.873 363.965
L474.676 363.965
L476.479 363.965
L478.282 364.035
L480.085 364.035
L481.888 364.035
L483.691 364.035
L485.494 364.035
L487.296 364.035
L489.099 364.035
L490.902 364.035
L492.705 364.035
L494.508 364.035
L496.311 364.035
L498.114 363.89
L499.917 363.89
L501.719 363.89
L503.522 363.89
L505.325 363.89
L507.128 363.89
L508.931 363.89
L510.734 363.89
L512.537 363.89
L514.34 363.89
L516.142 363.89
L517.945 363.89
L519.748 363.89
L521.551 363.89
L523.354 363.89
L525.157 363.89
L526.96 363.89
L528.763 363.89
L530.566 363.89
L532.368 363.702
L534.171 363.702
L535.974 363.56
L537.777 363.56
L539.58 363.56
L541.383 363.56
L543.186 363.56
L544.989 363.56
L546.791 363.56" style="fill:none;stroke:#008000;"/>
   </g>
   <g id="matplotlib.axis_7">
    <g id="xtick_15">
     <g id="line2d_57">
      <g>
       <use style="stroke:#000000;stroke-linecap:butt;stroke-width:0.5;" x="378.64825" xlink:href="#m0012dd4eef" y="388.44"/>
      </g>
     </g>
     <g id="line2d_58">
      <g>
       <use style="stroke:#000000;stroke-linecap:butt;stroke-width:0.5;" x="378.64825" xlink:href="#m476344969c" y="229.334857337"/>
      </g>
     </g>
     <g id="text_32">
      <!-- −0.05 -->
      <g transform="translate(361.42075 401.34625)scale(0.12 -0.12)">
       <use xlink:href="#DejaVuSans-2212"/>
       <use x="83.7890625" xlink:href="#DejaVuSans-30"/>
       <use x="147.412109375" xlink:href="#DejaVuSans-2e"/>
       <use x="179.19921875" xlink:href="#DejaVuSans-30"/>
       <use x="242.822265625" xlink:href="#DejaVuSans-35"/>
      </g>
     </g>
    </g>
    <g id="xtick_16">
     <g id="line2d_59">
      <g>
       <use style="stroke:#000000;stroke-linecap:butt;stroke-width:0.5;" x="421.6243125" xlink:href="#m0012dd4eef" y="388.44"/>
      </g>
     </g>
     <g id="line2d_60">
      <g>
       <use style="stroke:#000000;stroke-linecap:butt;stroke-width:0.5;" x="421.6243125" xlink:href="#m476344969c" y="229.334857337"/>
      </g>
     </g>
     <g id="text_33">
      <!-- 0.00 -->
      <g transform="translate(409.059 401.34625)scale(0.12 -0.12)">
       <use xlink:href="#DejaVuSans-30"/>
       <use x="63.623046875" xlink:href="#DejaVuSans-2e"/>
       <use x="95.41015625" xlink:href="#DejaVuSans-30"/>
       <use x="159.033203125" xlink:href="#DejaVuSans-30"/>
      </g>
     </g>
    </g>
    <g id="xtick_17">
     <g id="line2d_61">
      <g>
       <use style="stroke:#000000;stroke-linecap:butt;stroke-width:0.5;" x="464.600375" xlink:href="#m0012dd4eef" y="388.44"/>
      </g>
     </g>
     <g id="line2d_62">
      <g>
       <use style="stroke:#000000;stroke-linecap:butt;stroke-width:0.5;" x="464.600375" xlink:href="#m476344969c" y="229.334857337"/>
      </g>
     </g>
     <g id="text_34">
      <!-- 0.05 -->
      <g transform="translate(452.1606875 401.34625)scale(0.12 -0.12)">
       <use xlink:href="#DejaVuSans-30"/>
       <use x="63.623046875" xlink:href="#DejaVuSans-2e"/>
       <use x="95.41015625" xlink:href="#DejaVuSans-30"/>
       <use x="159.033203125" xlink:href="#DejaVuSans-35"/>
      </g>
     </g>
    </g>
    <g id="xtick_18">
     <g id="line2d_63">
      <g>
       <use style="stroke:#000000;stroke-linecap:butt;stroke-width:0.5;" x="507.5764375" xlink:href="#m0012dd4eef" y="388.44"/>
      </g>
     </g>
     <g id="line2d_64">
      <g>
       <use style="stroke:#000000;stroke-linecap:butt;stroke-width:0.5;" x="507.5764375" xlink:href="#m476344969c" y="229.334857337"/>
      </g>
     </g>
     <g id="text_35">
      <!-- 0.10 -->
      <g transform="translate(495.011125 401.34625)scale(0.12 -0.12)">
       <use xlink:href="#DejaVuSans-30"/>
       <use x="63.623046875" xlink:href="#DejaVuSans-2e"/>
       <use x="95.41015625" xlink:href="#DejaVuSans-31"/>
       <use x="159.033203125" xlink:href="#DejaVuSans-30"/>
      </g>
     </g>
    </g>
    <g id="xtick_19">
     <g id="line2d_65">
      <g>
       <use style="stroke:#000000;stroke-linecap:butt;stroke-width:0.5;" x="550.5525" xlink:href="#m0012dd4eef" y="388.44"/>
      </g>
     </g>
     <g id="line2d_66">
      <g>
       <use style="stroke:#000000;stroke-linecap:butt;stroke-width:0.5;" x="550.5525" xlink:href="#m476344969c" y="229.334857337"/>
      </g>
     </g>
     <g id="text_36">
      <!-- 0.15 -->
      <g transform="translate(538.1128125 401.34625)scale(0.12 -0.12)">
       <use xlink:href="#DejaVuSans-30"/>
       <use x="63.623046875" xlink:href="#DejaVuSans-2e"/>
       <use x="95.41015625" xlink:href="#DejaVuSans-31"/>
       <use x="159.033203125" xlink:href="#DejaVuSans-35"/>
      </g>
     </g>
    </g>
    <g id="text_37">
     <!-- fourStarRatings -->
     <defs>
      <path d="
M8.5 21.5781
L8.5 54.6875
L17.4844 54.6875
L17.4844 21.9219
Q17.4844 14.1562 20.5 10.2656
Q23.5312 6.39062 29.5938 6.39062
Q36.8594 6.39062 41.0781 11.0312
Q45.3125 15.6719 45.3125 23.6875
L45.3125 54.6875
L54.2969 54.6875
L54.2969 0
L45.3125 0
L45.3125 8.40625
Q42.0469 3.42188 37.7188 1
Q33.4062 -1.42188 27.6875 -1.42188
Q18.2656 -1.42188 13.375 4.4375
Q8.5 10.2969 8.5 21.5781
M31.1094 56
z
" id="DejaVuSans-75"/>
     </defs>
     <g transform="translate(396.71828125 415.635)scale(0.12 -0.12)">
      <use xlink:href="#DejaVuSans-66"/>
      <use x="35.205078125" xlink:href="#DejaVuSans-6f"/>
      <use x="96.38671875" xlink:href="#DejaVuSans-75"/>
      <use x="159.765625" xlink:href="#DejaVuSans-72"/>
      <use x="200.87890625" xlink:href="#DejaVuSans-53"/>
      <use x="264.35546875" xlink:href="#DejaVuSans-74"/>
      <use x="303.564453125" xlink:href="#DejaVuSans-61"/>
      <use x="364.84375" xlink:href="#DejaVuSans-72"/>
      <use x="405.95703125" xlink:href="#DejaVuSans-52"/>
      <use x="473.189453125" xlink:href="#DejaVuSans-61"/>
      <use x="534.46875" xlink:href="#DejaVuSans-74"/>
      <use x="573.677734375" xlink:href="#DejaVuSans-69"/>
      <use x="601.4609375" xlink:href="#DejaVuSans-6e"/>
      <use x="664.83984375" xlink:href="#DejaVuSans-67"/>
      <use x="728.31640625" xlink:href="#DejaVuSans-73"/>
     </g>
    </g>
   </g>
   <g id="matplotlib.axis_8">
    <g id="ytick_13">
     <g id="line2d_67">
      <g>
       <use style="stroke:#000000;stroke-linecap:butt;stroke-width:0.5;" x="335.6721875" xlink:href="#me8a85f7bf6" y="371.597915959"/>
      </g>
     </g>
     <g id="line2d_68">
      <g>
       <use style="stroke:#000000;stroke-linecap:butt;stroke-width:0.5;" x="550.5525" xlink:href="#m1a32005dea" y="371.597915959"/>
      </g>
     </g>
     <g id="text_38">
      <!-- −0.15 -->
      <g transform="translate(297.2171875 375.965728459)scale(0.12 -0.12)">
       <use xlink:href="#DejaVuSans-2212"/>
       <use x="83.7890625" xlink:href="#DejaVuSans-30"/>
       <use x="147.412109375" xlink:href="#DejaVuSans-2e"/>
       <use x="179.19921875" xlink:href="#DejaVuSans-31"/>
       <use x="242.822265625" xlink:href="#DejaVuSans-35"/>
      </g>
     </g>
    </g>
    <g id="ytick_14">
     <g id="line2d_69">
      <g>
       <use style="stroke:#000000;stroke-linecap:butt;stroke-width:0.5;" x="335.6721875" xlink:href="#me8a85f7bf6" y="328.451420917"/>
      </g>
     </g>
     <g id="line2d_70">
      <g>
       <use style="stroke:#000000;stroke-linecap:butt;stroke-width:0.5;" x="550.5525" xlink:href="#m1a32005dea" y="328.451420917"/>
      </g>
     </g>
     <g id="text_39">
      <!-- −0.10 -->
      <g transform="translate(296.9659375 332.819233417)scale(0.12 -0.12)">
       <use xlink:href="#DejaVuSans-2212"/>
       <use x="83.7890625" xlink:href="#DejaVuSans-30"/>
       <use x="147.412109375" xlink:href="#DejaVuSans-2e"/>
       <use x="179.19921875" xlink:href="#DejaVuSans-31"/>
       <use x="242.822265625" xlink:href="#DejaVuSans-30"/>
      </g>
     </g>
    </g>
    <g id="ytick_15">
     <g id="line2d_71">
      <g>
       <use style="stroke:#000000;stroke-linecap:butt;stroke-width:0.5;" x="335.6721875" xlink:href="#me8a85f7bf6" y="285.304925874"/>
      </g>
     </g>
     <g id="line2d_72">
      <g>
       <use style="stroke:#000000;stroke-linecap:butt;stroke-width:0.5;" x="550.5525" xlink:href="#m1a32005dea" y="285.304925874"/>
      </g>
     </g>
     <g id="text_40">
      <!-- −0.05 -->
      <g transform="translate(297.2171875 289.672738374)scale(0.12 -0.12)">
       <use xlink:href="#DejaVuSans-2212"/>
       <use x="83.7890625" xlink:href="#DejaVuSans-30"/>
       <use x="147.412109375" xlink:href="#DejaVuSans-2e"/>
       <use x="179.19921875" xlink:href="#DejaVuSans-30"/>
       <use x="242.822265625" xlink:href="#DejaVuSans-35"/>
      </g>
     </g>
    </g>
    <g id="ytick_16">
     <g id="line2d_73">
      <g>
       <use style="stroke:#000000;stroke-linecap:butt;stroke-width:0.5;" x="335.6721875" xlink:href="#me8a85f7bf6" y="242.158430831"/>
      </g>
     </g>
     <g id="line2d_74">
      <g>
       <use style="stroke:#000000;stroke-linecap:butt;stroke-width:0.5;" x="550.5525" xlink:href="#m1a32005dea" y="242.158430831"/>
      </g>
     </g>
     <g id="text_41">
      <!-- 0.00 -->
      <g transform="translate(306.5415625 246.526243331)scale(0.12 -0.12)">
       <use xlink:href="#DejaVuSans-30"/>
       <use x="63.623046875" xlink:href="#DejaVuSans-2e"/>
       <use x="95.41015625" xlink:href="#DejaVuSans-30"/>
       <use x="159.033203125" xlink:href="#DejaVuSans-30"/>
      </g>
     </g>
    </g>
   </g>
   <g id="patch_18">
    <path d="
M335.672 229.335
L550.553 229.335" style="fill:none;stroke:#000000;"/>
   </g>
   <g id="patch_19">
    <path d="
M550.553 388.44
L550.553 229.335" style="fill:none;stroke:#000000;"/>
   </g>
   <g id="patch_20">
    <path d="
M335.672 388.44
L550.553 388.44" style="fill:none;stroke:#000000;"/>
   </g>
   <g id="patch_21">
    <path d="
M335.672 388.44
L335.672 229.335" style="fill:none;stroke:#000000;"/>
   </g>
  </g>
  <g id="text_42">
   <!-- Partial dependence of privacy comfort score on most important features -->
   <defs>
    <path d="
M32.1719 -5.07812
Q28.375 -14.8438 24.75 -17.8125
Q21.1406 -20.7969 15.0938 -20.7969
L7.90625 -20.7969
L7.90625 -13.2812
L13.1875 -13.2812
Q16.8906 -13.2812 18.9375 -11.5156
Q21 -9.76562 23.4844 -3.21875
L25.0938 0.875
L2.98438 54.6875
L12.5 54.6875
L29.5938 11.9219
L46.6875 54.6875
L56.2031 54.6875
z
" id="DejaVuSans-79"/>
   </defs>
   <g transform="translate(70.9434375 17.758125)scale(0.12 -0.12)">
    <use xlink:href="#DejaVuSans-50"/>
    <use x="55.802734375" xlink:href="#DejaVuSans-61"/>
    <use x="117.08203125" xlink:href="#DejaVuSans-72"/>
    <use x="158.1953125" xlink:href="#DejaVuSans-74"/>
    <use x="197.404296875" xlink:href="#DejaVuSans-69"/>
    <use x="225.1875" xlink:href="#DejaVuSans-61"/>
    <use x="286.466796875" xlink:href="#DejaVuSans-6c"/>
    <use x="314.25" xlink:href="#DejaVuSans-20"/>
    <use x="346.037109375" xlink:href="#DejaVuSans-64"/>
    <use x="409.513671875" xlink:href="#DejaVuSans-65"/>
    <use x="471.037109375" xlink:href="#DejaVuSans-70"/>
    <use x="534.513671875" xlink:href="#DejaVuSans-65"/>
    <use x="596.037109375" xlink:href="#DejaVuSans-6e"/>
    <use x="659.416015625" xlink:href="#DejaVuSans-64"/>
    <use x="722.892578125" xlink:href="#DejaVuSans-65"/>
    <use x="784.416015625" xlink:href="#DejaVuSans-6e"/>
    <use x="847.794921875" xlink:href="#DejaVuSans-63"/>
    <use x="902.775390625" xlink:href="#DejaVuSans-65"/>
    <use x="964.298828125" xlink:href="#DejaVuSans-20"/>
    <use x="996.0859375" xlink:href="#DejaVuSans-6f"/>
    <use x="1057.26757812" xlink:href="#DejaVuSans-66"/>
    <use x="1092.47265625" xlink:href="#DejaVuSans-20"/>
    <use x="1124.25976562" xlink:href="#DejaVuSans-70"/>
    <use x="1187.73632812" xlink:href="#DejaVuSans-72"/>
    <use x="1228.84960938" xlink:href="#DejaVuSans-69"/>
    <use x="1256.6328125" xlink:href="#DejaVuSans-76"/>
    <use x="1315.8125" xlink:href="#DejaVuSans-61"/>
    <use x="1377.09179688" xlink:href="#DejaVuSans-63"/>
    <use x="1432.07226562" xlink:href="#DejaVuSans-79"/>
    <use x="1491.25195312" xlink:href="#DejaVuSans-20"/>
    <use x="1523.0390625" xlink:href="#DejaVuSans-63"/>
    <use x="1578.01953125" xlink:href="#DejaVuSans-6f"/>
    <use x="1639.20117188" xlink:href="#DejaVuSans-6d"/>
    <use x="1736.61328125" xlink:href="#DejaVuSans-66"/>
    <use x="1771.81835938" xlink:href="#DejaVuSans-6f"/>
    <use x="1833.0" xlink:href="#DejaVuSans-72"/>
    <use x="1874.11328125" xlink:href="#DejaVuSans-74"/>
    <use x="1913.32226562" xlink:href="#DejaVuSans-20"/>
    <use x="1945.109375" xlink:href="#DejaVuSans-73"/>
    <use x="1997.20898438" xlink:href="#DejaVuSans-63"/>
    <use x="2052.18945312" xlink:href="#DejaVuSans-6f"/>
    <use x="2113.37109375" xlink:href="#DejaVuSans-72"/>
    <use x="2152.234375" xlink:href="#DejaVuSans-65"/>
    <use x="2213.7578125" xlink:href="#DejaVuSans-20"/>
    <use x="2245.54492188" xlink:href="#DejaVuSans-6f"/>
    <use x="2306.7265625" xlink:href="#DejaVuSans-6e"/>
    <use x="2370.10546875" xlink:href="#DejaVuSans-20"/>
    <use x="2401.89257812" xlink:href="#DejaVuSans-6d"/>
    <use x="2499.3046875" xlink:href="#DejaVuSans-6f"/>
    <use x="2560.48632812" xlink:href="#DejaVuSans-73"/>
    <use x="2612.5859375" xlink:href="#DejaVuSans-74"/>
    <use x="2651.79492188" xlink:href="#DejaVuSans-20"/>
    <use x="2683.58203125" xlink:href="#DejaVuSans-69"/>
    <use x="2711.36523438" xlink:href="#DejaVuSans-6d"/>
    <use x="2808.77734375" xlink:href="#DejaVuSans-70"/>
    <use x="2872.25390625" xlink:href="#DejaVuSans-6f"/>
    <use x="2933.43554688" xlink:href="#DejaVuSans-72"/>
    <use x="2974.54882812" xlink:href="#DejaVuSans-74"/>
    <use x="3013.7578125" xlink:href="#DejaVuSans-61"/>
    <use x="3075.03710938" xlink:href="#DejaVuSans-6e"/>
    <use x="3138.41601562" xlink:href="#DejaVuSans-74"/>
    <use x="3177.625" xlink:href="#DejaVuSans-20"/>
    <use x="3209.41210938" xlink:href="#DejaVuSans-66"/>
    <use x="3244.6171875" xlink:href="#DejaVuSans-65"/>
    <use x="3306.140625" xlink:href="#DejaVuSans-61"/>
    <use x="3367.41992188" xlink:href="#DejaVuSans-74"/>
    <use x="3406.62890625" xlink:href="#DejaVuSans-75"/>
    <use x="3470.0078125" xlink:href="#DejaVuSans-72"/>
    <use x="3508.87109375" xlink:href="#DejaVuSans-65"/>
    <use x="3570.39453125" xlink:href="#DejaVuSans-73"/>
   </g>
  </g>
 </g>
 <defs>
  <clipPath id="paf31ce1901">
   <rect height="159.105142663" width="214.8803125" x="69.1959375" y="19.814857337"/>
  </clipPath>
  <clipPath id="pa771e637a5">
   <rect height="159.105142663" width="214.8803125" x="335.6721875" y="19.814857337"/>
  </clipPath>
  <clipPath id="p2ade9d2e00">
   <rect height="159.105142663" width="214.8803125" x="69.1959375" y="229.334857337"/>
  </clipPath>
  <clipPath id="p805421909a">
   <rect height="159.105142663" width="214.8803125" x="335.6721875" y="229.334857337"/>
  </clipPath>
 </defs>
</svg>
