<?xml version="1.0" encoding="utf-8" standalone="no"?>
<!DOCTYPE svg PUBLIC "-//W3C//DTD SVG 1.1//EN"
  "http://www.w3.org/Graphics/SVG/1.1/DTD/svg11.dtd">
<!-- Created with matplotlib (http://matplotlib.sourceforge.net/) -->
<svg height="432pt" version="1.1" viewBox="0 0 576 432" width="576pt" xmlns="http://www.w3.org/2000/svg" xmlns:xlink="http://www.w3.org/1999/xlink">
 <defs>
  <style type="text/css">
*{stroke-linecap:square;stroke-linejoin:round;}
  </style>
 </defs>
 <g id="figure_1">
  <g id="patch_1">
   <path d="
M0 432
L576 432
L576 0
L0 0
z
" style="fill:#ffffff;"/>
  </g>
  <g id="axes_1">
   <g id="patch_2">
    <path d="
M69.1959 178.857
L256.725 178.857
L256.725 19.8149
L69.1959 19.8149
z
" style="fill:#ffffff;"/>
   </g>
   <g id="LineCollection_1">
    <defs>
     <path d="
M94.7892 -253.143
L94.7892 -261.095" id="C0_0_2ecf31f460"/>
     <path d="
M102.509 -253.143
L102.509 -261.095" id="C0_1_47b95996b0"/>
     <path d="
M110.829 -253.143
L110.829 -261.095" id="C0_2_de0d16ab0c"/>
     <path d="
M121.465 -253.143
L121.465 -261.095" id="C0_3_26b9103ab8"/>
     <path d="
M134.165 -253.143
L134.165 -261.095" id="C0_4_70b7a99213"/>
     <path d="
M162.504 -253.143
L162.504 -261.095" id="C0_5_da91c439a9"/>
     <path d="
M191.551 -253.143
L191.551 -261.095" id="C0_6_c494ef58e6"/>
     <path d="
M213.972 -253.143
L213.972 -261.095" id="C0_7_15ba80ab24"/>
     <path d="
M238.552 -253.143
L238.552 -261.095" id="C0_8_156e0e294c"/>
    </defs>
    <g clip-path="url(#p9771550d2f)">
     <use style="fill:none;stroke:#000000;stroke-linecap:butt;" x="0" xlink:href="#C0_0_2ecf31f460" y="432.0"/>
    </g>
    <g clip-path="url(#p9771550d2f)">
     <use style="fill:none;stroke:#000000;stroke-linecap:butt;" x="0" xlink:href="#C0_1_47b95996b0" y="432.0"/>
    </g>
    <g clip-path="url(#p9771550d2f)">
     <use style="fill:none;stroke:#000000;stroke-linecap:butt;" x="0" xlink:href="#C0_2_de0d16ab0c" y="432.0"/>
    </g>
    <g clip-path="url(#p9771550d2f)">
     <use style="fill:none;stroke:#000000;stroke-linecap:butt;" x="0" xlink:href="#C0_3_26b9103ab8" y="432.0"/>
    </g>
    <g clip-path="url(#p9771550d2f)">
     <use style="fill:none;stroke:#000000;stroke-linecap:butt;" x="0" xlink:href="#C0_4_70b7a99213" y="432.0"/>
    </g>
    <g clip-path="url(#p9771550d2f)">
     <use style="fill:none;stroke:#000000;stroke-linecap:butt;" x="0" xlink:href="#C0_5_da91c439a9" y="432.0"/>
    </g>
    <g clip-path="url(#p9771550d2f)">
     <use style="fill:none;stroke:#000000;stroke-linecap:butt;" x="0" xlink:href="#C0_6_c494ef58e6" y="432.0"/>
    </g>
    <g clip-path="url(#p9771550d2f)">
     <use style="fill:none;stroke:#000000;stroke-linecap:butt;" x="0" xlink:href="#C0_7_15ba80ab24" y="432.0"/>
    </g>
    <g clip-path="url(#p9771550d2f)">
     <use style="fill:none;stroke:#000000;stroke-linecap:butt;" x="0" xlink:href="#C0_8_156e0e294c" y="432.0"/>
    </g>
   </g>
   <g id="line2d_1">
    <path clip-path="url(#p9771550d2f)" d="
M91.5024 72.8897
L93.0847 81.1391
L94.667 79.8455
L96.2493 83.5661
L97.8316 83.576
L99.4139 83.393
L100.996 83.6831
L102.578 83.6831
L104.161 83.7308
L105.743 83.5243
L107.325 83.5243
L108.908 83.8258
L110.49 83.8258
L112.072 83.8364
L113.655 79.3783
L115.237 74.1122
L116.819 74.1122
L118.401 73.8981
L119.984 73.9026
L121.566 73.8996
L123.148 76.1053
L124.731 75.8416
L126.313 75.8416
L127.895 77.5479
L129.477 77.5479
L131.06 77.5479
L132.642 77.9439
L134.224 77.9439
L135.807 77.9439
L137.389 77.9439
L138.971 77.9439
L140.554 77.9439
L142.136 77.5156
L143.718 77.5156
L145.3 77.5156
L146.883 77.5156
L148.465 77.5156
L150.047 77.5156
L151.63 77.5156
L153.212 77.5156
L154.794 77.5156
L156.376 77.5156
L157.959 77.5156
L159.541 77.1087
L161.123 77.1087
L162.706 77.3066
L164.288 77.3066
L165.87 77.3066
L167.453 77.3066
L169.035 77.3066
L170.617 77.3066
L172.199 77.3066
L173.782 77.3263
L175.364 77.3263
L176.946 77.0927
L178.529 77.6033
L180.111 77.6033
L181.693 77.6033
L183.275 77.6033
L184.858 77.6033
L186.44 77.6033
L188.022 77.6033
L189.605 77.6033
L191.187 76.3418
L192.769 76.9913
L194.352 76.9913
L195.934 76.9913
L197.516 77.5349
L199.098 78.2637
L200.681 75.4299
L202.263 75.4299
L203.845 75.5929
L205.428 75.5929
L207.01 75.5929
L208.592 75.5929
L210.174 79.13
L211.757 79.13
L213.339 79.13
L214.921 79.13
L216.504 80.5442
L218.086 80.5442
L219.668 80.5442
L221.251 80.5442
L222.833 80.5442
L224.415 80.9257
L225.997 80.9257
L227.58 81.0583
L229.162 81.0583
L230.744 81.0583
L232.327 81.0583
L233.909 81.0583
L235.491 81.0583
L237.073 81.0583
L238.656 81.0583
L240.238 81.0583
L241.82 81.0583
L243.403 81.144
L244.985 81.144
L246.567 81.144
L248.15 81.144" style="fill:none;stroke:#008000;"/>
   </g>
   <g id="matplotlib.axis_1">
    <g id="xtick_1">
     <g id="line2d_2">
      <defs>
       <path d="
M0 0
L0 -4" id="m0012dd4eef" style="stroke:#000000;stroke-linecap:butt;stroke-width:0.5;"/>
      </defs>
      <g>
       <use style="stroke:#000000;stroke-linecap:butt;stroke-width:0.5;" x="104.357724609" xlink:href="#m0012dd4eef" y="178.85671875"/>
      </g>
     </g>
     <g id="line2d_3">
      <defs>
       <path d="
M0 0
L0 4" id="m476344969c" style="stroke:#000000;stroke-linecap:butt;stroke-width:0.5;"/>
      </defs>
      <g>
       <use style="stroke:#000000;stroke-linecap:butt;stroke-width:0.5;" x="104.357724609" xlink:href="#m476344969c" y="19.814857337"/>
      </g>
     </g>
     <g id="text_1">
      <!-- −0.15 -->
      <defs>
       <path d="
M12.4062 8.29688
L28.5156 8.29688
L28.5156 63.9219
L10.9844 60.4062
L10.9844 69.3906
L28.4219 72.9062
L38.2812 72.9062
L38.2812 8.29688
L54.3906 8.29688
L54.3906 0
L12.4062 0
z
" id="DejaVuSans-31"/>
       <path d="
M31.7812 66.4062
Q24.1719 66.4062 20.3281 58.9062
Q16.5 51.4219 16.5 36.375
Q16.5 21.3906 20.3281 13.8906
Q24.1719 6.39062 31.7812 6.39062
Q39.4531 6.39062 43.2812 13.8906
Q47.125 21.3906 47.125 36.375
Q47.125 51.4219 43.2812 58.9062
Q39.4531 66.4062 31.7812 66.4062
M31.7812 74.2188
Q44.0469 74.2188 50.5156 64.5156
Q56.9844 54.8281 56.9844 36.375
Q56.9844 17.9688 50.5156 8.26562
Q44.0469 -1.42188 31.7812 -1.42188
Q19.5312 -1.42188 13.0625 8.26562
Q6.59375 17.9688 6.59375 36.375
Q6.59375 54.8281 13.0625 64.5156
Q19.5312 74.2188 31.7812 74.2188" id="DejaVuSans-30"/>
       <path d="
M10.6875 12.4062
L21 12.4062
L21 0
L10.6875 0
z
" id="DejaVuSans-2e"/>
       <path d="
M10.7969 72.9062
L49.5156 72.9062
L49.5156 64.5938
L19.8281 64.5938
L19.8281 46.7344
Q21.9688 47.4688 24.1094 47.8281
Q26.2656 48.1875 28.4219 48.1875
Q40.625 48.1875 47.75 41.5
Q54.8906 34.8125 54.8906 23.3906
Q54.8906 11.625 47.5625 5.09375
Q40.2344 -1.42188 26.9062 -1.42188
Q22.3125 -1.42188 17.5469 -0.640625
Q12.7969 0.140625 7.71875 1.70312
L7.71875 11.625
Q12.1094 9.23438 16.7969 8.0625
Q21.4844 6.89062 26.7031 6.89062
Q35.1562 6.89062 40.0781 11.3281
Q45.0156 15.7656 45.0156 23.3906
Q45.0156 31 40.0781 35.4375
Q35.1562 39.8906 26.7031 39.8906
Q22.75 39.8906 18.8125 39.0156
Q14.8906 38.1406 10.7969 36.2812
z
" id="DejaVuSans-35"/>
       <path d="
M10.5938 35.5
L73.1875 35.5
L73.1875 27.2031
L10.5938 27.2031
z
" id="DejaVuSans-2212"/>
      </defs>
      <g transform="translate(87.1302246094 191.76296875)scale(0.12 -0.12)">
       <use xlink:href="#DejaVuSans-2212"/>
       <use x="83.7890625" xlink:href="#DejaVuSans-30"/>
       <use x="147.412109375" xlink:href="#DejaVuSans-2e"/>
       <use x="179.19921875" xlink:href="#DejaVuSans-31"/>
       <use x="242.822265625" xlink:href="#DejaVuSans-35"/>
      </g>
     </g>
    </g>
    <g id="xtick_2">
     <g id="line2d_4">
      <g>
       <use style="stroke:#000000;stroke-linecap:butt;stroke-width:0.5;" x="139.519511719" xlink:href="#m0012dd4eef" y="178.85671875"/>
      </g>
     </g>
     <g id="line2d_5">
      <g>
       <use style="stroke:#000000;stroke-linecap:butt;stroke-width:0.5;" x="139.519511719" xlink:href="#m476344969c" y="19.814857337"/>
      </g>
     </g>
     <g id="text_2">
      <!-- 0.00 -->
      <g transform="translate(126.954199219 191.76296875)scale(0.12 -0.12)">
       <use xlink:href="#DejaVuSans-30"/>
       <use x="63.623046875" xlink:href="#DejaVuSans-2e"/>
       <use x="95.41015625" xlink:href="#DejaVuSans-30"/>
       <use x="159.033203125" xlink:href="#DejaVuSans-30"/>
      </g>
     </g>
    </g>
    <g id="xtick_3">
     <g id="line2d_6">
      <g>
       <use style="stroke:#000000;stroke-linecap:butt;stroke-width:0.5;" x="174.681298828" xlink:href="#m0012dd4eef" y="178.85671875"/>
      </g>
     </g>
     <g id="line2d_7">
      <g>
       <use style="stroke:#000000;stroke-linecap:butt;stroke-width:0.5;" x="174.681298828" xlink:href="#m476344969c" y="19.814857337"/>
      </g>
     </g>
     <g id="text_3">
      <!-- 0.15 -->
      <g transform="translate(162.241611328 191.76296875)scale(0.12 -0.12)">
       <use xlink:href="#DejaVuSans-30"/>
       <use x="63.623046875" xlink:href="#DejaVuSans-2e"/>
       <use x="95.41015625" xlink:href="#DejaVuSans-31"/>
       <use x="159.033203125" xlink:href="#DejaVuSans-35"/>
      </g>
     </g>
    </g>
    <g id="xtick_4">
     <g id="line2d_8">
      <g>
       <use style="stroke:#000000;stroke-linecap:butt;stroke-width:0.5;" x="209.843085938" xlink:href="#m0012dd4eef" y="178.85671875"/>
      </g>
     </g>
     <g id="line2d_9">
      <g>
       <use style="stroke:#000000;stroke-linecap:butt;stroke-width:0.5;" x="209.843085938" xlink:href="#m476344969c" y="19.814857337"/>
      </g>
     </g>
     <g id="text_4">
      <!-- 0.30 -->
      <defs>
       <path d="
M40.5781 39.3125
Q47.6562 37.7969 51.625 33
Q55.6094 28.2188 55.6094 21.1875
Q55.6094 10.4062 48.1875 4.48438
Q40.7656 -1.42188 27.0938 -1.42188
Q22.5156 -1.42188 17.6562 -0.515625
Q12.7969 0.390625 7.625 2.20312
L7.625 11.7188
Q11.7188 9.32812 16.5938 8.10938
Q21.4844 6.89062 26.8125 6.89062
Q36.0781 6.89062 40.9375 10.5469
Q45.7969 14.2031 45.7969 21.1875
Q45.7969 27.6406 41.2812 31.2656
Q36.7656 34.9062 28.7188 34.9062
L20.2188 34.9062
L20.2188 43.0156
L29.1094 43.0156
Q36.375 43.0156 40.2344 45.9219
Q44.0938 48.8281 44.0938 54.2969
Q44.0938 59.9062 40.1094 62.9062
Q36.1406 65.9219 28.7188 65.9219
Q24.6562 65.9219 20.0156 65.0312
Q15.375 64.1562 9.8125 62.3125
L9.8125 71.0938
Q15.4375 72.6562 20.3438 73.4375
Q25.25 74.2188 29.5938 74.2188
Q40.8281 74.2188 47.3594 69.1094
Q53.9062 64.0156 53.9062 55.3281
Q53.9062 49.2656 50.4375 45.0938
Q46.9688 40.9219 40.5781 39.3125" id="DejaVuSans-33"/>
      </defs>
      <g transform="translate(197.277773438 191.76296875)scale(0.12 -0.12)">
       <use xlink:href="#DejaVuSans-30"/>
       <use x="63.623046875" xlink:href="#DejaVuSans-2e"/>
       <use x="95.41015625" xlink:href="#DejaVuSans-33"/>
       <use x="159.033203125" xlink:href="#DejaVuSans-30"/>
      </g>
     </g>
    </g>
    <g id="xtick_5">
     <g id="line2d_10">
      <g>
       <use style="stroke:#000000;stroke-linecap:butt;stroke-width:0.5;" x="245.004873047" xlink:href="#m0012dd4eef" y="178.85671875"/>
      </g>
     </g>
     <g id="line2d_11">
      <g>
       <use style="stroke:#000000;stroke-linecap:butt;stroke-width:0.5;" x="245.004873047" xlink:href="#m476344969c" y="19.814857337"/>
      </g>
     </g>
     <g id="text_5">
      <!-- 0.45 -->
      <defs>
       <path d="
M37.7969 64.3125
L12.8906 25.3906
L37.7969 25.3906
z

M35.2031 72.9062
L47.6094 72.9062
L47.6094 25.3906
L58.0156 25.3906
L58.0156 17.1875
L47.6094 17.1875
L47.6094 0
L37.7969 0
L37.7969 17.1875
L4.89062 17.1875
L4.89062 26.7031
z
" id="DejaVuSans-34"/>
      </defs>
      <g transform="translate(232.565185547 191.76296875)scale(0.12 -0.12)">
       <use xlink:href="#DejaVuSans-30"/>
       <use x="63.623046875" xlink:href="#DejaVuSans-2e"/>
       <use x="95.41015625" xlink:href="#DejaVuSans-34"/>
       <use x="159.033203125" xlink:href="#DejaVuSans-35"/>
      </g>
     </g>
    </g>
    <g id="text_6">
     <!-- pictureCount -->
     <defs>
      <path d="
M54.8906 33.0156
L54.8906 0
L45.9062 0
L45.9062 32.7188
Q45.9062 40.4844 42.875 44.3281
Q39.8438 48.1875 33.7969 48.1875
Q26.5156 48.1875 22.3125 43.5469
Q18.1094 38.9219 18.1094 30.9062
L18.1094 0
L9.07812 0
L9.07812 54.6875
L18.1094 54.6875
L18.1094 46.1875
Q21.3438 51.125 25.7031 53.5625
Q30.0781 56 35.7969 56
Q45.2188 56 50.0469 50.1719
Q54.8906 44.3438 54.8906 33.0156" id="DejaVuSans-6e"/>
      <path d="
M30.6094 48.3906
Q23.3906 48.3906 19.1875 42.75
Q14.9844 37.1094 14.9844 27.2969
Q14.9844 17.4844 19.1562 11.8438
Q23.3438 6.20312 30.6094 6.20312
Q37.7969 6.20312 41.9844 11.8594
Q46.1875 17.5312 46.1875 27.2969
Q46.1875 37.0156 41.9844 42.7031
Q37.7969 48.3906 30.6094 48.3906
M30.6094 56
Q42.3281 56 49.0156 48.375
Q55.7188 40.7656 55.7188 27.2969
Q55.7188 13.875 49.0156 6.21875
Q42.3281 -1.42188 30.6094 -1.42188
Q18.8438 -1.42188 12.1719 6.21875
Q5.51562 13.875 5.51562 27.2969
Q5.51562 40.7656 12.1719 48.375
Q18.8438 56 30.6094 56" id="DejaVuSans-6f"/>
      <path d="
M64.4062 67.2812
L64.4062 56.8906
Q59.4219 61.5312 53.7812 63.8125
Q48.1406 66.1094 41.7969 66.1094
Q29.2969 66.1094 22.6562 58.4688
Q16.0156 50.8281 16.0156 36.375
Q16.0156 21.9688 22.6562 14.3281
Q29.2969 6.6875 41.7969 6.6875
Q48.1406 6.6875 53.7812 8.98438
Q59.4219 11.2812 64.4062 15.9219
L64.4062 5.60938
Q59.2344 2.09375 53.4375 0.328125
Q47.6562 -1.42188 41.2188 -1.42188
Q24.6562 -1.42188 15.125 8.70312
Q5.60938 18.8438 5.60938 36.375
Q5.60938 53.9531 15.125 64.0781
Q24.6562 74.2188 41.2188 74.2188
Q47.75 74.2188 53.5312 72.4844
Q59.3281 70.75 64.4062 67.2812" id="DejaVuSans-43"/>
      <path d="
M18.1094 8.20312
L18.1094 -20.7969
L9.07812 -20.7969
L9.07812 54.6875
L18.1094 54.6875
L18.1094 46.3906
Q20.9531 51.2656 25.2656 53.625
Q29.5938 56 35.5938 56
Q45.5625 56 51.7812 48.0938
Q58.0156 40.1875 58.0156 27.2969
Q58.0156 14.4062 51.7812 6.48438
Q45.5625 -1.42188 35.5938 -1.42188
Q29.5938 -1.42188 25.2656 0.953125
Q20.9531 3.32812 18.1094 8.20312
M48.6875 27.2969
Q48.6875 37.2031 44.6094 42.8438
Q40.5312 48.4844 33.4062 48.4844
Q26.2656 48.4844 22.1875 42.8438
Q18.1094 37.2031 18.1094 27.2969
Q18.1094 17.3906 22.1875 11.75
Q26.2656 6.10938 33.4062 6.10938
Q40.5312 6.10938 44.6094 11.75
Q48.6875 17.3906 48.6875 27.2969" id="DejaVuSans-70"/>
      <path d="
M9.42188 54.6875
L18.4062 54.6875
L18.4062 0
L9.42188 0
z

M9.42188 75.9844
L18.4062 75.9844
L18.4062 64.5938
L9.42188 64.5938
z
" id="DejaVuSans-69"/>
      <path d="
M8.5 21.5781
L8.5 54.6875
L17.4844 54.6875
L17.4844 21.9219
Q17.4844 14.1562 20.5 10.2656
Q23.5312 6.39062 29.5938 6.39062
Q36.8594 6.39062 41.0781 11.0312
Q45.3125 15.6719 45.3125 23.6875
L45.3125 54.6875
L54.2969 54.6875
L54.2969 0
L45.3125 0
L45.3125 8.40625
Q42.0469 3.42188 37.7188 1
Q33.4062 -1.42188 27.6875 -1.42188
Q18.2656 -1.42188 13.375 4.4375
Q8.5 10.2969 8.5 21.5781
M31.1094 56
z
" id="DejaVuSans-75"/>
      <path d="
M18.3125 70.2188
L18.3125 54.6875
L36.8125 54.6875
L36.8125 47.7031
L18.3125 47.7031
L18.3125 18.0156
Q18.3125 11.3281 20.1406 9.42188
Q21.9688 7.51562 27.5938 7.51562
L36.8125 7.51562
L36.8125 0
L27.5938 0
Q17.1875 0 13.2344 3.875
Q9.28125 7.76562 9.28125 18.0156
L9.28125 47.7031
L2.6875 47.7031
L2.6875 54.6875
L9.28125 54.6875
L9.28125 70.2188
z
" id="DejaVuSans-74"/>
      <path d="
M56.2031 29.5938
L56.2031 25.2031
L14.8906 25.2031
Q15.4844 15.9219 20.4844 11.0625
Q25.4844 6.20312 34.4219 6.20312
Q39.5938 6.20312 44.4531 7.46875
Q49.3125 8.73438 54.1094 11.2812
L54.1094 2.78125
Q49.2656 0.734375 44.1875 -0.34375
Q39.1094 -1.42188 33.8906 -1.42188
Q20.7969 -1.42188 13.1562 6.1875
Q5.51562 13.8125 5.51562 26.8125
Q5.51562 40.2344 12.7656 48.1094
Q20.0156 56 32.3281 56
Q43.3594 56 49.7812 48.8906
Q56.2031 41.7969 56.2031 29.5938
M47.2188 32.2344
Q47.125 39.5938 43.0938 43.9844
Q39.0625 48.3906 32.4219 48.3906
Q24.9062 48.3906 20.3906 44.1406
Q15.875 39.8906 15.1875 32.1719
z
" id="DejaVuSans-65"/>
      <path d="
M48.7812 52.5938
L48.7812 44.1875
Q44.9688 46.2969 41.1406 47.3438
Q37.3125 48.3906 33.4062 48.3906
Q24.6562 48.3906 19.8125 42.8438
Q14.9844 37.3125 14.9844 27.2969
Q14.9844 17.2812 19.8125 11.7344
Q24.6562 6.20312 33.4062 6.20312
Q37.3125 6.20312 41.1406 7.25
Q44.9688 8.29688 48.7812 10.4062
L48.7812 2.09375
Q45.0156 0.34375 40.9844 -0.53125
Q36.9688 -1.42188 32.4219 -1.42188
Q20.0625 -1.42188 12.7812 6.34375
Q5.51562 14.1094 5.51562 27.2969
Q5.51562 40.6719 12.8594 48.3281
Q20.2188 56 33.0156 56
Q37.1562 56 41.1094 55.1406
Q45.0625 54.2969 48.7812 52.5938" id="DejaVuSans-63"/>
      <path d="
M41.1094 46.2969
Q39.5938 47.1719 37.8125 47.5781
Q36.0312 48 33.8906 48
Q26.2656 48 22.1875 43.0469
Q18.1094 38.0938 18.1094 28.8125
L18.1094 0
L9.07812 0
L9.07812 54.6875
L18.1094 54.6875
L18.1094 46.1875
Q20.9531 51.1719 25.4844 53.5781
Q30.0312 56 36.5312 56
Q37.4531 56 38.5781 55.875
Q39.7031 55.7656 41.0625 55.5156
z
" id="DejaVuSans-72"/>
     </defs>
     <g transform="translate(124.877578125 206.05171875)scale(0.12 -0.12)">
      <use xlink:href="#DejaVuSans-70"/>
      <use x="63.4765625" xlink:href="#DejaVuSans-69"/>
      <use x="91.259765625" xlink:href="#DejaVuSans-63"/>
      <use x="146.240234375" xlink:href="#DejaVuSans-74"/>
      <use x="185.44921875" xlink:href="#DejaVuSans-75"/>
      <use x="248.828125" xlink:href="#DejaVuSans-72"/>
      <use x="287.69140625" xlink:href="#DejaVuSans-65"/>
      <use x="349.21484375" xlink:href="#DejaVuSans-43"/>
      <use x="419.0390625" xlink:href="#DejaVuSans-6f"/>
      <use x="480.220703125" xlink:href="#DejaVuSans-75"/>
      <use x="543.599609375" xlink:href="#DejaVuSans-6e"/>
      <use x="606.978515625" xlink:href="#DejaVuSans-74"/>
     </g>
    </g>
   </g>
   <g id="matplotlib.axis_2">
    <g id="ytick_1">
     <g id="line2d_12">
      <defs>
       <path d="
M0 0
L4 0" id="me8a85f7bf6" style="stroke:#000000;stroke-linecap:butt;stroke-width:0.5;"/>
      </defs>
      <g>
       <use style="stroke:#000000;stroke-linecap:butt;stroke-width:0.5;" x="69.1959375" xlink:href="#me8a85f7bf6" y="167.742542908"/>
      </g>
     </g>
     <g id="line2d_13">
      <defs>
       <path d="
M0 0
L-4 0" id="m1a32005dea" style="stroke:#000000;stroke-linecap:butt;stroke-width:0.5;"/>
      </defs>
      <g>
       <use style="stroke:#000000;stroke-linecap:butt;stroke-width:0.5;" x="256.72546875" xlink:href="#m1a32005dea" y="167.742542908"/>
      </g>
     </g>
     <g id="text_7">
      <!-- −0.20 -->
      <defs>
       <path d="
M19.1875 8.29688
L53.6094 8.29688
L53.6094 0
L7.32812 0
L7.32812 8.29688
Q12.9375 14.1094 22.625 23.8906
Q32.3281 33.6875 34.8125 36.5312
Q39.5469 41.8438 41.4219 45.5312
Q43.3125 49.2188 43.3125 52.7812
Q43.3125 58.5938 39.2344 62.25
Q35.1562 65.9219 28.6094 65.9219
Q23.9688 65.9219 18.8125 64.3125
Q13.6719 62.7031 7.8125 59.4219
L7.8125 69.3906
Q13.7656 71.7812 18.9375 73
Q24.125 74.2188 28.4219 74.2188
Q39.75 74.2188 46.4844 68.5469
Q53.2188 62.8906 53.2188 53.4219
Q53.2188 48.9219 51.5312 44.8906
Q49.8594 40.875 45.4062 35.4062
Q44.1875 33.9844 37.6406 27.2188
Q31.1094 20.4531 19.1875 8.29688" id="DejaVuSans-32"/>
      </defs>
      <g transform="translate(30.4896875 172.110355408)scale(0.12 -0.12)">
       <use xlink:href="#DejaVuSans-2212"/>
       <use x="83.7890625" xlink:href="#DejaVuSans-30"/>
       <use x="147.412109375" xlink:href="#DejaVuSans-2e"/>
       <use x="179.19921875" xlink:href="#DejaVuSans-32"/>
       <use x="242.822265625" xlink:href="#DejaVuSans-30"/>
      </g>
     </g>
    </g>
    <g id="ytick_2">
     <g id="line2d_14">
      <g>
       <use style="stroke:#000000;stroke-linecap:butt;stroke-width:0.5;" x="69.1959375" xlink:href="#me8a85f7bf6" y="141.974319506"/>
      </g>
     </g>
     <g id="line2d_15">
      <g>
       <use style="stroke:#000000;stroke-linecap:butt;stroke-width:0.5;" x="256.72546875" xlink:href="#m1a32005dea" y="141.974319506"/>
      </g>
     </g>
     <g id="text_8">
      <!-- −0.15 -->
      <g transform="translate(30.7409375 146.342132006)scale(0.12 -0.12)">
       <use xlink:href="#DejaVuSans-2212"/>
       <use x="83.7890625" xlink:href="#DejaVuSans-30"/>
       <use x="147.412109375" xlink:href="#DejaVuSans-2e"/>
       <use x="179.19921875" xlink:href="#DejaVuSans-31"/>
       <use x="242.822265625" xlink:href="#DejaVuSans-35"/>
      </g>
     </g>
    </g>
    <g id="ytick_3">
     <g id="line2d_16">
      <g>
       <use style="stroke:#000000;stroke-linecap:butt;stroke-width:0.5;" x="69.1959375" xlink:href="#me8a85f7bf6" y="116.206096104"/>
      </g>
     </g>
     <g id="line2d_17">
      <g>
       <use style="stroke:#000000;stroke-linecap:butt;stroke-width:0.5;" x="256.72546875" xlink:href="#m1a32005dea" y="116.206096104"/>
      </g>
     </g>
     <g id="text_9">
      <!-- −0.10 -->
      <g transform="translate(30.4896875 120.573908604)scale(0.12 -0.12)">
       <use xlink:href="#DejaVuSans-2212"/>
       <use x="83.7890625" xlink:href="#DejaVuSans-30"/>
       <use x="147.412109375" xlink:href="#DejaVuSans-2e"/>
       <use x="179.19921875" xlink:href="#DejaVuSans-31"/>
       <use x="242.822265625" xlink:href="#DejaVuSans-30"/>
      </g>
     </g>
    </g>
    <g id="ytick_4">
     <g id="line2d_18">
      <g>
       <use style="stroke:#000000;stroke-linecap:butt;stroke-width:0.5;" x="69.1959375" xlink:href="#me8a85f7bf6" y="90.4378727026"/>
      </g>
     </g>
     <g id="line2d_19">
      <g>
       <use style="stroke:#000000;stroke-linecap:butt;stroke-width:0.5;" x="256.72546875" xlink:href="#m1a32005dea" y="90.4378727026"/>
      </g>
     </g>
     <g id="text_10">
      <!-- −0.05 -->
      <g transform="translate(30.7409375 94.8056852026)scale(0.12 -0.12)">
       <use xlink:href="#DejaVuSans-2212"/>
       <use x="83.7890625" xlink:href="#DejaVuSans-30"/>
       <use x="147.412109375" xlink:href="#DejaVuSans-2e"/>
       <use x="179.19921875" xlink:href="#DejaVuSans-30"/>
       <use x="242.822265625" xlink:href="#DejaVuSans-35"/>
      </g>
     </g>
    </g>
    <g id="ytick_5">
     <g id="line2d_20">
      <g>
       <use style="stroke:#000000;stroke-linecap:butt;stroke-width:0.5;" x="69.1959375" xlink:href="#me8a85f7bf6" y="64.6696493008"/>
      </g>
     </g>
     <g id="line2d_21">
      <g>
       <use style="stroke:#000000;stroke-linecap:butt;stroke-width:0.5;" x="256.72546875" xlink:href="#m1a32005dea" y="64.6696493008"/>
      </g>
     </g>
     <g id="text_11">
      <!-- 0.00 -->
      <g transform="translate(40.0653125 69.0374618008)scale(0.12 -0.12)">
       <use xlink:href="#DejaVuSans-30"/>
       <use x="63.623046875" xlink:href="#DejaVuSans-2e"/>
       <use x="95.41015625" xlink:href="#DejaVuSans-30"/>
       <use x="159.033203125" xlink:href="#DejaVuSans-30"/>
      </g>
     </g>
    </g>
    <g id="ytick_6">
     <g id="line2d_22">
      <g>
       <use style="stroke:#000000;stroke-linecap:butt;stroke-width:0.5;" x="69.1959375" xlink:href="#me8a85f7bf6" y="38.901425899"/>
      </g>
     </g>
     <g id="line2d_23">
      <g>
       <use style="stroke:#000000;stroke-linecap:butt;stroke-width:0.5;" x="256.72546875" xlink:href="#m1a32005dea" y="38.901425899"/>
      </g>
     </g>
     <g id="text_12">
      <!-- 0.05 -->
      <g transform="translate(40.3165625 43.269238399)scale(0.12 -0.12)">
       <use xlink:href="#DejaVuSans-30"/>
       <use x="63.623046875" xlink:href="#DejaVuSans-2e"/>
       <use x="95.41015625" xlink:href="#DejaVuSans-30"/>
       <use x="159.033203125" xlink:href="#DejaVuSans-35"/>
      </g>
     </g>
    </g>
    <g id="text_13">
     <!-- Partial Dependence -->
     <defs>
      <path d="
M9.42188 75.9844
L18.4062 75.9844
L18.4062 0
L9.42188 0
z
" id="DejaVuSans-6c"/>
      <path d="
M19.6719 64.7969
L19.6719 8.10938
L31.5938 8.10938
Q46.6875 8.10938 53.6875 14.9375
Q60.6875 21.7812 60.6875 36.5312
Q60.6875 51.1719 53.6875 57.9844
Q46.6875 64.7969 31.5938 64.7969
z

M9.8125 72.9062
L30.0781 72.9062
Q51.2656 72.9062 61.1719 64.0938
Q71.0938 55.2812 71.0938 36.5312
Q71.0938 17.6719 61.125 8.82812
Q51.1719 0 30.0781 0
L9.8125 0
z
" id="DejaVuSans-44"/>
      <path id="DejaVuSans-20"/>
      <path d="
M45.4062 46.3906
L45.4062 75.9844
L54.3906 75.9844
L54.3906 0
L45.4062 0
L45.4062 8.20312
Q42.5781 3.32812 38.25 0.953125
Q33.9375 -1.42188 27.875 -1.42188
Q17.9688 -1.42188 11.7344 6.48438
Q5.51562 14.4062 5.51562 27.2969
Q5.51562 40.1875 11.7344 48.0938
Q17.9688 56 27.875 56
Q33.9375 56 38.25 53.625
Q42.5781 51.2656 45.4062 46.3906
M14.7969 27.2969
Q14.7969 17.3906 18.875 11.75
Q22.9531 6.10938 30.0781 6.10938
Q37.2031 6.10938 41.2969 11.75
Q45.4062 17.3906 45.4062 27.2969
Q45.4062 37.2031 41.2969 42.8438
Q37.2031 48.4844 30.0781 48.4844
Q22.9531 48.4844 18.875 42.8438
Q14.7969 37.2031 14.7969 27.2969" id="DejaVuSans-64"/>
      <path d="
M19.6719 64.7969
L19.6719 37.4062
L32.0781 37.4062
Q38.9688 37.4062 42.7188 40.9688
Q46.4844 44.5312 46.4844 51.125
Q46.4844 57.6719 42.7188 61.2344
Q38.9688 64.7969 32.0781 64.7969
z

M9.8125 72.9062
L32.0781 72.9062
Q44.3438 72.9062 50.6094 67.3594
Q56.8906 61.8125 56.8906 51.125
Q56.8906 40.3281 50.6094 34.8125
Q44.3438 29.2969 32.0781 29.2969
L19.6719 29.2969
L19.6719 0
L9.8125 0
z
" id="DejaVuSans-50"/>
      <path d="
M34.2812 27.4844
Q23.3906 27.4844 19.1875 25
Q14.9844 22.5156 14.9844 16.5
Q14.9844 11.7188 18.1406 8.90625
Q21.2969 6.10938 26.7031 6.10938
Q34.1875 6.10938 38.7031 11.4062
Q43.2188 16.7031 43.2188 25.4844
L43.2188 27.4844
z

M52.2031 31.2031
L52.2031 0
L43.2188 0
L43.2188 8.29688
Q40.1406 3.32812 35.5469 0.953125
Q30.9531 -1.42188 24.3125 -1.42188
Q15.9219 -1.42188 10.9531 3.29688
Q6 8.01562 6 15.9219
Q6 25.1406 12.1719 29.8281
Q18.3594 34.5156 30.6094 34.5156
L43.2188 34.5156
L43.2188 35.4062
Q43.2188 41.6094 39.1406 45
Q35.0625 48.3906 27.6875 48.3906
Q23 48.3906 18.5469 47.2656
Q14.1094 46.1406 10.0156 43.8906
L10.0156 52.2031
Q14.9375 54.1094 19.5781 55.0469
Q24.2188 56 28.6094 56
Q40.4844 56 46.3438 49.8438
Q52.2031 43.7031 52.2031 31.2031" id="DejaVuSans-61"/>
     </defs>
     <g transform="translate(25.4896875 155.191100543)rotate(-90.0)scale(0.12 -0.12)">
      <use xlink:href="#DejaVuSans-50"/>
      <use x="55.802734375" xlink:href="#DejaVuSans-61"/>
      <use x="117.08203125" xlink:href="#DejaVuSans-72"/>
      <use x="158.1953125" xlink:href="#DejaVuSans-74"/>
      <use x="197.404296875" xlink:href="#DejaVuSans-69"/>
      <use x="225.1875" xlink:href="#DejaVuSans-61"/>
      <use x="286.466796875" xlink:href="#DejaVuSans-6c"/>
      <use x="314.25" xlink:href="#DejaVuSans-20"/>
      <use x="346.037109375" xlink:href="#DejaVuSans-44"/>
      <use x="423.0390625" xlink:href="#DejaVuSans-65"/>
      <use x="484.5625" xlink:href="#DejaVuSans-70"/>
      <use x="548.0390625" xlink:href="#DejaVuSans-65"/>
      <use x="609.5625" xlink:href="#DejaVuSans-6e"/>
      <use x="672.94140625" xlink:href="#DejaVuSans-64"/>
      <use x="736.41796875" xlink:href="#DejaVuSans-65"/>
      <use x="797.94140625" xlink:href="#DejaVuSans-6e"/>
      <use x="861.3203125" xlink:href="#DejaVuSans-63"/>
      <use x="916.30078125" xlink:href="#DejaVuSans-65"/>
     </g>
    </g>
   </g>
   <g id="patch_3">
    <path d="
M69.1959 19.8149
L256.725 19.8149" style="fill:none;stroke:#000000;"/>
   </g>
   <g id="patch_4">
    <path d="
M256.725 178.857
L256.725 19.8149" style="fill:none;stroke:#000000;"/>
   </g>
   <g id="patch_5">
    <path d="
M69.1959 178.857
L256.725 178.857" style="fill:none;stroke:#000000;"/>
   </g>
   <g id="patch_6">
    <path d="
M69.1959 178.857
L69.1959 19.8149" style="fill:none;stroke:#000000;"/>
   </g>
  </g>
  <g id="axes_2">
   <g id="patch_7">
    <path d="
M322.598 178.857
L510.128 178.857
L510.128 19.8149
L322.598 19.8149
z
" style="fill:#ffffff;"/>
   </g>
   <g id="LineCollection_2">
    <defs>
     <path d="
M344.637 -253.143
L344.637 -261.095" id="C1_0_be8c3e61c6"/>
     <path d="
M352.033 -253.143
L352.033 -261.095" id="C1_1_f94ccdf309"/>
     <path d="
M362.289 -253.143
L362.289 -261.095" id="C1_2_57aa527826"/>
     <path d="
M372.026 -253.143
L372.026 -261.095" id="C1_3_503a9306c0"/>
     <path d="
M380.924 -253.143
L380.924 -261.095" id="C1_4_186e95f256"/>
     <path d="
M408.459 -253.143
L408.459 -261.095" id="C1_5_1fef040829"/>
     <path d="
M434.87 -253.143
L434.87 -261.095" id="C1_6_deb31a8ce0"/>
     <path d="
M453.768 -253.143
L453.768 -261.095" id="C1_7_09b05d1af3"/>
     <path d="
M471.264 -253.143
L471.264 -261.095" id="C1_8_830aa73880"/>
    </defs>
    <g clip-path="url(#pf8c5b0fca0)">
     <use style="fill:none;stroke:#000000;stroke-linecap:butt;" x="0" xlink:href="#C1_0_be8c3e61c6" y="432.0"/>
    </g>
    <g clip-path="url(#pf8c5b0fca0)">
     <use style="fill:none;stroke:#000000;stroke-linecap:butt;" x="0" xlink:href="#C1_1_f94ccdf309" y="432.0"/>
    </g>
    <g clip-path="url(#pf8c5b0fca0)">
     <use style="fill:none;stroke:#000000;stroke-linecap:butt;" x="0" xlink:href="#C1_2_57aa527826" y="432.0"/>
    </g>
    <g clip-path="url(#pf8c5b0fca0)">
     <use style="fill:none;stroke:#000000;stroke-linecap:butt;" x="0" xlink:href="#C1_3_503a9306c0" y="432.0"/>
    </g>
    <g clip-path="url(#pf8c5b0fca0)">
     <use style="fill:none;stroke:#000000;stroke-linecap:butt;" x="0" xlink:href="#C1_4_186e95f256" y="432.0"/>
    </g>
    <g clip-path="url(#pf8c5b0fca0)">
     <use style="fill:none;stroke:#000000;stroke-linecap:butt;" x="0" xlink:href="#C1_5_1fef040829" y="432.0"/>
    </g>
    <g clip-path="url(#pf8c5b0fca0)">
     <use style="fill:none;stroke:#000000;stroke-linecap:butt;" x="0" xlink:href="#C1_6_deb31a8ce0" y="432.0"/>
    </g>
    <g clip-path="url(#pf8c5b0fca0)">
     <use style="fill:none;stroke:#000000;stroke-linecap:butt;" x="0" xlink:href="#C1_7_09b05d1af3" y="432.0"/>
    </g>
    <g clip-path="url(#pf8c5b0fca0)">
     <use style="fill:none;stroke:#000000;stroke-linecap:butt;" x="0" xlink:href="#C1_8_830aa73880" y="432.0"/>
    </g>
   </g>
   <g id="line2d_24">
    <path clip-path="url(#pf8c5b0fca0)" d="
M339.252 79.6033
L340.773 79.852
L342.294 79.9418
L343.815 81.4251
L345.336 80.1682
L346.858 80.0162
L348.379 79.2799
L349.9 81.1213
L351.421 81.1099
L352.942 82.561
L354.463 81.4777
L355.984 81.7964
L357.505 81.9538
L359.026 81.9538
L360.547 81.9538
L362.068 81.1762
L363.589 81.2147
L365.11 81.3137
L366.632 80.9277
L368.153 80.9277
L369.674 80.9277
L371.195 80.9277
L372.716 81.0761
L374.237 81.0761
L375.758 81.0761
L377.279 80.924
L378.8 80.924
L380.321 80.924
L381.842 80.8773
L383.363 80.8773
L384.884 80.0142
L386.405 80.0142
L387.927 80.0142
L389.448 78.7681
L390.969 78.8225
L392.49 78.5618
L394.011 78.5584
L395.532 79.4792
L397.053 79.4792
L398.574 78.9564
L400.095 78.9564
L401.616 81.7183
L403.137 81.7183
L404.658 81.7183
L406.179 81.7183
L407.7 81.7183
L409.222 83.1513
L410.743 83.1513
L412.264 83.1513
L413.785 83.1513
L415.306 85.0333
L416.827 85.09
L418.348 85.09
L419.869 85.09
L421.39 87.5664
L422.911 87.5984
L424.432 87.5984
L425.953 87.7272
L427.474 87.7272
L428.995 87.7272
L430.517 87.7272
L432.038 87.7272
L433.559 79.8397
L435.08 79.8397
L436.601 79.8397
L438.122 79.8397
L439.643 79.8397
L441.164 79.8397
L442.685 79.8397
L444.206 79.8397
L445.727 79.8397
L447.248 79.8397
L448.769 79.8397
L450.29 79.8397
L451.812 80.4509
L453.333 80.4509
L454.854 80.4509
L456.375 80.4509
L457.896 83.2933
L459.417 83.2933
L460.938 83.2933
L462.459 83.2933
L463.98 83.2933
L465.501 83.2933
L467.022 83.2933
L468.543 83.2933
L470.064 83.2933
L471.585 83.2933
L473.107 83.2933
L474.628 83.2933
L476.149 83.2933
L477.67 83.2933
L479.191 83.2933
L480.712 83.2933
L482.233 83.2933
L483.754 83.038
L485.275 83.038
L486.796 83.038
L488.317 83.038
L489.838 83.038" style="fill:none;stroke:#008000;"/>
   </g>
   <g id="matplotlib.axis_3">
    <g id="xtick_6">
     <g id="line2d_25">
      <g>
       <use style="stroke:#000000;stroke-linecap:butt;stroke-width:0.5;" x="355.415636719" xlink:href="#m0012dd4eef" y="178.85671875"/>
      </g>
     </g>
     <g id="line2d_26">
      <g>
       <use style="stroke:#000000;stroke-linecap:butt;stroke-width:0.5;" x="355.415636719" xlink:href="#m476344969c" y="19.814857337"/>
      </g>
     </g>
     <g id="text_14">
      <!-- −0.08 -->
      <defs>
       <path d="
M31.7812 34.625
Q24.75 34.625 20.7188 30.8594
Q16.7031 27.0938 16.7031 20.5156
Q16.7031 13.9219 20.7188 10.1562
Q24.75 6.39062 31.7812 6.39062
Q38.8125 6.39062 42.8594 10.1719
Q46.9219 13.9688 46.9219 20.5156
Q46.9219 27.0938 42.8906 30.8594
Q38.875 34.625 31.7812 34.625
M21.9219 38.8125
Q15.5781 40.375 12.0312 44.7188
Q8.5 49.0781 8.5 55.3281
Q8.5 64.0625 14.7188 69.1406
Q20.9531 74.2188 31.7812 74.2188
Q42.6719 74.2188 48.875 69.1406
Q55.0781 64.0625 55.0781 55.3281
Q55.0781 49.0781 51.5312 44.7188
Q48 40.375 41.7031 38.8125
Q48.8281 37.1562 52.7969 32.3125
Q56.7812 27.4844 56.7812 20.5156
Q56.7812 9.90625 50.3125 4.23438
Q43.8438 -1.42188 31.7812 -1.42188
Q19.7344 -1.42188 13.25 4.23438
Q6.78125 9.90625 6.78125 20.5156
Q6.78125 27.4844 10.7812 32.3125
Q14.7969 37.1562 21.9219 38.8125
M18.3125 54.3906
Q18.3125 48.7344 21.8438 45.5625
Q25.3906 42.3906 31.7812 42.3906
Q38.1406 42.3906 41.7188 45.5625
Q45.3125 48.7344 45.3125 54.3906
Q45.3125 60.0625 41.7188 63.2344
Q38.1406 66.4062 31.7812 66.4062
Q25.3906 66.4062 21.8438 63.2344
Q18.3125 60.0625 18.3125 54.3906" id="DejaVuSans-38"/>
      </defs>
      <g transform="translate(338.074699219 191.76296875)scale(0.12 -0.12)">
       <use xlink:href="#DejaVuSans-2212"/>
       <use x="83.7890625" xlink:href="#DejaVuSans-30"/>
       <use x="147.412109375" xlink:href="#DejaVuSans-2e"/>
       <use x="179.19921875" xlink:href="#DejaVuSans-30"/>
       <use x="242.822265625" xlink:href="#DejaVuSans-38"/>
      </g>
     </g>
    </g>
    <g id="xtick_7">
     <g id="line2d_27">
      <g>
       <use style="stroke:#000000;stroke-linecap:butt;stroke-width:0.5;" x="392.921542969" xlink:href="#m0012dd4eef" y="178.85671875"/>
      </g>
     </g>
     <g id="line2d_28">
      <g>
       <use style="stroke:#000000;stroke-linecap:butt;stroke-width:0.5;" x="392.921542969" xlink:href="#m476344969c" y="19.814857337"/>
      </g>
     </g>
     <g id="text_15">
      <!-- 0.00 -->
      <g transform="translate(380.356230469 191.76296875)scale(0.12 -0.12)">
       <use xlink:href="#DejaVuSans-30"/>
       <use x="63.623046875" xlink:href="#DejaVuSans-2e"/>
       <use x="95.41015625" xlink:href="#DejaVuSans-30"/>
       <use x="159.033203125" xlink:href="#DejaVuSans-30"/>
      </g>
     </g>
    </g>
    <g id="xtick_8">
     <g id="line2d_29">
      <g>
       <use style="stroke:#000000;stroke-linecap:butt;stroke-width:0.5;" x="430.427449219" xlink:href="#m0012dd4eef" y="178.85671875"/>
      </g>
     </g>
     <g id="line2d_30">
      <g>
       <use style="stroke:#000000;stroke-linecap:butt;stroke-width:0.5;" x="430.427449219" xlink:href="#m476344969c" y="19.814857337"/>
      </g>
     </g>
     <g id="text_16">
      <!-- 0.08 -->
      <g transform="translate(417.874324219 191.76296875)scale(0.12 -0.12)">
       <use xlink:href="#DejaVuSans-30"/>
       <use x="63.623046875" xlink:href="#DejaVuSans-2e"/>
       <use x="95.41015625" xlink:href="#DejaVuSans-30"/>
       <use x="159.033203125" xlink:href="#DejaVuSans-38"/>
      </g>
     </g>
    </g>
    <g id="xtick_9">
     <g id="line2d_31">
      <g>
       <use style="stroke:#000000;stroke-linecap:butt;stroke-width:0.5;" x="467.933355469" xlink:href="#m0012dd4eef" y="178.85671875"/>
      </g>
     </g>
     <g id="line2d_32">
      <g>
       <use style="stroke:#000000;stroke-linecap:butt;stroke-width:0.5;" x="467.933355469" xlink:href="#m476344969c" y="19.814857337"/>
      </g>
     </g>
     <g id="text_17">
      <!-- 0.16 -->
      <defs>
       <path d="
M33.0156 40.375
Q26.375 40.375 22.4844 35.8281
Q18.6094 31.2969 18.6094 23.3906
Q18.6094 15.5312 22.4844 10.9531
Q26.375 6.39062 33.0156 6.39062
Q39.6562 6.39062 43.5312 10.9531
Q47.4062 15.5312 47.4062 23.3906
Q47.4062 31.2969 43.5312 35.8281
Q39.6562 40.375 33.0156 40.375
M52.5938 71.2969
L52.5938 62.3125
Q48.875 64.0625 45.0938 64.9844
Q41.3125 65.9219 37.5938 65.9219
Q27.8281 65.9219 22.6719 59.3281
Q17.5312 52.7344 16.7969 39.4062
Q19.6719 43.6562 24.0156 45.9219
Q28.375 48.1875 33.5938 48.1875
Q44.5781 48.1875 50.9531 41.5156
Q57.3281 34.8594 57.3281 23.3906
Q57.3281 12.1562 50.6875 5.35938
Q44.0469 -1.42188 33.0156 -1.42188
Q20.3594 -1.42188 13.6719 8.26562
Q6.98438 17.9688 6.98438 36.375
Q6.98438 53.6562 15.1875 63.9375
Q23.3906 74.2188 37.2031 74.2188
Q40.9219 74.2188 44.7031 73.4844
Q48.4844 72.75 52.5938 71.2969" id="DejaVuSans-36"/>
      </defs>
      <g transform="translate(455.347417969 191.76296875)scale(0.12 -0.12)">
       <use xlink:href="#DejaVuSans-30"/>
       <use x="63.623046875" xlink:href="#DejaVuSans-2e"/>
       <use x="95.41015625" xlink:href="#DejaVuSans-31"/>
       <use x="159.033203125" xlink:href="#DejaVuSans-36"/>
      </g>
     </g>
    </g>
    <g id="xtick_10">
     <g id="line2d_33">
      <g>
       <use style="stroke:#000000;stroke-linecap:butt;stroke-width:0.5;" x="505.439261719" xlink:href="#m0012dd4eef" y="178.85671875"/>
      </g>
     </g>
     <g id="line2d_34">
      <g>
       <use style="stroke:#000000;stroke-linecap:butt;stroke-width:0.5;" x="505.439261719" xlink:href="#m476344969c" y="19.814857337"/>
      </g>
     </g>
     <g id="text_18">
      <!-- 0.24 -->
      <g transform="translate(492.812074219 191.76296875)scale(0.12 -0.12)">
       <use xlink:href="#DejaVuSans-30"/>
       <use x="63.623046875" xlink:href="#DejaVuSans-2e"/>
       <use x="95.41015625" xlink:href="#DejaVuSans-32"/>
       <use x="159.033203125" xlink:href="#DejaVuSans-34"/>
      </g>
     </g>
    </g>
    <g id="text_19">
     <!-- pairPopularityByCategory -->
     <defs>
      <path d="
M45.4062 27.9844
Q45.4062 37.75 41.375 43.1094
Q37.3594 48.4844 30.0781 48.4844
Q22.8594 48.4844 18.8281 43.1094
Q14.7969 37.75 14.7969 27.9844
Q14.7969 18.2656 18.8281 12.8906
Q22.8594 7.51562 30.0781 7.51562
Q37.3594 7.51562 41.375 12.8906
Q45.4062 18.2656 45.4062 27.9844
M54.3906 6.78125
Q54.3906 -7.17188 48.1875 -13.9844
Q42 -20.7969 29.2031 -20.7969
Q24.4688 -20.7969 20.2656 -20.0938
Q16.0625 -19.3906 12.1094 -17.9219
L12.1094 -9.1875
Q16.0625 -11.3281 19.9219 -12.3438
Q23.7812 -13.375 27.7812 -13.375
Q36.625 -13.375 41.0156 -8.76562
Q45.4062 -4.15625 45.4062 5.17188
L45.4062 9.625
Q42.625 4.78125 38.2812 2.39062
Q33.9375 0 27.875 0
Q17.8281 0 11.6719 7.65625
Q5.51562 15.3281 5.51562 27.9844
Q5.51562 40.6719 11.6719 48.3281
Q17.8281 56 27.875 56
Q33.9375 56 38.2812 53.6094
Q42.625 51.2188 45.4062 46.3906
L45.4062 54.6875
L54.3906 54.6875
z
" id="DejaVuSans-67"/>
      <path d="
M32.1719 -5.07812
Q28.375 -14.8438 24.75 -17.8125
Q21.1406 -20.7969 15.0938 -20.7969
L7.90625 -20.7969
L7.90625 -13.2812
L13.1875 -13.2812
Q16.8906 -13.2812 18.9375 -11.5156
Q21 -9.76562 23.4844 -3.21875
L25.0938 0.875
L2.98438 54.6875
L12.5 54.6875
L29.5938 11.9219
L46.6875 54.6875
L56.2031 54.6875
z
" id="DejaVuSans-79"/>
      <path d="
M19.6719 34.8125
L19.6719 8.10938
L35.5 8.10938
Q43.4531 8.10938 47.2812 11.4062
Q51.125 14.7031 51.125 21.4844
Q51.125 28.3281 47.2812 31.5625
Q43.4531 34.8125 35.5 34.8125
z

M19.6719 64.7969
L19.6719 42.8281
L34.2812 42.8281
Q41.5 42.8281 45.0312 45.5312
Q48.5781 48.25 48.5781 53.8125
Q48.5781 59.3281 45.0312 62.0625
Q41.5 64.7969 34.2812 64.7969
z

M9.8125 72.9062
L35.0156 72.9062
Q46.2969 72.9062 52.3906 68.2188
Q58.5 63.5312 58.5 54.8906
Q58.5 48.1875 55.375 44.2344
Q52.25 40.2812 46.1875 39.3125
Q53.4688 37.75 57.5 32.7812
Q61.5312 27.8281 61.5312 20.4062
Q61.5312 10.6406 54.8906 5.3125
Q48.25 0 35.9844 0
L9.8125 0
z
" id="DejaVuSans-42"/>
     </defs>
     <g transform="translate(340.326796875 206.05171875)scale(0.12 -0.12)">
      <use xlink:href="#DejaVuSans-70"/>
      <use x="63.4765625" xlink:href="#DejaVuSans-61"/>
      <use x="124.755859375" xlink:href="#DejaVuSans-69"/>
      <use x="152.5390625" xlink:href="#DejaVuSans-72"/>
      <use x="193.65234375" xlink:href="#DejaVuSans-50"/>
      <use x="250.330078125" xlink:href="#DejaVuSans-6f"/>
      <use x="311.51171875" xlink:href="#DejaVuSans-70"/>
      <use x="374.98828125" xlink:href="#DejaVuSans-75"/>
      <use x="438.3671875" xlink:href="#DejaVuSans-6c"/>
      <use x="466.150390625" xlink:href="#DejaVuSans-61"/>
      <use x="527.4296875" xlink:href="#DejaVuSans-72"/>
      <use x="568.54296875" xlink:href="#DejaVuSans-69"/>
      <use x="596.326171875" xlink:href="#DejaVuSans-74"/>
      <use x="635.53515625" xlink:href="#DejaVuSans-79"/>
      <use x="694.71484375" xlink:href="#DejaVuSans-42"/>
      <use x="763.318359375" xlink:href="#DejaVuSans-79"/>
      <use x="822.498046875" xlink:href="#DejaVuSans-43"/>
      <use x="892.322265625" xlink:href="#DejaVuSans-61"/>
      <use x="953.6015625" xlink:href="#DejaVuSans-74"/>
      <use x="992.810546875" xlink:href="#DejaVuSans-65"/>
      <use x="1054.33398438" xlink:href="#DejaVuSans-67"/>
      <use x="1117.81054688" xlink:href="#DejaVuSans-6f"/>
      <use x="1178.9921875" xlink:href="#DejaVuSans-72"/>
      <use x="1220.10546875" xlink:href="#DejaVuSans-79"/>
     </g>
    </g>
   </g>
   <g id="matplotlib.axis_4">
    <g id="ytick_7">
     <g id="line2d_35">
      <g>
       <use style="stroke:#000000;stroke-linecap:butt;stroke-width:0.5;" x="322.59796875" xlink:href="#me8a85f7bf6" y="167.742542908"/>
      </g>
     </g>
     <g id="line2d_36">
      <g>
       <use style="stroke:#000000;stroke-linecap:butt;stroke-width:0.5;" x="510.1275" xlink:href="#m1a32005dea" y="167.742542908"/>
      </g>
     </g>
     <g id="text_20">
      <!-- −0.20 -->
      <g transform="translate(283.89171875 172.110355408)scale(0.12 -0.12)">
       <use xlink:href="#DejaVuSans-2212"/>
       <use x="83.7890625" xlink:href="#DejaVuSans-30"/>
       <use x="147.412109375" xlink:href="#DejaVuSans-2e"/>
       <use x="179.19921875" xlink:href="#DejaVuSans-32"/>
       <use x="242.822265625" xlink:href="#DejaVuSans-30"/>
      </g>
     </g>
    </g>
    <g id="ytick_8">
     <g id="line2d_37">
      <g>
       <use style="stroke:#000000;stroke-linecap:butt;stroke-width:0.5;" x="322.59796875" xlink:href="#me8a85f7bf6" y="141.974319506"/>
      </g>
     </g>
     <g id="line2d_38">
      <g>
       <use style="stroke:#000000;stroke-linecap:butt;stroke-width:0.5;" x="510.1275" xlink:href="#m1a32005dea" y="141.974319506"/>
      </g>
     </g>
     <g id="text_21">
      <!-- −0.15 -->
      <g transform="translate(284.14296875 146.342132006)scale(0.12 -0.12)">
       <use xlink:href="#DejaVuSans-2212"/>
       <use x="83.7890625" xlink:href="#DejaVuSans-30"/>
       <use x="147.412109375" xlink:href="#DejaVuSans-2e"/>
       <use x="179.19921875" xlink:href="#DejaVuSans-31"/>
       <use x="242.822265625" xlink:href="#DejaVuSans-35"/>
      </g>
     </g>
    </g>
    <g id="ytick_9">
     <g id="line2d_39">
      <g>
       <use style="stroke:#000000;stroke-linecap:butt;stroke-width:0.5;" x="322.59796875" xlink:href="#me8a85f7bf6" y="116.206096104"/>
      </g>
     </g>
     <g id="line2d_40">
      <g>
       <use style="stroke:#000000;stroke-linecap:butt;stroke-width:0.5;" x="510.1275" xlink:href="#m1a32005dea" y="116.206096104"/>
      </g>
     </g>
     <g id="text_22">
      <!-- −0.10 -->
      <g transform="translate(283.89171875 120.573908604)scale(0.12 -0.12)">
       <use xlink:href="#DejaVuSans-2212"/>
       <use x="83.7890625" xlink:href="#DejaVuSans-30"/>
       <use x="147.412109375" xlink:href="#DejaVuSans-2e"/>
       <use x="179.19921875" xlink:href="#DejaVuSans-31"/>
       <use x="242.822265625" xlink:href="#DejaVuSans-30"/>
      </g>
     </g>
    </g>
    <g id="ytick_10">
     <g id="line2d_41">
      <g>
       <use style="stroke:#000000;stroke-linecap:butt;stroke-width:0.5;" x="322.59796875" xlink:href="#me8a85f7bf6" y="90.4378727026"/>
      </g>
     </g>
     <g id="line2d_42">
      <g>
       <use style="stroke:#000000;stroke-linecap:butt;stroke-width:0.5;" x="510.1275" xlink:href="#m1a32005dea" y="90.4378727026"/>
      </g>
     </g>
     <g id="text_23">
      <!-- −0.05 -->
      <g transform="translate(284.14296875 94.8056852026)scale(0.12 -0.12)">
       <use xlink:href="#DejaVuSans-2212"/>
       <use x="83.7890625" xlink:href="#DejaVuSans-30"/>
       <use x="147.412109375" xlink:href="#DejaVuSans-2e"/>
       <use x="179.19921875" xlink:href="#DejaVuSans-30"/>
       <use x="242.822265625" xlink:href="#DejaVuSans-35"/>
      </g>
     </g>
    </g>
    <g id="ytick_11">
     <g id="line2d_43">
      <g>
       <use style="stroke:#000000;stroke-linecap:butt;stroke-width:0.5;" x="322.59796875" xlink:href="#me8a85f7bf6" y="64.6696493008"/>
      </g>
     </g>
     <g id="line2d_44">
      <g>
       <use style="stroke:#000000;stroke-linecap:butt;stroke-width:0.5;" x="510.1275" xlink:href="#m1a32005dea" y="64.6696493008"/>
      </g>
     </g>
     <g id="text_24">
      <!-- 0.00 -->
      <g transform="translate(293.46734375 69.0374618008)scale(0.12 -0.12)">
       <use xlink:href="#DejaVuSans-30"/>
       <use x="63.623046875" xlink:href="#DejaVuSans-2e"/>
       <use x="95.41015625" xlink:href="#DejaVuSans-30"/>
       <use x="159.033203125" xlink:href="#DejaVuSans-30"/>
      </g>
     </g>
    </g>
    <g id="ytick_12">
     <g id="line2d_45">
      <g>
       <use style="stroke:#000000;stroke-linecap:butt;stroke-width:0.5;" x="322.59796875" xlink:href="#me8a85f7bf6" y="38.901425899"/>
      </g>
     </g>
     <g id="line2d_46">
      <g>
       <use style="stroke:#000000;stroke-linecap:butt;stroke-width:0.5;" x="510.1275" xlink:href="#m1a32005dea" y="38.901425899"/>
      </g>
     </g>
     <g id="text_25">
      <!-- 0.05 -->
      <g transform="translate(293.71859375 43.269238399)scale(0.12 -0.12)">
       <use xlink:href="#DejaVuSans-30"/>
       <use x="63.623046875" xlink:href="#DejaVuSans-2e"/>
       <use x="95.41015625" xlink:href="#DejaVuSans-30"/>
       <use x="159.033203125" xlink:href="#DejaVuSans-35"/>
      </g>
     </g>
    </g>
   </g>
   <g id="patch_8">
    <path d="
M322.598 19.8149
L510.128 19.8149" style="fill:none;stroke:#000000;"/>
   </g>
   <g id="patch_9">
    <path d="
M510.128 178.857
L510.128 19.8149" style="fill:none;stroke:#000000;"/>
   </g>
   <g id="patch_10">
    <path d="
M322.598 178.857
L510.128 178.857" style="fill:none;stroke:#000000;"/>
   </g>
   <g id="patch_11">
    <path d="
M322.598 178.857
L322.598 19.8149" style="fill:none;stroke:#000000;"/>
   </g>
  </g>
  <g id="axes_3">
   <g id="patch_12">
    <path d="
M69.1959 388.313
L256.725 388.313
L256.725 229.272
L69.1959 229.272
z
" style="fill:#ffffff;"/>
   </g>
   <g id="LineCollection_3">
    <defs>
     <path d="
M89.4411 -43.6866
L89.4411 -51.6387" id="C2_0_624bfb36be"/>
     <path d="
M99.1627 -43.6866
L99.1627 -51.6387" id="C2_1_5f7a863988"/>
     <path d="
M109.191 -43.6866
L109.191 -51.6387" id="C2_2_4705b10d5b"/>
     <path d="
M121.749 -43.6866
L121.749 -51.6387" id="C2_3_f89f818756"/>
     <path d="
M136.391 -43.6866
L136.391 -51.6387" id="C2_4_10857c85db"/>
     <path d="
M142.775 -43.6866
L142.775 -51.6387" id="C2_5_43848770f2"/>
     <path d="
M166.184 -43.6866
L166.184 -51.6387" id="C2_6_c2e5732109"/>
     <path d="
M178.769 -43.6866
L178.769 -51.6387" id="C2_7_f31343ba1c"/>
     <path d="
M206.604 -43.6866
L206.604 -51.6387" id="C2_8_1cfd3415ea"/>
    </defs>
    <g clip-path="url(#p11f5c6acda)">
     <use style="fill:none;stroke:#000000;stroke-linecap:butt;" x="0" xlink:href="#C2_0_624bfb36be" y="432.0"/>
    </g>
    <g clip-path="url(#p11f5c6acda)">
     <use style="fill:none;stroke:#000000;stroke-linecap:butt;" x="0" xlink:href="#C2_1_5f7a863988" y="432.0"/>
    </g>
    <g clip-path="url(#p11f5c6acda)">
     <use style="fill:none;stroke:#000000;stroke-linecap:butt;" x="0" xlink:href="#C2_2_4705b10d5b" y="432.0"/>
    </g>
    <g clip-path="url(#p11f5c6acda)">
     <use style="fill:none;stroke:#000000;stroke-linecap:butt;" x="0" xlink:href="#C2_3_f89f818756" y="432.0"/>
    </g>
    <g clip-path="url(#p11f5c6acda)">
     <use style="fill:none;stroke:#000000;stroke-linecap:butt;" x="0" xlink:href="#C2_4_10857c85db" y="432.0"/>
    </g>
    <g clip-path="url(#p11f5c6acda)">
     <use style="fill:none;stroke:#000000;stroke-linecap:butt;" x="0" xlink:href="#C2_5_43848770f2" y="432.0"/>
    </g>
    <g clip-path="url(#p11f5c6acda)">
     <use style="fill:none;stroke:#000000;stroke-linecap:butt;" x="0" xlink:href="#C2_6_c2e5732109" y="432.0"/>
    </g>
    <g clip-path="url(#p11f5c6acda)">
     <use style="fill:none;stroke:#000000;stroke-linecap:butt;" x="0" xlink:href="#C2_7_f31343ba1c" y="432.0"/>
    </g>
    <g clip-path="url(#p11f5c6acda)">
     <use style="fill:none;stroke:#000000;stroke-linecap:butt;" x="0" xlink:href="#C2_8_1cfd3415ea" y="432.0"/>
    </g>
   </g>
   <g id="line2d_47">
    <path clip-path="url(#p11f5c6acda)" d="
M82.2739 274.141
L83.9114 274.141
L85.5489 270.075
L87.1863 275.977
L88.8238 275.977
L90.4613 275.993
L92.0987 275.367
L93.7362 279.977
L95.3736 280.202
L97.0111 280.183
L98.6486 280.183
L100.286 280.239
L101.924 279.102
L103.561 279.278
L105.198 279.322
L106.836 279.322
L108.473 279.322
L110.111 279.308
L111.748 280.151
L113.386 281.866
L115.023 282.668
L116.661 282.353
L118.298 282.298
L119.936 282.298
L121.573 282.425
L123.211 282.49
L124.848 284.847
L126.485 284.847
L128.123 285.085
L129.76 285.085
L131.398 285.085
L133.035 285.085
L134.673 289.061
L136.31 289.061
L137.948 289.061
L139.585 289.097
L141.223 289.097
L142.86 288.6
L144.498 288.6
L146.135 288.996
L147.773 288.996
L149.41 288.996
L151.047 288.996
L152.685 288.996
L154.322 288.996
L155.96 288.996
L157.597 289.294
L159.235 289.294
L160.872 289.263
L162.51 289.263
L164.147 289.263
L165.785 289.263
L167.422 289.089
L169.06 289.079
L170.697 289.079
L172.334 289.202
L173.972 289.202
L175.609 289.202
L177.247 290.466
L178.884 290.466
L180.522 290.466
L182.159 290.466
L183.797 290.466
L185.434 290.466
L187.072 290.459
L188.709 290.446
L190.347 290.446
L191.984 290.446
L193.622 290.977
L195.259 290.977
L196.896 290.977
L198.534 290.977
L200.171 300.362
L201.809 300.362
L203.446 300.362
L205.084 300.362
L206.721 300.362
L208.359 300.362
L209.996 300.362
L211.634 300.362
L213.271 300.362
L214.909 300.362
L216.546 300.362
L218.183 300.362
L219.821 300.362
L221.458 300.362
L223.096 300.362
L224.733 300.362
L226.371 302.115
L228.008 302.115
L229.646 302.115
L231.283 302.115
L232.921 304.517
L234.558 304.517
L236.196 304.517
L237.833 304.517
L239.471 304.517
L241.108 304.517
L242.745 304.441
L244.383 304.441" style="fill:none;stroke:#008000;"/>
   </g>
   <g id="matplotlib.axis_5">
    <g id="xtick_11">
     <g id="line2d_48">
      <g>
       <use style="stroke:#000000;stroke-linecap:butt;stroke-width:0.5;" x="109.380837054" xlink:href="#m0012dd4eef" y="388.3134375"/>
      </g>
     </g>
     <g id="line2d_49">
      <g>
       <use style="stroke:#000000;stroke-linecap:butt;stroke-width:0.5;" x="109.380837054" xlink:href="#m476344969c" y="229.271576087"/>
      </g>
     </g>
     <g id="text_26">
      <!-- −0.15 -->
      <g transform="translate(92.1533370536 401.2196875)scale(0.12 -0.12)">
       <use xlink:href="#DejaVuSans-2212"/>
       <use x="83.7890625" xlink:href="#DejaVuSans-30"/>
       <use x="147.412109375" xlink:href="#DejaVuSans-2e"/>
       <use x="179.19921875" xlink:href="#DejaVuSans-31"/>
       <use x="242.822265625" xlink:href="#DejaVuSans-35"/>
      </g>
     </g>
    </g>
    <g id="xtick_12">
     <g id="line2d_50">
      <g>
       <use style="stroke:#000000;stroke-linecap:butt;stroke-width:0.5;" x="149.565736607" xlink:href="#m0012dd4eef" y="388.3134375"/>
      </g>
     </g>
     <g id="line2d_51">
      <g>
       <use style="stroke:#000000;stroke-linecap:butt;stroke-width:0.5;" x="149.565736607" xlink:href="#m476344969c" y="229.271576087"/>
      </g>
     </g>
     <g id="text_27">
      <!-- 0.00 -->
      <g transform="translate(137.000424107 401.2196875)scale(0.12 -0.12)">
       <use xlink:href="#DejaVuSans-30"/>
       <use x="63.623046875" xlink:href="#DejaVuSans-2e"/>
       <use x="95.41015625" xlink:href="#DejaVuSans-30"/>
       <use x="159.033203125" xlink:href="#DejaVuSans-30"/>
      </g>
     </g>
    </g>
    <g id="xtick_13">
     <g id="line2d_52">
      <g>
       <use style="stroke:#000000;stroke-linecap:butt;stroke-width:0.5;" x="189.750636161" xlink:href="#m0012dd4eef" y="388.3134375"/>
      </g>
     </g>
     <g id="line2d_53">
      <g>
       <use style="stroke:#000000;stroke-linecap:butt;stroke-width:0.5;" x="189.750636161" xlink:href="#m476344969c" y="229.271576087"/>
      </g>
     </g>
     <g id="text_28">
      <!-- 0.15 -->
      <g transform="translate(177.310948661 401.2196875)scale(0.12 -0.12)">
       <use xlink:href="#DejaVuSans-30"/>
       <use x="63.623046875" xlink:href="#DejaVuSans-2e"/>
       <use x="95.41015625" xlink:href="#DejaVuSans-31"/>
       <use x="159.033203125" xlink:href="#DejaVuSans-35"/>
      </g>
     </g>
    </g>
    <g id="xtick_14">
     <g id="line2d_54">
      <g>
       <use style="stroke:#000000;stroke-linecap:butt;stroke-width:0.5;" x="229.935535714" xlink:href="#m0012dd4eef" y="388.3134375"/>
      </g>
     </g>
     <g id="line2d_55">
      <g>
       <use style="stroke:#000000;stroke-linecap:butt;stroke-width:0.5;" x="229.935535714" xlink:href="#m476344969c" y="229.271576087"/>
      </g>
     </g>
     <g id="text_29">
      <!-- 0.30 -->
      <g transform="translate(217.370223214 401.2196875)scale(0.12 -0.12)">
       <use xlink:href="#DejaVuSans-30"/>
       <use x="63.623046875" xlink:href="#DejaVuSans-2e"/>
       <use x="95.41015625" xlink:href="#DejaVuSans-33"/>
       <use x="159.033203125" xlink:href="#DejaVuSans-30"/>
      </g>
     </g>
    </g>
    <g id="text_30">
     <!-- installationSize -->
     <defs>
      <path d="
M53.5156 70.5156
L53.5156 60.8906
Q47.9062 63.5781 42.9219 64.8906
Q37.9375 66.2188 33.2969 66.2188
Q25.25 66.2188 20.875 63.0938
Q16.5 59.9688 16.5 54.2031
Q16.5 49.3594 19.4062 46.8906
Q22.3125 44.4375 30.4219 42.9219
L36.375 41.7031
Q47.4062 39.5938 52.6562 34.2969
Q57.9062 29 57.9062 20.125
Q57.9062 9.51562 50.7969 4.04688
Q43.7031 -1.42188 29.9844 -1.42188
Q24.8125 -1.42188 18.9688 -0.25
Q13.1406 0.921875 6.89062 3.21875
L6.89062 13.375
Q12.8906 10.0156 18.6562 8.29688
Q24.4219 6.59375 29.9844 6.59375
Q38.4219 6.59375 43.0156 9.90625
Q47.6094 13.2344 47.6094 19.3906
Q47.6094 24.75 44.3125 27.7812
Q41.0156 30.8125 33.5 32.3281
L27.4844 33.5
Q16.4531 35.6875 11.5156 40.375
Q6.59375 45.0625 6.59375 53.4219
Q6.59375 63.0938 13.4062 68.6562
Q20.2188 74.2188 32.1719 74.2188
Q37.3125 74.2188 42.625 73.2812
Q47.9531 72.3594 53.5156 70.5156" id="DejaVuSans-53"/>
      <path d="
M5.51562 54.6875
L48.1875 54.6875
L48.1875 46.4844
L14.4062 7.17188
L48.1875 7.17188
L48.1875 0
L4.29688 0
L4.29688 8.20312
L38.0938 47.5156
L5.51562 47.5156
z
" id="DejaVuSans-7a"/>
      <path d="
M44.2812 53.0781
L44.2812 44.5781
Q40.4844 46.5312 36.375 47.5
Q32.2812 48.4844 27.875 48.4844
Q21.1875 48.4844 17.8438 46.4375
Q14.5 44.3906 14.5 40.2812
Q14.5 37.1562 16.8906 35.375
Q19.2812 33.5938 26.5156 31.9844
L29.5938 31.2969
Q39.1562 29.25 43.1875 25.5156
Q47.2188 21.7812 47.2188 15.0938
Q47.2188 7.46875 41.1875 3.01562
Q35.1562 -1.42188 24.6094 -1.42188
Q20.2188 -1.42188 15.4531 -0.5625
Q10.6875 0.296875 5.42188 2
L5.42188 11.2812
Q10.4062 8.6875 15.2344 7.39062
Q20.0625 6.10938 24.8125 6.10938
Q31.1562 6.10938 34.5625 8.28125
Q37.9844 10.4531 37.9844 14.4062
Q37.9844 18.0625 35.5156 20.0156
Q33.0625 21.9688 24.7031 23.7812
L21.5781 24.5156
Q13.2344 26.2656 9.51562 29.9062
Q5.8125 33.5469 5.8125 39.8906
Q5.8125 47.6094 11.2812 51.7969
Q16.75 56 26.8125 56
Q31.7812 56 36.1719 55.2656
Q40.5781 54.5469 44.2812 53.0781" id="DejaVuSans-73"/>
     </defs>
     <g transform="translate(118.401328125 415.5084375)scale(0.12 -0.12)">
      <use xlink:href="#DejaVuSans-69"/>
      <use x="27.783203125" xlink:href="#DejaVuSans-6e"/>
      <use x="91.162109375" xlink:href="#DejaVuSans-73"/>
      <use x="143.26171875" xlink:href="#DejaVuSans-74"/>
      <use x="182.470703125" xlink:href="#DejaVuSans-61"/>
      <use x="243.75" xlink:href="#DejaVuSans-6c"/>
      <use x="271.533203125" xlink:href="#DejaVuSans-6c"/>
      <use x="299.31640625" xlink:href="#DejaVuSans-61"/>
      <use x="360.595703125" xlink:href="#DejaVuSans-74"/>
      <use x="399.8046875" xlink:href="#DejaVuSans-69"/>
      <use x="427.587890625" xlink:href="#DejaVuSans-6f"/>
      <use x="488.76953125" xlink:href="#DejaVuSans-6e"/>
      <use x="552.1484375" xlink:href="#DejaVuSans-53"/>
      <use x="615.625" xlink:href="#DejaVuSans-69"/>
      <use x="643.408203125" xlink:href="#DejaVuSans-7a"/>
      <use x="695.8984375" xlink:href="#DejaVuSans-65"/>
     </g>
    </g>
   </g>
   <g id="matplotlib.axis_6">
    <g id="ytick_13">
     <g id="line2d_56">
      <g>
       <use style="stroke:#000000;stroke-linecap:butt;stroke-width:0.5;" x="69.1959375" xlink:href="#me8a85f7bf6" y="377.199261658"/>
      </g>
     </g>
     <g id="line2d_57">
      <g>
       <use style="stroke:#000000;stroke-linecap:butt;stroke-width:0.5;" x="256.72546875" xlink:href="#m1a32005dea" y="377.199261658"/>
      </g>
     </g>
     <g id="text_31">
      <!-- −0.20 -->
      <g transform="translate(30.4896875 381.567074158)scale(0.12 -0.12)">
       <use xlink:href="#DejaVuSans-2212"/>
       <use x="83.7890625" xlink:href="#DejaVuSans-30"/>
       <use x="147.412109375" xlink:href="#DejaVuSans-2e"/>
       <use x="179.19921875" xlink:href="#DejaVuSans-32"/>
       <use x="242.822265625" xlink:href="#DejaVuSans-30"/>
      </g>
     </g>
    </g>
    <g id="ytick_14">
     <g id="line2d_58">
      <g>
       <use style="stroke:#000000;stroke-linecap:butt;stroke-width:0.5;" x="69.1959375" xlink:href="#me8a85f7bf6" y="351.431038256"/>
      </g>
     </g>
     <g id="line2d_59">
      <g>
       <use style="stroke:#000000;stroke-linecap:butt;stroke-width:0.5;" x="256.72546875" xlink:href="#m1a32005dea" y="351.431038256"/>
      </g>
     </g>
     <g id="text_32">
      <!-- −0.15 -->
      <g transform="translate(30.7409375 355.798850756)scale(0.12 -0.12)">
       <use xlink:href="#DejaVuSans-2212"/>
       <use x="83.7890625" xlink:href="#DejaVuSans-30"/>
       <use x="147.412109375" xlink:href="#DejaVuSans-2e"/>
       <use x="179.19921875" xlink:href="#DejaVuSans-31"/>
       <use x="242.822265625" xlink:href="#DejaVuSans-35"/>
      </g>
     </g>
    </g>
    <g id="ytick_15">
     <g id="line2d_60">
      <g>
       <use style="stroke:#000000;stroke-linecap:butt;stroke-width:0.5;" x="69.1959375" xlink:href="#me8a85f7bf6" y="325.662814854"/>
      </g>
     </g>
     <g id="line2d_61">
      <g>
       <use style="stroke:#000000;stroke-linecap:butt;stroke-width:0.5;" x="256.72546875" xlink:href="#m1a32005dea" y="325.662814854"/>
      </g>
     </g>
     <g id="text_33">
      <!-- −0.10 -->
      <g transform="translate(30.4896875 330.030627354)scale(0.12 -0.12)">
       <use xlink:href="#DejaVuSans-2212"/>
       <use x="83.7890625" xlink:href="#DejaVuSans-30"/>
       <use x="147.412109375" xlink:href="#DejaVuSans-2e"/>
       <use x="179.19921875" xlink:href="#DejaVuSans-31"/>
       <use x="242.822265625" xlink:href="#DejaVuSans-30"/>
      </g>
     </g>
    </g>
    <g id="ytick_16">
     <g id="line2d_62">
      <g>
       <use style="stroke:#000000;stroke-linecap:butt;stroke-width:0.5;" x="69.1959375" xlink:href="#me8a85f7bf6" y="299.894591453"/>
      </g>
     </g>
     <g id="line2d_63">
      <g>
       <use style="stroke:#000000;stroke-linecap:butt;stroke-width:0.5;" x="256.72546875" xlink:href="#m1a32005dea" y="299.894591453"/>
      </g>
     </g>
     <g id="text_34">
      <!-- −0.05 -->
      <g transform="translate(30.7409375 304.262403953)scale(0.12 -0.12)">
       <use xlink:href="#DejaVuSans-2212"/>
       <use x="83.7890625" xlink:href="#DejaVuSans-30"/>
       <use x="147.412109375" xlink:href="#DejaVuSans-2e"/>
       <use x="179.19921875" xlink:href="#DejaVuSans-30"/>
       <use x="242.822265625" xlink:href="#DejaVuSans-35"/>
      </g>
     </g>
    </g>
    <g id="ytick_17">
     <g id="line2d_64">
      <g>
       <use style="stroke:#000000;stroke-linecap:butt;stroke-width:0.5;" x="69.1959375" xlink:href="#me8a85f7bf6" y="274.126368051"/>
      </g>
     </g>
     <g id="line2d_65">
      <g>
       <use style="stroke:#000000;stroke-linecap:butt;stroke-width:0.5;" x="256.72546875" xlink:href="#m1a32005dea" y="274.126368051"/>
      </g>
     </g>
     <g id="text_35">
      <!-- 0.00 -->
      <g transform="translate(40.0653125 278.494180551)scale(0.12 -0.12)">
       <use xlink:href="#DejaVuSans-30"/>
       <use x="63.623046875" xlink:href="#DejaVuSans-2e"/>
       <use x="95.41015625" xlink:href="#DejaVuSans-30"/>
       <use x="159.033203125" xlink:href="#DejaVuSans-30"/>
      </g>
     </g>
    </g>
    <g id="ytick_18">
     <g id="line2d_66">
      <g>
       <use style="stroke:#000000;stroke-linecap:butt;stroke-width:0.5;" x="69.1959375" xlink:href="#me8a85f7bf6" y="248.358144649"/>
      </g>
     </g>
     <g id="line2d_67">
      <g>
       <use style="stroke:#000000;stroke-linecap:butt;stroke-width:0.5;" x="256.72546875" xlink:href="#m1a32005dea" y="248.358144649"/>
      </g>
     </g>
     <g id="text_36">
      <!-- 0.05 -->
      <g transform="translate(40.3165625 252.725957149)scale(0.12 -0.12)">
       <use xlink:href="#DejaVuSans-30"/>
       <use x="63.623046875" xlink:href="#DejaVuSans-2e"/>
       <use x="95.41015625" xlink:href="#DejaVuSans-30"/>
       <use x="159.033203125" xlink:href="#DejaVuSans-35"/>
      </g>
     </g>
    </g>
    <g id="text_37">
     <!-- Partial Dependence -->
     <g transform="translate(25.4896875 364.647819293)rotate(-90.0)scale(0.12 -0.12)">
      <use xlink:href="#DejaVuSans-50"/>
      <use x="55.802734375" xlink:href="#DejaVuSans-61"/>
      <use x="117.08203125" xlink:href="#DejaVuSans-72"/>
      <use x="158.1953125" xlink:href="#DejaVuSans-74"/>
      <use x="197.404296875" xlink:href="#DejaVuSans-69"/>
      <use x="225.1875" xlink:href="#DejaVuSans-61"/>
      <use x="286.466796875" xlink:href="#DejaVuSans-6c"/>
      <use x="314.25" xlink:href="#DejaVuSans-20"/>
      <use x="346.037109375" xlink:href="#DejaVuSans-44"/>
      <use x="423.0390625" xlink:href="#DejaVuSans-65"/>
      <use x="484.5625" xlink:href="#DejaVuSans-70"/>
      <use x="548.0390625" xlink:href="#DejaVuSans-65"/>
      <use x="609.5625" xlink:href="#DejaVuSans-6e"/>
      <use x="672.94140625" xlink:href="#DejaVuSans-64"/>
      <use x="736.41796875" xlink:href="#DejaVuSans-65"/>
      <use x="797.94140625" xlink:href="#DejaVuSans-6e"/>
      <use x="861.3203125" xlink:href="#DejaVuSans-63"/>
      <use x="916.30078125" xlink:href="#DejaVuSans-65"/>
     </g>
    </g>
   </g>
   <g id="patch_13">
    <path d="
M69.1959 229.272
L256.725 229.272" style="fill:none;stroke:#000000;"/>
   </g>
   <g id="patch_14">
    <path d="
M256.725 388.313
L256.725 229.272" style="fill:none;stroke:#000000;"/>
   </g>
   <g id="patch_15">
    <path d="
M69.1959 388.313
L256.725 388.313" style="fill:none;stroke:#000000;"/>
   </g>
   <g id="patch_16">
    <path d="
M69.1959 388.313
L69.1959 229.272" style="fill:none;stroke:#000000;"/>
   </g>
  </g>
  <g id="axes_4">
   <g id="patch_17">
    <path d="
M322.598 388.313
L510.128 388.313
L510.128 229.272
L322.598 229.272
z
" style="fill:#ffffff;"/>
   </g>
   <g id="LineCollection_4">
    <defs>
     <path d="
M324.482 -43.6866
L324.482 -51.6387" id="C3_0_d825f825b2"/>
     <path d="
M324.482 -43.6866
L324.482 -51.6387" id="C3_1_d825f825b2"/>
     <path d="
M324.482 -43.6866
L324.482 -51.6387" id="C3_2_d825f825b2"/>
     <path d="
M324.482 -43.6866
L324.482 -51.6387" id="C3_3_d825f825b2"/>
     <path d="
M324.482 -43.6866
L324.482 -51.6387" id="C3_4_d825f825b2"/>
     <path d="
M324.482 -43.6866
L324.482 -51.6387" id="C3_5_d825f825b2"/>
     <path d="
M480.757 -43.6866
L480.757 -51.6387" id="C3_6_88332984b2"/>
     <path d="
M480.757 -43.6866
L480.757 -51.6387" id="C3_7_88332984b2"/>
     <path d="
M480.757 -43.6866
L480.757 -51.6387" id="C3_8_88332984b2"/>
    </defs>
    <g clip-path="url(#pe9fcb25594)">
     <use style="fill:none;stroke:#000000;stroke-linecap:butt;" x="0" xlink:href="#C3_0_d825f825b2" y="432.0"/>
    </g>
    <g clip-path="url(#pe9fcb25594)">
     <use style="fill:none;stroke:#000000;stroke-linecap:butt;" x="0" xlink:href="#C3_1_d825f825b2" y="432.0"/>
    </g>
    <g clip-path="url(#pe9fcb25594)">
     <use style="fill:none;stroke:#000000;stroke-linecap:butt;" x="0" xlink:href="#C3_2_d825f825b2" y="432.0"/>
    </g>
    <g clip-path="url(#pe9fcb25594)">
     <use style="fill:none;stroke:#000000;stroke-linecap:butt;" x="0" xlink:href="#C3_3_d825f825b2" y="432.0"/>
    </g>
    <g clip-path="url(#pe9fcb25594)">
     <use style="fill:none;stroke:#000000;stroke-linecap:butt;" x="0" xlink:href="#C3_4_d825f825b2" y="432.0"/>
    </g>
    <g clip-path="url(#pe9fcb25594)">
     <use style="fill:none;stroke:#000000;stroke-linecap:butt;" x="0" xlink:href="#C3_5_d825f825b2" y="432.0"/>
    </g>
    <g clip-path="url(#pe9fcb25594)">
     <use style="fill:none;stroke:#000000;stroke-linecap:butt;" x="0" xlink:href="#C3_6_88332984b2" y="432.0"/>
    </g>
    <g clip-path="url(#pe9fcb25594)">
     <use style="fill:none;stroke:#000000;stroke-linecap:butt;" x="0" xlink:href="#C3_7_88332984b2" y="432.0"/>
    </g>
    <g clip-path="url(#pe9fcb25594)">
     <use style="fill:none;stroke:#000000;stroke-linecap:butt;" x="0" xlink:href="#C3_8_88332984b2" y="432.0"/>
    </g>
   </g>
   <g id="line2d_68">
    <path clip-path="url(#pe9fcb25594)" d="
M324.482 229.272
L480.757 388.313" style="fill:none;stroke:#008000;"/>
   </g>
   <g id="matplotlib.axis_7">
    <g id="xtick_15">
     <g id="line2d_69">
      <g>
       <use style="stroke:#000000;stroke-linecap:butt;stroke-width:0.5;" x="353.852890625" xlink:href="#m0012dd4eef" y="388.3134375"/>
      </g>
     </g>
     <g id="line2d_70">
      <g>
       <use style="stroke:#000000;stroke-linecap:butt;stroke-width:0.5;" x="353.852890625" xlink:href="#m476344969c" y="229.271576087"/>
      </g>
     </g>
     <g id="text_38">
      <!-- 0.00 -->
      <g transform="translate(341.287578125 401.2196875)scale(0.12 -0.12)">
       <use xlink:href="#DejaVuSans-30"/>
       <use x="63.623046875" xlink:href="#DejaVuSans-2e"/>
       <use x="95.41015625" xlink:href="#DejaVuSans-30"/>
       <use x="159.033203125" xlink:href="#DejaVuSans-30"/>
      </g>
     </g>
    </g>
    <g id="xtick_16">
     <g id="line2d_71">
      <g>
       <use style="stroke:#000000;stroke-linecap:butt;stroke-width:0.5;" x="392.921542969" xlink:href="#m0012dd4eef" y="388.3134375"/>
      </g>
     </g>
     <g id="line2d_72">
      <g>
       <use style="stroke:#000000;stroke-linecap:butt;stroke-width:0.5;" x="392.921542969" xlink:href="#m476344969c" y="229.271576087"/>
      </g>
     </g>
     <g id="text_39">
      <!-- 0.25 -->
      <g transform="translate(380.481855469 401.2196875)scale(0.12 -0.12)">
       <use xlink:href="#DejaVuSans-30"/>
       <use x="63.623046875" xlink:href="#DejaVuSans-2e"/>
       <use x="95.41015625" xlink:href="#DejaVuSans-32"/>
       <use x="159.033203125" xlink:href="#DejaVuSans-35"/>
      </g>
     </g>
    </g>
    <g id="xtick_17">
     <g id="line2d_73">
      <g>
       <use style="stroke:#000000;stroke-linecap:butt;stroke-width:0.5;" x="431.990195313" xlink:href="#m0012dd4eef" y="388.3134375"/>
      </g>
     </g>
     <g id="line2d_74">
      <g>
       <use style="stroke:#000000;stroke-linecap:butt;stroke-width:0.5;" x="431.990195313" xlink:href="#m476344969c" y="229.271576087"/>
      </g>
     </g>
     <g id="text_40">
      <!-- 0.50 -->
      <g transform="translate(419.424882813 401.2196875)scale(0.12 -0.12)">
       <use xlink:href="#DejaVuSans-30"/>
       <use x="63.623046875" xlink:href="#DejaVuSans-2e"/>
       <use x="95.41015625" xlink:href="#DejaVuSans-35"/>
       <use x="159.033203125" xlink:href="#DejaVuSans-30"/>
      </g>
     </g>
    </g>
    <g id="xtick_18">
     <g id="line2d_75">
      <g>
       <use style="stroke:#000000;stroke-linecap:butt;stroke-width:0.5;" x="471.058847656" xlink:href="#m0012dd4eef" y="388.3134375"/>
      </g>
     </g>
     <g id="line2d_76">
      <g>
       <use style="stroke:#000000;stroke-linecap:butt;stroke-width:0.5;" x="471.058847656" xlink:href="#m476344969c" y="229.271576087"/>
      </g>
     </g>
     <g id="text_41">
      <!-- 0.75 -->
      <defs>
       <path d="
M8.20312 72.9062
L55.0781 72.9062
L55.0781 68.7031
L28.6094 0
L18.3125 0
L43.2188 64.5938
L8.20312 64.5938
z
" id="DejaVuSans-37"/>
      </defs>
      <g transform="translate(458.619160156 401.2196875)scale(0.12 -0.12)">
       <use xlink:href="#DejaVuSans-30"/>
       <use x="63.623046875" xlink:href="#DejaVuSans-2e"/>
       <use x="95.41015625" xlink:href="#DejaVuSans-37"/>
       <use x="159.033203125" xlink:href="#DejaVuSans-35"/>
      </g>
     </g>
    </g>
    <g id="xtick_19">
     <g id="line2d_77">
      <g>
       <use style="stroke:#000000;stroke-linecap:butt;stroke-width:0.5;" x="510.1275" xlink:href="#m0012dd4eef" y="388.3134375"/>
      </g>
     </g>
     <g id="line2d_78">
      <g>
       <use style="stroke:#000000;stroke-linecap:butt;stroke-width:0.5;" x="510.1275" xlink:href="#m476344969c" y="229.271576087"/>
      </g>
     </g>
     <g id="text_42">
      <!-- 1.00 -->
      <g transform="translate(497.825625 401.2196875)scale(0.12 -0.12)">
       <use xlink:href="#DejaVuSans-31"/>
       <use x="63.623046875" xlink:href="#DejaVuSans-2e"/>
       <use x="95.41015625" xlink:href="#DejaVuSans-30"/>
       <use x="159.033203125" xlink:href="#DejaVuSans-30"/>
      </g>
     </g>
    </g>
    <g id="text_43">
     <!-- permissionPurpose=READ_PHONE_STATE|INTERNAL -->
     <defs>
      <path d="
M9.8125 72.9062
L23.0938 72.9062
L55.4219 11.9219
L55.4219 72.9062
L64.9844 72.9062
L64.9844 0
L51.7031 0
L19.3906 60.9844
L19.3906 0
L9.8125 0
z
" id="DejaVuSans-4e"/>
      <path d="
M39.4062 66.2188
Q28.6562 66.2188 22.3281 58.2031
Q16.0156 50.2031 16.0156 36.375
Q16.0156 22.6094 22.3281 14.5938
Q28.6562 6.59375 39.4062 6.59375
Q50.1406 6.59375 56.4219 14.5938
Q62.7031 22.6094 62.7031 36.375
Q62.7031 50.2031 56.4219 58.2031
Q50.1406 66.2188 39.4062 66.2188
M39.4062 74.2188
Q54.7344 74.2188 63.9062 63.9375
Q73.0938 53.6562 73.0938 36.375
Q73.0938 19.1406 63.9062 8.85938
Q54.7344 -1.42188 39.4062 -1.42188
Q24.0312 -1.42188 14.8125 8.82812
Q5.60938 19.0938 5.60938 36.375
Q5.60938 53.6562 14.8125 63.9375
Q24.0312 74.2188 39.4062 74.2188" id="DejaVuSans-4f"/>
      <path d="
M10.5938 45.4062
L73.1875 45.4062
L73.1875 37.2031
L10.5938 37.2031
z

M10.5938 25.4844
L73.1875 25.4844
L73.1875 17.1875
L10.5938 17.1875
z
" id="DejaVuSans-3d"/>
      <path d="
M9.8125 72.9062
L19.6719 72.9062
L19.6719 8.29688
L55.1719 8.29688
L55.1719 0
L9.8125 0
z
" id="DejaVuSans-4c"/>
      <path d="
M52 44.1875
Q55.375 50.25 60.0625 53.125
Q64.75 56 71.0938 56
Q79.6406 56 84.2812 50.0156
Q88.9219 44.0469 88.9219 33.0156
L88.9219 0
L79.8906 0
L79.8906 32.7188
Q79.8906 40.5781 77.0938 44.375
Q74.3125 48.1875 68.6094 48.1875
Q61.625 48.1875 57.5625 43.5469
Q53.5156 38.9219 53.5156 30.9062
L53.5156 0
L44.4844 0
L44.4844 32.7188
Q44.4844 40.625 41.7031 44.4062
Q38.9219 48.1875 33.1094 48.1875
Q26.2188 48.1875 22.1562 43.5312
Q18.1094 38.875 18.1094 30.9062
L18.1094 0
L9.07812 0
L9.07812 54.6875
L18.1094 54.6875
L18.1094 46.1875
Q21.1875 51.2188 25.4844 53.6094
Q29.7812 56 35.6875 56
Q41.6562 56 45.8281 52.9688
Q50 49.9531 52 44.1875" id="DejaVuSans-6d"/>
      <path d="
M50.9844 -16.6094
L50.9844 -23.5781
L-0.984375 -23.5781
L-0.984375 -16.6094
z
" id="DejaVuSans-5f"/>
      <path d="
M21 76.4219
L21 -23.5781
L12.7031 -23.5781
L12.7031 76.4219
z
" id="DejaVuSans-7c"/>
      <path d="
M9.8125 72.9062
L55.9062 72.9062
L55.9062 64.5938
L19.6719 64.5938
L19.6719 43.0156
L54.3906 43.0156
L54.3906 34.7188
L19.6719 34.7188
L19.6719 8.29688
L56.7812 8.29688
L56.7812 0
L9.8125 0
z
" id="DejaVuSans-45"/>
      <path d="
M34.1875 63.1875
L20.7969 26.9062
L47.6094 26.9062
z

M28.6094 72.9062
L39.7969 72.9062
L67.5781 0
L57.3281 0
L50.6875 18.7031
L17.8281 18.7031
L11.1875 0
L0.78125 0
z
" id="DejaVuSans-41"/>
      <path d="
M44.3906 34.1875
Q47.5625 33.1094 50.5625 29.5938
Q53.5625 26.0781 56.5938 19.9219
L66.6094 0
L56 0
L46.6875 18.7031
Q43.0625 26.0312 39.6719 28.4219
Q36.2812 30.8125 30.4219 30.8125
L19.6719 30.8125
L19.6719 0
L9.8125 0
L9.8125 72.9062
L32.0781 72.9062
Q44.5781 72.9062 50.7344 67.6719
Q56.8906 62.4531 56.8906 51.9062
Q56.8906 45.0156 53.6875 40.4688
Q50.4844 35.9375 44.3906 34.1875
M19.6719 64.7969
L19.6719 38.9219
L32.0781 38.9219
Q39.2031 38.9219 42.8438 42.2188
Q46.4844 45.5156 46.4844 51.9062
Q46.4844 58.2969 42.8438 61.5469
Q39.2031 64.7969 32.0781 64.7969
z
" id="DejaVuSans-52"/>
      <path d="
M9.8125 72.9062
L19.6719 72.9062
L19.6719 43.0156
L55.5156 43.0156
L55.5156 72.9062
L65.375 72.9062
L65.375 0
L55.5156 0
L55.5156 34.7188
L19.6719 34.7188
L19.6719 0
L9.8125 0
z
" id="DejaVuSans-48"/>
      <path d="
M9.8125 72.9062
L19.6719 72.9062
L19.6719 0
L9.8125 0
z
" id="DejaVuSans-49"/>
      <path d="
M-0.296875 72.9062
L61.375 72.9062
L61.375 64.5938
L35.5 64.5938
L35.5 0
L25.5938 0
L25.5938 64.5938
L-0.296875 64.5938
z
" id="DejaVuSans-54"/>
     </defs>
     <g transform="translate(261.303984375 415.5609375)scale(0.12 -0.12)">
      <use xlink:href="#DejaVuSans-70"/>
      <use x="63.4765625" xlink:href="#DejaVuSans-65"/>
      <use x="125.0" xlink:href="#DejaVuSans-72"/>
      <use x="164.36328125" xlink:href="#DejaVuSans-6d"/>
      <use x="261.775390625" xlink:href="#DejaVuSans-69"/>
      <use x="289.55859375" xlink:href="#DejaVuSans-73"/>
      <use x="341.658203125" xlink:href="#DejaVuSans-73"/>
      <use x="393.7578125" xlink:href="#DejaVuSans-69"/>
      <use x="421.541015625" xlink:href="#DejaVuSans-6f"/>
      <use x="482.72265625" xlink:href="#DejaVuSans-6e"/>
      <use x="546.1015625" xlink:href="#DejaVuSans-50"/>
      <use x="604.654296875" xlink:href="#DejaVuSans-75"/>
      <use x="668.033203125" xlink:href="#DejaVuSans-72"/>
      <use x="709.146484375" xlink:href="#DejaVuSans-70"/>
      <use x="772.623046875" xlink:href="#DejaVuSans-6f"/>
      <use x="833.8046875" xlink:href="#DejaVuSans-73"/>
      <use x="885.904296875" xlink:href="#DejaVuSans-65"/>
      <use x="947.427734375" xlink:href="#DejaVuSans-3d"/>
      <use x="1031.21679688" xlink:href="#DejaVuSans-52"/>
      <use x="1100.69921875" xlink:href="#DejaVuSans-45"/>
      <use x="1163.8828125" xlink:href="#DejaVuSans-41"/>
      <use x="1232.29101562" xlink:href="#DejaVuSans-44"/>
      <use x="1309.29296875" xlink:href="#DejaVuSans-5f"/>
      <use x="1359.29296875" xlink:href="#DejaVuSans-50"/>
      <use x="1419.59570312" xlink:href="#DejaVuSans-48"/>
      <use x="1494.79101562" xlink:href="#DejaVuSans-4f"/>
      <use x="1573.50195312" xlink:href="#DejaVuSans-4e"/>
      <use x="1648.30664062" xlink:href="#DejaVuSans-45"/>
      <use x="1711.49023438" xlink:href="#DejaVuSans-5f"/>
      <use x="1761.49023438" xlink:href="#DejaVuSans-53"/>
      <use x="1824.96679688" xlink:href="#DejaVuSans-54"/>
      <use x="1878.30078125" xlink:href="#DejaVuSans-41"/>
      <use x="1938.95898438" xlink:href="#DejaVuSans-54"/>
      <use x="2000.04296875" xlink:href="#DejaVuSans-45"/>
      <use x="2063.2265625" xlink:href="#DejaVuSans-7c"/>
      <use x="2096.91796875" xlink:href="#DejaVuSans-49"/>
      <use x="2126.41015625" xlink:href="#DejaVuSans-4e"/>
      <use x="2201.21484375" xlink:href="#DejaVuSans-54"/>
      <use x="2262.29882812" xlink:href="#DejaVuSans-45"/>
      <use x="2325.48242188" xlink:href="#DejaVuSans-52"/>
      <use x="2394.96484375" xlink:href="#DejaVuSans-4e"/>
      <use x="2469.76953125" xlink:href="#DejaVuSans-41"/>
      <use x="2538.17773438" xlink:href="#DejaVuSans-4c"/>
     </g>
    </g>
   </g>
   <g id="matplotlib.axis_8">
    <g id="ytick_19">
     <g id="line2d_79">
      <g>
       <use style="stroke:#000000;stroke-linecap:butt;stroke-width:0.5;" x="322.59796875" xlink:href="#me8a85f7bf6" y="377.199261658"/>
      </g>
     </g>
     <g id="line2d_80">
      <g>
       <use style="stroke:#000000;stroke-linecap:butt;stroke-width:0.5;" x="510.1275" xlink:href="#m1a32005dea" y="377.199261658"/>
      </g>
     </g>
     <g id="text_44">
      <!-- −0.20 -->
      <g transform="translate(283.89171875 381.567074158)scale(0.12 -0.12)">
       <use xlink:href="#DejaVuSans-2212"/>
       <use x="83.7890625" xlink:href="#DejaVuSans-30"/>
       <use x="147.412109375" xlink:href="#DejaVuSans-2e"/>
       <use x="179.19921875" xlink:href="#DejaVuSans-32"/>
       <use x="242.822265625" xlink:href="#DejaVuSans-30"/>
      </g>
     </g>
    </g>
    <g id="ytick_20">
     <g id="line2d_81">
      <g>
       <use style="stroke:#000000;stroke-linecap:butt;stroke-width:0.5;" x="322.59796875" xlink:href="#me8a85f7bf6" y="351.431038256"/>
      </g>
     </g>
     <g id="line2d_82">
      <g>
       <use style="stroke:#000000;stroke-linecap:butt;stroke-width:0.5;" x="510.1275" xlink:href="#m1a32005dea" y="351.431038256"/>
      </g>
     </g>
     <g id="text_45">
      <!-- −0.15 -->
      <g transform="translate(284.14296875 355.798850756)scale(0.12 -0.12)">
       <use xlink:href="#DejaVuSans-2212"/>
       <use x="83.7890625" xlink:href="#DejaVuSans-30"/>
       <use x="147.412109375" xlink:href="#DejaVuSans-2e"/>
       <use x="179.19921875" xlink:href="#DejaVuSans-31"/>
       <use x="242.822265625" xlink:href="#DejaVuSans-35"/>
      </g>
     </g>
    </g>
    <g id="ytick_21">
     <g id="line2d_83">
      <g>
       <use style="stroke:#000000;stroke-linecap:butt;stroke-width:0.5;" x="322.59796875" xlink:href="#me8a85f7bf6" y="325.662814854"/>
      </g>
     </g>
     <g id="line2d_84">
      <g>
       <use style="stroke:#000000;stroke-linecap:butt;stroke-width:0.5;" x="510.1275" xlink:href="#m1a32005dea" y="325.662814854"/>
      </g>
     </g>
     <g id="text_46">
      <!-- −0.10 -->
      <g transform="translate(283.89171875 330.030627354)scale(0.12 -0.12)">
       <use xlink:href="#DejaVuSans-2212"/>
       <use x="83.7890625" xlink:href="#DejaVuSans-30"/>
       <use x="147.412109375" xlink:href="#DejaVuSans-2e"/>
       <use x="179.19921875" xlink:href="#DejaVuSans-31"/>
       <use x="242.822265625" xlink:href="#DejaVuSans-30"/>
      </g>
     </g>
    </g>
    <g id="ytick_22">
     <g id="line2d_85">
      <g>
       <use style="stroke:#000000;stroke-linecap:butt;stroke-width:0.5;" x="322.59796875" xlink:href="#me8a85f7bf6" y="299.894591453"/>
      </g>
     </g>
     <g id="line2d_86">
      <g>
       <use style="stroke:#000000;stroke-linecap:butt;stroke-width:0.5;" x="510.1275" xlink:href="#m1a32005dea" y="299.894591453"/>
      </g>
     </g>
     <g id="text_47">
      <!-- −0.05 -->
      <g transform="translate(284.14296875 304.262403953)scale(0.12 -0.12)">
       <use xlink:href="#DejaVuSans-2212"/>
       <use x="83.7890625" xlink:href="#DejaVuSans-30"/>
       <use x="147.412109375" xlink:href="#DejaVuSans-2e"/>
       <use x="179.19921875" xlink:href="#DejaVuSans-30"/>
       <use x="242.822265625" xlink:href="#DejaVuSans-35"/>
      </g>
     </g>
    </g>
    <g id="ytick_23">
     <g id="line2d_87">
      <g>
       <use style="stroke:#000000;stroke-linecap:butt;stroke-width:0.5;" x="322.59796875" xlink:href="#me8a85f7bf6" y="274.126368051"/>
      </g>
     </g>
     <g id="line2d_88">
      <g>
       <use style="stroke:#000000;stroke-linecap:butt;stroke-width:0.5;" x="510.1275" xlink:href="#m1a32005dea" y="274.126368051"/>
      </g>
     </g>
     <g id="text_48">
      <!-- 0.00 -->
      <g transform="translate(293.46734375 278.494180551)scale(0.12 -0.12)">
       <use xlink:href="#DejaVuSans-30"/>
       <use x="63.623046875" xlink:href="#DejaVuSans-2e"/>
       <use x="95.41015625" xlink:href="#DejaVuSans-30"/>
       <use x="159.033203125" xlink:href="#DejaVuSans-30"/>
      </g>
     </g>
    </g>
    <g id="ytick_24">
     <g id="line2d_89">
      <g>
       <use style="stroke:#000000;stroke-linecap:butt;stroke-width:0.5;" x="322.59796875" xlink:href="#me8a85f7bf6" y="248.358144649"/>
      </g>
     </g>
     <g id="line2d_90">
      <g>
       <use style="stroke:#000000;stroke-linecap:butt;stroke-width:0.5;" x="510.1275" xlink:href="#m1a32005dea" y="248.358144649"/>
      </g>
     </g>
     <g id="text_49">
      <!-- 0.05 -->
      <g transform="translate(293.71859375 252.725957149)scale(0.12 -0.12)">
       <use xlink:href="#DejaVuSans-30"/>
       <use x="63.623046875" xlink:href="#DejaVuSans-2e"/>
       <use x="95.41015625" xlink:href="#DejaVuSans-30"/>
       <use x="159.033203125" xlink:href="#DejaVuSans-35"/>
      </g>
     </g>
    </g>
   </g>
   <g id="patch_18">
    <path d="
M322.598 229.272
L510.128 229.272" style="fill:none;stroke:#000000;"/>
   </g>
   <g id="patch_19">
    <path d="
M510.128 388.313
L510.128 229.272" style="fill:none;stroke:#000000;"/>
   </g>
   <g id="patch_20">
    <path d="
M322.598 388.313
L510.128 388.313" style="fill:none;stroke:#000000;"/>
   </g>
   <g id="patch_21">
    <path d="
M322.598 388.313
L322.598 229.272" style="fill:none;stroke:#000000;"/>
   </g>
  </g>
  <g id="text_50">
   <!-- Partial dependence of privacy comfort score on most important features -->
   <defs>
    <path d="
M37.1094 75.9844
L37.1094 68.5
L28.5156 68.5
Q23.6875 68.5 21.7969 66.5469
Q19.9219 64.5938 19.9219 59.5156
L19.9219 54.6875
L34.7188 54.6875
L34.7188 47.7031
L19.9219 47.7031
L19.9219 0
L10.8906 0
L10.8906 47.7031
L2.29688 47.7031
L2.29688 54.6875
L10.8906 54.6875
L10.8906 58.5
Q10.8906 67.625 15.1406 71.7969
Q19.3906 75.9844 28.6094 75.9844
z
" id="DejaVuSans-66"/>
    <path d="
M2.98438 54.6875
L12.5 54.6875
L29.5938 8.79688
L46.6875 54.6875
L56.2031 54.6875
L35.6875 0
L23.4844 0
z
" id="DejaVuSans-76"/>
   </defs>
   <g transform="translate(70.9434375 17.758125)scale(0.12 -0.12)">
    <use xlink:href="#DejaVuSans-50"/>
    <use x="55.802734375" xlink:href="#DejaVuSans-61"/>
    <use x="117.08203125" xlink:href="#DejaVuSans-72"/>
    <use x="158.1953125" xlink:href="#DejaVuSans-74"/>
    <use x="197.404296875" xlink:href="#DejaVuSans-69"/>
    <use x="225.1875" xlink:href="#DejaVuSans-61"/>
    <use x="286.466796875" xlink:href="#DejaVuSans-6c"/>
    <use x="314.25" xlink:href="#DejaVuSans-20"/>
    <use x="346.037109375" xlink:href="#DejaVuSans-64"/>
    <use x="409.513671875" xlink:href="#DejaVuSans-65"/>
    <use x="471.037109375" xlink:href="#DejaVuSans-70"/>
    <use x="534.513671875" xlink:href="#DejaVuSans-65"/>
    <use x="596.037109375" xlink:href="#DejaVuSans-6e"/>
    <use x="659.416015625" xlink:href="#DejaVuSans-64"/>
    <use x="722.892578125" xlink:href="#DejaVuSans-65"/>
    <use x="784.416015625" xlink:href="#DejaVuSans-6e"/>
    <use x="847.794921875" xlink:href="#DejaVuSans-63"/>
    <use x="902.775390625" xlink:href="#DejaVuSans-65"/>
    <use x="964.298828125" xlink:href="#DejaVuSans-20"/>
    <use x="996.0859375" xlink:href="#DejaVuSans-6f"/>
    <use x="1057.26757812" xlink:href="#DejaVuSans-66"/>
    <use x="1092.47265625" xlink:href="#DejaVuSans-20"/>
    <use x="1124.25976562" xlink:href="#DejaVuSans-70"/>
    <use x="1187.73632812" xlink:href="#DejaVuSans-72"/>
    <use x="1228.84960938" xlink:href="#DejaVuSans-69"/>
    <use x="1256.6328125" xlink:href="#DejaVuSans-76"/>
    <use x="1315.8125" xlink:href="#DejaVuSans-61"/>
    <use x="1377.09179688" xlink:href="#DejaVuSans-63"/>
    <use x="1432.07226562" xlink:href="#DejaVuSans-79"/>
    <use x="1491.25195312" xlink:href="#DejaVuSans-20"/>
    <use x="1523.0390625" xlink:href="#DejaVuSans-63"/>
    <use x="1578.01953125" xlink:href="#DejaVuSans-6f"/>
    <use x="1639.20117188" xlink:href="#DejaVuSans-6d"/>
    <use x="1736.61328125" xlink:href="#DejaVuSans-66"/>
    <use x="1771.81835938" xlink:href="#DejaVuSans-6f"/>
    <use x="1833.0" xlink:href="#DejaVuSans-72"/>
    <use x="1874.11328125" xlink:href="#DejaVuSans-74"/>
    <use x="1913.32226562" xlink:href="#DejaVuSans-20"/>
    <use x="1945.109375" xlink:href="#DejaVuSans-73"/>
    <use x="1997.20898438" xlink:href="#DejaVuSans-63"/>
    <use x="2052.18945312" xlink:href="#DejaVuSans-6f"/>
    <use x="2113.37109375" xlink:href="#DejaVuSans-72"/>
    <use x="2152.234375" xlink:href="#DejaVuSans-65"/>
    <use x="2213.7578125" xlink:href="#DejaVuSans-20"/>
    <use x="2245.54492188" xlink:href="#DejaVuSans-6f"/>
    <use x="2306.7265625" xlink:href="#DejaVuSans-6e"/>
    <use x="2370.10546875" xlink:href="#DejaVuSans-20"/>
    <use x="2401.89257812" xlink:href="#DejaVuSans-6d"/>
    <use x="2499.3046875" xlink:href="#DejaVuSans-6f"/>
    <use x="2560.48632812" xlink:href="#DejaVuSans-73"/>
    <use x="2612.5859375" xlink:href="#DejaVuSans-74"/>
    <use x="2651.79492188" xlink:href="#DejaVuSans-20"/>
    <use x="2683.58203125" xlink:href="#DejaVuSans-69"/>
    <use x="2711.36523438" xlink:href="#DejaVuSans-6d"/>
    <use x="2808.77734375" xlink:href="#DejaVuSans-70"/>
    <use x="2872.25390625" xlink:href="#DejaVuSans-6f"/>
    <use x="2933.43554688" xlink:href="#DejaVuSans-72"/>
    <use x="2974.54882812" xlink:href="#DejaVuSans-74"/>
    <use x="3013.7578125" xlink:href="#DejaVuSans-61"/>
    <use x="3075.03710938" xlink:href="#DejaVuSans-6e"/>
    <use x="3138.41601562" xlink:href="#DejaVuSans-74"/>
    <use x="3177.625" xlink:href="#DejaVuSans-20"/>
    <use x="3209.41210938" xlink:href="#DejaVuSans-66"/>
    <use x="3244.6171875" xlink:href="#DejaVuSans-65"/>
    <use x="3306.140625" xlink:href="#DejaVuSans-61"/>
    <use x="3367.41992188" xlink:href="#DejaVuSans-74"/>
    <use x="3406.62890625" xlink:href="#DejaVuSans-75"/>
    <use x="3470.0078125" xlink:href="#DejaVuSans-72"/>
    <use x="3508.87109375" xlink:href="#DejaVuSans-65"/>
    <use x="3570.39453125" xlink:href="#DejaVuSans-73"/>
   </g>
  </g>
 </g>
 <defs>
  <clipPath id="pe9fcb25594">
   <rect height="159.041861413" width="187.52953125" x="322.59796875" y="229.271576087"/>
  </clipPath>
  <clipPath id="p11f5c6acda">
   <rect height="159.041861413" width="187.52953125" x="69.1959375" y="229.271576087"/>
  </clipPath>
  <clipPath id="p9771550d2f">
   <rect height="159.041861413" width="187.52953125" x="69.1959375" y="19.814857337"/>
  </clipPath>
  <clipPath id="pf8c5b0fca0">
   <rect height="159.041861413" width="187.52953125" x="322.59796875" y="19.814857337"/>
  </clipPath>
 </defs>
</svg>
