<?xml version="1.0" encoding="utf-8" standalone="no"?>
<!DOCTYPE svg PUBLIC "-//W3C//DTD SVG 1.1//EN"
  "http://www.w3.org/Graphics/SVG/1.1/DTD/svg11.dtd">
<!-- Created with matplotlib (http://matplotlib.sourceforge.net/) -->
<svg height="432pt" version="1.1" viewBox="0 0 576 432" width="576pt" xmlns="http://www.w3.org/2000/svg" xmlns:xlink="http://www.w3.org/1999/xlink">
 <defs>
  <style type="text/css">
*{stroke-linecap:square;stroke-linejoin:round;}
  </style>
 </defs>
 <g id="figure_1">
  <g id="patch_1">
   <path d="
M0 432
L576 432
L576 0
L0 0
z
" style="fill:#ffffff;"/>
  </g>
  <g id="axes_1">
   <g id="patch_2">
    <path d="
M63.3414 389.978
L204.403 389.978
L204.403 29.2476
L63.3414 29.2476
z
" style="fill:#ffffff;"/>
   </g>
   <g id="LineCollection_1">
    <defs>
     <path d="
M145.469 -42.0216
L145.469 -60.0581" id="C0_0_67db1a02aa"/>
     <path d="
M154.716 -42.0216
L154.716 -60.0581" id="C0_1_127828eb09"/>
     <path d="
M165.404 -42.0216
L165.404 -60.0581" id="C0_2_a6bcbab493"/>
     <path d="
M174.47 -42.0216
L174.47 -60.0581" id="C0_3_b9fb353481"/>
     <path d="
M180.572 -42.0216
L180.572 -60.0581" id="C0_4_b51b720993"/>
     <path d="
M183.784 -42.0216
L183.784 -60.0581" id="C0_5_ceedce4020"/>
     <path d="
M185.383 -42.0216
L185.383 -60.0581" id="C0_6_b779919495"/>
     <path d="
M187.982 -42.0216
L187.982 -60.0581" id="C0_7_a7edf6ef33"/>
     <path d="
M190.822 -42.0216
L190.822 -60.0581" id="C0_8_663431f6da"/>
    </defs>
    <g clip-path="url(#p97a3f4f35c)">
     <use style="fill:none;stroke:#000000;stroke-linecap:butt;" x="0" xlink:href="#C0_0_67db1a02aa" y="432.0"/>
    </g>
    <g clip-path="url(#p97a3f4f35c)">
     <use style="fill:none;stroke:#000000;stroke-linecap:butt;" x="0" xlink:href="#C0_1_127828eb09" y="432.0"/>
    </g>
    <g clip-path="url(#p97a3f4f35c)">
     <use style="fill:none;stroke:#000000;stroke-linecap:butt;" x="0" xlink:href="#C0_2_a6bcbab493" y="432.0"/>
    </g>
    <g clip-path="url(#p97a3f4f35c)">
     <use style="fill:none;stroke:#000000;stroke-linecap:butt;" x="0" xlink:href="#C0_3_b9fb353481" y="432.0"/>
    </g>
    <g clip-path="url(#p97a3f4f35c)">
     <use style="fill:none;stroke:#000000;stroke-linecap:butt;" x="0" xlink:href="#C0_4_b51b720993" y="432.0"/>
    </g>
    <g clip-path="url(#p97a3f4f35c)">
     <use style="fill:none;stroke:#000000;stroke-linecap:butt;" x="0" xlink:href="#C0_5_ceedce4020" y="432.0"/>
    </g>
    <g clip-path="url(#p97a3f4f35c)">
     <use style="fill:none;stroke:#000000;stroke-linecap:butt;" x="0" xlink:href="#C0_6_b779919495" y="432.0"/>
    </g>
    <g clip-path="url(#p97a3f4f35c)">
     <use style="fill:none;stroke:#000000;stroke-linecap:butt;" x="0" xlink:href="#C0_7_a7edf6ef33" y="432.0"/>
    </g>
    <g clip-path="url(#p97a3f4f35c)">
     <use style="fill:none;stroke:#000000;stroke-linecap:butt;" x="0" xlink:href="#C0_8_663431f6da" y="432.0"/>
    </g>
   </g>
   <g id="line2d_1">
    <path clip-path="url(#p97a3f4f35c)" d="
M77.3291 190.96
L97.2033 190.313
L118.883 189.547
L121.475 177.011
L142.523 99.2242
L147.274 99.2242
L147.997 99.2242
L150.668 99.2242
L151.64 125.89
L152.219 125.89
L153.394 124.853
L154.968 124.596
L155.555 103.443
L158.572 117.953
L160.809 117.953
L162.314 117.953
L165.39 134.816
L165.62 134.816
L171.06 29.2476
L171.471 29.2476
L172.063 29.2476
L172.07 29.2476
L173.79 346.169
L176.221 340.27
L176.37 340.27
L177.934 340.303
L178.108 383.465
L178.508 383.624
L180.572 389.246
L180.579 389.246
L181.103 389.246
L181.872 389.864
L182.915 389.978
L183.777 372.498
L183.787 372.343
L184.087 369.305
L184.405 313.485
L184.881 280.324
L184.989 280.324
L185.408 280.324
L186.221 281.233
L186.326 281.233
L186.628 282.788
L187.172 282.53
L187.662 268.524
L187.889 272.529
L188.468 281.383
L188.488 280.515
L189.037 280.515
L189.862 281.599
L190.309 281.599
L190.822 262.45
L191.278 262.413
L193.108 255.778
L193.354 255.817
L196.722 254.433
L197.558 254.433" style="fill:none;stroke:#008000;"/>
   </g>
   <g id="matplotlib.axis_1">
    <g id="xtick_1">
     <g id="line2d_2">
      <defs>
       <path d="
M0 0
L0 -4" id="m0012dd4eef" style="stroke:#000000;stroke-linecap:butt;stroke-width:0.5;"/>
      </defs>
      <g>
       <use style="stroke:#000000;stroke-linecap:butt;stroke-width:0.5;" x="89.7904453125" xlink:href="#m0012dd4eef" y="389.9784375"/>
      </g>
     </g>
     <g id="line2d_3">
      <defs>
       <path d="
M0 0
L0 4" id="m476344969c" style="stroke:#000000;stroke-linecap:butt;stroke-width:0.5;"/>
      </defs>
      <g>
       <use style="stroke:#000000;stroke-linecap:butt;stroke-width:0.5;" x="89.7904453125" xlink:href="#m476344969c" y="29.247575"/>
      </g>
     </g>
     <g id="text_1">
      <!-- −0.45 -->
      <defs>
       <path d="
M31.7812 66.4062
Q24.1719 66.4062 20.3281 58.9062
Q16.5 51.4219 16.5 36.375
Q16.5 21.3906 20.3281 13.8906
Q24.1719 6.39062 31.7812 6.39062
Q39.4531 6.39062 43.2812 13.8906
Q47.125 21.3906 47.125 36.375
Q47.125 51.4219 43.2812 58.9062
Q39.4531 66.4062 31.7812 66.4062
M31.7812 74.2188
Q44.0469 74.2188 50.5156 64.5156
Q56.9844 54.8281 56.9844 36.375
Q56.9844 17.9688 50.5156 8.26562
Q44.0469 -1.42188 31.7812 -1.42188
Q19.5312 -1.42188 13.0625 8.26562
Q6.59375 17.9688 6.59375 36.375
Q6.59375 54.8281 13.0625 64.5156
Q19.5312 74.2188 31.7812 74.2188" id="DejaVuSans-30"/>
       <path d="
M10.6875 12.4062
L21 12.4062
L21 0
L10.6875 0
z
" id="DejaVuSans-2e"/>
       <path d="
M10.7969 72.9062
L49.5156 72.9062
L49.5156 64.5938
L19.8281 64.5938
L19.8281 46.7344
Q21.9688 47.4688 24.1094 47.8281
Q26.2656 48.1875 28.4219 48.1875
Q40.625 48.1875 47.75 41.5
Q54.8906 34.8125 54.8906 23.3906
Q54.8906 11.625 47.5625 5.09375
Q40.2344 -1.42188 26.9062 -1.42188
Q22.3125 -1.42188 17.5469 -0.640625
Q12.7969 0.140625 7.71875 1.70312
L7.71875 11.625
Q12.1094 9.23438 16.7969 8.0625
Q21.4844 6.89062 26.7031 6.89062
Q35.1562 6.89062 40.0781 11.3281
Q45.0156 15.7656 45.0156 23.3906
Q45.0156 31 40.0781 35.4375
Q35.1562 39.8906 26.7031 39.8906
Q22.75 39.8906 18.8125 39.0156
Q14.8906 38.1406 10.7969 36.2812
z
" id="DejaVuSans-35"/>
       <path d="
M37.7969 64.3125
L12.8906 25.3906
L37.7969 25.3906
z

M35.2031 72.9062
L47.6094 72.9062
L47.6094 25.3906
L58.0156 25.3906
L58.0156 17.1875
L47.6094 17.1875
L47.6094 0
L37.7969 0
L37.7969 17.1875
L4.89062 17.1875
L4.89062 26.7031
z
" id="DejaVuSans-34"/>
       <path d="
M10.5938 35.5
L73.1875 35.5
L73.1875 27.2031
L10.5938 27.2031
z
" id="DejaVuSans-2212"/>
      </defs>
      <g transform="translate(72.5629453125 402.8846875)scale(0.12 -0.12)">
       <use xlink:href="#DejaVuSans-2212"/>
       <use x="83.7890625" xlink:href="#DejaVuSans-30"/>
       <use x="147.412109375" xlink:href="#DejaVuSans-2e"/>
       <use x="179.19921875" xlink:href="#DejaVuSans-34"/>
       <use x="242.822265625" xlink:href="#DejaVuSans-35"/>
      </g>
     </g>
    </g>
    <g id="xtick_2">
     <g id="line2d_4">
      <g>
       <use style="stroke:#000000;stroke-linecap:butt;stroke-width:0.5;" x="116.239453125" xlink:href="#m0012dd4eef" y="389.9784375"/>
      </g>
     </g>
     <g id="line2d_5">
      <g>
       <use style="stroke:#000000;stroke-linecap:butt;stroke-width:0.5;" x="116.239453125" xlink:href="#m476344969c" y="29.247575"/>
      </g>
     </g>
     <g id="text_2">
      <!-- −0.30 -->
      <defs>
       <path d="
M40.5781 39.3125
Q47.6562 37.7969 51.625 33
Q55.6094 28.2188 55.6094 21.1875
Q55.6094 10.4062 48.1875 4.48438
Q40.7656 -1.42188 27.0938 -1.42188
Q22.5156 -1.42188 17.6562 -0.515625
Q12.7969 0.390625 7.625 2.20312
L7.625 11.7188
Q11.7188 9.32812 16.5938 8.10938
Q21.4844 6.89062 26.8125 6.89062
Q36.0781 6.89062 40.9375 10.5469
Q45.7969 14.2031 45.7969 21.1875
Q45.7969 27.6406 41.2812 31.2656
Q36.7656 34.9062 28.7188 34.9062
L20.2188 34.9062
L20.2188 43.0156
L29.1094 43.0156
Q36.375 43.0156 40.2344 45.9219
Q44.0938 48.8281 44.0938 54.2969
Q44.0938 59.9062 40.1094 62.9062
Q36.1406 65.9219 28.7188 65.9219
Q24.6562 65.9219 20.0156 65.0312
Q15.375 64.1562 9.8125 62.3125
L9.8125 71.0938
Q15.4375 72.6562 20.3438 73.4375
Q25.25 74.2188 29.5938 74.2188
Q40.8281 74.2188 47.3594 69.1094
Q53.9062 64.0156 53.9062 55.3281
Q53.9062 49.2656 50.4375 45.0938
Q46.9688 40.9219 40.5781 39.3125" id="DejaVuSans-33"/>
      </defs>
      <g transform="translate(98.886328125 402.8846875)scale(0.12 -0.12)">
       <use xlink:href="#DejaVuSans-2212"/>
       <use x="83.7890625" xlink:href="#DejaVuSans-30"/>
       <use x="147.412109375" xlink:href="#DejaVuSans-2e"/>
       <use x="179.19921875" xlink:href="#DejaVuSans-33"/>
       <use x="242.822265625" xlink:href="#DejaVuSans-30"/>
      </g>
     </g>
    </g>
    <g id="xtick_3">
     <g id="line2d_6">
      <g>
       <use style="stroke:#000000;stroke-linecap:butt;stroke-width:0.5;" x="142.688460937" xlink:href="#m0012dd4eef" y="389.9784375"/>
      </g>
     </g>
     <g id="line2d_7">
      <g>
       <use style="stroke:#000000;stroke-linecap:butt;stroke-width:0.5;" x="142.688460937" xlink:href="#m476344969c" y="29.247575"/>
      </g>
     </g>
     <g id="text_3">
      <!-- −0.15 -->
      <defs>
       <path d="
M12.4062 8.29688
L28.5156 8.29688
L28.5156 63.9219
L10.9844 60.4062
L10.9844 69.3906
L28.4219 72.9062
L38.2812 72.9062
L38.2812 8.29688
L54.3906 8.29688
L54.3906 0
L12.4062 0
z
" id="DejaVuSans-31"/>
      </defs>
      <g transform="translate(125.460960938 402.8846875)scale(0.12 -0.12)">
       <use xlink:href="#DejaVuSans-2212"/>
       <use x="83.7890625" xlink:href="#DejaVuSans-30"/>
       <use x="147.412109375" xlink:href="#DejaVuSans-2e"/>
       <use x="179.19921875" xlink:href="#DejaVuSans-31"/>
       <use x="242.822265625" xlink:href="#DejaVuSans-35"/>
      </g>
     </g>
    </g>
    <g id="xtick_4">
     <g id="line2d_8">
      <g>
       <use style="stroke:#000000;stroke-linecap:butt;stroke-width:0.5;" x="169.13746875" xlink:href="#m0012dd4eef" y="389.9784375"/>
      </g>
     </g>
     <g id="line2d_9">
      <g>
       <use style="stroke:#000000;stroke-linecap:butt;stroke-width:0.5;" x="169.13746875" xlink:href="#m476344969c" y="29.247575"/>
      </g>
     </g>
     <g id="text_4">
      <!-- 0.00 -->
      <g transform="translate(156.57215625 402.8846875)scale(0.12 -0.12)">
       <use xlink:href="#DejaVuSans-30"/>
       <use x="63.623046875" xlink:href="#DejaVuSans-2e"/>
       <use x="95.41015625" xlink:href="#DejaVuSans-30"/>
       <use x="159.033203125" xlink:href="#DejaVuSans-30"/>
      </g>
     </g>
    </g>
    <g id="xtick_5">
     <g id="line2d_10">
      <g>
       <use style="stroke:#000000;stroke-linecap:butt;stroke-width:0.5;" x="195.586476563" xlink:href="#m0012dd4eef" y="389.9784375"/>
      </g>
     </g>
     <g id="line2d_11">
      <g>
       <use style="stroke:#000000;stroke-linecap:butt;stroke-width:0.5;" x="195.586476563" xlink:href="#m476344969c" y="29.247575"/>
      </g>
     </g>
     <g id="text_5">
      <!-- 0.15 -->
      <g transform="translate(183.146789063 402.8846875)scale(0.12 -0.12)">
       <use xlink:href="#DejaVuSans-30"/>
       <use x="63.623046875" xlink:href="#DejaVuSans-2e"/>
       <use x="95.41015625" xlink:href="#DejaVuSans-31"/>
       <use x="159.033203125" xlink:href="#DejaVuSans-35"/>
      </g>
     </g>
    </g>
    <g id="text_6">
     <!-- starRating -->
     <defs>
      <path d="
M54.8906 33.0156
L54.8906 0
L45.9062 0
L45.9062 32.7188
Q45.9062 40.4844 42.875 44.3281
Q39.8438 48.1875 33.7969 48.1875
Q26.5156 48.1875 22.3125 43.5469
Q18.1094 38.9219 18.1094 30.9062
L18.1094 0
L9.07812 0
L9.07812 54.6875
L18.1094 54.6875
L18.1094 46.1875
Q21.3438 51.125 25.7031 53.5625
Q30.0781 56 35.7969 56
Q45.2188 56 50.0469 50.1719
Q54.8906 44.3438 54.8906 33.0156" id="DejaVuSans-6e"/>
      <path d="
M9.42188 54.6875
L18.4062 54.6875
L18.4062 0
L9.42188 0
z

M9.42188 75.9844
L18.4062 75.9844
L18.4062 64.5938
L9.42188 64.5938
z
" id="DejaVuSans-69"/>
      <path d="
M45.4062 27.9844
Q45.4062 37.75 41.375 43.1094
Q37.3594 48.4844 30.0781 48.4844
Q22.8594 48.4844 18.8281 43.1094
Q14.7969 37.75 14.7969 27.9844
Q14.7969 18.2656 18.8281 12.8906
Q22.8594 7.51562 30.0781 7.51562
Q37.3594 7.51562 41.375 12.8906
Q45.4062 18.2656 45.4062 27.9844
M54.3906 6.78125
Q54.3906 -7.17188 48.1875 -13.9844
Q42 -20.7969 29.2031 -20.7969
Q24.4688 -20.7969 20.2656 -20.0938
Q16.0625 -19.3906 12.1094 -17.9219
L12.1094 -9.1875
Q16.0625 -11.3281 19.9219 -12.3438
Q23.7812 -13.375 27.7812 -13.375
Q36.625 -13.375 41.0156 -8.76562
Q45.4062 -4.15625 45.4062 5.17188
L45.4062 9.625
Q42.625 4.78125 38.2812 2.39062
Q33.9375 0 27.875 0
Q17.8281 0 11.6719 7.65625
Q5.51562 15.3281 5.51562 27.9844
Q5.51562 40.6719 11.6719 48.3281
Q17.8281 56 27.875 56
Q33.9375 56 38.2812 53.6094
Q42.625 51.2188 45.4062 46.3906
L45.4062 54.6875
L54.3906 54.6875
z
" id="DejaVuSans-67"/>
      <path d="
M44.3906 34.1875
Q47.5625 33.1094 50.5625 29.5938
Q53.5625 26.0781 56.5938 19.9219
L66.6094 0
L56 0
L46.6875 18.7031
Q43.0625 26.0312 39.6719 28.4219
Q36.2812 30.8125 30.4219 30.8125
L19.6719 30.8125
L19.6719 0
L9.8125 0
L9.8125 72.9062
L32.0781 72.9062
Q44.5781 72.9062 50.7344 67.6719
Q56.8906 62.4531 56.8906 51.9062
Q56.8906 45.0156 53.6875 40.4688
Q50.4844 35.9375 44.3906 34.1875
M19.6719 64.7969
L19.6719 38.9219
L32.0781 38.9219
Q39.2031 38.9219 42.8438 42.2188
Q46.4844 45.5156 46.4844 51.9062
Q46.4844 58.2969 42.8438 61.5469
Q39.2031 64.7969 32.0781 64.7969
z
" id="DejaVuSans-52"/>
      <path d="
M18.3125 70.2188
L18.3125 54.6875
L36.8125 54.6875
L36.8125 47.7031
L18.3125 47.7031
L18.3125 18.0156
Q18.3125 11.3281 20.1406 9.42188
Q21.9688 7.51562 27.5938 7.51562
L36.8125 7.51562
L36.8125 0
L27.5938 0
Q17.1875 0 13.2344 3.875
Q9.28125 7.76562 9.28125 18.0156
L9.28125 47.7031
L2.6875 47.7031
L2.6875 54.6875
L9.28125 54.6875
L9.28125 70.2188
z
" id="DejaVuSans-74"/>
      <path d="
M34.2812 27.4844
Q23.3906 27.4844 19.1875 25
Q14.9844 22.5156 14.9844 16.5
Q14.9844 11.7188 18.1406 8.90625
Q21.2969 6.10938 26.7031 6.10938
Q34.1875 6.10938 38.7031 11.4062
Q43.2188 16.7031 43.2188 25.4844
L43.2188 27.4844
z

M52.2031 31.2031
L52.2031 0
L43.2188 0
L43.2188 8.29688
Q40.1406 3.32812 35.5469 0.953125
Q30.9531 -1.42188 24.3125 -1.42188
Q15.9219 -1.42188 10.9531 3.29688
Q6 8.01562 6 15.9219
Q6 25.1406 12.1719 29.8281
Q18.3594 34.5156 30.6094 34.5156
L43.2188 34.5156
L43.2188 35.4062
Q43.2188 41.6094 39.1406 45
Q35.0625 48.3906 27.6875 48.3906
Q23 48.3906 18.5469 47.2656
Q14.1094 46.1406 10.0156 43.8906
L10.0156 52.2031
Q14.9375 54.1094 19.5781 55.0469
Q24.2188 56 28.6094 56
Q40.4844 56 46.3438 49.8438
Q52.2031 43.7031 52.2031 31.2031" id="DejaVuSans-61"/>
      <path d="
M44.2812 53.0781
L44.2812 44.5781
Q40.4844 46.5312 36.375 47.5
Q32.2812 48.4844 27.875 48.4844
Q21.1875 48.4844 17.8438 46.4375
Q14.5 44.3906 14.5 40.2812
Q14.5 37.1562 16.8906 35.375
Q19.2812 33.5938 26.5156 31.9844
L29.5938 31.2969
Q39.1562 29.25 43.1875 25.5156
Q47.2188 21.7812 47.2188 15.0938
Q47.2188 7.46875 41.1875 3.01562
Q35.1562 -1.42188 24.6094 -1.42188
Q20.2188 -1.42188 15.4531 -0.5625
Q10.6875 0.296875 5.42188 2
L5.42188 11.2812
Q10.4062 8.6875 15.2344 7.39062
Q20.0625 6.10938 24.8125 6.10938
Q31.1562 6.10938 34.5625 8.28125
Q37.9844 10.4531 37.9844 14.4062
Q37.9844 18.0625 35.5156 20.0156
Q33.0625 21.9688 24.7031 23.7812
L21.5781 24.5156
Q13.2344 26.2656 9.51562 29.9062
Q5.8125 33.5469 5.8125 39.8906
Q5.8125 47.6094 11.2812 51.7969
Q16.75 56 26.8125 56
Q31.7812 56 36.1719 55.2656
Q40.5781 54.5469 44.2812 53.0781" id="DejaVuSans-73"/>
      <path d="
M41.1094 46.2969
Q39.5938 47.1719 37.8125 47.5781
Q36.0312 48 33.8906 48
Q26.2656 48 22.1875 43.0469
Q18.1094 38.0938 18.1094 28.8125
L18.1094 0
L9.07812 0
L9.07812 54.6875
L18.1094 54.6875
L18.1094 46.1875
Q20.9531 51.1719 25.4844 53.5781
Q30.0312 56 36.5312 56
Q37.4531 56 38.5781 55.875
Q39.7031 55.7656 41.0625 55.5156
z
" id="DejaVuSans-72"/>
     </defs>
     <g transform="translate(103.78025 417.1734375)scale(0.12 -0.12)">
      <use xlink:href="#DejaVuSans-73"/>
      <use x="52.099609375" xlink:href="#DejaVuSans-74"/>
      <use x="91.30859375" xlink:href="#DejaVuSans-61"/>
      <use x="152.587890625" xlink:href="#DejaVuSans-72"/>
      <use x="193.701171875" xlink:href="#DejaVuSans-52"/>
      <use x="260.93359375" xlink:href="#DejaVuSans-61"/>
      <use x="322.212890625" xlink:href="#DejaVuSans-74"/>
      <use x="361.421875" xlink:href="#DejaVuSans-69"/>
      <use x="389.205078125" xlink:href="#DejaVuSans-6e"/>
      <use x="452.583984375" xlink:href="#DejaVuSans-67"/>
     </g>
    </g>
   </g>
   <g id="matplotlib.axis_2">
    <g id="ytick_1">
     <g id="line2d_12">
      <defs>
       <path d="
M0 0
L4 0" id="me8a85f7bf6" style="stroke:#000000;stroke-linecap:butt;stroke-width:0.5;"/>
      </defs>
      <g>
       <use style="stroke:#000000;stroke-linecap:butt;stroke-width:0.5;" x="63.3414375" xlink:href="#me8a85f7bf6" y="370.594165851"/>
      </g>
     </g>
     <g id="line2d_13">
      <defs>
       <path d="
M0 0
L-4 0" id="m1a32005dea" style="stroke:#000000;stroke-linecap:butt;stroke-width:0.5;"/>
      </defs>
      <g>
       <use style="stroke:#000000;stroke-linecap:butt;stroke-width:0.5;" x="204.4028125" xlink:href="#m1a32005dea" y="370.594165851"/>
      </g>
     </g>
     <g id="text_7">
      <!-- 0.010 -->
      <g transform="translate(26.5758125 374.961978351)scale(0.12 -0.12)">
       <use xlink:href="#DejaVuSans-30"/>
       <use x="63.623046875" xlink:href="#DejaVuSans-2e"/>
       <use x="95.41015625" xlink:href="#DejaVuSans-30"/>
       <use x="159.033203125" xlink:href="#DejaVuSans-31"/>
       <use x="222.65625" xlink:href="#DejaVuSans-30"/>
      </g>
     </g>
    </g>
    <g id="ytick_2">
     <g id="line2d_14">
      <g>
       <use style="stroke:#000000;stroke-linecap:butt;stroke-width:0.5;" x="63.3414375" xlink:href="#me8a85f7bf6" y="327.682849818"/>
      </g>
     </g>
     <g id="line2d_15">
      <g>
       <use style="stroke:#000000;stroke-linecap:butt;stroke-width:0.5;" x="204.4028125" xlink:href="#m1a32005dea" y="327.682849818"/>
      </g>
     </g>
     <g id="text_8">
      <!-- 0.015 -->
      <g transform="translate(26.8270625 332.050662318)scale(0.12 -0.12)">
       <use xlink:href="#DejaVuSans-30"/>
       <use x="63.623046875" xlink:href="#DejaVuSans-2e"/>
       <use x="95.41015625" xlink:href="#DejaVuSans-30"/>
       <use x="159.033203125" xlink:href="#DejaVuSans-31"/>
       <use x="222.65625" xlink:href="#DejaVuSans-35"/>
      </g>
     </g>
    </g>
    <g id="ytick_3">
     <g id="line2d_16">
      <g>
       <use style="stroke:#000000;stroke-linecap:butt;stroke-width:0.5;" x="63.3414375" xlink:href="#me8a85f7bf6" y="284.771533786"/>
      </g>
     </g>
     <g id="line2d_17">
      <g>
       <use style="stroke:#000000;stroke-linecap:butt;stroke-width:0.5;" x="204.4028125" xlink:href="#m1a32005dea" y="284.771533786"/>
      </g>
     </g>
     <g id="text_9">
      <!-- 0.020 -->
      <defs>
       <path d="
M19.1875 8.29688
L53.6094 8.29688
L53.6094 0
L7.32812 0
L7.32812 8.29688
Q12.9375 14.1094 22.625 23.8906
Q32.3281 33.6875 34.8125 36.5312
Q39.5469 41.8438 41.4219 45.5312
Q43.3125 49.2188 43.3125 52.7812
Q43.3125 58.5938 39.2344 62.25
Q35.1562 65.9219 28.6094 65.9219
Q23.9688 65.9219 18.8125 64.3125
Q13.6719 62.7031 7.8125 59.4219
L7.8125 69.3906
Q13.7656 71.7812 18.9375 73
Q24.125 74.2188 28.4219 74.2188
Q39.75 74.2188 46.4844 68.5469
Q53.2188 62.8906 53.2188 53.4219
Q53.2188 48.9219 51.5312 44.8906
Q49.8594 40.875 45.4062 35.4062
Q44.1875 33.9844 37.6406 27.2188
Q31.1094 20.4531 19.1875 8.29688" id="DejaVuSans-32"/>
      </defs>
      <g transform="translate(26.5758125 289.139346286)scale(0.12 -0.12)">
       <use xlink:href="#DejaVuSans-30"/>
       <use x="63.623046875" xlink:href="#DejaVuSans-2e"/>
       <use x="95.41015625" xlink:href="#DejaVuSans-30"/>
       <use x="159.033203125" xlink:href="#DejaVuSans-32"/>
       <use x="222.65625" xlink:href="#DejaVuSans-30"/>
      </g>
     </g>
    </g>
    <g id="ytick_4">
     <g id="line2d_18">
      <g>
       <use style="stroke:#000000;stroke-linecap:butt;stroke-width:0.5;" x="63.3414375" xlink:href="#me8a85f7bf6" y="241.860217754"/>
      </g>
     </g>
     <g id="line2d_19">
      <g>
       <use style="stroke:#000000;stroke-linecap:butt;stroke-width:0.5;" x="204.4028125" xlink:href="#m1a32005dea" y="241.860217754"/>
      </g>
     </g>
     <g id="text_10">
      <!-- 0.025 -->
      <g transform="translate(26.8270625 246.228030254)scale(0.12 -0.12)">
       <use xlink:href="#DejaVuSans-30"/>
       <use x="63.623046875" xlink:href="#DejaVuSans-2e"/>
       <use x="95.41015625" xlink:href="#DejaVuSans-30"/>
       <use x="159.033203125" xlink:href="#DejaVuSans-32"/>
       <use x="222.65625" xlink:href="#DejaVuSans-35"/>
      </g>
     </g>
    </g>
    <g id="ytick_5">
     <g id="line2d_20">
      <g>
       <use style="stroke:#000000;stroke-linecap:butt;stroke-width:0.5;" x="63.3414375" xlink:href="#me8a85f7bf6" y="198.948901722"/>
      </g>
     </g>
     <g id="line2d_21">
      <g>
       <use style="stroke:#000000;stroke-linecap:butt;stroke-width:0.5;" x="204.4028125" xlink:href="#m1a32005dea" y="198.948901722"/>
      </g>
     </g>
     <g id="text_11">
      <!-- 0.030 -->
      <g transform="translate(26.5758125 203.316714222)scale(0.12 -0.12)">
       <use xlink:href="#DejaVuSans-30"/>
       <use x="63.623046875" xlink:href="#DejaVuSans-2e"/>
       <use x="95.41015625" xlink:href="#DejaVuSans-30"/>
       <use x="159.033203125" xlink:href="#DejaVuSans-33"/>
       <use x="222.65625" xlink:href="#DejaVuSans-30"/>
      </g>
     </g>
    </g>
    <g id="ytick_6">
     <g id="line2d_22">
      <g>
       <use style="stroke:#000000;stroke-linecap:butt;stroke-width:0.5;" x="63.3414375" xlink:href="#me8a85f7bf6" y="156.03758569"/>
      </g>
     </g>
     <g id="line2d_23">
      <g>
       <use style="stroke:#000000;stroke-linecap:butt;stroke-width:0.5;" x="204.4028125" xlink:href="#m1a32005dea" y="156.03758569"/>
      </g>
     </g>
     <g id="text_12">
      <!-- 0.035 -->
      <g transform="translate(26.8270625 160.40539819)scale(0.12 -0.12)">
       <use xlink:href="#DejaVuSans-30"/>
       <use x="63.623046875" xlink:href="#DejaVuSans-2e"/>
       <use x="95.41015625" xlink:href="#DejaVuSans-30"/>
       <use x="159.033203125" xlink:href="#DejaVuSans-33"/>
       <use x="222.65625" xlink:href="#DejaVuSans-35"/>
      </g>
     </g>
    </g>
    <g id="ytick_7">
     <g id="line2d_24">
      <g>
       <use style="stroke:#000000;stroke-linecap:butt;stroke-width:0.5;" x="63.3414375" xlink:href="#me8a85f7bf6" y="113.126269658"/>
      </g>
     </g>
     <g id="line2d_25">
      <g>
       <use style="stroke:#000000;stroke-linecap:butt;stroke-width:0.5;" x="204.4028125" xlink:href="#m1a32005dea" y="113.126269658"/>
      </g>
     </g>
     <g id="text_13">
      <!-- 0.040 -->
      <g transform="translate(26.5758125 117.494082158)scale(0.12 -0.12)">
       <use xlink:href="#DejaVuSans-30"/>
       <use x="63.623046875" xlink:href="#DejaVuSans-2e"/>
       <use x="95.41015625" xlink:href="#DejaVuSans-30"/>
       <use x="159.033203125" xlink:href="#DejaVuSans-34"/>
       <use x="222.65625" xlink:href="#DejaVuSans-30"/>
      </g>
     </g>
    </g>
    <g id="ytick_8">
     <g id="line2d_26">
      <g>
       <use style="stroke:#000000;stroke-linecap:butt;stroke-width:0.5;" x="63.3414375" xlink:href="#me8a85f7bf6" y="70.2149536253"/>
      </g>
     </g>
     <g id="line2d_27">
      <g>
       <use style="stroke:#000000;stroke-linecap:butt;stroke-width:0.5;" x="204.4028125" xlink:href="#m1a32005dea" y="70.2149536253"/>
      </g>
     </g>
     <g id="text_14">
      <!-- 0.045 -->
      <g transform="translate(26.8270625 74.5827661253)scale(0.12 -0.12)">
       <use xlink:href="#DejaVuSans-30"/>
       <use x="63.623046875" xlink:href="#DejaVuSans-2e"/>
       <use x="95.41015625" xlink:href="#DejaVuSans-30"/>
       <use x="159.033203125" xlink:href="#DejaVuSans-34"/>
       <use x="222.65625" xlink:href="#DejaVuSans-35"/>
      </g>
     </g>
    </g>
    <g id="text_15">
     <!-- Partial dependence -->
     <defs>
      <path d="
M56.2031 29.5938
L56.2031 25.2031
L14.8906 25.2031
Q15.4844 15.9219 20.4844 11.0625
Q25.4844 6.20312 34.4219 6.20312
Q39.5938 6.20312 44.4531 7.46875
Q49.3125 8.73438 54.1094 11.2812
L54.1094 2.78125
Q49.2656 0.734375 44.1875 -0.34375
Q39.1094 -1.42188 33.8906 -1.42188
Q20.7969 -1.42188 13.1562 6.1875
Q5.51562 13.8125 5.51562 26.8125
Q5.51562 40.2344 12.7656 48.1094
Q20.0156 56 32.3281 56
Q43.3594 56 49.7812 48.8906
Q56.2031 41.7969 56.2031 29.5938
M47.2188 32.2344
Q47.125 39.5938 43.0938 43.9844
Q39.0625 48.3906 32.4219 48.3906
Q24.9062 48.3906 20.3906 44.1406
Q15.875 39.8906 15.1875 32.1719
z
" id="DejaVuSans-65"/>
      <path d="
M9.42188 75.9844
L18.4062 75.9844
L18.4062 0
L9.42188 0
z
" id="DejaVuSans-6c"/>
      <path d="
M48.7812 52.5938
L48.7812 44.1875
Q44.9688 46.2969 41.1406 47.3438
Q37.3125 48.3906 33.4062 48.3906
Q24.6562 48.3906 19.8125 42.8438
Q14.9844 37.3125 14.9844 27.2969
Q14.9844 17.2812 19.8125 11.7344
Q24.6562 6.20312 33.4062 6.20312
Q37.3125 6.20312 41.1406 7.25
Q44.9688 8.29688 48.7812 10.4062
L48.7812 2.09375
Q45.0156 0.34375 40.9844 -0.53125
Q36.9688 -1.42188 32.4219 -1.42188
Q20.0625 -1.42188 12.7812 6.34375
Q5.51562 14.1094 5.51562 27.2969
Q5.51562 40.6719 12.8594 48.3281
Q20.2188 56 33.0156 56
Q37.1562 56 41.1094 55.1406
Q45.0625 54.2969 48.7812 52.5938" id="DejaVuSans-63"/>
      <path id="DejaVuSans-20"/>
      <path d="
M45.4062 46.3906
L45.4062 75.9844
L54.3906 75.9844
L54.3906 0
L45.4062 0
L45.4062 8.20312
Q42.5781 3.32812 38.25 0.953125
Q33.9375 -1.42188 27.875 -1.42188
Q17.9688 -1.42188 11.7344 6.48438
Q5.51562 14.4062 5.51562 27.2969
Q5.51562 40.1875 11.7344 48.0938
Q17.9688 56 27.875 56
Q33.9375 56 38.25 53.625
Q42.5781 51.2656 45.4062 46.3906
M14.7969 27.2969
Q14.7969 17.3906 18.875 11.75
Q22.9531 6.10938 30.0781 6.10938
Q37.2031 6.10938 41.2969 11.75
Q45.4062 17.3906 45.4062 27.2969
Q45.4062 37.2031 41.2969 42.8438
Q37.2031 48.4844 30.0781 48.4844
Q22.9531 48.4844 18.875 42.8438
Q14.7969 37.2031 14.7969 27.2969" id="DejaVuSans-64"/>
      <path d="
M19.6719 64.7969
L19.6719 37.4062
L32.0781 37.4062
Q38.9688 37.4062 42.7188 40.9688
Q46.4844 44.5312 46.4844 51.125
Q46.4844 57.6719 42.7188 61.2344
Q38.9688 64.7969 32.0781 64.7969
z

M9.8125 72.9062
L32.0781 72.9062
Q44.3438 72.9062 50.6094 67.3594
Q56.8906 61.8125 56.8906 51.125
Q56.8906 40.3281 50.6094 34.8125
Q44.3438 29.2969 32.0781 29.2969
L19.6719 29.2969
L19.6719 0
L9.8125 0
z
" id="DejaVuSans-50"/>
      <path d="
M18.1094 8.20312
L18.1094 -20.7969
L9.07812 -20.7969
L9.07812 54.6875
L18.1094 54.6875
L18.1094 46.3906
Q20.9531 51.2656 25.2656 53.625
Q29.5938 56 35.5938 56
Q45.5625 56 51.7812 48.0938
Q58.0156 40.1875 58.0156 27.2969
Q58.0156 14.4062 51.7812 6.48438
Q45.5625 -1.42188 35.5938 -1.42188
Q29.5938 -1.42188 25.2656 0.953125
Q20.9531 3.32812 18.1094 8.20312
M48.6875 27.2969
Q48.6875 37.2031 44.6094 42.8438
Q40.5312 48.4844 33.4062 48.4844
Q26.2656 48.4844 22.1875 42.8438
Q18.1094 37.2031 18.1094 27.2969
Q18.1094 17.3906 22.1875 11.75
Q26.2656 6.10938 33.4062 6.10938
Q40.5312 6.10938 44.6094 11.75
Q48.6875 17.3906 48.6875 27.2969" id="DejaVuSans-70"/>
     </defs>
     <g transform="translate(21.5758125 264.65738125)rotate(-90.0)scale(0.12 -0.12)">
      <use xlink:href="#DejaVuSans-50"/>
      <use x="55.802734375" xlink:href="#DejaVuSans-61"/>
      <use x="117.08203125" xlink:href="#DejaVuSans-72"/>
      <use x="158.1953125" xlink:href="#DejaVuSans-74"/>
      <use x="197.404296875" xlink:href="#DejaVuSans-69"/>
      <use x="225.1875" xlink:href="#DejaVuSans-61"/>
      <use x="286.466796875" xlink:href="#DejaVuSans-6c"/>
      <use x="314.25" xlink:href="#DejaVuSans-20"/>
      <use x="346.037109375" xlink:href="#DejaVuSans-64"/>
      <use x="409.513671875" xlink:href="#DejaVuSans-65"/>
      <use x="471.037109375" xlink:href="#DejaVuSans-70"/>
      <use x="534.513671875" xlink:href="#DejaVuSans-65"/>
      <use x="596.037109375" xlink:href="#DejaVuSans-6e"/>
      <use x="659.416015625" xlink:href="#DejaVuSans-64"/>
      <use x="722.892578125" xlink:href="#DejaVuSans-65"/>
      <use x="784.416015625" xlink:href="#DejaVuSans-6e"/>
      <use x="847.794921875" xlink:href="#DejaVuSans-63"/>
      <use x="902.775390625" xlink:href="#DejaVuSans-65"/>
     </g>
    </g>
   </g>
   <g id="patch_3">
    <path d="
M63.3414 29.2476
L204.403 29.2476" style="fill:none;stroke:#000000;"/>
   </g>
   <g id="patch_4">
    <path d="
M204.403 389.978
L204.403 29.2476" style="fill:none;stroke:#000000;"/>
   </g>
   <g id="patch_5">
    <path d="
M63.3414 389.978
L204.403 389.978" style="fill:none;stroke:#000000;"/>
   </g>
   <g id="patch_6">
    <path d="
M63.3414 389.978
L63.3414 29.2476" style="fill:none;stroke:#000000;"/>
   </g>
  </g>
  <g id="axes_2">
   <g id="patch_7">
    <path d="
M411.183 389.978
L552.245 389.978
L552.245 29.2476
L411.183 29.2476
z
" style="fill:#ffffff;"/>
   </g>
   <g id="patch_8">
    <path clip-path="url(#p5dc8d8dae9)" d="
M434.693 392.841
L507.223 392.841
L507.223 383.397
L434.693 383.397
z
" style="fill:#0000ff;stroke:#000000;"/>
   </g>
   <g id="patch_9">
    <path clip-path="url(#p5dc8d8dae9)" d="
M434.693 373.953
L512.183 373.953
L512.183 364.509
L434.693 364.509
z
" style="fill:#0000ff;stroke:#000000;"/>
   </g>
   <g id="patch_10">
    <path clip-path="url(#p5dc8d8dae9)" d="
M434.693 355.065
L518.552 355.065
L518.552 345.621
L434.693 345.621
z
" style="fill:#0000ff;stroke:#000000;"/>
   </g>
   <g id="patch_11">
    <path clip-path="url(#p5dc8d8dae9)" d="
M434.693 336.177
L521.462 336.177
L521.462 326.733
L434.693 326.733
z
" style="fill:#0000ff;stroke:#000000;"/>
   </g>
   <g id="patch_12">
    <path clip-path="url(#p5dc8d8dae9)" d="
M434.693 317.289
L526.681 317.289
L526.681 307.845
L434.693 307.845
z
" style="fill:#0000ff;stroke:#000000;"/>
   </g>
   <g id="patch_13">
    <path clip-path="url(#p5dc8d8dae9)" d="
M434.693 298.401
L533.447 298.401
L533.447 288.957
L434.693 288.957
z
" style="fill:#0000ff;stroke:#000000;"/>
   </g>
   <g id="patch_14">
    <path clip-path="url(#p5dc8d8dae9)" d="
M434.693 279.513
L534.475 279.513
L534.475 270.069
L434.693 270.069
z
" style="fill:#0000ff;stroke:#000000;"/>
   </g>
   <g id="patch_15">
    <path clip-path="url(#p5dc8d8dae9)" d="
M434.693 260.625
L534.659 260.625
L534.659 251.181
L434.693 251.181
z
" style="fill:#0000ff;stroke:#000000;"/>
   </g>
   <g id="patch_16">
    <path clip-path="url(#p5dc8d8dae9)" d="
M434.693 241.737
L534.992 241.737
L534.992 232.293
L434.693 232.293
z
" style="fill:#0000ff;stroke:#000000;"/>
   </g>
   <g id="patch_17">
    <path clip-path="url(#p5dc8d8dae9)" d="
M434.693 222.849
L535.224 222.849
L535.224 213.405
L434.693 213.405
z
" style="fill:#0000ff;stroke:#000000;"/>
   </g>
   <g id="patch_18">
    <path clip-path="url(#p5dc8d8dae9)" d="
M434.693 203.961
L538.111 203.961
L538.111 194.517
L434.693 194.517
z
" style="fill:#0000ff;stroke:#000000;"/>
   </g>
   <g id="patch_19">
    <path clip-path="url(#p5dc8d8dae9)" d="
M434.693 185.073
L538.957 185.073
L538.957 175.629
L434.693 175.629
z
" style="fill:#0000ff;stroke:#000000;"/>
   </g>
   <g id="patch_20">
    <path clip-path="url(#p5dc8d8dae9)" d="
M434.693 166.185
L539.659 166.185
L539.659 156.741
L434.693 156.741
z
" style="fill:#0000ff;stroke:#000000;"/>
   </g>
   <g id="patch_21">
    <path clip-path="url(#p5dc8d8dae9)" d="
M434.693 147.297
L539.988 147.297
L539.988 137.853
L434.693 137.853
z
" style="fill:#0000ff;stroke:#000000;"/>
   </g>
   <g id="patch_22">
    <path clip-path="url(#p5dc8d8dae9)" d="
M434.693 128.409
L540.888 128.409
L540.888 118.965
L434.693 118.965
z
" style="fill:#0000ff;stroke:#000000;"/>
   </g>
   <g id="patch_23">
    <path clip-path="url(#p5dc8d8dae9)" d="
M434.693 109.521
L541.265 109.521
L541.265 100.077
L434.693 100.077
z
" style="fill:#0000ff;stroke:#000000;"/>
   </g>
   <g id="patch_24">
    <path clip-path="url(#p5dc8d8dae9)" d="
M434.693 90.6335
L541.501 90.6335
L541.501 81.1895
L434.693 81.1895
z
" style="fill:#0000ff;stroke:#000000;"/>
   </g>
   <g id="patch_25">
    <path clip-path="url(#p5dc8d8dae9)" d="
M434.693 71.7455
L542.259 71.7455
L542.259 62.3015
L434.693 62.3015
z
" style="fill:#0000ff;stroke:#000000;"/>
   </g>
   <g id="patch_26">
    <path clip-path="url(#p5dc8d8dae9)" d="
M434.693 52.8575
L544.647 52.8575
L544.647 43.4135
L434.693 43.4135
z
" style="fill:#0000ff;stroke:#000000;"/>
   </g>
   <g id="patch_27">
    <path clip-path="url(#p5dc8d8dae9)" d="
M434.693 33.9696
L552.245 33.9696
L552.245 24.5256
L434.693 24.5256
z
" style="fill:#0000ff;stroke:#000000;"/>
   </g>
   <g id="LineCollection_2">
    <defs>
     <path d="
M434.56 -42.0216
L434.56 -60.0581" id="C1_0_b8128c1d36"/>
     <path d="
M434.577 -42.0216
L434.577 -60.0581" id="C1_1_134ba56416"/>
     <path d="
M434.588 -42.0216
L434.588 -60.0581" id="C1_2_e836544dc6"/>
     <path d="
M434.6 -42.0216
L434.6 -60.0581" id="C1_3_d35e15ab21"/>
     <path d="
M434.615 -42.0216
L434.615 -60.0581" id="C1_4_54bd1b7a73"/>
     <path d="
M434.648 -42.0216
L434.648 -60.0581" id="C1_5_4c3557331c"/>
     <path d="
M434.663 -42.0216
L434.663 -60.0581" id="C1_6_b6b11ca223"/>
     <path d="
M434.719 -42.0216
L434.719 -60.0581" id="C1_7_170a1e4fcb"/>
     <path d="
M434.773 -42.0216
L434.773 -60.0581" id="C1_8_f13e8dfdda"/>
    </defs>
    <g clip-path="url(#p5dc8d8dae9)">
     <use style="fill:none;stroke:#000000;stroke-linecap:butt;" x="0" xlink:href="#C1_0_b8128c1d36" y="432.0"/>
    </g>
    <g clip-path="url(#p5dc8d8dae9)">
     <use style="fill:none;stroke:#000000;stroke-linecap:butt;" x="0" xlink:href="#C1_1_134ba56416" y="432.0"/>
    </g>
    <g clip-path="url(#p5dc8d8dae9)">
     <use style="fill:none;stroke:#000000;stroke-linecap:butt;" x="0" xlink:href="#C1_2_e836544dc6" y="432.0"/>
    </g>
    <g clip-path="url(#p5dc8d8dae9)">
     <use style="fill:none;stroke:#000000;stroke-linecap:butt;" x="0" xlink:href="#C1_3_d35e15ab21" y="432.0"/>
    </g>
    <g clip-path="url(#p5dc8d8dae9)">
     <use style="fill:none;stroke:#000000;stroke-linecap:butt;" x="0" xlink:href="#C1_4_54bd1b7a73" y="432.0"/>
    </g>
    <g clip-path="url(#p5dc8d8dae9)">
     <use style="fill:none;stroke:#000000;stroke-linecap:butt;" x="0" xlink:href="#C1_5_4c3557331c" y="432.0"/>
    </g>
    <g clip-path="url(#p5dc8d8dae9)">
     <use style="fill:none;stroke:#000000;stroke-linecap:butt;" x="0" xlink:href="#C1_6_b6b11ca223" y="432.0"/>
    </g>
    <g clip-path="url(#p5dc8d8dae9)">
     <use style="fill:none;stroke:#000000;stroke-linecap:butt;" x="0" xlink:href="#C1_7_170a1e4fcb" y="432.0"/>
    </g>
    <g clip-path="url(#p5dc8d8dae9)">
     <use style="fill:none;stroke:#000000;stroke-linecap:butt;" x="0" xlink:href="#C1_8_f13e8dfdda" y="432.0"/>
    </g>
   </g>
   <g id="line2d_28">
    <path clip-path="url(#p5dc8d8dae9)" d="
M434.543 389.947
L434.545 389.945
L434.551 389.934
L434.557 389.962
L434.56 389.962
L434.56 389.961
L434.561 389.951
L434.566 389.951
L434.568 389.923
L434.569 389.923
L434.576 389.916
L434.578 389.915
L434.578 389.915
L434.581 389.894
L434.586 389.891
L434.588 389.889
L434.588 389.889
L434.589 389.889
L434.589 389.889
L434.596 389.879
L434.598 389.879
L434.598 389.879
L434.604 389.882
L434.609 389.897
L434.612 389.915
L434.615 389.915
L434.616 389.913
L434.619 389.922
L434.623 389.923
L434.642 389.924
L434.644 389.924
L434.65 389.924
L434.656 389.926
L434.663 389.927
L434.674 389.927
L434.677 389.927
L434.681 389.927
L434.688 389.927
L434.701 389.927
L434.715 389.932
L434.738 389.933
L434.763 389.934
L434.767 389.934
L434.769 389.934
L434.78 389.934
L434.83 389.916
L434.992 389.89
L435.064 389.89" style="fill:none;stroke:#008000;"/>
   </g>
   <g id="matplotlib.axis_3">
    <g id="xtick_6">
     <g id="line2d_29">
      <g>
       <use style="stroke:#000000;stroke-linecap:butt;stroke-width:0.5;" x="434.693354167" xlink:href="#m0012dd4eef" y="389.9784375"/>
      </g>
     </g>
     <g id="line2d_30">
      <g>
       <use style="stroke:#000000;stroke-linecap:butt;stroke-width:0.5;" x="434.693354167" xlink:href="#m476344969c" y="29.247575"/>
      </g>
     </g>
     <g id="text_16">
      <!-- 0 -->
      <g transform="translate(431.669916667 402.8846875)scale(0.12 -0.12)">
       <use xlink:href="#DejaVuSans-30"/>
      </g>
     </g>
    </g>
    <g id="xtick_7">
     <g id="line2d_31">
      <g>
       <use style="stroke:#000000;stroke-linecap:butt;stroke-width:0.5;" x="458.203583333" xlink:href="#m0012dd4eef" y="389.9784375"/>
      </g>
     </g>
     <g id="line2d_32">
      <g>
       <use style="stroke:#000000;stroke-linecap:butt;stroke-width:0.5;" x="458.203583333" xlink:href="#m476344969c" y="29.247575"/>
      </g>
     </g>
     <g id="text_17">
      <!-- 20 -->
      <g transform="translate(451.406708333 402.8846875)scale(0.12 -0.12)">
       <use xlink:href="#DejaVuSans-32"/>
       <use x="63.623046875" xlink:href="#DejaVuSans-30"/>
      </g>
     </g>
    </g>
    <g id="xtick_8">
     <g id="line2d_33">
      <g>
       <use style="stroke:#000000;stroke-linecap:butt;stroke-width:0.5;" x="481.7138125" xlink:href="#m0012dd4eef" y="389.9784375"/>
      </g>
     </g>
     <g id="line2d_34">
      <g>
       <use style="stroke:#000000;stroke-linecap:butt;stroke-width:0.5;" x="481.7138125" xlink:href="#m476344969c" y="29.247575"/>
      </g>
     </g>
     <g id="text_18">
      <!-- 40 -->
      <g transform="translate(474.7706875 402.8846875)scale(0.12 -0.12)">
       <use xlink:href="#DejaVuSans-34"/>
       <use x="63.623046875" xlink:href="#DejaVuSans-30"/>
      </g>
     </g>
    </g>
    <g id="xtick_9">
     <g id="line2d_35">
      <g>
       <use style="stroke:#000000;stroke-linecap:butt;stroke-width:0.5;" x="505.224041667" xlink:href="#m0012dd4eef" y="389.9784375"/>
      </g>
     </g>
     <g id="line2d_36">
      <g>
       <use style="stroke:#000000;stroke-linecap:butt;stroke-width:0.5;" x="505.224041667" xlink:href="#m476344969c" y="29.247575"/>
      </g>
     </g>
     <g id="text_19">
      <!-- 60 -->
      <defs>
       <path d="
M33.0156 40.375
Q26.375 40.375 22.4844 35.8281
Q18.6094 31.2969 18.6094 23.3906
Q18.6094 15.5312 22.4844 10.9531
Q26.375 6.39062 33.0156 6.39062
Q39.6562 6.39062 43.5312 10.9531
Q47.4062 15.5312 47.4062 23.3906
Q47.4062 31.2969 43.5312 35.8281
Q39.6562 40.375 33.0156 40.375
M52.5938 71.2969
L52.5938 62.3125
Q48.875 64.0625 45.0938 64.9844
Q41.3125 65.9219 37.5938 65.9219
Q27.8281 65.9219 22.6719 59.3281
Q17.5312 52.7344 16.7969 39.4062
Q19.6719 43.6562 24.0156 45.9219
Q28.375 48.1875 33.5938 48.1875
Q44.5781 48.1875 50.9531 41.5156
Q57.3281 34.8594 57.3281 23.3906
Q57.3281 12.1562 50.6875 5.35938
Q44.0469 -1.42188 33.0156 -1.42188
Q20.3594 -1.42188 13.6719 8.26562
Q6.98438 17.9688 6.98438 36.375
Q6.98438 53.6562 15.1875 63.9375
Q23.3906 74.2188 37.2031 74.2188
Q40.9219 74.2188 44.7031 73.4844
Q48.4844 72.75 52.5938 71.2969" id="DejaVuSans-36"/>
      </defs>
      <g transform="translate(498.406541667 402.8846875)scale(0.12 -0.12)">
       <use xlink:href="#DejaVuSans-36"/>
       <use x="63.623046875" xlink:href="#DejaVuSans-30"/>
      </g>
     </g>
    </g>
    <g id="xtick_10">
     <g id="line2d_37">
      <g>
       <use style="stroke:#000000;stroke-linecap:butt;stroke-width:0.5;" x="528.734270833" xlink:href="#m0012dd4eef" y="389.9784375"/>
      </g>
     </g>
     <g id="line2d_38">
      <g>
       <use style="stroke:#000000;stroke-linecap:butt;stroke-width:0.5;" x="528.734270833" xlink:href="#m476344969c" y="29.247575"/>
      </g>
     </g>
     <g id="text_20">
      <!-- 80 -->
      <defs>
       <path d="
M31.7812 34.625
Q24.75 34.625 20.7188 30.8594
Q16.7031 27.0938 16.7031 20.5156
Q16.7031 13.9219 20.7188 10.1562
Q24.75 6.39062 31.7812 6.39062
Q38.8125 6.39062 42.8594 10.1719
Q46.9219 13.9688 46.9219 20.5156
Q46.9219 27.0938 42.8906 30.8594
Q38.875 34.625 31.7812 34.625
M21.9219 38.8125
Q15.5781 40.375 12.0312 44.7188
Q8.5 49.0781 8.5 55.3281
Q8.5 64.0625 14.7188 69.1406
Q20.9531 74.2188 31.7812 74.2188
Q42.6719 74.2188 48.875 69.1406
Q55.0781 64.0625 55.0781 55.3281
Q55.0781 49.0781 51.5312 44.7188
Q48 40.375 41.7031 38.8125
Q48.8281 37.1562 52.7969 32.3125
Q56.7812 27.4844 56.7812 20.5156
Q56.7812 9.90625 50.3125 4.23438
Q43.8438 -1.42188 31.7812 -1.42188
Q19.7344 -1.42188 13.25 4.23438
Q6.78125 9.90625 6.78125 20.5156
Q6.78125 27.4844 10.7812 32.3125
Q14.7969 37.1562 21.9219 38.8125
M18.3125 54.3906
Q18.3125 48.7344 21.8438 45.5625
Q25.3906 42.3906 31.7812 42.3906
Q38.1406 42.3906 41.7188 45.5625
Q45.3125 48.7344 45.3125 54.3906
Q45.3125 60.0625 41.7188 63.2344
Q38.1406 66.4062 31.7812 66.4062
Q25.3906 66.4062 21.8438 63.2344
Q18.3125 60.0625 18.3125 54.3906" id="DejaVuSans-38"/>
      </defs>
      <g transform="translate(521.904583333 402.8846875)scale(0.12 -0.12)">
       <use xlink:href="#DejaVuSans-38"/>
       <use x="63.623046875" xlink:href="#DejaVuSans-30"/>
      </g>
     </g>
    </g>
    <g id="xtick_11">
     <g id="line2d_39">
      <g>
       <use style="stroke:#000000;stroke-linecap:butt;stroke-width:0.5;" x="552.2445" xlink:href="#m0012dd4eef" y="389.9784375"/>
      </g>
     </g>
     <g id="line2d_40">
      <g>
       <use style="stroke:#000000;stroke-linecap:butt;stroke-width:0.5;" x="552.2445" xlink:href="#m476344969c" y="29.247575"/>
      </g>
     </g>
     <g id="text_21">
      <!-- 100 -->
      <g transform="translate(541.8495 402.8846875)scale(0.12 -0.12)">
       <use xlink:href="#DejaVuSans-31"/>
       <use x="63.623046875" xlink:href="#DejaVuSans-30"/>
       <use x="127.24609375" xlink:href="#DejaVuSans-30"/>
      </g>
     </g>
    </g>
    <g id="text_22">
     <!-- Relative Importance -->
     <defs>
      <path d="
M30.6094 48.3906
Q23.3906 48.3906 19.1875 42.75
Q14.9844 37.1094 14.9844 27.2969
Q14.9844 17.4844 19.1562 11.8438
Q23.3438 6.20312 30.6094 6.20312
Q37.7969 6.20312 41.9844 11.8594
Q46.1875 17.5312 46.1875 27.2969
Q46.1875 37.0156 41.9844 42.7031
Q37.7969 48.3906 30.6094 48.3906
M30.6094 56
Q42.3281 56 49.0156 48.375
Q55.7188 40.7656 55.7188 27.2969
Q55.7188 13.875 49.0156 6.21875
Q42.3281 -1.42188 30.6094 -1.42188
Q18.8438 -1.42188 12.1719 6.21875
Q5.51562 13.875 5.51562 27.2969
Q5.51562 40.7656 12.1719 48.375
Q18.8438 56 30.6094 56" id="DejaVuSans-6f"/>
      <path d="
M52 44.1875
Q55.375 50.25 60.0625 53.125
Q64.75 56 71.0938 56
Q79.6406 56 84.2812 50.0156
Q88.9219 44.0469 88.9219 33.0156
L88.9219 0
L79.8906 0
L79.8906 32.7188
Q79.8906 40.5781 77.0938 44.375
Q74.3125 48.1875 68.6094 48.1875
Q61.625 48.1875 57.5625 43.5469
Q53.5156 38.9219 53.5156 30.9062
L53.5156 0
L44.4844 0
L44.4844 32.7188
Q44.4844 40.625 41.7031 44.4062
Q38.9219 48.1875 33.1094 48.1875
Q26.2188 48.1875 22.1562 43.5312
Q18.1094 38.875 18.1094 30.9062
L18.1094 0
L9.07812 0
L9.07812 54.6875
L18.1094 54.6875
L18.1094 46.1875
Q21.1875 51.2188 25.4844 53.6094
Q29.7812 56 35.6875 56
Q41.6562 56 45.8281 52.9688
Q50 49.9531 52 44.1875" id="DejaVuSans-6d"/>
      <path d="
M2.98438 54.6875
L12.5 54.6875
L29.5938 8.79688
L46.6875 54.6875
L56.2031 54.6875
L35.6875 0
L23.4844 0
z
" id="DejaVuSans-76"/>
      <path d="
M9.8125 72.9062
L19.6719 72.9062
L19.6719 0
L9.8125 0
z
" id="DejaVuSans-49"/>
     </defs>
     <g transform="translate(421.546 417.1734375)scale(0.12 -0.12)">
      <use xlink:href="#DejaVuSans-52"/>
      <use x="64.982421875" xlink:href="#DejaVuSans-65"/>
      <use x="126.505859375" xlink:href="#DejaVuSans-6c"/>
      <use x="154.2890625" xlink:href="#DejaVuSans-61"/>
      <use x="215.568359375" xlink:href="#DejaVuSans-74"/>
      <use x="254.77734375" xlink:href="#DejaVuSans-69"/>
      <use x="282.560546875" xlink:href="#DejaVuSans-76"/>
      <use x="341.740234375" xlink:href="#DejaVuSans-65"/>
      <use x="403.263671875" xlink:href="#DejaVuSans-20"/>
      <use x="435.05078125" xlink:href="#DejaVuSans-49"/>
      <use x="464.54296875" xlink:href="#DejaVuSans-6d"/>
      <use x="561.955078125" xlink:href="#DejaVuSans-70"/>
      <use x="625.431640625" xlink:href="#DejaVuSans-6f"/>
      <use x="686.61328125" xlink:href="#DejaVuSans-72"/>
      <use x="727.7265625" xlink:href="#DejaVuSans-74"/>
      <use x="766.935546875" xlink:href="#DejaVuSans-61"/>
      <use x="828.21484375" xlink:href="#DejaVuSans-6e"/>
      <use x="891.59375" xlink:href="#DejaVuSans-63"/>
      <use x="946.57421875" xlink:href="#DejaVuSans-65"/>
     </g>
    </g>
   </g>
   <g id="matplotlib.axis_4">
    <g id="ytick_9">
     <g id="line2d_41">
      <defs>
       <path d="
M0 0
L6 0" id="m05882014de" style="stroke:#000000;stroke-linecap:butt;stroke-width:0.5;"/>
      </defs>
      <g>
       <use style="stroke:#000000;stroke-linecap:butt;stroke-width:0.5;" x="411.183125" xlink:href="#m05882014de" y="388.118884825"/>
      </g>
     </g>
     <g id="line2d_42">
      <defs>
       <path d="
M0 0
L-6 0" id="m8068901f32" style="stroke:#000000;stroke-linecap:butt;stroke-width:0.5;"/>
      </defs>
      <g>
       <use style="stroke:#000000;stroke-linecap:butt;stroke-width:0.5;" x="552.2445" xlink:href="#m8068901f32" y="388.118884825"/>
      </g>
     </g>
     <g id="text_23">
      <!-- TARGETED_ADS_LibCount -->
      <defs>
       <path d="
M9.8125 72.9062
L19.6719 72.9062
L19.6719 8.29688
L55.1719 8.29688
L55.1719 0
L9.8125 0
z
" id="DejaVuSans-4c"/>
       <path d="
M8.5 21.5781
L8.5 54.6875
L17.4844 54.6875
L17.4844 21.9219
Q17.4844 14.1562 20.5 10.2656
Q23.5312 6.39062 29.5938 6.39062
Q36.8594 6.39062 41.0781 11.0312
Q45.3125 15.6719 45.3125 23.6875
L45.3125 54.6875
L54.2969 54.6875
L54.2969 0
L45.3125 0
L45.3125 8.40625
Q42.0469 3.42188 37.7188 1
Q33.4062 -1.42188 27.6875 -1.42188
Q18.2656 -1.42188 13.375 4.4375
Q8.5 10.2969 8.5 21.5781
M31.1094 56
z
" id="DejaVuSans-75"/>
       <path d="
M50.9844 -16.6094
L50.9844 -23.5781
L-0.984375 -23.5781
L-0.984375 -16.6094
z
" id="DejaVuSans-5f"/>
       <path d="
M19.6719 64.7969
L19.6719 8.10938
L31.5938 8.10938
Q46.6875 8.10938 53.6875 14.9375
Q60.6875 21.7812 60.6875 36.5312
Q60.6875 51.1719 53.6875 57.9844
Q46.6875 64.7969 31.5938 64.7969
z

M9.8125 72.9062
L30.0781 72.9062
Q51.2656 72.9062 61.1719 64.0938
Q71.0938 55.2812 71.0938 36.5312
Q71.0938 17.6719 61.125 8.82812
Q51.1719 0 30.0781 0
L9.8125 0
z
" id="DejaVuSans-44"/>
       <path d="
M9.8125 72.9062
L55.9062 72.9062
L55.9062 64.5938
L19.6719 64.5938
L19.6719 43.0156
L54.3906 43.0156
L54.3906 34.7188
L19.6719 34.7188
L19.6719 8.29688
L56.7812 8.29688
L56.7812 0
L9.8125 0
z
" id="DejaVuSans-45"/>
       <path d="
M59.5156 10.4062
L59.5156 29.9844
L43.4062 29.9844
L43.4062 38.0938
L69.2812 38.0938
L69.2812 6.78125
Q63.5781 2.73438 56.6875 0.65625
Q49.8125 -1.42188 42 -1.42188
Q24.9062 -1.42188 15.25 8.5625
Q5.60938 18.5625 5.60938 36.375
Q5.60938 54.25 15.25 64.2344
Q24.9062 74.2188 42 74.2188
Q49.125 74.2188 55.5469 72.4531
Q61.9688 70.7031 67.3906 67.2812
L67.3906 56.7812
Q61.9219 61.4219 55.7656 63.7656
Q49.6094 66.1094 42.8281 66.1094
Q29.4375 66.1094 22.7188 58.6406
Q16.0156 51.1719 16.0156 36.375
Q16.0156 21.625 22.7188 14.1562
Q29.4375 6.6875 42.8281 6.6875
Q48.0469 6.6875 52.1406 7.59375
Q56.25 8.5 59.5156 10.4062" id="DejaVuSans-47"/>
       <path d="
M34.1875 63.1875
L20.7969 26.9062
L47.6094 26.9062
z

M28.6094 72.9062
L39.7969 72.9062
L67.5781 0
L57.3281 0
L50.6875 18.7031
L17.8281 18.7031
L11.1875 0
L0.78125 0
z
" id="DejaVuSans-41"/>
       <path d="
M64.4062 67.2812
L64.4062 56.8906
Q59.4219 61.5312 53.7812 63.8125
Q48.1406 66.1094 41.7969 66.1094
Q29.2969 66.1094 22.6562 58.4688
Q16.0156 50.8281 16.0156 36.375
Q16.0156 21.9688 22.6562 14.3281
Q29.2969 6.6875 41.7969 6.6875
Q48.1406 6.6875 53.7812 8.98438
Q59.4219 11.2812 64.4062 15.9219
L64.4062 5.60938
Q59.2344 2.09375 53.4375 0.328125
Q47.6562 -1.42188 41.2188 -1.42188
Q24.6562 -1.42188 15.125 8.70312
Q5.60938 18.8438 5.60938 36.375
Q5.60938 53.9531 15.125 64.0781
Q24.6562 74.2188 41.2188 74.2188
Q47.75 74.2188 53.5312 72.4844
Q59.3281 70.75 64.4062 67.2812" id="DejaVuSans-43"/>
       <path d="
M53.5156 70.5156
L53.5156 60.8906
Q47.9062 63.5781 42.9219 64.8906
Q37.9375 66.2188 33.2969 66.2188
Q25.25 66.2188 20.875 63.0938
Q16.5 59.9688 16.5 54.2031
Q16.5 49.3594 19.4062 46.8906
Q22.3125 44.4375 30.4219 42.9219
L36.375 41.7031
Q47.4062 39.5938 52.6562 34.2969
Q57.9062 29 57.9062 20.125
Q57.9062 9.51562 50.7969 4.04688
Q43.7031 -1.42188 29.9844 -1.42188
Q24.8125 -1.42188 18.9688 -0.25
Q13.1406 0.921875 6.89062 3.21875
L6.89062 13.375
Q12.8906 10.0156 18.6562 8.29688
Q24.4219 6.59375 29.9844 6.59375
Q38.4219 6.59375 43.0156 9.90625
Q47.6094 13.2344 47.6094 19.3906
Q47.6094 24.75 44.3125 27.7812
Q41.0156 30.8125 33.5 32.3281
L27.4844 33.5
Q16.4531 35.6875 11.5156 40.375
Q6.59375 45.0625 6.59375 53.4219
Q6.59375 63.0938 13.4062 68.6562
Q20.2188 74.2188 32.1719 74.2188
Q37.3125 74.2188 42.625 73.2812
Q47.9531 72.3594 53.5156 70.5156" id="DejaVuSans-53"/>
       <path d="
M48.6875 27.2969
Q48.6875 37.2031 44.6094 42.8438
Q40.5312 48.4844 33.4062 48.4844
Q26.2656 48.4844 22.1875 42.8438
Q18.1094 37.2031 18.1094 27.2969
Q18.1094 17.3906 22.1875 11.75
Q26.2656 6.10938 33.4062 6.10938
Q40.5312 6.10938 44.6094 11.75
Q48.6875 17.3906 48.6875 27.2969
M18.1094 46.3906
Q20.9531 51.2656 25.2656 53.625
Q29.5938 56 35.5938 56
Q45.5625 56 51.7812 48.0938
Q58.0156 40.1875 58.0156 27.2969
Q58.0156 14.4062 51.7812 6.48438
Q45.5625 -1.42188 35.5938 -1.42188
Q29.5938 -1.42188 25.2656 0.953125
Q20.9531 3.32812 18.1094 8.20312
L18.1094 0
L9.07812 0
L9.07812 75.9844
L18.1094 75.9844
z
" id="DejaVuSans-62"/>
       <path d="
M-0.296875 72.9062
L61.375 72.9062
L61.375 64.5938
L35.5 64.5938
L35.5 0
L25.5938 0
L25.5938 64.5938
L-0.296875 64.5938
z
" id="DejaVuSans-54"/>
      </defs>
      <g transform="translate(255.114375 391.263259825)scale(0.12 -0.12)">
       <use xlink:href="#DejaVuSans-54"/>
       <use x="53.333984375" xlink:href="#DejaVuSans-41"/>
       <use x="121.7421875" xlink:href="#DejaVuSans-52"/>
       <use x="191.224609375" xlink:href="#DejaVuSans-47"/>
       <use x="268.71484375" xlink:href="#DejaVuSans-45"/>
       <use x="331.8984375" xlink:href="#DejaVuSans-54"/>
       <use x="392.982421875" xlink:href="#DejaVuSans-45"/>
       <use x="456.166015625" xlink:href="#DejaVuSans-44"/>
       <use x="533.16796875" xlink:href="#DejaVuSans-5f"/>
       <use x="583.16796875" xlink:href="#DejaVuSans-41"/>
       <use x="651.576171875" xlink:href="#DejaVuSans-44"/>
       <use x="728.578125" xlink:href="#DejaVuSans-53"/>
       <use x="792.0546875" xlink:href="#DejaVuSans-5f"/>
       <use x="842.0546875" xlink:href="#DejaVuSans-4c"/>
       <use x="897.767578125" xlink:href="#DejaVuSans-69"/>
       <use x="925.55078125" xlink:href="#DejaVuSans-62"/>
       <use x="989.02734375" xlink:href="#DejaVuSans-43"/>
       <use x="1058.8515625" xlink:href="#DejaVuSans-6f"/>
       <use x="1120.03320312" xlink:href="#DejaVuSans-75"/>
       <use x="1183.41210938" xlink:href="#DejaVuSans-6e"/>
       <use x="1246.79101562" xlink:href="#DejaVuSans-74"/>
      </g>
     </g>
    </g>
    <g id="ytick_10">
     <g id="line2d_43">
      <g>
       <use style="stroke:#000000;stroke-linecap:butt;stroke-width:0.5;" x="411.183125" xlink:href="#m05882014de" y="369.23092115"/>
      </g>
     </g>
     <g id="line2d_44">
      <g>
       <use style="stroke:#000000;stroke-linecap:butt;stroke-width:0.5;" x="552.2445" xlink:href="#m8068901f32" y="369.23092115"/>
      </g>
     </g>
     <g id="text_24">
      <!-- imageNumber -->
      <defs>
       <path d="
M9.8125 72.9062
L23.0938 72.9062
L55.4219 11.9219
L55.4219 72.9062
L64.9844 72.9062
L64.9844 0
L51.7031 0
L19.3906 60.9844
L19.3906 0
L9.8125 0
z
" id="DejaVuSans-4e"/>
      </defs>
      <g transform="translate(324.729375 372.54217115)scale(0.12 -0.12)">
       <use xlink:href="#DejaVuSans-69"/>
       <use x="27.783203125" xlink:href="#DejaVuSans-6d"/>
       <use x="125.1953125" xlink:href="#DejaVuSans-61"/>
       <use x="186.474609375" xlink:href="#DejaVuSans-67"/>
       <use x="249.951171875" xlink:href="#DejaVuSans-65"/>
       <use x="311.474609375" xlink:href="#DejaVuSans-4e"/>
       <use x="386.279296875" xlink:href="#DejaVuSans-75"/>
       <use x="449.658203125" xlink:href="#DejaVuSans-6d"/>
       <use x="547.0703125" xlink:href="#DejaVuSans-62"/>
       <use x="610.546875" xlink:href="#DejaVuSans-65"/>
       <use x="672.0703125" xlink:href="#DejaVuSans-72"/>
      </g>
     </g>
    </g>
    <g id="ytick_11">
     <g id="line2d_45">
      <g>
       <use style="stroke:#000000;stroke-linecap:butt;stroke-width:0.5;" x="411.183125" xlink:href="#m05882014de" y="350.342957475"/>
      </g>
     </g>
     <g id="line2d_46">
      <g>
       <use style="stroke:#000000;stroke-linecap:butt;stroke-width:0.5;" x="552.2445" xlink:href="#m8068901f32" y="350.342957475"/>
      </g>
     </g>
     <g id="text_25">
      <!-- permissionCount -->
      <g transform="translate(309.391875 353.654207475)scale(0.12 -0.12)">
       <use xlink:href="#DejaVuSans-70"/>
       <use x="63.4765625" xlink:href="#DejaVuSans-65"/>
       <use x="125.0" xlink:href="#DejaVuSans-72"/>
       <use x="164.36328125" xlink:href="#DejaVuSans-6d"/>
       <use x="261.775390625" xlink:href="#DejaVuSans-69"/>
       <use x="289.55859375" xlink:href="#DejaVuSans-73"/>
       <use x="341.658203125" xlink:href="#DejaVuSans-73"/>
       <use x="393.7578125" xlink:href="#DejaVuSans-69"/>
       <use x="421.541015625" xlink:href="#DejaVuSans-6f"/>
       <use x="482.72265625" xlink:href="#DejaVuSans-6e"/>
       <use x="546.1015625" xlink:href="#DejaVuSans-43"/>
       <use x="615.92578125" xlink:href="#DejaVuSans-6f"/>
       <use x="677.107421875" xlink:href="#DejaVuSans-75"/>
       <use x="740.486328125" xlink:href="#DejaVuSans-6e"/>
       <use x="803.865234375" xlink:href="#DejaVuSans-74"/>
      </g>
     </g>
    </g>
    <g id="ytick_12">
     <g id="line2d_47">
      <g>
       <use style="stroke:#000000;stroke-linecap:butt;stroke-width:0.5;" x="411.183125" xlink:href="#m05882014de" y="331.4549938"/>
      </g>
     </g>
     <g id="line2d_48">
      <g>
       <use style="stroke:#000000;stroke-linecap:butt;stroke-width:0.5;" x="552.2445" xlink:href="#m8068901f32" y="331.4549938"/>
      </g>
     </g>
     <g id="text_26">
      <!-- audioCount -->
      <g transform="translate(341.300625 335.9287438)scale(0.12 -0.12)">
       <use xlink:href="#DejaVuSans-61"/>
       <use x="61.279296875" xlink:href="#DejaVuSans-75"/>
       <use x="124.658203125" xlink:href="#DejaVuSans-64"/>
       <use x="188.134765625" xlink:href="#DejaVuSans-69"/>
       <use x="215.91796875" xlink:href="#DejaVuSans-6f"/>
       <use x="277.099609375" xlink:href="#DejaVuSans-43"/>
       <use x="346.923828125" xlink:href="#DejaVuSans-6f"/>
       <use x="408.10546875" xlink:href="#DejaVuSans-75"/>
       <use x="471.484375" xlink:href="#DejaVuSans-6e"/>
       <use x="534.86328125" xlink:href="#DejaVuSans-74"/>
      </g>
     </g>
    </g>
    <g id="ytick_13">
     <g id="line2d_49">
      <g>
       <use style="stroke:#000000;stroke-linecap:butt;stroke-width:0.5;" x="411.183125" xlink:href="#m05882014de" y="312.567030125"/>
      </g>
     </g>
     <g id="line2d_50">
      <g>
       <use style="stroke:#000000;stroke-linecap:butt;stroke-width:0.5;" x="552.2445" xlink:href="#m8068901f32" y="312.567030125"/>
      </g>
     </g>
     <g id="text_27">
      <!-- libCount -->
      <g transform="translate(360.67875 317.040780125)scale(0.12 -0.12)">
       <use xlink:href="#DejaVuSans-6c"/>
       <use x="27.783203125" xlink:href="#DejaVuSans-69"/>
       <use x="55.56640625" xlink:href="#DejaVuSans-62"/>
       <use x="119.04296875" xlink:href="#DejaVuSans-43"/>
       <use x="188.8671875" xlink:href="#DejaVuSans-6f"/>
       <use x="250.048828125" xlink:href="#DejaVuSans-75"/>
       <use x="313.427734375" xlink:href="#DejaVuSans-6e"/>
       <use x="376.806640625" xlink:href="#DejaVuSans-74"/>
      </g>
     </g>
    </g>
    <g id="ytick_14">
     <g id="line2d_51">
      <g>
       <use style="stroke:#000000;stroke-linecap:butt;stroke-width:0.5;" x="411.183125" xlink:href="#m05882014de" y="293.67906645"/>
      </g>
     </g>
     <g id="line2d_52">
      <g>
       <use style="stroke:#000000;stroke-linecap:butt;stroke-width:0.5;" x="552.2445" xlink:href="#m8068901f32" y="293.67906645"/>
      </g>
     </g>
     <g id="text_28">
      <!-- activityCount -->
      <defs>
       <path d="
M32.1719 -5.07812
Q28.375 -14.8438 24.75 -17.8125
Q21.1406 -20.7969 15.0938 -20.7969
L7.90625 -20.7969
L7.90625 -13.2812
L13.1875 -13.2812
Q16.8906 -13.2812 18.9375 -11.5156
Q21 -9.76562 23.4844 -3.21875
L25.0938 0.875
L2.98438 54.6875
L12.5 54.6875
L29.5938 11.9219
L46.6875 54.6875
L56.2031 54.6875
z
" id="DejaVuSans-79"/>
      </defs>
      <g transform="translate(330.320625 296.99031645)scale(0.12 -0.12)">
       <use xlink:href="#DejaVuSans-61"/>
       <use x="61.279296875" xlink:href="#DejaVuSans-63"/>
       <use x="116.259765625" xlink:href="#DejaVuSans-74"/>
       <use x="155.46875" xlink:href="#DejaVuSans-69"/>
       <use x="183.251953125" xlink:href="#DejaVuSans-76"/>
       <use x="242.431640625" xlink:href="#DejaVuSans-69"/>
       <use x="270.21484375" xlink:href="#DejaVuSans-74"/>
       <use x="309.423828125" xlink:href="#DejaVuSans-79"/>
       <use x="368.603515625" xlink:href="#DejaVuSans-43"/>
       <use x="438.427734375" xlink:href="#DejaVuSans-6f"/>
       <use x="499.609375" xlink:href="#DejaVuSans-75"/>
       <use x="562.98828125" xlink:href="#DejaVuSans-6e"/>
       <use x="626.3671875" xlink:href="#DejaVuSans-74"/>
      </g>
     </g>
    </g>
    <g id="ytick_15">
     <g id="line2d_53">
      <g>
       <use style="stroke:#000000;stroke-linecap:butt;stroke-width:0.5;" x="411.183125" xlink:href="#m05882014de" y="274.791102775"/>
      </g>
     </g>
     <g id="line2d_54">
      <g>
       <use style="stroke:#000000;stroke-linecap:butt;stroke-width:0.5;" x="552.2445" xlink:href="#m8068901f32" y="274.791102775"/>
      </g>
     </g>
     <g id="text_29">
      <!-- linkUrlCount -->
      <defs>
       <path d="
M9.07812 75.9844
L18.1094 75.9844
L18.1094 31.1094
L44.9219 54.6875
L56.3906 54.6875
L27.3906 29.1094
L57.625 0
L45.9062 0
L18.1094 26.7031
L18.1094 0
L9.07812 0
z
" id="DejaVuSans-6b"/>
       <path d="
M8.6875 72.9062
L18.6094 72.9062
L18.6094 28.6094
Q18.6094 16.8906 22.8438 11.7344
Q27.0938 6.59375 36.625 6.59375
Q46.0938 6.59375 50.3438 11.7344
Q54.5938 16.8906 54.5938 28.6094
L54.5938 72.9062
L64.5 72.9062
L64.5 27.3906
Q64.5 13.1406 57.4375 5.85938
Q50.3906 -1.42188 36.625 -1.42188
Q22.7969 -1.42188 15.7344 5.85938
Q8.6875 13.1406 8.6875 27.3906
z
" id="DejaVuSans-55"/>
      </defs>
      <g transform="translate(336.69375 279.264852775)scale(0.12 -0.12)">
       <use xlink:href="#DejaVuSans-6c"/>
       <use x="27.783203125" xlink:href="#DejaVuSans-69"/>
       <use x="55.56640625" xlink:href="#DejaVuSans-6e"/>
       <use x="118.9453125" xlink:href="#DejaVuSans-6b"/>
       <use x="176.85546875" xlink:href="#DejaVuSans-55"/>
       <use x="250.048828125" xlink:href="#DejaVuSans-72"/>
       <use x="291.162109375" xlink:href="#DejaVuSans-6c"/>
       <use x="318.9453125" xlink:href="#DejaVuSans-43"/>
       <use x="388.76953125" xlink:href="#DejaVuSans-6f"/>
       <use x="449.951171875" xlink:href="#DejaVuSans-75"/>
       <use x="513.330078125" xlink:href="#DejaVuSans-6e"/>
       <use x="576.708984375" xlink:href="#DejaVuSans-74"/>
      </g>
     </g>
    </g>
    <g id="ytick_16">
     <g id="line2d_55">
      <g>
       <use style="stroke:#000000;stroke-linecap:butt;stroke-width:0.5;" x="411.183125" xlink:href="#m05882014de" y="255.9031391"/>
      </g>
     </g>
     <g id="line2d_56">
      <g>
       <use style="stroke:#000000;stroke-linecap:butt;stroke-width:0.5;" x="552.2445" xlink:href="#m8068901f32" y="255.9031391"/>
      </g>
     </g>
     <g id="text_30">
      <!-- layoutXMLCount -->
      <defs>
       <path d="
M9.8125 72.9062
L24.5156 72.9062
L43.1094 23.2969
L61.8125 72.9062
L76.5156 72.9062
L76.5156 0
L66.8906 0
L66.8906 64.0156
L48.0938 14.0156
L38.1875 14.0156
L19.3906 64.0156
L19.3906 0
L9.8125 0
z
" id="DejaVuSans-4d"/>
       <path d="
M6.29688 72.9062
L16.8906 72.9062
L35.0156 45.7969
L53.2188 72.9062
L63.8125 72.9062
L40.375 37.8906
L65.375 0
L54.7812 0
L34.2812 31
L13.625 0
L2.98438 0
L29 38.9219
z
" id="DejaVuSans-58"/>
      </defs>
      <g transform="translate(312.2625 259.2143891)scale(0.12 -0.12)">
       <use xlink:href="#DejaVuSans-6c"/>
       <use x="27.783203125" xlink:href="#DejaVuSans-61"/>
       <use x="89.0625" xlink:href="#DejaVuSans-79"/>
       <use x="148.2421875" xlink:href="#DejaVuSans-6f"/>
       <use x="209.423828125" xlink:href="#DejaVuSans-75"/>
       <use x="272.802734375" xlink:href="#DejaVuSans-74"/>
       <use x="312.01171875" xlink:href="#DejaVuSans-58"/>
       <use x="380.517578125" xlink:href="#DejaVuSans-4d"/>
       <use x="466.796875" xlink:href="#DejaVuSans-4c"/>
       <use x="522.509765625" xlink:href="#DejaVuSans-43"/>
       <use x="592.333984375" xlink:href="#DejaVuSans-6f"/>
       <use x="653.515625" xlink:href="#DejaVuSans-75"/>
       <use x="716.89453125" xlink:href="#DejaVuSans-6e"/>
       <use x="780.2734375" xlink:href="#DejaVuSans-74"/>
      </g>
     </g>
    </g>
    <g id="ytick_17">
     <g id="line2d_57">
      <g>
       <use style="stroke:#000000;stroke-linecap:butt;stroke-width:0.5;" x="411.183125" xlink:href="#m05882014de" y="237.015175425"/>
      </g>
     </g>
     <g id="line2d_58">
      <g>
       <use style="stroke:#000000;stroke-linecap:butt;stroke-width:0.5;" x="552.2445" xlink:href="#m8068901f32" y="237.015175425"/>
      </g>
     </g>
     <g id="text_31">
      <!-- pairPopularityByCategory -->
      <defs>
       <path d="
M19.6719 34.8125
L19.6719 8.10938
L35.5 8.10938
Q43.4531 8.10938 47.2812 11.4062
Q51.125 14.7031 51.125 21.4844
Q51.125 28.3281 47.2812 31.5625
Q43.4531 34.8125 35.5 34.8125
z

M19.6719 64.7969
L19.6719 42.8281
L34.2812 42.8281
Q41.5 42.8281 45.0312 45.5312
Q48.5781 48.25 48.5781 53.8125
Q48.5781 59.3281 45.0312 62.0625
Q41.5 64.7969 34.2812 64.7969
z

M9.8125 72.9062
L35.0156 72.9062
Q46.2969 72.9062 52.3906 68.2188
Q58.5 63.5312 58.5 54.8906
Q58.5 48.1875 55.375 44.2344
Q52.25 40.2812 46.1875 39.3125
Q53.4688 37.75 57.5 32.7812
Q61.5312 27.8281 61.5312 20.4062
Q61.5312 10.6406 54.8906 5.3125
Q48.25 0 35.9844 0
L9.8125 0
z
" id="DejaVuSans-42"/>
      </defs>
      <g transform="translate(257.11125 240.326425425)scale(0.12 -0.12)">
       <use xlink:href="#DejaVuSans-70"/>
       <use x="63.4765625" xlink:href="#DejaVuSans-61"/>
       <use x="124.755859375" xlink:href="#DejaVuSans-69"/>
       <use x="152.5390625" xlink:href="#DejaVuSans-72"/>
       <use x="193.65234375" xlink:href="#DejaVuSans-50"/>
       <use x="250.330078125" xlink:href="#DejaVuSans-6f"/>
       <use x="311.51171875" xlink:href="#DejaVuSans-70"/>
       <use x="374.98828125" xlink:href="#DejaVuSans-75"/>
       <use x="438.3671875" xlink:href="#DejaVuSans-6c"/>
       <use x="466.150390625" xlink:href="#DejaVuSans-61"/>
       <use x="527.4296875" xlink:href="#DejaVuSans-72"/>
       <use x="568.54296875" xlink:href="#DejaVuSans-69"/>
       <use x="596.326171875" xlink:href="#DejaVuSans-74"/>
       <use x="635.53515625" xlink:href="#DejaVuSans-79"/>
       <use x="694.71484375" xlink:href="#DejaVuSans-42"/>
       <use x="763.318359375" xlink:href="#DejaVuSans-79"/>
       <use x="822.498046875" xlink:href="#DejaVuSans-43"/>
       <use x="892.322265625" xlink:href="#DejaVuSans-61"/>
       <use x="953.6015625" xlink:href="#DejaVuSans-74"/>
       <use x="992.810546875" xlink:href="#DejaVuSans-65"/>
       <use x="1054.33398438" xlink:href="#DejaVuSans-67"/>
       <use x="1117.81054688" xlink:href="#DejaVuSans-6f"/>
       <use x="1178.9921875" xlink:href="#DejaVuSans-72"/>
       <use x="1220.10546875" xlink:href="#DejaVuSans-79"/>
      </g>
     </g>
    </g>
    <g id="ytick_18">
     <g id="line2d_59">
      <g>
       <use style="stroke:#000000;stroke-linecap:butt;stroke-width:0.5;" x="411.183125" xlink:href="#m05882014de" y="218.12721175"/>
      </g>
     </g>
     <g id="line2d_60">
      <g>
       <use style="stroke:#000000;stroke-linecap:butt;stroke-width:0.5;" x="552.2445" xlink:href="#m8068901f32" y="218.12721175"/>
      </g>
     </g>
     <g id="text_32">
      <!-- permissionPopularityByCategory -->
      <g transform="translate(214.81875 221.43846175)scale(0.12 -0.12)">
       <use xlink:href="#DejaVuSans-70"/>
       <use x="63.4765625" xlink:href="#DejaVuSans-65"/>
       <use x="125.0" xlink:href="#DejaVuSans-72"/>
       <use x="164.36328125" xlink:href="#DejaVuSans-6d"/>
       <use x="261.775390625" xlink:href="#DejaVuSans-69"/>
       <use x="289.55859375" xlink:href="#DejaVuSans-73"/>
       <use x="341.658203125" xlink:href="#DejaVuSans-73"/>
       <use x="393.7578125" xlink:href="#DejaVuSans-69"/>
       <use x="421.541015625" xlink:href="#DejaVuSans-6f"/>
       <use x="482.72265625" xlink:href="#DejaVuSans-6e"/>
       <use x="546.1015625" xlink:href="#DejaVuSans-50"/>
       <use x="602.779296875" xlink:href="#DejaVuSans-6f"/>
       <use x="663.9609375" xlink:href="#DejaVuSans-70"/>
       <use x="727.4375" xlink:href="#DejaVuSans-75"/>
       <use x="790.81640625" xlink:href="#DejaVuSans-6c"/>
       <use x="818.599609375" xlink:href="#DejaVuSans-61"/>
       <use x="879.87890625" xlink:href="#DejaVuSans-72"/>
       <use x="920.9921875" xlink:href="#DejaVuSans-69"/>
       <use x="948.775390625" xlink:href="#DejaVuSans-74"/>
       <use x="987.984375" xlink:href="#DejaVuSans-79"/>
       <use x="1047.1640625" xlink:href="#DejaVuSans-42"/>
       <use x="1115.76757812" xlink:href="#DejaVuSans-79"/>
       <use x="1174.94726562" xlink:href="#DejaVuSans-43"/>
       <use x="1244.77148438" xlink:href="#DejaVuSans-61"/>
       <use x="1306.05078125" xlink:href="#DejaVuSans-74"/>
       <use x="1345.25976562" xlink:href="#DejaVuSans-65"/>
       <use x="1406.78320312" xlink:href="#DejaVuSans-67"/>
       <use x="1470.25976562" xlink:href="#DejaVuSans-6f"/>
       <use x="1531.44140625" xlink:href="#DejaVuSans-72"/>
       <use x="1572.5546875" xlink:href="#DejaVuSans-79"/>
      </g>
     </g>
    </g>
    <g id="ytick_19">
     <g id="line2d_61">
      <g>
       <use style="stroke:#000000;stroke-linecap:butt;stroke-width:0.5;" x="411.183125" xlink:href="#m05882014de" y="199.239248075"/>
      </g>
     </g>
     <g id="line2d_62">
      <g>
       <use style="stroke:#000000;stroke-linecap:butt;stroke-width:0.5;" x="552.2445" xlink:href="#m8068901f32" y="199.239248075"/>
      </g>
     </g>
     <g id="text_33">
      <!-- oneStarRatings -->
      <g transform="translate(318.555 202.550498075)scale(0.12 -0.12)">
       <use xlink:href="#DejaVuSans-6f"/>
       <use x="61.181640625" xlink:href="#DejaVuSans-6e"/>
       <use x="124.560546875" xlink:href="#DejaVuSans-65"/>
       <use x="186.083984375" xlink:href="#DejaVuSans-53"/>
       <use x="249.560546875" xlink:href="#DejaVuSans-74"/>
       <use x="288.76953125" xlink:href="#DejaVuSans-61"/>
       <use x="350.048828125" xlink:href="#DejaVuSans-72"/>
       <use x="391.162109375" xlink:href="#DejaVuSans-52"/>
       <use x="458.39453125" xlink:href="#DejaVuSans-61"/>
       <use x="519.673828125" xlink:href="#DejaVuSans-74"/>
       <use x="558.8828125" xlink:href="#DejaVuSans-69"/>
       <use x="586.666015625" xlink:href="#DejaVuSans-6e"/>
       <use x="650.044921875" xlink:href="#DejaVuSans-67"/>
       <use x="713.521484375" xlink:href="#DejaVuSans-73"/>
      </g>
     </g>
    </g>
    <g id="ytick_20">
     <g id="line2d_63">
      <g>
       <use style="stroke:#000000;stroke-linecap:butt;stroke-width:0.5;" x="411.183125" xlink:href="#m05882014de" y="180.3512844"/>
      </g>
     </g>
     <g id="line2d_64">
      <g>
       <use style="stroke:#000000;stroke-linecap:butt;stroke-width:0.5;" x="552.2445" xlink:href="#m8068901f32" y="180.3512844"/>
      </g>
     </g>
     <g id="text_34">
      <!-- installationSize -->
      <defs>
       <path d="
M5.51562 54.6875
L48.1875 54.6875
L48.1875 46.4844
L14.4062 7.17188
L48.1875 7.17188
L48.1875 0
L4.29688 0
L4.29688 8.20312
L38.0938 47.5156
L5.51562 47.5156
z
" id="DejaVuSans-7a"/>
      </defs>
      <g transform="translate(320.064375 184.8250344)scale(0.12 -0.12)">
       <use xlink:href="#DejaVuSans-69"/>
       <use x="27.783203125" xlink:href="#DejaVuSans-6e"/>
       <use x="91.162109375" xlink:href="#DejaVuSans-73"/>
       <use x="143.26171875" xlink:href="#DejaVuSans-74"/>
       <use x="182.470703125" xlink:href="#DejaVuSans-61"/>
       <use x="243.75" xlink:href="#DejaVuSans-6c"/>
       <use x="271.533203125" xlink:href="#DejaVuSans-6c"/>
       <use x="299.31640625" xlink:href="#DejaVuSans-61"/>
       <use x="360.595703125" xlink:href="#DejaVuSans-74"/>
       <use x="399.8046875" xlink:href="#DejaVuSans-69"/>
       <use x="427.587890625" xlink:href="#DejaVuSans-6f"/>
       <use x="488.76953125" xlink:href="#DejaVuSans-6e"/>
       <use x="552.1484375" xlink:href="#DejaVuSans-53"/>
       <use x="615.625" xlink:href="#DejaVuSans-69"/>
       <use x="643.408203125" xlink:href="#DejaVuSans-7a"/>
       <use x="695.8984375" xlink:href="#DejaVuSans-65"/>
      </g>
     </g>
    </g>
    <g id="ytick_21">
     <g id="line2d_65">
      <g>
       <use style="stroke:#000000;stroke-linecap:butt;stroke-width:0.5;" x="411.183125" xlink:href="#m05882014de" y="161.463320725"/>
      </g>
     </g>
     <g id="line2d_66">
      <g>
       <use style="stroke:#000000;stroke-linecap:butt;stroke-width:0.5;" x="552.2445" xlink:href="#m8068901f32" y="161.463320725"/>
      </g>
     </g>
     <g id="text_35">
      <!-- threeStarRatings -->
      <defs>
       <path d="
M54.8906 33.0156
L54.8906 0
L45.9062 0
L45.9062 32.7188
Q45.9062 40.4844 42.875 44.3281
Q39.8438 48.1875 33.7969 48.1875
Q26.5156 48.1875 22.3125 43.5469
Q18.1094 38.9219 18.1094 30.9062
L18.1094 0
L9.07812 0
L9.07812 75.9844
L18.1094 75.9844
L18.1094 46.1875
Q21.3438 51.125 25.7031 53.5625
Q30.0781 56 35.7969 56
Q45.2188 56 50.0469 50.1719
Q54.8906 44.3438 54.8906 33.0156" id="DejaVuSans-68"/>
      </defs>
      <g transform="translate(308.806875 164.774570725)scale(0.12 -0.12)">
       <use xlink:href="#DejaVuSans-74"/>
       <use x="39.208984375" xlink:href="#DejaVuSans-68"/>
       <use x="102.587890625" xlink:href="#DejaVuSans-72"/>
       <use x="141.451171875" xlink:href="#DejaVuSans-65"/>
       <use x="202.974609375" xlink:href="#DejaVuSans-65"/>
       <use x="264.498046875" xlink:href="#DejaVuSans-53"/>
       <use x="327.974609375" xlink:href="#DejaVuSans-74"/>
       <use x="367.18359375" xlink:href="#DejaVuSans-61"/>
       <use x="428.462890625" xlink:href="#DejaVuSans-72"/>
       <use x="469.576171875" xlink:href="#DejaVuSans-52"/>
       <use x="536.80859375" xlink:href="#DejaVuSans-61"/>
       <use x="598.087890625" xlink:href="#DejaVuSans-74"/>
       <use x="637.296875" xlink:href="#DejaVuSans-69"/>
       <use x="665.080078125" xlink:href="#DejaVuSans-6e"/>
       <use x="728.458984375" xlink:href="#DejaVuSans-67"/>
       <use x="791.935546875" xlink:href="#DejaVuSans-73"/>
      </g>
     </g>
    </g>
    <g id="ytick_22">
     <g id="line2d_67">
      <g>
       <use style="stroke:#000000;stroke-linecap:butt;stroke-width:0.5;" x="411.183125" xlink:href="#m05882014de" y="142.57535705"/>
      </g>
     </g>
     <g id="line2d_68">
      <g>
       <use style="stroke:#000000;stroke-linecap:butt;stroke-width:0.5;" x="552.2445" xlink:href="#m8068901f32" y="142.57535705"/>
      </g>
     </g>
     <g id="text_36">
      <!-- fiveStarRatings -->
      <defs>
       <path d="
M37.1094 75.9844
L37.1094 68.5
L28.5156 68.5
Q23.6875 68.5 21.7969 66.5469
Q19.9219 64.5938 19.9219 59.5156
L19.9219 54.6875
L34.7188 54.6875
L34.7188 47.7031
L19.9219 47.7031
L19.9219 0
L10.8906 0
L10.8906 47.7031
L2.29688 47.7031
L2.29688 54.6875
L10.8906 54.6875
L10.8906 58.5
Q10.8906 67.625 15.1406 71.7969
Q19.3906 75.9844 28.6094 75.9844
z
" id="DejaVuSans-66"/>
      </defs>
      <g transform="translate(318.455625 145.88660705)scale(0.12 -0.12)">
       <use xlink:href="#DejaVuSans-66"/>
       <use x="35.205078125" xlink:href="#DejaVuSans-69"/>
       <use x="62.98828125" xlink:href="#DejaVuSans-76"/>
       <use x="122.16796875" xlink:href="#DejaVuSans-65"/>
       <use x="183.69140625" xlink:href="#DejaVuSans-53"/>
       <use x="247.16796875" xlink:href="#DejaVuSans-74"/>
       <use x="286.376953125" xlink:href="#DejaVuSans-61"/>
       <use x="347.65625" xlink:href="#DejaVuSans-72"/>
       <use x="388.76953125" xlink:href="#DejaVuSans-52"/>
       <use x="456.001953125" xlink:href="#DejaVuSans-61"/>
       <use x="517.28125" xlink:href="#DejaVuSans-74"/>
       <use x="556.490234375" xlink:href="#DejaVuSans-69"/>
       <use x="584.2734375" xlink:href="#DejaVuSans-6e"/>
       <use x="647.65234375" xlink:href="#DejaVuSans-67"/>
       <use x="711.12890625" xlink:href="#DejaVuSans-73"/>
      </g>
     </g>
    </g>
    <g id="ytick_23">
     <g id="line2d_69">
      <g>
       <use style="stroke:#000000;stroke-linecap:butt;stroke-width:0.5;" x="411.183125" xlink:href="#m05882014de" y="123.687393375"/>
      </g>
     </g>
     <g id="line2d_70">
      <g>
       <use style="stroke:#000000;stroke-linecap:butt;stroke-width:0.5;" x="552.2445" xlink:href="#m8068901f32" y="123.687393375"/>
      </g>
     </g>
     <g id="text_37">
      <!-- commentCount -->
      <g transform="translate(317.484375 128.055205875)scale(0.12 -0.12)">
       <use xlink:href="#DejaVuSans-63"/>
       <use x="54.98046875" xlink:href="#DejaVuSans-6f"/>
       <use x="116.162109375" xlink:href="#DejaVuSans-6d"/>
       <use x="213.57421875" xlink:href="#DejaVuSans-6d"/>
       <use x="310.986328125" xlink:href="#DejaVuSans-65"/>
       <use x="372.509765625" xlink:href="#DejaVuSans-6e"/>
       <use x="435.888671875" xlink:href="#DejaVuSans-74"/>
       <use x="475.09765625" xlink:href="#DejaVuSans-43"/>
       <use x="544.921875" xlink:href="#DejaVuSans-6f"/>
       <use x="606.103515625" xlink:href="#DejaVuSans-75"/>
       <use x="669.482421875" xlink:href="#DejaVuSans-6e"/>
       <use x="732.861328125" xlink:href="#DejaVuSans-74"/>
      </g>
     </g>
    </g>
    <g id="ytick_24">
     <g id="line2d_71">
      <g>
       <use style="stroke:#000000;stroke-linecap:butt;stroke-width:0.5;" x="411.183125" xlink:href="#m05882014de" y="104.7994297"/>
      </g>
     </g>
     <g id="line2d_72">
      <g>
       <use style="stroke:#000000;stroke-linecap:butt;stroke-width:0.5;" x="552.2445" xlink:href="#m8068901f32" y="104.7994297"/>
      </g>
     </g>
     <g id="text_38">
      <!-- fourStarRatings -->
      <g transform="translate(316.395 108.1106797)scale(0.12 -0.12)">
       <use xlink:href="#DejaVuSans-66"/>
       <use x="35.205078125" xlink:href="#DejaVuSans-6f"/>
       <use x="96.38671875" xlink:href="#DejaVuSans-75"/>
       <use x="159.765625" xlink:href="#DejaVuSans-72"/>
       <use x="200.87890625" xlink:href="#DejaVuSans-53"/>
       <use x="264.35546875" xlink:href="#DejaVuSans-74"/>
       <use x="303.564453125" xlink:href="#DejaVuSans-61"/>
       <use x="364.84375" xlink:href="#DejaVuSans-72"/>
       <use x="405.95703125" xlink:href="#DejaVuSans-52"/>
       <use x="473.189453125" xlink:href="#DejaVuSans-61"/>
       <use x="534.46875" xlink:href="#DejaVuSans-74"/>
       <use x="573.677734375" xlink:href="#DejaVuSans-69"/>
       <use x="601.4609375" xlink:href="#DejaVuSans-6e"/>
       <use x="664.83984375" xlink:href="#DejaVuSans-67"/>
       <use x="728.31640625" xlink:href="#DejaVuSans-73"/>
      </g>
     </g>
    </g>
    <g id="ytick_25">
     <g id="line2d_73">
      <g>
       <use style="stroke:#000000;stroke-linecap:butt;stroke-width:0.5;" x="411.183125" xlink:href="#m05882014de" y="85.911466025"/>
      </g>
     </g>
     <g id="line2d_74">
      <g>
       <use style="stroke:#000000;stroke-linecap:butt;stroke-width:0.5;" x="552.2445" xlink:href="#m8068901f32" y="85.911466025"/>
      </g>
     </g>
     <g id="text_39">
      <!-- twoStarRatings -->
      <defs>
       <path d="
M4.20312 54.6875
L13.1875 54.6875
L24.4219 12.0156
L35.5938 54.6875
L46.1875 54.6875
L57.4219 12.0156
L68.6094 54.6875
L77.5938 54.6875
L63.2812 0
L52.6875 0
L40.9219 44.8281
L29.1094 0
L18.5 0
z
" id="DejaVuSans-77"/>
      </defs>
      <g transform="translate(318.68625 89.222716025)scale(0.12 -0.12)">
       <use xlink:href="#DejaVuSans-74"/>
       <use x="39.208984375" xlink:href="#DejaVuSans-77"/>
       <use x="120.99609375" xlink:href="#DejaVuSans-6f"/>
       <use x="182.177734375" xlink:href="#DejaVuSans-53"/>
       <use x="245.654296875" xlink:href="#DejaVuSans-74"/>
       <use x="284.86328125" xlink:href="#DejaVuSans-61"/>
       <use x="346.142578125" xlink:href="#DejaVuSans-72"/>
       <use x="387.255859375" xlink:href="#DejaVuSans-52"/>
       <use x="454.48828125" xlink:href="#DejaVuSans-61"/>
       <use x="515.767578125" xlink:href="#DejaVuSans-74"/>
       <use x="554.9765625" xlink:href="#DejaVuSans-69"/>
       <use x="582.759765625" xlink:href="#DejaVuSans-6e"/>
       <use x="646.138671875" xlink:href="#DejaVuSans-67"/>
       <use x="709.615234375" xlink:href="#DejaVuSans-73"/>
      </g>
     </g>
    </g>
    <g id="ytick_26">
     <g id="line2d_75">
      <g>
       <use style="stroke:#000000;stroke-linecap:butt;stroke-width:0.5;" x="411.183125" xlink:href="#m05882014de" y="67.02350235"/>
      </g>
     </g>
     <g id="line2d_76">
      <g>
       <use style="stroke:#000000;stroke-linecap:butt;stroke-width:0.5;" x="552.2445" xlink:href="#m8068901f32" y="67.02350235"/>
      </g>
     </g>
     <g id="text_40">
      <!-- descriptionHtml -->
      <defs>
       <path d="
M9.8125 72.9062
L19.6719 72.9062
L19.6719 43.0156
L55.5156 43.0156
L55.5156 72.9062
L65.375 72.9062
L65.375 0
L55.5156 0
L55.5156 34.7188
L19.6719 34.7188
L19.6719 0
L9.8125 0
z
" id="DejaVuSans-48"/>
      </defs>
      <g transform="translate(315.496875 70.33475235)scale(0.12 -0.12)">
       <use xlink:href="#DejaVuSans-64"/>
       <use x="63.4765625" xlink:href="#DejaVuSans-65"/>
       <use x="125.0" xlink:href="#DejaVuSans-73"/>
       <use x="177.099609375" xlink:href="#DejaVuSans-63"/>
       <use x="232.080078125" xlink:href="#DejaVuSans-72"/>
       <use x="273.193359375" xlink:href="#DejaVuSans-69"/>
       <use x="300.9765625" xlink:href="#DejaVuSans-70"/>
       <use x="364.453125" xlink:href="#DejaVuSans-74"/>
       <use x="403.662109375" xlink:href="#DejaVuSans-69"/>
       <use x="431.4453125" xlink:href="#DejaVuSans-6f"/>
       <use x="492.626953125" xlink:href="#DejaVuSans-6e"/>
       <use x="556.005859375" xlink:href="#DejaVuSans-48"/>
       <use x="631.201171875" xlink:href="#DejaVuSans-74"/>
       <use x="670.41015625" xlink:href="#DejaVuSans-6d"/>
       <use x="767.822265625" xlink:href="#DejaVuSans-6c"/>
      </g>
     </g>
    </g>
    <g id="ytick_27">
     <g id="line2d_77">
      <g>
       <use style="stroke:#000000;stroke-linecap:butt;stroke-width:0.5;" x="411.183125" xlink:href="#m05882014de" y="48.135538675"/>
      </g>
     </g>
     <g id="line2d_78">
      <g>
       <use style="stroke:#000000;stroke-linecap:butt;stroke-width:0.5;" x="552.2445" xlink:href="#m8068901f32" y="48.135538675"/>
      </g>
     </g>
     <g id="text_41">
      <!-- pictureCount -->
      <g transform="translate(333.016875 51.446788675)scale(0.12 -0.12)">
       <use xlink:href="#DejaVuSans-70"/>
       <use x="63.4765625" xlink:href="#DejaVuSans-69"/>
       <use x="91.259765625" xlink:href="#DejaVuSans-63"/>
       <use x="146.240234375" xlink:href="#DejaVuSans-74"/>
       <use x="185.44921875" xlink:href="#DejaVuSans-75"/>
       <use x="248.828125" xlink:href="#DejaVuSans-72"/>
       <use x="287.69140625" xlink:href="#DejaVuSans-65"/>
       <use x="349.21484375" xlink:href="#DejaVuSans-43"/>
       <use x="419.0390625" xlink:href="#DejaVuSans-6f"/>
       <use x="480.220703125" xlink:href="#DejaVuSans-75"/>
       <use x="543.599609375" xlink:href="#DejaVuSans-6e"/>
       <use x="606.978515625" xlink:href="#DejaVuSans-74"/>
      </g>
     </g>
    </g>
    <g id="ytick_28">
     <g id="line2d_79">
      <g>
       <use style="stroke:#000000;stroke-linecap:butt;stroke-width:0.5;" x="411.183125" xlink:href="#m05882014de" y="29.247575"/>
      </g>
     </g>
     <g id="line2d_80">
      <g>
       <use style="stroke:#000000;stroke-linecap:butt;stroke-width:0.5;" x="552.2445" xlink:href="#m8068901f32" y="29.247575"/>
      </g>
     </g>
     <g id="text_42">
      <!-- starRating -->
      <g transform="translate(348.999375 32.558825)scale(0.12 -0.12)">
       <use xlink:href="#DejaVuSans-73"/>
       <use x="52.099609375" xlink:href="#DejaVuSans-74"/>
       <use x="91.30859375" xlink:href="#DejaVuSans-61"/>
       <use x="152.587890625" xlink:href="#DejaVuSans-72"/>
       <use x="193.701171875" xlink:href="#DejaVuSans-52"/>
       <use x="260.93359375" xlink:href="#DejaVuSans-61"/>
       <use x="322.212890625" xlink:href="#DejaVuSans-74"/>
       <use x="361.421875" xlink:href="#DejaVuSans-69"/>
       <use x="389.205078125" xlink:href="#DejaVuSans-6e"/>
       <use x="452.583984375" xlink:href="#DejaVuSans-67"/>
      </g>
     </g>
    </g>
    <g id="text_43">
     <!-- Partial dependence -->
     <g transform="translate(209.81875 264.65738125)rotate(-90.0)scale(0.12 -0.12)">
      <use xlink:href="#DejaVuSans-50"/>
      <use x="55.802734375" xlink:href="#DejaVuSans-61"/>
      <use x="117.08203125" xlink:href="#DejaVuSans-72"/>
      <use x="158.1953125" xlink:href="#DejaVuSans-74"/>
      <use x="197.404296875" xlink:href="#DejaVuSans-69"/>
      <use x="225.1875" xlink:href="#DejaVuSans-61"/>
      <use x="286.466796875" xlink:href="#DejaVuSans-6c"/>
      <use x="314.25" xlink:href="#DejaVuSans-20"/>
      <use x="346.037109375" xlink:href="#DejaVuSans-64"/>
      <use x="409.513671875" xlink:href="#DejaVuSans-65"/>
      <use x="471.037109375" xlink:href="#DejaVuSans-70"/>
      <use x="534.513671875" xlink:href="#DejaVuSans-65"/>
      <use x="596.037109375" xlink:href="#DejaVuSans-6e"/>
      <use x="659.416015625" xlink:href="#DejaVuSans-64"/>
      <use x="722.892578125" xlink:href="#DejaVuSans-65"/>
      <use x="784.416015625" xlink:href="#DejaVuSans-6e"/>
      <use x="847.794921875" xlink:href="#DejaVuSans-63"/>
      <use x="902.775390625" xlink:href="#DejaVuSans-65"/>
     </g>
    </g>
   </g>
   <g id="patch_28">
    <path d="
M411.183 29.2476
L552.245 29.2476" style="fill:none;stroke:#000000;"/>
   </g>
   <g id="patch_29">
    <path d="
M552.245 389.978
L552.245 29.2476" style="fill:none;stroke:#000000;"/>
   </g>
   <g id="patch_30">
    <path d="
M411.183 389.978
L552.245 389.978" style="fill:none;stroke:#000000;"/>
   </g>
   <g id="patch_31">
    <path d="
M411.183 389.978
L411.183 29.2476" style="fill:none;stroke:#000000;"/>
   </g>
   <g id="text_44">
    <!-- Variable Importance -->
    <defs>
     <path d="
M28.6094 0
L0.78125 72.9062
L11.0781 72.9062
L34.1875 11.5312
L57.3281 72.9062
L67.5781 72.9062
L39.7969 0
z
" id="DejaVuSans-56"/>
    </defs>
    <g transform="translate(409.3954375 24.247575)scale(0.144 -0.144)">
     <use xlink:href="#DejaVuSans-56"/>
     <use x="60.658203125" xlink:href="#DejaVuSans-61"/>
     <use x="121.9375" xlink:href="#DejaVuSans-72"/>
     <use x="163.05078125" xlink:href="#DejaVuSans-69"/>
     <use x="190.833984375" xlink:href="#DejaVuSans-61"/>
     <use x="252.11328125" xlink:href="#DejaVuSans-62"/>
     <use x="315.58984375" xlink:href="#DejaVuSans-6c"/>
     <use x="343.373046875" xlink:href="#DejaVuSans-65"/>
     <use x="404.896484375" xlink:href="#DejaVuSans-20"/>
     <use x="436.68359375" xlink:href="#DejaVuSans-49"/>
     <use x="466.17578125" xlink:href="#DejaVuSans-6d"/>
     <use x="563.587890625" xlink:href="#DejaVuSans-70"/>
     <use x="627.064453125" xlink:href="#DejaVuSans-6f"/>
     <use x="688.24609375" xlink:href="#DejaVuSans-72"/>
     <use x="729.359375" xlink:href="#DejaVuSans-74"/>
     <use x="768.568359375" xlink:href="#DejaVuSans-61"/>
     <use x="829.84765625" xlink:href="#DejaVuSans-6e"/>
     <use x="893.2265625" xlink:href="#DejaVuSans-63"/>
     <use x="948.20703125" xlink:href="#DejaVuSans-65"/>
    </g>
   </g>
  </g>
  <g id="text_45">
   <!-- Partial dependence of concerns on most important features -->
   <g transform="translate(109.2609375 17.758125)scale(0.12 -0.12)">
    <use xlink:href="#DejaVuSans-50"/>
    <use x="55.802734375" xlink:href="#DejaVuSans-61"/>
    <use x="117.08203125" xlink:href="#DejaVuSans-72"/>
    <use x="158.1953125" xlink:href="#DejaVuSans-74"/>
    <use x="197.404296875" xlink:href="#DejaVuSans-69"/>
    <use x="225.1875" xlink:href="#DejaVuSans-61"/>
    <use x="286.466796875" xlink:href="#DejaVuSans-6c"/>
    <use x="314.25" xlink:href="#DejaVuSans-20"/>
    <use x="346.037109375" xlink:href="#DejaVuSans-64"/>
    <use x="409.513671875" xlink:href="#DejaVuSans-65"/>
    <use x="471.037109375" xlink:href="#DejaVuSans-70"/>
    <use x="534.513671875" xlink:href="#DejaVuSans-65"/>
    <use x="596.037109375" xlink:href="#DejaVuSans-6e"/>
    <use x="659.416015625" xlink:href="#DejaVuSans-64"/>
    <use x="722.892578125" xlink:href="#DejaVuSans-65"/>
    <use x="784.416015625" xlink:href="#DejaVuSans-6e"/>
    <use x="847.794921875" xlink:href="#DejaVuSans-63"/>
    <use x="902.775390625" xlink:href="#DejaVuSans-65"/>
    <use x="964.298828125" xlink:href="#DejaVuSans-20"/>
    <use x="996.0859375" xlink:href="#DejaVuSans-6f"/>
    <use x="1057.26757812" xlink:href="#DejaVuSans-66"/>
    <use x="1092.47265625" xlink:href="#DejaVuSans-20"/>
    <use x="1124.25976562" xlink:href="#DejaVuSans-63"/>
    <use x="1179.24023438" xlink:href="#DejaVuSans-6f"/>
    <use x="1240.421875" xlink:href="#DejaVuSans-6e"/>
    <use x="1303.80078125" xlink:href="#DejaVuSans-63"/>
    <use x="1358.78125" xlink:href="#DejaVuSans-65"/>
    <use x="1420.3046875" xlink:href="#DejaVuSans-72"/>
    <use x="1459.66796875" xlink:href="#DejaVuSans-6e"/>
    <use x="1523.046875" xlink:href="#DejaVuSans-73"/>
    <use x="1575.14648438" xlink:href="#DejaVuSans-20"/>
    <use x="1606.93359375" xlink:href="#DejaVuSans-6f"/>
    <use x="1668.11523438" xlink:href="#DejaVuSans-6e"/>
    <use x="1731.49414062" xlink:href="#DejaVuSans-20"/>
    <use x="1763.28125" xlink:href="#DejaVuSans-6d"/>
    <use x="1860.69335938" xlink:href="#DejaVuSans-6f"/>
    <use x="1921.875" xlink:href="#DejaVuSans-73"/>
    <use x="1973.97460938" xlink:href="#DejaVuSans-74"/>
    <use x="2013.18359375" xlink:href="#DejaVuSans-20"/>
    <use x="2044.97070312" xlink:href="#DejaVuSans-69"/>
    <use x="2072.75390625" xlink:href="#DejaVuSans-6d"/>
    <use x="2170.16601562" xlink:href="#DejaVuSans-70"/>
    <use x="2233.64257812" xlink:href="#DejaVuSans-6f"/>
    <use x="2294.82421875" xlink:href="#DejaVuSans-72"/>
    <use x="2335.9375" xlink:href="#DejaVuSans-74"/>
    <use x="2375.14648438" xlink:href="#DejaVuSans-61"/>
    <use x="2436.42578125" xlink:href="#DejaVuSans-6e"/>
    <use x="2499.8046875" xlink:href="#DejaVuSans-74"/>
    <use x="2539.01367188" xlink:href="#DejaVuSans-20"/>
    <use x="2570.80078125" xlink:href="#DejaVuSans-66"/>
    <use x="2606.00585938" xlink:href="#DejaVuSans-65"/>
    <use x="2667.52929688" xlink:href="#DejaVuSans-61"/>
    <use x="2728.80859375" xlink:href="#DejaVuSans-74"/>
    <use x="2768.01757812" xlink:href="#DejaVuSans-75"/>
    <use x="2831.39648438" xlink:href="#DejaVuSans-72"/>
    <use x="2870.25976562" xlink:href="#DejaVuSans-65"/>
    <use x="2931.78320312" xlink:href="#DejaVuSans-73"/>
   </g>
  </g>
 </g>
 <defs>
  <clipPath id="p97a3f4f35c">
   <rect height="360.7308625" width="141.061375" x="63.3414375" y="29.247575"/>
  </clipPath>
  <clipPath id="p5dc8d8dae9">
   <rect height="360.7308625" width="141.061375" x="411.183125" y="29.247575"/>
  </clipPath>
 </defs>
</svg>
